M48
METRIC,LZ,000.000
;FILE_FORMAT=3:3
;TYPE=PLATED
;Layer: PTH_Through
;EasyEDA v6.5.51, 2025-08-29 13:17:01
;9dbd3623970045be9e5ad1379a4f5d38,14c8f2514d444a3a831de9b613ea4171,10
;Gerber Generator version 0.2
;Holesize 1 = 0.310 mm
T01C0.310
;Holesize 2 = 0.889 mm
T02C0.889
;Holesize 3 = 0.915 mm
T03C0.915
;Holesize 4 = 1.000 mm
T04C1.000
;Holesize 5 = 1.200 mm
T05C1.200
%
G05
G90
T01
X043434Y-006223
X050038Y-008890
X040005Y-009398
X037084Y-009525
X066675Y-009271
X057277Y-011303
X051435Y-009525
X069850Y-013589
X036322Y-010287
X034417Y-003683
X068580Y-005588
X058039Y-005207
X086233Y-003556
X065151Y-009017
X045847Y-014351
X075311Y-013208
X073660Y-005715
T02
X031750Y-017018
X029210Y-017018
X026670Y-017018
X024130Y-017018
X031750Y-001778
X029210Y-001778
X026670Y-001778
X024130Y-001778
X095250Y-001778
X092710Y-001778
X090170Y-001778
X087630Y-001778
X095250Y-017018
X092710Y-017018
X090170Y-017018
X087630Y-017018
X008625Y-003894
X006085Y-003894
X008625Y-006434
X006085Y-006434
X008625Y-008974
X006085Y-008974
X008625Y-011514
X006085Y-011514
X008625Y-014054
X006085Y-014054
T03
X027559Y-013208
X027559Y-010668
X027559Y-008128
X027559Y-005588
T04
X018161Y-006449
X018161Y-002949
X017526Y-015466
X017526Y-011966
T05
X036830Y-017018
X039370Y-017018
X041910Y-017018
X044450Y-017018
X046990Y-017018
X049530Y-017018
X052070Y-017018
X054610Y-017018
X057150Y-017018
X059690Y-017018
X062230Y-017018
X064770Y-017018
X067310Y-017018
X069850Y-017018
X072390Y-017018
X074930Y-017018
X077470Y-017018
X080010Y-017018
X082550Y-017018
X085090Y-017018
X036830Y-001778
X039370Y-001778
X041910Y-001778
X044450Y-001778
X046990Y-001778
X049530Y-001778
X052070Y-001778
X054610Y-001778
X057150Y-001778
X059690Y-001778
X062230Y-001778
X064770Y-001778
X067310Y-001778
X069850Y-001778
X072390Y-001778
X074930Y-001778
X077470Y-001778
X080010Y-001778
X082550Y-001778
X085090Y-001778
M30
