G04 Layer: BottomSolderMaskLayer*
G04 EasyEDA v6.5.51, 2025-08-29 13:17:01*
G04 9dbd3623970045be9e5ad1379a4f5d38,14c8f2514d444a3a831de9b613ea4171,10*
G04 Gerber Generator version 0.2*
G04 Scale: 100 percent, Rotated: No, Reflected: No *
G04 Dimensions in millimeters *
G04 leading zeros omitted , absolute positions ,4 integer and 5 decimal *
%FSLAX45Y45*%
%MOMM*%

%AMMACRO1*4,1,8,-0.8085,-0.8382,-0.8382,-0.8084,-0.8382,0.8085,-0.8085,0.8382,0.8084,0.8382,0.8382,0.8085,0.8382,-0.8084,0.8084,-0.8382,-0.8085,-0.8382,0*%
%AMMACRO2*4,1,8,-0.9211,-0.9508,-0.9508,-0.921,-0.9508,0.9211,-0.9211,0.9508,0.921,0.9508,0.9508,0.9211,0.9508,-0.921,0.921,-0.9508,-0.9211,-0.9508,0*%
%AMMACRO3*4,1,8,-0.7831,-0.8128,-0.8128,-0.783,-0.8128,0.7831,-0.7831,0.8128,0.783,0.8128,0.8128,0.7831,0.8128,-0.783,0.783,-0.8128,-0.7831,-0.8128,0*%
%ADD10MACRO1*%
%ADD11C,1.6764*%
%ADD12C,1.7016*%
%ADD13C,1.9016*%
%ADD14MACRO2*%
%ADD15MACRO3*%
%ADD16C,0.0156*%
%ADD17C,1.6256*%

%LPD*%
D10*
G01*
X3174994Y-1701797D03*
D11*
G01*
X2921000Y-1701800D03*
G01*
X2667000Y-1701800D03*
G01*
X2413000Y-1701800D03*
D10*
G01*
X3174994Y-177800D03*
D11*
G01*
X2921000Y-177800D03*
G01*
X2667000Y-177800D03*
G01*
X2413000Y-177800D03*
D12*
G01*
X1816100Y-644905D03*
G01*
X1816100Y-294894D03*
G01*
X1752600Y-1546605D03*
G01*
X1752600Y-1196594D03*
D13*
G01*
X3683000Y-1701800D03*
G01*
X3937000Y-1701800D03*
G01*
X4191000Y-1701800D03*
G01*
X4445000Y-1701800D03*
G01*
X4699000Y-1701800D03*
G01*
X4953000Y-1701800D03*
G01*
X5207000Y-1701800D03*
G01*
X5461000Y-1701800D03*
G01*
X5715000Y-1701800D03*
G01*
X5969000Y-1701800D03*
G01*
X6223000Y-1701800D03*
G01*
X6477000Y-1701800D03*
G01*
X6731000Y-1701800D03*
G01*
X6985000Y-1701800D03*
G01*
X7239000Y-1701800D03*
G01*
X7493000Y-1701800D03*
G01*
X7747000Y-1701800D03*
G01*
X8001000Y-1701800D03*
G01*
X8255000Y-1701800D03*
D14*
G01*
X8508987Y-1701797D03*
D10*
G01*
X9524982Y-177800D03*
D11*
G01*
X9270974Y-177800D03*
G01*
X9016974Y-177800D03*
G01*
X8762974Y-177800D03*
D10*
G01*
X9524982Y-1701797D03*
D11*
G01*
X9270974Y-1701800D03*
G01*
X9016974Y-1701800D03*
G01*
X8762974Y-1701800D03*
D15*
G01*
X2755894Y-1320797D03*
D17*
G01*
X2755900Y-1066800D03*
G01*
X2755900Y-812800D03*
G01*
X2755900Y-558800D03*
D11*
G01*
X862507Y-389381D03*
G01*
X608507Y-389381D03*
G01*
X862507Y-643381D03*
G01*
X608507Y-643381D03*
G01*
X862507Y-897381D03*
G01*
X608507Y-897381D03*
G01*
X862507Y-1151381D03*
G01*
X608507Y-1151381D03*
G01*
X862507Y-1405381D03*
D10*
G01*
X608497Y-1405392D03*
D13*
G01*
X3683000Y-177800D03*
G01*
X3937000Y-177800D03*
G01*
X4191000Y-177800D03*
G01*
X4445000Y-177800D03*
G01*
X4699000Y-177800D03*
G01*
X4953000Y-177800D03*
G01*
X5207000Y-177800D03*
G01*
X5461000Y-177800D03*
G01*
X5715000Y-177800D03*
G01*
X5969000Y-177800D03*
G01*
X6223000Y-177800D03*
G01*
X6477000Y-177800D03*
G01*
X6731000Y-177800D03*
G01*
X6985000Y-177800D03*
G01*
X7239000Y-177800D03*
G01*
X7493000Y-177800D03*
G01*
X7747000Y-177800D03*
G01*
X8001000Y-177800D03*
G01*
X8255000Y-177800D03*
D14*
G01*
X8508987Y-177800D03*
M02*
