G04 Layer: BottomSilkscreenLayer*
G04 EasyEDA v6.5.51, 2025-08-29 13:17:01*
G04 9dbd3623970045be9e5ad1379a4f5d38,14c8f2514d444a3a831de9b613ea4171,10*
G04 Gerber Generator version 0.2*
G04 Scale: 100 percent, Rotated: No, Reflected: No *
G04 Dimensions in millimeters *
G04 leading zeros omitted , absolute positions ,4 integer and 5 decimal *
%FSLAX45Y45*%
%MOMM*%

%ADD10C,0.2032*%
%ADD11C,0.2000*%
%ADD12C,0.1500*%
%ADD13C,0.1800*%
%ADD14C,0.1000*%
%ADD15C,0.1300*%
%ADD16C,0.1524*%
%ADD17C,0.2030*%
%ADD18C,0.2540*%
%ADD19C,0.0122*%

%LPD*%
D10*
X1257294Y-1613585D02*
G01*
X1257294Y-1709041D01*
X1257294Y-1613585D02*
G01*
X1216385Y-1613585D01*
X1202748Y-1618132D01*
X1198204Y-1622676D01*
X1193657Y-1631767D01*
X1193657Y-1640857D01*
X1198204Y-1649948D01*
X1202748Y-1654495D01*
X1216385Y-1659041D01*
X1257294Y-1659041D01*
X1225476Y-1659041D02*
G01*
X1193657Y-1709041D01*
X1163657Y-1613585D02*
G01*
X1163657Y-1709041D01*
X1163657Y-1613585D02*
G01*
X1104567Y-1613585D01*
X1163657Y-1659041D02*
G01*
X1127295Y-1659041D01*
X1163657Y-1709041D02*
G01*
X1104567Y-1709041D01*
X1074567Y-1613585D02*
G01*
X1074567Y-1709041D01*
X1074567Y-1613585D02*
G01*
X1042748Y-1613585D01*
X1029114Y-1618132D01*
X1020023Y-1627223D01*
X1015476Y-1636313D01*
X1010932Y-1649948D01*
X1010932Y-1672676D01*
X1015476Y-1686313D01*
X1020023Y-1695404D01*
X1029114Y-1704494D01*
X1042748Y-1709041D01*
X1074567Y-1709041D01*
X847295Y-1627223D02*
G01*
X856386Y-1618132D01*
X870023Y-1613585D01*
X888204Y-1613585D01*
X901842Y-1618132D01*
X910932Y-1627223D01*
X910932Y-1636313D01*
X906386Y-1645404D01*
X901842Y-1649948D01*
X892749Y-1654495D01*
X865477Y-1663585D01*
X856386Y-1668132D01*
X851842Y-1672676D01*
X847295Y-1681767D01*
X847295Y-1695404D01*
X856386Y-1704494D01*
X870023Y-1709041D01*
X888204Y-1709041D01*
X901842Y-1704494D01*
X910932Y-1695404D01*
X785477Y-1613585D02*
G01*
X785477Y-1709041D01*
X817295Y-1613585D02*
G01*
X753658Y-1613585D01*
X723658Y-1613585D02*
G01*
X723658Y-1709041D01*
X723658Y-1613585D02*
G01*
X682749Y-1613585D01*
X669114Y-1618132D01*
X664568Y-1622676D01*
X660024Y-1631767D01*
X660024Y-1640857D01*
X664568Y-1649948D01*
X669114Y-1654495D01*
X682749Y-1659041D01*
X723658Y-1659041D01*
X691842Y-1659041D02*
G01*
X660024Y-1709041D01*
X630024Y-1613585D02*
G01*
X630024Y-1709041D01*
X600024Y-1613585D02*
G01*
X600024Y-1709041D01*
X600024Y-1613585D02*
G01*
X559114Y-1613585D01*
X545477Y-1618132D01*
X540933Y-1622676D01*
X536387Y-1631767D01*
X536387Y-1645404D01*
X540933Y-1654495D01*
X545477Y-1659041D01*
X559114Y-1663585D01*
X600024Y-1663585D01*
X506387Y-1613585D02*
G01*
X506387Y-1709041D01*
X506387Y-1613585D02*
G01*
X447296Y-1613585D01*
X506387Y-1659041D02*
G01*
X470024Y-1659041D01*
X506387Y-1709041D02*
G01*
X447296Y-1709041D01*
X1999993Y-165105D02*
G01*
X1995421Y-174249D01*
X1981959Y-187711D01*
X2077463Y-187711D01*
X1981959Y-245115D02*
G01*
X1986531Y-231399D01*
X1999993Y-222255D01*
X2022853Y-217937D01*
X2036315Y-217937D01*
X2059175Y-222255D01*
X2072891Y-231399D01*
X2077463Y-245115D01*
X2077463Y-254259D01*
X2072891Y-267721D01*
X2059175Y-276865D01*
X2036315Y-281437D01*
X2022853Y-281437D01*
X1999993Y-276865D01*
X1986531Y-267721D01*
X1981959Y-254259D01*
X1981959Y-245115D01*
X1981959Y-338841D02*
G01*
X1986531Y-325125D01*
X1999993Y-315981D01*
X2022853Y-311409D01*
X2036315Y-311409D01*
X2059175Y-315981D01*
X2072891Y-325125D01*
X2077463Y-338841D01*
X2077463Y-347731D01*
X2072891Y-361447D01*
X2059175Y-370591D01*
X2036315Y-375163D01*
X2022853Y-375163D01*
X1999993Y-370591D01*
X1986531Y-361447D01*
X1981959Y-347731D01*
X1981959Y-338841D01*
X2013709Y-405135D02*
G01*
X2059175Y-405135D01*
X2072891Y-409707D01*
X2077463Y-418851D01*
X2077463Y-432313D01*
X2072891Y-441457D01*
X2059175Y-455173D01*
X2013709Y-455173D02*
G01*
X2077463Y-455173D01*
X1981959Y-485145D02*
G01*
X2077463Y-485145D01*
X1981959Y-485145D02*
G01*
X1981959Y-544073D01*
X2027425Y-485145D02*
G01*
X2027425Y-521467D01*
X1911093Y-1168402D02*
G01*
X1906521Y-1177546D01*
X1893059Y-1191008D01*
X1988563Y-1191008D01*
X1893059Y-1248412D02*
G01*
X1897631Y-1234696D01*
X1911093Y-1225552D01*
X1933953Y-1221234D01*
X1947415Y-1221234D01*
X1970275Y-1225552D01*
X1983991Y-1234696D01*
X1988563Y-1248412D01*
X1988563Y-1257556D01*
X1983991Y-1271018D01*
X1970275Y-1280162D01*
X1947415Y-1284734D01*
X1933953Y-1284734D01*
X1911093Y-1280162D01*
X1897631Y-1271018D01*
X1893059Y-1257556D01*
X1893059Y-1248412D01*
X1893059Y-1342138D02*
G01*
X1897631Y-1328422D01*
X1911093Y-1319278D01*
X1933953Y-1314706D01*
X1947415Y-1314706D01*
X1970275Y-1319278D01*
X1983991Y-1328422D01*
X1988563Y-1342138D01*
X1988563Y-1351028D01*
X1983991Y-1364744D01*
X1970275Y-1373888D01*
X1947415Y-1378460D01*
X1933953Y-1378460D01*
X1911093Y-1373888D01*
X1897631Y-1364744D01*
X1893059Y-1351028D01*
X1893059Y-1342138D01*
X1924809Y-1408432D02*
G01*
X1970275Y-1408432D01*
X1983991Y-1413004D01*
X1988563Y-1422148D01*
X1988563Y-1435610D01*
X1983991Y-1444754D01*
X1970275Y-1458470D01*
X1924809Y-1458470D02*
G01*
X1988563Y-1458470D01*
X1893059Y-1488442D02*
G01*
X1988563Y-1488442D01*
X1893059Y-1488442D02*
G01*
X1893059Y-1547370D01*
X1938525Y-1488442D02*
G01*
X1938525Y-1524764D01*
X8545570Y-1066774D02*
G01*
X8554460Y-1075664D01*
X8559032Y-1089380D01*
X8559032Y-1107668D01*
X8554460Y-1121130D01*
X8545570Y-1130274D01*
X8536426Y-1130274D01*
X8527282Y-1125702D01*
X8522710Y-1121130D01*
X8518138Y-1111986D01*
X8508994Y-1084808D01*
X8504676Y-1075664D01*
X8500104Y-1071092D01*
X8490960Y-1066774D01*
X8477244Y-1066774D01*
X8468100Y-1075664D01*
X8463528Y-1089380D01*
X8463528Y-1107668D01*
X8468100Y-1121130D01*
X8477244Y-1130274D01*
X8559032Y-1036548D02*
G01*
X8463528Y-1036548D01*
X8559032Y-1036548D02*
G01*
X8559032Y-977620D01*
X8513566Y-1036548D02*
G01*
X8513566Y-1000226D01*
X8463528Y-1036548D02*
G01*
X8463528Y-977620D01*
X8559032Y-947648D02*
G01*
X8463528Y-947648D01*
X8559032Y-947648D02*
G01*
X8559032Y-888466D01*
X8513566Y-947648D02*
G01*
X8513566Y-911326D01*
X8463528Y-947648D02*
G01*
X8463528Y-888466D01*
X8559032Y-858494D02*
G01*
X8463528Y-858494D01*
X8559032Y-858494D02*
G01*
X8559032Y-826744D01*
X8554460Y-813028D01*
X8545570Y-803884D01*
X8536426Y-799312D01*
X8522710Y-794740D01*
X8500104Y-794740D01*
X8486388Y-799312D01*
X8477244Y-803884D01*
X8468100Y-813028D01*
X8463528Y-826744D01*
X8463528Y-858494D01*
X8357610Y-1130274D02*
G01*
X8289284Y-1130274D01*
X8275568Y-1125702D01*
X8266678Y-1116558D01*
X8262106Y-1103096D01*
X8262106Y-1093952D01*
X8266678Y-1080236D01*
X8275568Y-1071092D01*
X8289284Y-1066774D01*
X8357610Y-1066774D01*
X8343894Y-973048D02*
G01*
X8353038Y-982192D01*
X8357610Y-995654D01*
X8357610Y-1013942D01*
X8353038Y-1027658D01*
X8343894Y-1036548D01*
X8334750Y-1036548D01*
X8325606Y-1032230D01*
X8321034Y-1027658D01*
X8316716Y-1018514D01*
X8307572Y-991082D01*
X8303000Y-982192D01*
X8298428Y-977620D01*
X8289284Y-973048D01*
X8275568Y-973048D01*
X8266678Y-982192D01*
X8262106Y-995654D01*
X8262106Y-1013942D01*
X8266678Y-1027658D01*
X8275568Y-1036548D01*
X8357610Y-943076D02*
G01*
X8262106Y-943076D01*
X8357610Y-943076D02*
G01*
X8357610Y-902182D01*
X8353038Y-888466D01*
X8348466Y-883894D01*
X8339322Y-879322D01*
X8330178Y-879322D01*
X8321034Y-883894D01*
X8316716Y-888466D01*
X8312144Y-902182D01*
X8312144Y-943076D02*
G01*
X8312144Y-902182D01*
X8307572Y-888466D01*
X8303000Y-883894D01*
X8293856Y-879322D01*
X8280140Y-879322D01*
X8271250Y-883894D01*
X8266678Y-888466D01*
X8262106Y-902182D01*
X8262106Y-943076D01*
X9298363Y-528718D02*
G01*
X9307454Y-533262D01*
X9316544Y-542353D01*
X9321091Y-551446D01*
X9321091Y-569628D01*
X9316544Y-578718D01*
X9307454Y-587809D01*
X9298363Y-592353D01*
X9284728Y-596900D01*
X9262000Y-596900D01*
X9248363Y-592353D01*
X9239272Y-587809D01*
X9230182Y-578718D01*
X9225635Y-569628D01*
X9225635Y-551446D01*
X9230182Y-542353D01*
X9239272Y-533262D01*
X9248363Y-528718D01*
X9262000Y-528718D01*
X9262000Y-551446D02*
G01*
X9262000Y-528718D01*
X9321091Y-498718D02*
G01*
X9225635Y-498718D01*
X9321091Y-498718D02*
G01*
X9225635Y-435081D01*
X9321091Y-435081D02*
G01*
X9225635Y-435081D01*
X9321091Y-405081D02*
G01*
X9225635Y-405081D01*
X9321091Y-405081D02*
G01*
X9321091Y-373263D01*
X9316544Y-359628D01*
X9307454Y-350537D01*
X9298363Y-345991D01*
X9284728Y-341447D01*
X9262000Y-341447D01*
X9248363Y-345991D01*
X9239272Y-350537D01*
X9230182Y-359628D01*
X9225635Y-373263D01*
X9225635Y-405081D01*
X9298363Y-1443116D02*
G01*
X9307454Y-1447660D01*
X9316544Y-1456750D01*
X9321091Y-1465844D01*
X9321091Y-1484025D01*
X9316544Y-1493116D01*
X9307454Y-1502206D01*
X9298363Y-1506750D01*
X9284728Y-1511297D01*
X9262000Y-1511297D01*
X9248363Y-1506750D01*
X9239272Y-1502206D01*
X9230182Y-1493116D01*
X9225635Y-1484025D01*
X9225635Y-1465844D01*
X9230182Y-1456750D01*
X9239272Y-1447660D01*
X9248363Y-1443116D01*
X9262000Y-1443116D01*
X9262000Y-1465844D02*
G01*
X9262000Y-1443116D01*
X9321091Y-1413116D02*
G01*
X9225635Y-1413116D01*
X9321091Y-1413116D02*
G01*
X9225635Y-1349479D01*
X9321091Y-1349479D02*
G01*
X9225635Y-1349479D01*
X9321091Y-1319479D02*
G01*
X9225635Y-1319479D01*
X9321091Y-1319479D02*
G01*
X9321091Y-1287660D01*
X9316544Y-1274025D01*
X9307454Y-1264935D01*
X9298363Y-1260388D01*
X9284728Y-1255844D01*
X9262000Y-1255844D01*
X9248363Y-1260388D01*
X9239272Y-1264935D01*
X9230182Y-1274025D01*
X9225635Y-1287660D01*
X9225635Y-1319479D01*
X9067083Y-903437D02*
G01*
X8971627Y-939800D01*
X9067083Y-903437D02*
G01*
X8971627Y-867072D01*
X9003446Y-926162D02*
G01*
X9003446Y-880709D01*
X9067083Y-739800D02*
G01*
X9062537Y-748891D01*
X9053446Y-757981D01*
X9044355Y-762528D01*
X9030721Y-767072D01*
X9007993Y-767072D01*
X8994355Y-762528D01*
X8985265Y-757981D01*
X8976174Y-748891D01*
X8971627Y-739800D01*
X8971627Y-721619D01*
X8976174Y-712528D01*
X8985265Y-703437D01*
X8994355Y-698891D01*
X9007993Y-694347D01*
X9030721Y-694347D01*
X9044355Y-698891D01*
X9053446Y-703437D01*
X9062537Y-712528D01*
X9067083Y-721619D01*
X9067083Y-739800D01*
X9067083Y-664347D02*
G01*
X8998902Y-664347D01*
X8985265Y-659800D01*
X8976174Y-650709D01*
X8971627Y-637072D01*
X8971627Y-627981D01*
X8976174Y-614347D01*
X8985265Y-605254D01*
X8998902Y-600710D01*
X9067083Y-600710D01*
X9067083Y-538891D02*
G01*
X8971627Y-538891D01*
X9067083Y-570710D02*
G01*
X9067083Y-507072D01*
X9044355Y-402529D02*
G01*
X9048902Y-402529D01*
X9057993Y-397982D01*
X9062537Y-393438D01*
X9067083Y-384347D01*
X9067083Y-366163D01*
X9062537Y-357073D01*
X9057993Y-352529D01*
X9048902Y-347982D01*
X9039811Y-347982D01*
X9030721Y-352529D01*
X9017083Y-361619D01*
X8971627Y-407073D01*
X8971627Y-343438D01*
X9587783Y-890737D02*
G01*
X9492327Y-927100D01*
X9587783Y-890737D02*
G01*
X9492327Y-854372D01*
X9524146Y-913462D02*
G01*
X9524146Y-868009D01*
X9587783Y-727100D02*
G01*
X9583237Y-736191D01*
X9574146Y-745281D01*
X9565055Y-749828D01*
X9551421Y-754372D01*
X9528693Y-754372D01*
X9515055Y-749828D01*
X9505965Y-745281D01*
X9496874Y-736191D01*
X9492327Y-727100D01*
X9492327Y-708919D01*
X9496874Y-699828D01*
X9505965Y-690737D01*
X9515055Y-686191D01*
X9528693Y-681647D01*
X9551421Y-681647D01*
X9565055Y-686191D01*
X9574146Y-690737D01*
X9583237Y-699828D01*
X9587783Y-708919D01*
X9587783Y-727100D01*
X9587783Y-651647D02*
G01*
X9519602Y-651647D01*
X9505965Y-647100D01*
X9496874Y-638009D01*
X9492327Y-624372D01*
X9492327Y-615281D01*
X9496874Y-601647D01*
X9505965Y-592554D01*
X9519602Y-588010D01*
X9587783Y-588010D01*
X9587783Y-526191D02*
G01*
X9492327Y-526191D01*
X9587783Y-558010D02*
G01*
X9587783Y-494372D01*
X9569602Y-394373D02*
G01*
X9574146Y-385282D01*
X9587783Y-371647D01*
X9492327Y-371647D01*
X9587783Y-1487637D02*
G01*
X9492327Y-1524000D01*
X9587783Y-1487637D02*
G01*
X9492327Y-1451272D01*
X9524146Y-1510362D02*
G01*
X9524146Y-1464909D01*
X9587783Y-1351272D02*
G01*
X9492327Y-1351272D01*
X9587783Y-1321272D02*
G01*
X9492327Y-1321272D01*
X9587783Y-1321272D02*
G01*
X9492327Y-1257637D01*
X9587783Y-1257637D02*
G01*
X9492327Y-1257637D01*
X9569602Y-1157638D02*
G01*
X9574146Y-1148547D01*
X9587783Y-1134910D01*
X9492327Y-1134910D01*
X9079783Y-1487637D02*
G01*
X8984327Y-1524000D01*
X9079783Y-1487637D02*
G01*
X8984327Y-1451272D01*
X9016146Y-1510362D02*
G01*
X9016146Y-1464909D01*
X9079783Y-1351272D02*
G01*
X8984327Y-1351272D01*
X9079783Y-1321272D02*
G01*
X8984327Y-1321272D01*
X9079783Y-1321272D02*
G01*
X8984327Y-1257637D01*
X9079783Y-1257637D02*
G01*
X8984327Y-1257637D01*
X9057055Y-1153091D02*
G01*
X9061602Y-1153091D01*
X9070693Y-1148547D01*
X9075237Y-1144000D01*
X9079783Y-1134910D01*
X9079783Y-1116728D01*
X9075237Y-1107638D01*
X9070693Y-1103091D01*
X9061602Y-1098547D01*
X9052511Y-1098547D01*
X9043421Y-1103091D01*
X9029783Y-1112182D01*
X8984327Y-1157638D01*
X8984327Y-1094000D01*
D11*
X2260594Y-1453842D02*
G01*
X2383322Y-1453842D01*
X2428321Y-1508389D02*
G01*
X2441958Y-1515206D01*
X2462413Y-1535661D01*
X2462413Y-1392478D01*
X2514231Y-1501569D02*
G01*
X2514231Y-1508389D01*
X2521049Y-1522023D01*
X2527866Y-1528843D01*
X2541503Y-1535661D01*
X2568775Y-1535661D01*
X2582412Y-1528843D01*
X2589230Y-1522023D01*
X2596047Y-1508389D01*
X2596047Y-1494751D01*
X2589230Y-1481114D01*
X2575595Y-1460660D01*
X2507411Y-1392478D01*
X2602867Y-1392478D01*
X2334658Y-461109D02*
G01*
X2334658Y-338381D01*
X2273294Y-399745D02*
G01*
X2396022Y-399745D01*
X2441021Y-454291D02*
G01*
X2454658Y-461109D01*
X2475113Y-481563D01*
X2475113Y-338381D01*
X2526931Y-447471D02*
G01*
X2526931Y-454291D01*
X2533749Y-467926D01*
X2540566Y-474746D01*
X2554203Y-481563D01*
X2581475Y-481563D01*
X2595112Y-474746D01*
X2601930Y-467926D01*
X2608747Y-454291D01*
X2608747Y-440654D01*
X2601930Y-427017D01*
X2588295Y-406562D01*
X2520111Y-338381D01*
X2615567Y-338381D01*
D12*
X3405573Y-1760616D02*
G01*
X3414664Y-1765160D01*
X3423754Y-1774250D01*
X3428301Y-1783344D01*
X3428301Y-1801525D01*
X3423754Y-1810616D01*
X3414664Y-1819706D01*
X3405573Y-1824250D01*
X3391938Y-1828797D01*
X3369210Y-1828797D01*
X3355573Y-1824250D01*
X3346483Y-1819706D01*
X3337392Y-1810616D01*
X3332845Y-1801525D01*
X3332845Y-1783344D01*
X3337392Y-1774250D01*
X3346483Y-1765160D01*
X3355573Y-1760616D01*
X3369210Y-1760616D01*
X3369210Y-1783344D02*
G01*
X3369210Y-1760616D01*
X3428301Y-1730616D02*
G01*
X3332845Y-1730616D01*
X3428301Y-1730616D02*
G01*
X3332845Y-1666979D01*
X3428301Y-1666979D02*
G01*
X3332845Y-1666979D01*
X3428301Y-1636979D02*
G01*
X3332845Y-1636979D01*
X3428301Y-1636979D02*
G01*
X3428301Y-1605160D01*
X3423754Y-1591525D01*
X3414664Y-1582435D01*
X3405573Y-1577888D01*
X3391938Y-1573344D01*
X3369210Y-1573344D01*
X3355573Y-1577888D01*
X3346483Y-1582435D01*
X3337392Y-1591525D01*
X3332845Y-1605160D01*
X3332845Y-1636979D01*
X3405573Y-236618D02*
G01*
X3414664Y-241162D01*
X3423754Y-250253D01*
X3428301Y-259346D01*
X3428301Y-277528D01*
X3423754Y-286618D01*
X3414664Y-295709D01*
X3405573Y-300253D01*
X3391938Y-304800D01*
X3369210Y-304800D01*
X3355573Y-300253D01*
X3346483Y-295709D01*
X3337392Y-286618D01*
X3332845Y-277528D01*
X3332845Y-259346D01*
X3337392Y-250253D01*
X3346483Y-241162D01*
X3355573Y-236618D01*
X3369210Y-236618D01*
X3369210Y-259346D02*
G01*
X3369210Y-236618D01*
X3428301Y-206618D02*
G01*
X3332845Y-206618D01*
X3428301Y-206618D02*
G01*
X3332845Y-142981D01*
X3428301Y-142981D02*
G01*
X3332845Y-142981D01*
X3428301Y-112981D02*
G01*
X3332845Y-112981D01*
X3428301Y-112981D02*
G01*
X3428301Y-81163D01*
X3423754Y-67528D01*
X3414664Y-58437D01*
X3405573Y-53891D01*
X3391938Y-49347D01*
X3369210Y-49347D01*
X3355573Y-53891D01*
X3346483Y-58437D01*
X3337392Y-67528D01*
X3332845Y-81163D01*
X3332845Y-112981D01*
D10*
X8777671Y-1468513D02*
G01*
X8786761Y-1473057D01*
X8795852Y-1482148D01*
X8800398Y-1491241D01*
X8800398Y-1509422D01*
X8795852Y-1518513D01*
X8786761Y-1527604D01*
X8777671Y-1532148D01*
X8764036Y-1536694D01*
X8741308Y-1536694D01*
X8727671Y-1532148D01*
X8718580Y-1527604D01*
X8709489Y-1518513D01*
X8704943Y-1509422D01*
X8704943Y-1491241D01*
X8709489Y-1482148D01*
X8718580Y-1473057D01*
X8727671Y-1468513D01*
X8741308Y-1468513D01*
X8741308Y-1491241D02*
G01*
X8741308Y-1468513D01*
X8800398Y-1438513D02*
G01*
X8704943Y-1438513D01*
X8800398Y-1438513D02*
G01*
X8704943Y-1374876D01*
X8800398Y-1374876D02*
G01*
X8704943Y-1374876D01*
X8800398Y-1344876D02*
G01*
X8704943Y-1344876D01*
X8800398Y-1344876D02*
G01*
X8800398Y-1313058D01*
X8795852Y-1299423D01*
X8786761Y-1290332D01*
X8777671Y-1285786D01*
X8764036Y-1281242D01*
X8741308Y-1281242D01*
X8727671Y-1285786D01*
X8718580Y-1290332D01*
X8709489Y-1299423D01*
X8704943Y-1313058D01*
X8704943Y-1344876D01*
X8790371Y-528716D02*
G01*
X8799461Y-533260D01*
X8808552Y-542350D01*
X8813098Y-551444D01*
X8813098Y-569625D01*
X8808552Y-578716D01*
X8799461Y-587806D01*
X8790371Y-592350D01*
X8776736Y-596897D01*
X8754008Y-596897D01*
X8740371Y-592350D01*
X8731280Y-587806D01*
X8722189Y-578716D01*
X8717643Y-569625D01*
X8717643Y-551444D01*
X8722189Y-542350D01*
X8731280Y-533260D01*
X8740371Y-528716D01*
X8754008Y-528716D01*
X8754008Y-551444D02*
G01*
X8754008Y-528716D01*
X8813098Y-498716D02*
G01*
X8717643Y-498716D01*
X8813098Y-498716D02*
G01*
X8717643Y-435079D01*
X8813098Y-435079D02*
G01*
X8717643Y-435079D01*
X8813098Y-405079D02*
G01*
X8717643Y-405079D01*
X8813098Y-405079D02*
G01*
X8813098Y-373260D01*
X8808552Y-359625D01*
X8799461Y-350535D01*
X8790371Y-345988D01*
X8776736Y-341444D01*
X8754008Y-341444D01*
X8740371Y-345988D01*
X8731280Y-350535D01*
X8722189Y-359625D01*
X8717643Y-373260D01*
X8717643Y-405079D01*
D13*
X2834439Y-115582D02*
G01*
X2760804Y-115582D01*
X2797622Y-152400D02*
G01*
X2797622Y-78762D01*
D10*
X2578092Y-1795139D02*
G01*
X2496273Y-1795139D01*
X2832092Y-1795139D02*
G01*
X2750273Y-1795139D01*
D13*
X2580439Y-115582D02*
G01*
X2506804Y-115582D01*
X2543622Y-152400D02*
G01*
X2543622Y-78762D01*
D14*
X2947154Y-457207D02*
G01*
X3042658Y-457207D01*
X2947154Y-457207D02*
G01*
X2947154Y-498101D01*
X2951726Y-511817D01*
X2956298Y-516389D01*
X2965188Y-520961D01*
X2974332Y-520961D01*
X2983476Y-516389D01*
X2988048Y-511817D01*
X2992620Y-498101D01*
X2992620Y-457207D02*
G01*
X2992620Y-498101D01*
X2997192Y-511817D01*
X3001510Y-516389D01*
X3010654Y-520961D01*
X3024370Y-520961D01*
X3033514Y-516389D01*
X3038086Y-511817D01*
X3042658Y-498101D01*
X3042658Y-457207D01*
X2969760Y-555505D02*
G01*
X2965188Y-555505D01*
X2956298Y-559823D01*
X2951726Y-564395D01*
X2947154Y-573539D01*
X2947154Y-591827D01*
X2951726Y-600717D01*
X2956298Y-605289D01*
X2965188Y-609861D01*
X2974332Y-609861D01*
X2983476Y-605289D01*
X2997192Y-596399D01*
X3042658Y-550933D01*
X3042658Y-614433D01*
X2947154Y-689871D02*
G01*
X3010654Y-644405D01*
X3010654Y-712731D01*
X2947154Y-689871D02*
G01*
X3042658Y-689871D01*
X2947154Y-769881D02*
G01*
X2951726Y-756165D01*
X2965188Y-747275D01*
X2988048Y-742703D01*
X3001510Y-742703D01*
X3024370Y-747275D01*
X3038086Y-756165D01*
X3042658Y-769881D01*
X3042658Y-779025D01*
X3038086Y-792741D01*
X3024370Y-801631D01*
X3001510Y-806203D01*
X2988048Y-806203D01*
X2965188Y-801631D01*
X2951726Y-792741D01*
X2947154Y-779025D01*
X2947154Y-769881D01*
X2947154Y-890785D02*
G01*
X2947154Y-845319D01*
X2988048Y-840747D01*
X2983476Y-845319D01*
X2978904Y-859035D01*
X2978904Y-872751D01*
X2983476Y-886213D01*
X2992620Y-895357D01*
X3006082Y-899929D01*
X3015226Y-899929D01*
X3028942Y-895357D01*
X3038086Y-886213D01*
X3042658Y-872751D01*
X3042658Y-859035D01*
X3038086Y-845319D01*
X3033514Y-840747D01*
X3024370Y-836175D01*
X2960616Y-993655D02*
G01*
X2951726Y-984511D01*
X2947154Y-970795D01*
X2947154Y-952761D01*
X2951726Y-939045D01*
X2960616Y-929901D01*
X2969760Y-929901D01*
X2978904Y-934473D01*
X2983476Y-939045D01*
X2988048Y-948189D01*
X2997192Y-975367D01*
X3001510Y-984511D01*
X3006082Y-989083D01*
X3015226Y-993655D01*
X3028942Y-993655D01*
X3038086Y-984511D01*
X3042658Y-970795D01*
X3042658Y-952761D01*
X3038086Y-939045D01*
X3028942Y-929901D01*
X3001510Y-1023627D02*
G01*
X3001510Y-1105415D01*
X2965188Y-1135387D02*
G01*
X2960616Y-1144531D01*
X2947154Y-1157993D01*
X3042658Y-1157993D01*
X2947154Y-1188219D02*
G01*
X3042658Y-1210825D01*
X2947154Y-1233685D02*
G01*
X3042658Y-1210825D01*
X2947154Y-1233685D02*
G01*
X3042658Y-1256291D01*
X2947154Y-1278897D02*
G01*
X3042658Y-1256291D01*
X2947154Y-1309123D02*
G01*
X3042658Y-1309123D01*
X2947154Y-1309123D02*
G01*
X2947154Y-1350017D01*
X2951726Y-1363479D01*
X2956298Y-1368051D01*
X2965188Y-1372623D01*
X2974332Y-1372623D01*
X2983476Y-1368051D01*
X2988048Y-1363479D01*
X2992620Y-1350017D01*
X2992620Y-1309123D01*
X2992620Y-1340873D02*
G01*
X3042658Y-1372623D01*
X2947154Y-1411739D02*
G01*
X2947154Y-1461777D01*
X2983476Y-1434345D01*
X2983476Y-1448061D01*
X2988048Y-1457205D01*
X2992620Y-1461777D01*
X3006082Y-1466349D01*
X3015226Y-1466349D01*
X3028942Y-1461777D01*
X3038086Y-1452633D01*
X3042658Y-1438917D01*
X3042658Y-1425455D01*
X3038086Y-1411739D01*
X3033514Y-1407167D01*
X3024370Y-1402595D01*
D15*
X8305093Y-546100D02*
G01*
X8209638Y-509737D01*
X8305093Y-473372D02*
G01*
X8209638Y-509737D01*
X8305093Y-443372D02*
G01*
X8209638Y-443372D01*
X8305093Y-413372D02*
G01*
X8209638Y-413372D01*
X8305093Y-413372D02*
G01*
X8209638Y-349737D01*
X8305093Y-349737D02*
G01*
X8209638Y-349737D01*
X8051093Y-625909D02*
G01*
X8051093Y-575909D01*
X8014731Y-603181D01*
X8014731Y-589546D01*
X8010184Y-580453D01*
X8005638Y-575909D01*
X7992003Y-571362D01*
X7982912Y-571362D01*
X7969275Y-575909D01*
X7960184Y-585000D01*
X7955638Y-598637D01*
X7955638Y-612272D01*
X7960184Y-625909D01*
X7964731Y-630453D01*
X7973822Y-635000D01*
X7978366Y-536818D02*
G01*
X7973822Y-541362D01*
X7969275Y-536818D01*
X7973822Y-532272D01*
X7978366Y-536818D01*
X8051093Y-493181D02*
G01*
X8051093Y-443181D01*
X8014731Y-470453D01*
X8014731Y-456819D01*
X8010184Y-447728D01*
X8005638Y-443181D01*
X7992003Y-438637D01*
X7982912Y-438637D01*
X7969275Y-443181D01*
X7960184Y-452272D01*
X7955638Y-465909D01*
X7955638Y-479546D01*
X7960184Y-493181D01*
X7964731Y-497728D01*
X7973822Y-502272D01*
X8051093Y-408637D02*
G01*
X7955638Y-408637D01*
X8051093Y-408637D02*
G01*
X8051093Y-376819D01*
X8046547Y-363181D01*
X8037456Y-354091D01*
X8028365Y-349547D01*
X8014731Y-345000D01*
X7992003Y-345000D01*
X7978366Y-349547D01*
X7969275Y-354091D01*
X7960184Y-363181D01*
X7955638Y-376819D01*
X7955638Y-408637D01*
X3707701Y-638606D02*
G01*
X3707701Y-588606D01*
X3671338Y-615878D01*
X3671338Y-602244D01*
X3666792Y-593150D01*
X3662245Y-588606D01*
X3648610Y-584060D01*
X3639520Y-584060D01*
X3625883Y-588606D01*
X3616792Y-597697D01*
X3612245Y-611334D01*
X3612245Y-624969D01*
X3616792Y-638606D01*
X3621338Y-643150D01*
X3630429Y-647697D01*
X3634973Y-549516D02*
G01*
X3630429Y-554060D01*
X3625883Y-549516D01*
X3630429Y-544969D01*
X3634973Y-549516D01*
X3707701Y-505879D02*
G01*
X3707701Y-455879D01*
X3671338Y-483151D01*
X3671338Y-469516D01*
X3666792Y-460425D01*
X3662245Y-455879D01*
X3648610Y-451335D01*
X3639520Y-451335D01*
X3625883Y-455879D01*
X3616792Y-464969D01*
X3612245Y-478607D01*
X3612245Y-492244D01*
X3616792Y-505879D01*
X3621338Y-510425D01*
X3630429Y-514969D01*
X3707701Y-384970D02*
G01*
X3612245Y-421335D01*
X3707701Y-384970D02*
G01*
X3612245Y-348607D01*
X3644064Y-407697D02*
G01*
X3644064Y-362244D01*
X8510963Y-350918D02*
G01*
X8520054Y-355462D01*
X8529144Y-364553D01*
X8533691Y-373646D01*
X8533691Y-391828D01*
X8529144Y-400918D01*
X8520054Y-410009D01*
X8510963Y-414553D01*
X8497328Y-419100D01*
X8474600Y-419100D01*
X8460963Y-414553D01*
X8451872Y-410009D01*
X8442782Y-400918D01*
X8438235Y-391828D01*
X8438235Y-373646D01*
X8442782Y-364553D01*
X8451872Y-355462D01*
X8460963Y-350918D01*
X8474600Y-350918D01*
X8474600Y-373646D02*
G01*
X8474600Y-350918D01*
X3684973Y-1455816D02*
G01*
X3694064Y-1460360D01*
X3703154Y-1469450D01*
X3707701Y-1478544D01*
X3707701Y-1496725D01*
X3703154Y-1505816D01*
X3694064Y-1514906D01*
X3684973Y-1519450D01*
X3671338Y-1523997D01*
X3648610Y-1523997D01*
X3634973Y-1519450D01*
X3625883Y-1514906D01*
X3616792Y-1505816D01*
X3612245Y-1496725D01*
X3612245Y-1478544D01*
X3616792Y-1469450D01*
X3625883Y-1460360D01*
X3634973Y-1455816D01*
X3648610Y-1455816D01*
X3648610Y-1478544D02*
G01*
X3648610Y-1455816D01*
D16*
X2247204Y-1719844D02*
G01*
X2174476Y-1719844D01*
X2160841Y-1724388D01*
X2156294Y-1728934D01*
X2151748Y-1738025D01*
X2151748Y-1747116D01*
X2156294Y-1756206D01*
X2160841Y-1760750D01*
X2174476Y-1765297D01*
X2183566Y-1765297D01*
X2229022Y-1689844D02*
G01*
X2233566Y-1680751D01*
X2247204Y-1667116D01*
X2151748Y-1667116D01*
X2259904Y-221246D02*
G01*
X2187176Y-221246D01*
X2173541Y-225790D01*
X2168994Y-230337D01*
X2164448Y-239428D01*
X2164448Y-248518D01*
X2168994Y-257609D01*
X2173541Y-262153D01*
X2187176Y-266700D01*
X2196266Y-266700D01*
X2259904Y-182153D02*
G01*
X2259904Y-132153D01*
X2223541Y-159428D01*
X2223541Y-145790D01*
X2218994Y-136700D01*
X2214448Y-132153D01*
X2200813Y-127609D01*
X2191722Y-127609D01*
X2178085Y-132153D01*
X2168994Y-141246D01*
X2164448Y-154881D01*
X2164448Y-168518D01*
X2168994Y-182153D01*
X2173541Y-186700D01*
X2182632Y-191246D01*
X1637789Y-433578D02*
G01*
X1627375Y-428244D01*
X1616961Y-417829D01*
X1611881Y-407670D01*
X1611881Y-386842D01*
X1616961Y-376428D01*
X1627375Y-366013D01*
X1637789Y-360679D01*
X1653537Y-355600D01*
X1679445Y-355600D01*
X1694939Y-360679D01*
X1705353Y-366013D01*
X1715767Y-376428D01*
X1720847Y-386842D01*
X1720847Y-407670D01*
X1715767Y-417829D01*
X1705353Y-428244D01*
X1694939Y-433578D01*
X1648203Y-535431D02*
G01*
X1663697Y-530097D01*
X1674111Y-519684D01*
X1679445Y-504189D01*
X1679445Y-499110D01*
X1674111Y-483362D01*
X1663697Y-472947D01*
X1648203Y-467868D01*
X1643123Y-467868D01*
X1627375Y-472947D01*
X1616961Y-483362D01*
X1611881Y-499110D01*
X1611881Y-504189D01*
X1616961Y-519684D01*
X1627375Y-530097D01*
X1648203Y-535431D01*
X1674111Y-535431D01*
X1700273Y-530097D01*
X1715767Y-519684D01*
X1720847Y-504189D01*
X1720847Y-493776D01*
X1715767Y-478281D01*
X1705353Y-472947D01*
X1536189Y-1309875D02*
G01*
X1525775Y-1304541D01*
X1515361Y-1294127D01*
X1510281Y-1283967D01*
X1510281Y-1263139D01*
X1515361Y-1252725D01*
X1525775Y-1242311D01*
X1536189Y-1236977D01*
X1551937Y-1231897D01*
X1577845Y-1231897D01*
X1593339Y-1236977D01*
X1603753Y-1242311D01*
X1614167Y-1252725D01*
X1619247Y-1263139D01*
X1619247Y-1283967D01*
X1614167Y-1294127D01*
X1603753Y-1304541D01*
X1593339Y-1309875D01*
X1531109Y-1344165D02*
G01*
X1525775Y-1354579D01*
X1510281Y-1370073D01*
X1619247Y-1370073D01*
X1510281Y-1430271D02*
G01*
X1515361Y-1414777D01*
X1525775Y-1409697D01*
X1536189Y-1409697D01*
X1546603Y-1414777D01*
X1551937Y-1425191D01*
X1557017Y-1446019D01*
X1562097Y-1461513D01*
X1572511Y-1471927D01*
X1582925Y-1477007D01*
X1598673Y-1477007D01*
X1609087Y-1471927D01*
X1614167Y-1466847D01*
X1619247Y-1451099D01*
X1619247Y-1430271D01*
X1614167Y-1414777D01*
X1609087Y-1409697D01*
X1598673Y-1404363D01*
X1582925Y-1404363D01*
X1572511Y-1409697D01*
X1562097Y-1419857D01*
X1557017Y-1435605D01*
X1551937Y-1456433D01*
X1546603Y-1466847D01*
X1536189Y-1471927D01*
X1525775Y-1471927D01*
X1515361Y-1466847D01*
X1510281Y-1451099D01*
X1510281Y-1430271D01*
X5892764Y-1421378D02*
G01*
X5892764Y-1530344D01*
X5820120Y-1421378D02*
G01*
X5820120Y-1530344D01*
X5892764Y-1473194D02*
G01*
X5820120Y-1473194D01*
X5785830Y-1442206D02*
G01*
X5775416Y-1436872D01*
X5759668Y-1421378D01*
X5759668Y-1530344D01*
X3188710Y-1473197D02*
G01*
X3110732Y-1473197D01*
X3095238Y-1468117D01*
X3084824Y-1457703D01*
X3079744Y-1441955D01*
X3079744Y-1431541D01*
X3084824Y-1416047D01*
X3095238Y-1405633D01*
X3110732Y-1400553D01*
X3188710Y-1400553D01*
X3188710Y-1355849D02*
G01*
X3188710Y-1298699D01*
X3147054Y-1329687D01*
X3147054Y-1314193D01*
X3141974Y-1303779D01*
X3136894Y-1298699D01*
X3121146Y-1293365D01*
X3110732Y-1293365D01*
X3095238Y-1298699D01*
X3084824Y-1309113D01*
X3079744Y-1324607D01*
X3079744Y-1340101D01*
X3084824Y-1355849D01*
X3089904Y-1360929D01*
X3100318Y-1366263D01*
X1118613Y-506729D02*
G01*
X1035555Y-506729D01*
X1019807Y-512063D01*
X1014727Y-517144D01*
X1009647Y-527557D01*
X1009647Y-537971D01*
X1014727Y-548386D01*
X1019807Y-553720D01*
X1035555Y-558800D01*
X1045969Y-558800D01*
X1092705Y-467360D02*
G01*
X1097785Y-467360D01*
X1108199Y-462279D01*
X1113533Y-456945D01*
X1118613Y-446531D01*
X1118613Y-425704D01*
X1113533Y-415289D01*
X1108199Y-410210D01*
X1097785Y-405129D01*
X1087371Y-405129D01*
X1076957Y-410210D01*
X1061463Y-420623D01*
X1009647Y-472439D01*
X1009647Y-399795D01*
X5930897Y-354586D02*
G01*
X5930897Y-463552D01*
X5858253Y-354586D02*
G01*
X5858253Y-463552D01*
X5930897Y-406402D02*
G01*
X5858253Y-406402D01*
X5818629Y-380494D02*
G01*
X5818629Y-375414D01*
X5813549Y-365000D01*
X5808215Y-359666D01*
X5797801Y-354586D01*
X5777227Y-354586D01*
X5766813Y-359666D01*
X5761479Y-365000D01*
X5756399Y-375414D01*
X5756399Y-385828D01*
X5761479Y-396242D01*
X5771893Y-411736D01*
X5823963Y-463552D01*
X5751065Y-463552D01*
G36*
X1516075Y-744880D02*
G01*
X1530096Y-757631D01*
X1544574Y-769772D01*
X1559610Y-781253D01*
X1575155Y-792073D01*
X1591106Y-802182D01*
X1607515Y-811631D01*
X1624279Y-820318D01*
X1632813Y-824433D01*
X1650136Y-832002D01*
X1667814Y-838860D01*
X1685696Y-844905D01*
X1703882Y-850188D01*
X1722272Y-854659D01*
X1740814Y-858316D01*
X1759508Y-861212D01*
X1778304Y-863244D01*
X1797202Y-864514D01*
X1816100Y-864920D01*
X1834997Y-864514D01*
X1853895Y-863244D01*
X1872691Y-861212D01*
X1891385Y-858316D01*
X1909927Y-854659D01*
X1928317Y-850188D01*
X1946452Y-844905D01*
X1964385Y-838860D01*
X1982012Y-832002D01*
X1999335Y-824433D01*
X2016353Y-816051D01*
X2032914Y-807008D01*
X2049119Y-797204D01*
X2064867Y-786739D01*
X2080158Y-775614D01*
X2094941Y-763778D01*
X2109165Y-751332D01*
X2116074Y-744880D01*
G37*
G36*
X1452575Y-1646580D02*
G01*
X1466596Y-1659331D01*
X1481074Y-1671472D01*
X1496110Y-1682953D01*
X1511655Y-1693773D01*
X1527606Y-1703882D01*
X1544015Y-1713331D01*
X1560779Y-1722018D01*
X1569313Y-1726133D01*
X1586636Y-1733702D01*
X1604314Y-1740560D01*
X1622196Y-1746605D01*
X1640382Y-1751888D01*
X1658772Y-1756359D01*
X1677314Y-1760016D01*
X1696008Y-1762912D01*
X1714804Y-1764944D01*
X1733702Y-1766163D01*
X1752600Y-1766620D01*
X1771497Y-1766163D01*
X1790395Y-1764944D01*
X1809191Y-1762912D01*
X1827885Y-1760016D01*
X1846427Y-1756359D01*
X1864817Y-1751888D01*
X1882952Y-1746605D01*
X1900885Y-1740560D01*
X1918512Y-1733702D01*
X1935835Y-1726133D01*
X1952853Y-1717751D01*
X1969414Y-1708708D01*
X1985619Y-1698904D01*
X2001367Y-1688439D01*
X2016658Y-1677314D01*
X2031441Y-1665478D01*
X2045665Y-1653032D01*
X2052574Y-1646580D01*
G37*
D10*
X2285994Y-1574797D02*
G01*
X2285994Y-1828797D01*
X3301994Y-1828797D01*
X3301994Y-1574797D01*
X3111494Y-1574797D01*
D17*
X2285994Y-1574797D02*
G01*
X3111494Y-1574797D01*
D10*
X2285994Y-50800D02*
G01*
X2285994Y-304800D01*
X3301994Y-304800D01*
X3301994Y-50800D01*
X3111494Y-50800D01*
D17*
X2285994Y-50800D02*
G01*
X3111494Y-50800D01*
D18*
X1696097Y-249900D02*
G01*
X1696097Y-125440D01*
X1763407Y-187670D02*
G01*
X1628787Y-187670D01*
X1632597Y-1151597D02*
G01*
X1632597Y-1027137D01*
X1699907Y-1089367D02*
G01*
X1565287Y-1089367D01*
X8381982Y-1576798D02*
G01*
X8381982Y-1826798D01*
X8635982Y-1826798D02*
G01*
X3555992Y-1826798D01*
X8635982Y-1576798D02*
G01*
X8635982Y-1826798D01*
X3555992Y-1576798D02*
G01*
X8635982Y-1576798D01*
X3555992Y-1826798D02*
G01*
X3555992Y-1576798D01*
D10*
X8635982Y-50800D02*
G01*
X8635982Y-304800D01*
X9651982Y-304800D01*
X9651982Y-50800D01*
X9461482Y-50800D01*
D17*
X8635982Y-50800D02*
G01*
X9461482Y-50800D01*
D10*
X8635982Y-1574797D02*
G01*
X8635982Y-1828797D01*
X9651982Y-1828797D01*
X9651982Y-1574797D01*
X9461482Y-1574797D01*
D17*
X8635982Y-1574797D02*
G01*
X9461482Y-1574797D01*
D18*
X2665940Y-1520797D02*
G01*
X2665940Y-359788D01*
X3265891Y-359788D02*
G01*
X2665892Y-359788D01*
X3265891Y-1520797D02*
G01*
X2665940Y-1520797D01*
X3265891Y-1520797D02*
G01*
X3265891Y-361035D01*
D10*
X989497Y-1532392D02*
G01*
X989497Y-262392D01*
X481497Y-262392D01*
X481497Y-1532392D01*
X989497Y-1532392D01*
D18*
X8381982Y-52801D02*
G01*
X8381982Y-302801D01*
X8635982Y-302801D02*
G01*
X3555992Y-302801D01*
X8635982Y-52801D02*
G01*
X8635982Y-302801D01*
X3555992Y-52801D02*
G01*
X8635982Y-52801D01*
X3555992Y-302801D02*
G01*
X3555992Y-52801D01*
G75*
G01*
X1416047Y-470154D02*
G02*
X1416047Y-477266I399985J-3556D01*
G75*
G01*
X1352547Y-1371851D02*
G02*
X1352547Y-1378963I399985J-3556D01*
G75*
G01
X2769083Y-1455318D02*
G03X2769083Y-1455318I-34163J0D01*
G36*
X3035300Y-1574800D02*
G01*
X3060700Y-1574800D01*
X3060700Y-1835150D01*
X3035300Y-1835150D01*
G37*
G36*
X3037560Y-50800D02*
G01*
X3062960Y-50800D01*
X3062960Y-311150D01*
X3037560Y-311150D01*
G37*
G36*
X8166074Y-673100D02*
G01*
X8191474Y-673100D01*
X8191474Y-1257300D01*
X8166074Y-1257300D01*
G37*
G36*
X8166074Y-673100D02*
G01*
X8648674Y-673100D01*
X8648674Y-698500D01*
X8166074Y-698500D01*
G37*
G36*
X8166074Y-1231900D02*
G01*
X8648674Y-1231900D01*
X8648674Y-1257300D01*
X8166074Y-1257300D01*
G37*
G36*
X8623274Y-457200D02*
G01*
X8648674Y-457200D01*
X8648674Y-1562100D01*
X8623274Y-1562100D01*
G37*
M02*
