G04 Layer: TopSolderMaskLayer*
G04 EasyEDA v6.5.51, 2025-08-29 13:17:01*
G04 9dbd3623970045be9e5ad1379a4f5d38,14c8f2514d444a3a831de9b613ea4171,10*
G04 Gerber Generator version 0.2*
G04 Scale: 100 percent, Rotated: No, Reflected: No *
G04 Dimensions in millimeters *
G04 leading zeros omitted , absolute positions ,4 integer and 5 decimal *
%FSLAX45Y45*%
%MOMM*%

%AMMACRO1*4,1,8,-0.8085,-0.8382,-0.8382,-0.8084,-0.8382,0.8085,-0.8085,0.8382,0.8084,0.8382,0.8382,0.8085,0.8382,-0.8084,0.8084,-0.8382,-0.8085,-0.8382,0*%
%AMMACRO2*4,1,8,-0.9211,-0.9508,-0.9508,-0.921,-0.9508,0.9211,-0.9211,0.9508,0.921,0.9508,0.9508,0.9211,0.9508,-0.921,0.921,-0.9508,-0.9211,-0.9508,0*%
%AMMACRO3*4,1,8,-0.7831,-0.8128,-0.8128,-0.783,-0.8128,0.7831,-0.7831,0.8128,0.783,0.8128,0.8128,0.7831,0.8128,-0.783,0.783,-0.8128,-0.7831,-0.8128,0*%
%AMMACRO4*4,1,8,-0.4921,-0.4516,-0.5516,-0.3921,-0.5516,0.3921,-0.4921,0.4516,0.4921,0.4516,0.5516,0.3921,0.5516,-0.3921,0.4921,-0.4516,-0.4921,-0.4516,0*%
%AMMACRO5*4,1,8,-0.3921,-0.5516,-0.4516,-0.4921,-0.4516,0.4921,-0.3921,0.5516,0.3921,0.5516,0.4516,0.4921,0.4516,-0.4921,0.3921,-0.5516,-0.3921,-0.5516,0*%
%AMMACRO6*4,1,8,-0.9421,-0.6766,-1.0016,-0.6171,-1.0016,0.6171,-0.9421,0.6766,0.9421,0.6766,1.0016,0.6171,1.0016,-0.6171,0.9421,-0.6766,-0.9421,-0.6766,0*%
%AMMACRO7*4,1,8,-0.6171,-1.0016,-0.6766,-0.9421,-0.6766,0.9421,-0.6171,1.0016,0.6171,1.0016,0.6766,0.9421,0.6766,-0.9421,0.6171,-1.0016,-0.6171,-1.0016,0*%
%AMMACRO8*4,1,8,-0.6421,-0.8016,-0.7016,-0.7421,-0.7016,0.7421,-0.6421,0.8016,0.6421,0.8016,0.7016,0.7421,0.7016,-0.7421,0.6421,-0.8016,-0.6421,-0.8016,0*%
%AMMACRO9*4,1,8,-0.8711,-0.2508,-0.9008,-0.221,-0.9008,0.2211,-0.8711,0.2508,0.871,0.2508,0.9008,0.2211,0.9008,-0.221,0.871,-0.2508,-0.8711,-0.2508,0*%
%ADD10MACRO1*%
%ADD11C,1.6764*%
%ADD12C,1.7016*%
%ADD13C,1.9016*%
%ADD14MACRO2*%
%ADD15MACRO3*%
%ADD16C,1.6256*%
%ADD17MACRO4*%
%ADD18MACRO5*%
%ADD19C,0.0182*%
%ADD20MACRO6*%
%ADD21MACRO7*%
%ADD22MACRO8*%
%ADD23MACRO9*%

%LPD*%
D10*
G01*
X3174994Y-1701797D03*
D11*
G01*
X2921000Y-1701800D03*
G01*
X2667000Y-1701800D03*
G01*
X2413000Y-1701800D03*
D10*
G01*
X3174994Y-177800D03*
D11*
G01*
X2921000Y-177800D03*
G01*
X2667000Y-177800D03*
G01*
X2413000Y-177800D03*
D12*
G01*
X1816100Y-644905D03*
G01*
X1816100Y-294894D03*
G01*
X1752600Y-1546605D03*
G01*
X1752600Y-1196594D03*
D13*
G01*
X3683000Y-1701800D03*
G01*
X3937000Y-1701800D03*
G01*
X4191000Y-1701800D03*
G01*
X4445000Y-1701800D03*
G01*
X4699000Y-1701800D03*
G01*
X4953000Y-1701800D03*
G01*
X5207000Y-1701800D03*
G01*
X5461000Y-1701800D03*
G01*
X5715000Y-1701800D03*
G01*
X5969000Y-1701800D03*
G01*
X6223000Y-1701800D03*
G01*
X6477000Y-1701800D03*
G01*
X6731000Y-1701800D03*
G01*
X6985000Y-1701800D03*
G01*
X7239000Y-1701800D03*
G01*
X7493000Y-1701800D03*
G01*
X7747000Y-1701800D03*
G01*
X8001000Y-1701800D03*
G01*
X8255000Y-1701800D03*
D14*
G01*
X8508987Y-1701797D03*
D10*
G01*
X9524982Y-177800D03*
D11*
G01*
X9270974Y-177800D03*
G01*
X9016974Y-177800D03*
G01*
X8762974Y-177800D03*
D10*
G01*
X9524982Y-1701797D03*
D11*
G01*
X9270974Y-1701800D03*
G01*
X9016974Y-1701800D03*
G01*
X8762974Y-1701800D03*
D15*
G01*
X2755894Y-1320797D03*
D16*
G01*
X2755900Y-1066800D03*
G01*
X2755900Y-812800D03*
G01*
X2755900Y-558800D03*
D11*
G01*
X862507Y-389381D03*
G01*
X608507Y-389381D03*
G01*
X862507Y-643381D03*
G01*
X608507Y-643381D03*
G01*
X862507Y-897381D03*
G01*
X608507Y-897381D03*
G01*
X862507Y-1151381D03*
G01*
X608507Y-1151381D03*
G01*
X862507Y-1405381D03*
D10*
G01*
X608497Y-1405392D03*
D13*
G01*
X3683000Y-177800D03*
G01*
X3937000Y-177800D03*
G01*
X4191000Y-177800D03*
G01*
X4445000Y-177800D03*
G01*
X4699000Y-177800D03*
G01*
X4953000Y-177800D03*
G01*
X5207000Y-177800D03*
G01*
X5461000Y-177800D03*
G01*
X5715000Y-177800D03*
G01*
X5969000Y-177800D03*
G01*
X6223000Y-177800D03*
G01*
X6477000Y-177800D03*
G01*
X6731000Y-177800D03*
G01*
X6985000Y-177800D03*
G01*
X7239000Y-177800D03*
G01*
X7493000Y-177800D03*
G01*
X7747000Y-177800D03*
G01*
X8001000Y-177800D03*
G01*
X8255000Y-177800D03*
D14*
G01*
X8508987Y-177800D03*
D17*
G01*
X7810484Y-1057996D03*
G01*
X7810484Y-1227998D03*
G01*
X7835884Y-846998D03*
G01*
X7835884Y-676996D03*
D18*
G01*
X7065083Y-1282697D03*
G01*
X7235085Y-1282697D03*
G01*
X7090486Y-584200D03*
G01*
X7260488Y-584200D03*
D17*
G01*
X6527787Y-808898D03*
G01*
X6527787Y-638896D03*
G01*
X6527787Y-1083396D03*
G01*
X6527787Y-1253398D03*
G01*
X5180497Y-1040991D03*
G01*
X5180497Y-1210993D03*
G01*
X5232389Y-834298D03*
G01*
X5232389Y-664296D03*
D18*
G01*
X4669690Y-584200D03*
G01*
X4499688Y-584200D03*
G01*
X4605098Y-1303792D03*
G01*
X4435096Y-1303792D03*
D17*
G01*
X3911592Y-834298D03*
G01*
X3911592Y-664296D03*
G01*
X3949692Y-1032596D03*
G01*
X3949692Y-1202598D03*
D20*
G01*
X3111494Y-808097D03*
G01*
X3111494Y-538097D03*
G01*
X1219197Y-820797D03*
G01*
X1219197Y-550797D03*
D21*
G01*
X8259682Y-508000D03*
G01*
X8529681Y-508000D03*
D20*
G01*
X1206497Y-1379597D03*
G01*
X1206497Y-1109597D03*
G01*
X2197094Y-1125597D03*
G01*
X2197094Y-855597D03*
D22*
G01*
X1401897Y-177800D03*
G01*
X1061897Y-177800D03*
G01*
X998397Y-1689097D03*
G01*
X1338397Y-1689097D03*
D18*
G01*
X2536096Y-850897D03*
G01*
X2366093Y-850897D03*
G01*
X2548796Y-1130297D03*
G01*
X2378793Y-1130297D03*
D17*
G01*
X7645384Y-1227998D03*
G01*
X7645384Y-1057996D03*
G01*
X7683484Y-676996D03*
G01*
X7683484Y-846998D03*
D18*
G01*
X8119183Y-1155697D03*
G01*
X8289185Y-1155697D03*
D17*
G01*
X7950184Y-1057996D03*
G01*
X7950184Y-1227998D03*
G01*
X7975584Y-499198D03*
G01*
X7975584Y-669201D03*
G01*
X6692887Y-600796D03*
G01*
X6692887Y-770798D03*
G01*
X6680187Y-1253398D03*
G01*
X6680187Y-1083396D03*
G01*
X6197587Y-808898D03*
G01*
X6197587Y-638896D03*
G01*
X6375387Y-808898D03*
G01*
X6375387Y-638896D03*
D18*
G01*
X6074486Y-1244597D03*
G01*
X6244488Y-1244597D03*
D17*
G01*
X5040797Y-1210993D03*
G01*
X5040797Y-1040991D03*
G01*
X5079989Y-638896D03*
G01*
X5079989Y-808898D03*
G01*
X5499089Y-1210396D03*
G01*
X5499089Y-1380398D03*
G01*
X5345597Y-1040991D03*
G01*
X5345597Y-1210993D03*
G01*
X5410189Y-664296D03*
G01*
X5410189Y-834298D03*
G01*
X4038592Y-664296D03*
G01*
X4038592Y-834298D03*
G01*
X4076692Y-1202598D03*
G01*
X4076692Y-1032596D03*
G01*
X3479792Y-867496D03*
G01*
X3479792Y-1037498D03*
G01*
X3771892Y-846998D03*
G01*
X3771892Y-676996D03*
G01*
X3797292Y-1032596D03*
G01*
X3797292Y-1202598D03*
D23*
G01*
X7454407Y-1130487D03*
G01*
X7454407Y-1065489D03*
G01*
X7454407Y-1000490D03*
G01*
X7454407Y-935492D03*
G01*
X7454407Y-870493D03*
G01*
X7454407Y-805494D03*
G01*
X7454407Y-740496D03*
G01*
X6894388Y-740496D03*
G01*
X6894388Y-805494D03*
G01*
X6894388Y-870493D03*
G01*
X6894388Y-935492D03*
G01*
X6894388Y-1000490D03*
G01*
X6894388Y-1065489D03*
G01*
X6894388Y-1130487D03*
G01*
X4825507Y-1130487D03*
G01*
X4825507Y-1065489D03*
G01*
X4825507Y-1000490D03*
G01*
X4825507Y-935492D03*
G01*
X4825507Y-870493D03*
G01*
X4825507Y-805494D03*
G01*
X4825507Y-740496D03*
G01*
X4265488Y-740496D03*
G01*
X4265488Y-805494D03*
G01*
X4265488Y-870493D03*
G01*
X4265488Y-935492D03*
G01*
X4265488Y-1000490D03*
G01*
X4265488Y-1065489D03*
G01*
X4265488Y-1130487D03*
M02*
