G04 Layer: TopLayer*
G04 EasyEDA v6.5.51, 2025-08-29 13:17:01*
G04 9dbd3623970045be9e5ad1379a4f5d38,14c8f2514d444a3a831de9b613ea4171,10*
G04 Gerber Generator version 0.2*
G04 Scale: 100 percent, Rotated: No, Reflected: No *
G04 Dimensions in millimeters *
G04 leading zeros omitted , absolute positions ,4 integer and 5 decimal *
%FSLAX45Y45*%
%MOMM*%

%AMMACRO1*21,1,$1,$2,0,0,$3*%
%ADD10C,0.2540*%
%ADD11C,0.3000*%
%ADD12C,0.4000*%
%ADD13C,0.5000*%
%ADD14R,0.9000X0.7000*%
%ADD15R,0.0174X0.7000*%
%ADD16R,0.7000X0.9000*%
%ADD17R,1.8000X1.1500*%
%ADD18R,1.1500X1.8000*%
%ADD19R,1.2000X1.4000*%
%ADD20R,1.7000X0.4000*%
%ADD21MACRO1,1.5748X1.5748X0.0000*%
%ADD22C,1.5748*%
%ADD23C,1.6000*%
%ADD24C,1.8000*%
%ADD25MACRO1,1.8X1.8X0.0000*%
%ADD26MACRO1,1.524X1.524X90.0000*%
%ADD27C,1.5240*%
%ADD28MACRO1,1.5748X1.5748X90.0000*%
%ADD29C,0.6200*%

%LPD*%
D10*
X3797287Y-1032601D02*
G01*
X3793385Y-1028700D01*
X3632200Y-1028700D01*
X3441700Y-368300D02*
G01*
X3454400Y-355600D01*
X3454387Y-139700D01*
X3568687Y-38100D01*
X8889987Y-38100D01*
X9017000Y-177800D01*
X6527800Y-808989D02*
G01*
X6515100Y-796289D01*
X6515100Y-762000D01*
X6477000Y-723900D01*
X6286487Y-723897D01*
X6197584Y-808898D01*
X6197584Y-638896D02*
G01*
X6197584Y-613425D01*
X6315709Y-495300D01*
X7810500Y-1057907D02*
G01*
X7810487Y-1104900D01*
X7848587Y-1143000D01*
X8106486Y-1143000D01*
X8119186Y-1155700D01*
D11*
X6074486Y-1244600D02*
G01*
X5778487Y-1244600D01*
X5537187Y-1485900D01*
X4825987Y-1485900D01*
X4737087Y-1574800D01*
X4508487Y-1574800D01*
X4445000Y-1701787D01*
X4605020Y-1303020D02*
G01*
X4613402Y-1295400D01*
X5575300Y-1295400D01*
X5727700Y-1130300D01*
D10*
X5499100Y-1380489D02*
G01*
X4800600Y-1380489D01*
X4686300Y-1511300D01*
X4318000Y-1511300D01*
X4191000Y-1701800D01*
X4605014Y-1303784D02*
G01*
X4584700Y-1324099D01*
X4584700Y-1435100D01*
X5180495Y-1040991D02*
G01*
X5181587Y-1104900D01*
X5206987Y-1130300D01*
X5452186Y-1130300D01*
X5499087Y-1210393D01*
D11*
X3937000Y-1701787D02*
G01*
X3937000Y-1676400D01*
X3784587Y-1524000D01*
X3555987Y-1524000D01*
X3479800Y-1447812D01*
X3479800Y-1037488D01*
X3479800Y-867486D02*
G01*
X3497394Y-867486D01*
X3606787Y-758093D01*
X8259671Y-508002D02*
G01*
X8259671Y-182481D01*
X8255000Y-177810D01*
D10*
X8623274Y-355600D02*
G01*
X9436087Y-355600D01*
X9524987Y-266700D01*
X9524987Y-177800D01*
X6894388Y-1130485D02*
G01*
X6771482Y-1253385D01*
X6680200Y-1253385D01*
D11*
X6515087Y-901700D02*
G01*
X6515087Y-939800D01*
X6575785Y-1000490D01*
X6894388Y-1000490D01*
X6894388Y-870496D02*
G01*
X6775983Y-870496D01*
X6756387Y-850900D01*
X6642087Y-850900D01*
X6591287Y-901700D01*
X6515087Y-901700D01*
X5003800Y-889000D02*
G01*
X4985296Y-870496D01*
X4825504Y-870496D01*
D10*
X4825504Y-740493D02*
G01*
X4927091Y-638914D01*
X5080000Y-638914D01*
D11*
X4435091Y-1303789D02*
G01*
X4432287Y-1300987D01*
X4432287Y-1054100D01*
X4378685Y-1000490D01*
X4265488Y-1000490D01*
X4265488Y-870496D02*
G01*
X4375683Y-870496D01*
X4406887Y-901700D01*
X4406887Y-952500D01*
X4358904Y-1000490D01*
X4265488Y-1000490D01*
X4265488Y-870496D02*
G01*
X4361891Y-870496D01*
X4432287Y-800100D01*
X4432287Y-673100D01*
X4381487Y-622300D01*
X4343400Y-622300D01*
X6894388Y-935489D02*
G01*
X6898693Y-939800D01*
X7035787Y-939800D01*
X7090481Y-885098D01*
X7090481Y-584200D01*
X6894388Y-935489D02*
G01*
X6885998Y-927100D01*
X6667474Y-927100D01*
X4000500Y-939800D02*
G01*
X4004815Y-935489D01*
X4265488Y-935489D01*
X2366086Y-850900D02*
G01*
X2361384Y-855601D01*
X2197100Y-855601D01*
X7090481Y-584200D02*
G01*
X7065081Y-558800D01*
X6857987Y-558800D01*
X6985000Y-1358900D02*
G01*
X6997687Y-1358900D01*
X7065086Y-1291501D01*
X7065086Y-1282700D01*
X4825491Y-935481D02*
G01*
X4825491Y-935481D01*
X4965689Y-952497D01*
X5143500Y-952500D01*
X4669688Y-584200D02*
G01*
X4660887Y-593001D01*
X4660887Y-889000D01*
X4707384Y-935489D01*
X4825504Y-935489D01*
D10*
X8289188Y-1155700D02*
G01*
X8991587Y-1155700D01*
X9524987Y-1689100D01*
X6894388Y-805494D02*
G01*
X6769087Y-800100D01*
X6692900Y-770811D01*
X6527800Y-808885D02*
G01*
X6565874Y-770811D01*
X6692900Y-770811D01*
X6894388Y-1065491D02*
G01*
X6698096Y-1065491D01*
X6680200Y-1083388D01*
X3911600Y-834285D02*
G01*
X3924287Y-821598D01*
X3924287Y-758093D01*
X3606787Y-758093D01*
X4038600Y-834288D02*
G01*
X4067393Y-805494D01*
X4265488Y-805494D01*
X3911600Y-834285D02*
G01*
X3911602Y-834288D01*
X4038600Y-834288D01*
X2548793Y-1130300D02*
G01*
X2726593Y-1308100D01*
X2755900Y-1308100D01*
X2536093Y-850900D02*
G01*
X2739293Y-1054100D01*
X2755900Y-1054100D01*
X3949700Y-1032588D02*
G01*
X3771900Y-854788D01*
X3771900Y-846988D01*
X3949700Y-1202585D02*
G01*
X3797325Y-1202585D01*
X4076700Y-1032588D02*
G01*
X3949700Y-1032588D01*
X4076700Y-1202585D02*
G01*
X3949700Y-1202585D01*
X4265488Y-1130485D02*
G01*
X4193382Y-1202585D01*
X4076700Y-1202585D01*
X4265488Y-1065491D02*
G01*
X4109603Y-1065491D01*
X4076700Y-1032588D01*
X3911600Y-664288D02*
G01*
X3898902Y-676986D01*
X3771900Y-676986D01*
X4038600Y-664286D02*
G01*
X4038597Y-664288D01*
X3911600Y-664288D01*
X4265488Y-740493D02*
G01*
X4189280Y-664286D01*
X4038600Y-664286D01*
X5345595Y-1040991D02*
G01*
X5232400Y-927793D01*
X5232400Y-834285D01*
X5180495Y-1210995D02*
G01*
X5345595Y-1210995D01*
X5080000Y-638914D02*
G01*
X5105374Y-664288D01*
X5232400Y-664288D01*
X5080000Y-808911D02*
G01*
X5105374Y-834285D01*
X5232400Y-834285D01*
X5040795Y-1040991D02*
G01*
X5180495Y-1040991D01*
X5040795Y-1210990D02*
G01*
X5180495Y-1210995D01*
X4825504Y-1130485D02*
G01*
X4906007Y-1210990D01*
X5040795Y-1210990D01*
X4825504Y-1065491D02*
G01*
X5016301Y-1065491D01*
X5040795Y-1040991D01*
X4825504Y-805494D02*
G01*
X5076576Y-805494D01*
X5080000Y-808911D01*
X6527800Y-1083388D02*
G01*
X6375400Y-930988D01*
X6375400Y-808885D01*
X6244488Y-1244600D02*
G01*
X6253274Y-1253385D01*
X6527800Y-1253385D01*
X6527800Y-638888D02*
G01*
X6375400Y-638888D01*
X7065086Y-1282700D02*
G01*
X7061187Y-1278801D01*
X7061187Y-1117600D01*
X7243290Y-935489D01*
X7454404Y-935489D01*
X7950187Y-1058001D02*
G01*
X7835874Y-943688D01*
X7835874Y-846988D01*
X7810500Y-1228011D02*
G01*
X7950174Y-1228011D01*
X7645387Y-1227993D02*
G01*
X7547879Y-1130485D01*
X7454404Y-1130485D01*
X7645387Y-1227993D02*
G01*
X7810487Y-1227998D01*
X7645387Y-1057993D02*
G01*
X7810487Y-1057993D01*
X7454404Y-1065491D02*
G01*
X7461907Y-1057993D01*
X7645387Y-1057993D01*
X7454404Y-805494D02*
G01*
X7641981Y-805494D01*
X7683474Y-846988D01*
X7835874Y-846985D02*
G01*
X7683477Y-846985D01*
X7683474Y-846988D01*
X7683474Y-676986D02*
G01*
X7835872Y-676986D01*
X7835874Y-676988D01*
X7454404Y-740493D02*
G01*
X7517912Y-676986D01*
X7683474Y-676986D01*
X6680200Y-1253385D02*
G01*
X6527800Y-1253385D01*
X6680200Y-1083388D02*
G01*
X6527800Y-1083388D01*
X6527800Y-638888D02*
G01*
X6565874Y-600814D01*
X6692900Y-600814D01*
X6894388Y-740493D02*
G01*
X6754700Y-600814D01*
X6692900Y-600814D01*
X7975574Y-499211D02*
G01*
X7852511Y-499211D01*
X7785100Y-431800D01*
X6070600Y-431800D01*
X5969000Y-533400D01*
X5969000Y-927100D01*
X6159500Y-1117600D01*
X6159500Y-1346200D01*
X6034780Y-1460500D01*
X5702300Y-1460500D01*
X5600700Y-1562100D01*
X4838700Y-1562100D01*
X4699000Y-1701800D01*
X7835874Y-676986D02*
G01*
X7843674Y-669185D01*
X7975574Y-669185D01*
D12*
X1206500Y-1109598D02*
G01*
X1293497Y-1196596D01*
X1752600Y-1196596D01*
X8529673Y-508002D02*
G01*
X8509000Y-487329D01*
X8509000Y-177810D01*
X7260493Y-584200D02*
G01*
X7264387Y-588093D01*
X7264387Y-838200D01*
X7296683Y-870496D01*
X7454404Y-870496D01*
X7365984Y-571500D02*
G01*
X7353284Y-584200D01*
X7260488Y-584200D01*
X7235088Y-1282700D02*
G01*
X7226287Y-1273898D01*
X7226287Y-1092200D01*
X7317991Y-1000490D01*
X7454404Y-1000490D01*
D13*
X2755900Y-558800D02*
G01*
X2776606Y-538093D01*
X3111487Y-538093D01*
D12*
X8259572Y-508000D02*
G01*
X8229600Y-508000D01*
X8077200Y-355600D01*
X3657345Y-355600D01*
X3474974Y-537971D01*
X3111500Y-537971D01*
D11*
X7454391Y-1000505D02*
G01*
X7559293Y-1000505D01*
X7607284Y-965197D01*
X7607284Y-914397D01*
X7537958Y-870457D01*
X7454391Y-870457D01*
D10*
X6315709Y-495300D02*
G01*
X7480300Y-495300D01*
X7581900Y-596900D01*
X8026400Y-596900D01*
X8115300Y-685800D01*
X8115300Y-990600D01*
X8204200Y-1079500D01*
X8204200Y-1270000D01*
X8432800Y-1498600D01*
X8813800Y-1498600D01*
X9017000Y-1701800D01*
D11*
X5232400Y-664286D02*
G01*
X5402409Y-834296D01*
X5410189Y-834296D01*
X5410189Y-664293D02*
G01*
X5660293Y-664293D01*
X5803887Y-520700D01*
X1338402Y-1689100D02*
G01*
X1206500Y-1557197D01*
X1206500Y-1379598D01*
D12*
X4825504Y-1000490D02*
G01*
X4658085Y-1000490D01*
X4499686Y-842091D01*
X4499686Y-584200D01*
X4343400Y-622300D02*
G01*
X4381500Y-584200D01*
X4499686Y-584200D01*
X4825517Y-1000480D02*
G01*
X4265498Y-1000480D01*
X1206500Y-1379601D02*
G01*
X1600197Y-1384297D01*
X1752600Y-1546860D01*
X1752600Y-1546603D02*
G01*
X1864103Y-1435100D01*
X2019300Y-1435100D01*
X2197100Y-1257300D01*
X2197100Y-1125575D01*
X1206500Y-1109598D02*
G01*
X1219200Y-1096898D01*
X1219200Y-820798D01*
X1219200Y-820801D02*
G01*
X1142611Y-897389D01*
X862495Y-897389D01*
X1401902Y-177800D02*
G01*
X1219200Y-360502D01*
X1219200Y-550801D01*
X862507Y-389384D02*
G01*
X1061897Y-189994D01*
X1061897Y-177800D01*
X608495Y-389389D02*
G01*
X862495Y-389389D01*
X1219200Y-550798D02*
G01*
X1562097Y-546100D01*
X1816100Y-294639D01*
X1816100Y-294896D02*
G01*
X2197100Y-675896D01*
X2197100Y-855598D01*
X2378786Y-1130300D02*
G01*
X2374061Y-1125575D01*
X2197100Y-1125575D01*
X2378709Y-1130300D02*
G01*
X2438400Y-1189989D01*
X2438400Y-1270000D01*
X2616194Y-1473197D01*
X2908294Y-1473197D01*
X3276600Y-952500D01*
X3708400Y-952500D01*
D13*
X2755900Y-812800D02*
G01*
X2760604Y-808095D01*
X3111487Y-808095D01*
D11*
X4669688Y-584200D02*
G01*
X4580788Y-495300D01*
X4292600Y-495300D01*
X4203700Y-584200D01*
X3733800Y-584200D01*
X3695700Y-622300D01*
X3683000Y-660400D01*
X3657600Y-673100D01*
X2534914Y-673100D01*
X2366007Y-850900D01*
D12*
X7531074Y-1320800D02*
G01*
X7273193Y-1320800D01*
X7235093Y-1282700D01*
D11*
X7235190Y-1282700D02*
G01*
X7226300Y-1291589D01*
X7226300Y-1333500D01*
X7200900Y-1358900D01*
X7048500Y-1460500D01*
X6959600Y-1460500D01*
X6896100Y-1397000D01*
X6896100Y-1308100D01*
X7010400Y-1193800D01*
X7010400Y-1028700D01*
X6982206Y-1000505D01*
X6894322Y-1000505D01*
X998397Y-1689100D02*
G01*
X998397Y-1541271D01*
X862507Y-1405384D01*
D12*
X862495Y-1405389D02*
G01*
X608495Y-1405389D01*
D14*
G01*
X7810474Y-1057986D03*
G01*
X7810474Y-1227988D03*
G01*
X7835874Y-846988D03*
G01*
X7835874Y-676986D03*
D16*
G01*
X7065086Y-1282700D03*
G01*
X7235088Y-1282700D03*
G01*
X7090486Y-584200D03*
G01*
X7260488Y-584200D03*
D14*
G01*
X6527800Y-808888D03*
G01*
X6527800Y-638886D03*
G01*
X6527800Y-1083386D03*
G01*
X6527800Y-1253388D03*
G01*
X5180507Y-1040993D03*
G01*
X5180507Y-1210995D03*
G01*
X5232400Y-834288D03*
G01*
X5232400Y-664286D03*
D16*
G01*
X4669688Y-584200D03*
G01*
X4499686Y-584200D03*
G01*
X4605096Y-1303781D03*
G01*
X4435093Y-1303781D03*
D14*
G01*
X3911600Y-834288D03*
G01*
X3911600Y-664286D03*
G01*
X3949700Y-1032586D03*
G01*
X3949700Y-1202588D03*
D17*
G01*
X3111500Y-808101D03*
G01*
X3111500Y-538098D03*
G01*
X1219200Y-820801D03*
G01*
X1219200Y-550798D03*
D18*
G01*
X8259673Y-508000D03*
G01*
X8529675Y-508000D03*
D17*
G01*
X1206500Y-1379601D03*
G01*
X1206500Y-1109598D03*
G01*
X2197100Y-1125601D03*
G01*
X2197100Y-855598D03*
D19*
G01*
X1401902Y-177800D03*
G01*
X1061897Y-177800D03*
G01*
X998397Y-1689100D03*
G01*
X1338402Y-1689100D03*
D16*
G01*
X2536088Y-850900D03*
G01*
X2366086Y-850900D03*
G01*
X2548788Y-1130300D03*
G01*
X2378786Y-1130300D03*
D14*
G01*
X7645374Y-1227988D03*
G01*
X7645374Y-1057986D03*
G01*
X7683474Y-676986D03*
G01*
X7683474Y-846988D03*
D16*
G01*
X8119186Y-1155700D03*
G01*
X8289188Y-1155700D03*
D14*
G01*
X7950174Y-1057986D03*
G01*
X7950174Y-1227988D03*
G01*
X7975574Y-499211D03*
G01*
X7975574Y-669188D03*
G01*
X6692900Y-600786D03*
G01*
X6692900Y-770788D03*
G01*
X6680200Y-1253388D03*
G01*
X6680200Y-1083386D03*
G01*
X6197600Y-808888D03*
G01*
X6197600Y-638886D03*
G01*
X6375400Y-808888D03*
G01*
X6375400Y-638886D03*
D16*
G01*
X6074486Y-1244600D03*
G01*
X6244488Y-1244600D03*
D14*
G01*
X5040807Y-1210995D03*
G01*
X5040807Y-1040993D03*
G01*
X5080000Y-638886D03*
G01*
X5080000Y-808888D03*
G01*
X5499100Y-1210386D03*
G01*
X5499100Y-1380388D03*
G01*
X5345607Y-1040993D03*
G01*
X5345607Y-1210995D03*
G01*
X5410200Y-664286D03*
G01*
X5410200Y-834288D03*
G01*
X4038600Y-664286D03*
G01*
X4038600Y-834288D03*
G01*
X4076700Y-1202588D03*
G01*
X4076700Y-1032586D03*
G01*
X3479800Y-867486D03*
G01*
X3479800Y-1037488D03*
G01*
X3771900Y-846988D03*
G01*
X3771900Y-676986D03*
G01*
X3797300Y-1032586D03*
G01*
X3797300Y-1202588D03*
D20*
G01*
X7454417Y-1130477D03*
G01*
X7454417Y-1065479D03*
G01*
X7454417Y-1000480D03*
G01*
X7454417Y-935481D03*
G01*
X7454417Y-870483D03*
G01*
X7454417Y-805484D03*
G01*
X7454417Y-740486D03*
G01*
X6894398Y-740486D03*
G01*
X6894398Y-805484D03*
G01*
X6894398Y-870483D03*
G01*
X6894398Y-935481D03*
G01*
X6894398Y-1000480D03*
G01*
X6894398Y-1065479D03*
G01*
X6894398Y-1130477D03*
G01*
X4825517Y-1130477D03*
G01*
X4825517Y-1065479D03*
G01*
X4825517Y-1000480D03*
G01*
X4825517Y-935481D03*
G01*
X4825517Y-870483D03*
G01*
X4825517Y-805484D03*
G01*
X4825517Y-740486D03*
G01*
X4265498Y-740486D03*
G01*
X4265498Y-805484D03*
G01*
X4265498Y-870483D03*
G01*
X4265498Y-935481D03*
G01*
X4265498Y-1000480D03*
G01*
X4265498Y-1065479D03*
G01*
X4265498Y-1130477D03*
D21*
G01*
X3174994Y-1701797D03*
D22*
G01*
X2921000Y-1701800D03*
G01*
X2667000Y-1701800D03*
G01*
X2413000Y-1701800D03*
D21*
G01*
X3174994Y-177800D03*
D22*
G01*
X2921000Y-177800D03*
G01*
X2667000Y-177800D03*
G01*
X2413000Y-177800D03*
D23*
G01*
X1816100Y-644905D03*
G01*
X1816100Y-294894D03*
G01*
X1752600Y-1546605D03*
G01*
X1752600Y-1196594D03*
D24*
G01*
X3683000Y-1701800D03*
G01*
X3937000Y-1701800D03*
G01*
X4191000Y-1701800D03*
G01*
X4445000Y-1701800D03*
G01*
X4699000Y-1701800D03*
G01*
X4953000Y-1701800D03*
G01*
X5207000Y-1701800D03*
G01*
X5461000Y-1701800D03*
G01*
X5715000Y-1701800D03*
G01*
X5969000Y-1701800D03*
G01*
X6223000Y-1701800D03*
G01*
X6477000Y-1701800D03*
G01*
X6731000Y-1701800D03*
G01*
X6985000Y-1701800D03*
G01*
X7239000Y-1701800D03*
G01*
X7493000Y-1701800D03*
G01*
X7747000Y-1701800D03*
G01*
X8001000Y-1701800D03*
G01*
X8255000Y-1701800D03*
D25*
G01*
X8508987Y-1701797D03*
D21*
G01*
X9524982Y-177800D03*
D22*
G01*
X9270974Y-177800D03*
G01*
X9016974Y-177800D03*
G01*
X8762974Y-177800D03*
D21*
G01*
X9524982Y-1701797D03*
D22*
G01*
X9270974Y-1701800D03*
G01*
X9016974Y-1701800D03*
G01*
X8762974Y-1701800D03*
D26*
G01*
X2755894Y-1320797D03*
D27*
G01*
X2755900Y-1066800D03*
G01*
X2755900Y-812800D03*
G01*
X2755900Y-558800D03*
D22*
G01*
X862507Y-389381D03*
G01*
X608507Y-389381D03*
G01*
X862507Y-643381D03*
G01*
X608507Y-643381D03*
G01*
X862507Y-897381D03*
G01*
X608507Y-897381D03*
G01*
X862507Y-1151381D03*
G01*
X608507Y-1151381D03*
G01*
X862507Y-1405381D03*
D28*
G01*
X608497Y-1405392D03*
D24*
G01*
X3683000Y-177800D03*
G01*
X3937000Y-177800D03*
G01*
X4191000Y-177800D03*
G01*
X4445000Y-177800D03*
G01*
X4699000Y-177800D03*
G01*
X4953000Y-177800D03*
G01*
X5207000Y-177800D03*
G01*
X5461000Y-177800D03*
G01*
X5715000Y-177800D03*
G01*
X5969000Y-177800D03*
G01*
X6223000Y-177800D03*
G01*
X6477000Y-177800D03*
G01*
X6731000Y-177800D03*
G01*
X6985000Y-177800D03*
G01*
X7239000Y-177800D03*
G01*
X7493000Y-177800D03*
G01*
X7747000Y-177800D03*
G01*
X8001000Y-177800D03*
G01*
X8255000Y-177800D03*
D25*
G01*
X8508987Y-177800D03*
D29*
G01*
X4343400Y-622300D03*
G01*
X5003800Y-889000D03*
G01*
X4000500Y-939800D03*
G01*
X3708400Y-952500D03*
G01*
X6667474Y-927100D03*
G01*
X5727700Y-1130300D03*
G01*
X5143500Y-952500D03*
G01*
X6984974Y-1358900D03*
G01*
X3632200Y-1028700D03*
G01*
X3441700Y-368300D03*
G01*
X6857974Y-558800D03*
G01*
X5803900Y-520700D03*
G01*
X8623274Y-355600D03*
G01*
X6515074Y-901700D03*
G01*
X4584700Y-1435100D03*
G01*
X7531074Y-1320800D03*
G01*
X7365974Y-571500D03*
M02*
