G04 Layer: TopSilkscreenLayer*
G04 EasyEDA v6.5.51, 2025-08-29 13:17:01*
G04 9dbd3623970045be9e5ad1379a4f5d38,14c8f2514d444a3a831de9b613ea4171,10*
G04 Gerber Generator version 0.2*
G04 Scale: 100 percent, Rotated: No, Reflected: No *
G04 Dimensions in millimeters *
G04 leading zeros omitted , absolute positions ,4 integer and 5 decimal *
%FSLAX45Y45*%
%MOMM*%

%ADD10C,0.1500*%
%ADD11C,0.1300*%
%ADD12C,0.1524*%
%ADD13C,0.1200*%
%ADD14C,0.1000*%
%ADD15C,0.1530*%
%ADD16C,0.2540*%
%ADD17C,0.4000*%
%ADD18C,0.0167*%

%LPD*%
D10*
X8651506Y-836168D02*
G01*
X8651506Y-901700D01*
X8647442Y-913892D01*
X8643378Y-918210D01*
X8635250Y-922273D01*
X8626868Y-922273D01*
X8618740Y-918210D01*
X8614676Y-913892D01*
X8610612Y-901700D01*
X8610612Y-893571D01*
X8678430Y-836168D02*
G01*
X8678430Y-922273D01*
X8678430Y-922273D02*
G01*
X8727706Y-922273D01*
X8815844Y-856742D02*
G01*
X8811780Y-848613D01*
X8803652Y-840486D01*
X8795524Y-836168D01*
X8779268Y-836168D01*
X8770886Y-840486D01*
X8762758Y-848613D01*
X8758694Y-856742D01*
X8754630Y-868934D01*
X8754630Y-889507D01*
X8758694Y-901700D01*
X8762758Y-909828D01*
X8770886Y-918210D01*
X8779268Y-922273D01*
X8795524Y-922273D01*
X8803652Y-918210D01*
X8811780Y-909828D01*
X8815844Y-901700D01*
X8883916Y-836168D02*
G01*
X8883916Y-901700D01*
X8879852Y-913892D01*
X8875788Y-918210D01*
X8867406Y-922273D01*
X8859278Y-922273D01*
X8851150Y-918210D01*
X8847086Y-913892D01*
X8843022Y-901700D01*
X8843022Y-893571D01*
X8910840Y-836168D02*
G01*
X8910840Y-922273D01*
X8910840Y-922273D02*
G01*
X8959862Y-922273D01*
X9048254Y-856742D02*
G01*
X9044190Y-848613D01*
X9036062Y-840486D01*
X9027934Y-836168D01*
X9011424Y-836168D01*
X9003296Y-840486D01*
X8995168Y-848613D01*
X8991104Y-856742D01*
X8987040Y-868934D01*
X8987040Y-889507D01*
X8991104Y-901700D01*
X8995168Y-909828D01*
X9003296Y-918210D01*
X9011424Y-922273D01*
X9027934Y-922273D01*
X9036062Y-918210D01*
X9044190Y-909828D01*
X9048254Y-901700D01*
X9116326Y-836168D02*
G01*
X9116326Y-901700D01*
X9112262Y-913892D01*
X9107944Y-918210D01*
X9099816Y-922273D01*
X9091688Y-922273D01*
X9083560Y-918210D01*
X9079496Y-913892D01*
X9075432Y-901700D01*
X9075432Y-893571D01*
X9143250Y-836168D02*
G01*
X9143250Y-922273D01*
X9143250Y-922273D02*
G01*
X9192272Y-922273D01*
X9280664Y-856742D02*
G01*
X9276600Y-848613D01*
X9268472Y-840486D01*
X9260344Y-836168D01*
X9243834Y-836168D01*
X9235706Y-840486D01*
X9227578Y-848613D01*
X9223514Y-856742D01*
X9219196Y-868934D01*
X9219196Y-889507D01*
X9223514Y-901700D01*
X9227578Y-909828D01*
X9235706Y-918210D01*
X9243834Y-922273D01*
X9260344Y-922273D01*
X9268472Y-918210D01*
X9276600Y-909828D01*
X9280664Y-901700D01*
X9348482Y-836168D02*
G01*
X9348482Y-901700D01*
X9344418Y-913892D01*
X9340354Y-918210D01*
X9332226Y-922273D01*
X9324098Y-922273D01*
X9315970Y-918210D01*
X9311652Y-913892D01*
X9307588Y-901700D01*
X9307588Y-893571D01*
X9375660Y-836168D02*
G01*
X9375660Y-922273D01*
X9375660Y-922273D02*
G01*
X9424682Y-922273D01*
X9513074Y-856742D02*
G01*
X9509010Y-848613D01*
X9500882Y-840486D01*
X9492500Y-836168D01*
X9476244Y-836168D01*
X9468116Y-840486D01*
X9459988Y-848613D01*
X9455670Y-856742D01*
X9451606Y-868934D01*
X9451606Y-889507D01*
X9455670Y-901700D01*
X9459988Y-909828D01*
X9468116Y-918210D01*
X9476244Y-922273D01*
X9492500Y-922273D01*
X9500882Y-918210D01*
X9509010Y-909828D01*
X9513074Y-901700D01*
D11*
X297685Y-774697D02*
G01*
X233931Y-801875D01*
X297685Y-829307D02*
G01*
X233931Y-801875D01*
X329435Y-886457D02*
G01*
X324863Y-872995D01*
X311401Y-863851D01*
X288541Y-859279D01*
X275079Y-859279D01*
X252219Y-863851D01*
X238503Y-872995D01*
X233931Y-886457D01*
X233931Y-895601D01*
X238503Y-909317D01*
X252219Y-918207D01*
X275079Y-922779D01*
X288541Y-922779D01*
X311401Y-918207D01*
X324863Y-909317D01*
X329435Y-895601D01*
X329435Y-886457D01*
X256791Y-957323D02*
G01*
X252219Y-953005D01*
X247647Y-957323D01*
X252219Y-961895D01*
X256791Y-957323D01*
X306829Y-996439D02*
G01*
X311401Y-996439D01*
X320291Y-1001011D01*
X324863Y-1005583D01*
X329435Y-1014727D01*
X329435Y-1032761D01*
X324863Y-1041905D01*
X320291Y-1046477D01*
X311401Y-1051049D01*
X302257Y-1051049D01*
X293113Y-1046477D01*
X279397Y-1037333D01*
X233931Y-991867D01*
X233931Y-1055621D01*
D12*
X7783055Y-1379710D02*
G01*
X7773911Y-1384282D01*
X7765021Y-1393172D01*
X7760449Y-1402316D01*
X7760449Y-1420604D01*
X7765021Y-1429494D01*
X7773911Y-1438638D01*
X7783055Y-1443210D01*
X7796771Y-1447782D01*
X7819377Y-1447782D01*
X7833093Y-1443210D01*
X7842237Y-1438638D01*
X7851381Y-1429494D01*
X7855953Y-1420604D01*
X7855953Y-1402316D01*
X7851381Y-1393172D01*
X7842237Y-1384282D01*
X7833093Y-1379710D01*
X7778483Y-1349738D02*
G01*
X7773911Y-1340594D01*
X7760449Y-1326878D01*
X7855953Y-1326878D01*
X7808455Y-528812D02*
G01*
X7799311Y-533384D01*
X7790421Y-542274D01*
X7785849Y-551418D01*
X7785849Y-569706D01*
X7790421Y-578596D01*
X7799311Y-587740D01*
X7808455Y-592312D01*
X7822171Y-596884D01*
X7844777Y-596884D01*
X7858493Y-592312D01*
X7867637Y-587740D01*
X7876781Y-578596D01*
X7881353Y-569706D01*
X7881353Y-551418D01*
X7876781Y-542274D01*
X7867637Y-533384D01*
X7858493Y-528812D01*
X7808455Y-494268D02*
G01*
X7803883Y-494268D01*
X7794993Y-489696D01*
X7790421Y-485124D01*
X7785849Y-475980D01*
X7785849Y-457692D01*
X7790421Y-448802D01*
X7794993Y-444230D01*
X7803883Y-439658D01*
X7813027Y-439658D01*
X7822171Y-444230D01*
X7835887Y-453374D01*
X7881353Y-498840D01*
X7881353Y-435086D01*
X7141954Y-1407665D02*
G01*
X7137382Y-1398521D01*
X7128492Y-1389631D01*
X7119348Y-1385059D01*
X7101060Y-1385059D01*
X7092170Y-1389631D01*
X7083026Y-1398521D01*
X7078454Y-1407665D01*
X7073882Y-1421381D01*
X7073882Y-1443987D01*
X7078454Y-1457703D01*
X7083026Y-1466847D01*
X7092170Y-1475991D01*
X7101060Y-1480563D01*
X7119348Y-1480563D01*
X7128492Y-1475991D01*
X7137382Y-1466847D01*
X7141954Y-1457703D01*
X7181070Y-1385059D02*
G01*
X7231108Y-1385059D01*
X7203930Y-1421381D01*
X7217392Y-1421381D01*
X7226536Y-1425953D01*
X7231108Y-1430525D01*
X7235680Y-1443987D01*
X7235680Y-1453131D01*
X7231108Y-1466847D01*
X7221964Y-1475991D01*
X7208502Y-1480563D01*
X7194786Y-1480563D01*
X7181070Y-1475991D01*
X7176498Y-1471419D01*
X7171926Y-1462275D01*
X7167356Y-417068D02*
G01*
X7162784Y-407923D01*
X7153894Y-399034D01*
X7144750Y-394462D01*
X7126462Y-394462D01*
X7117572Y-399034D01*
X7108428Y-407923D01*
X7103856Y-417068D01*
X7099284Y-430784D01*
X7099284Y-453389D01*
X7103856Y-467105D01*
X7108428Y-476250D01*
X7117572Y-485394D01*
X7126462Y-489965D01*
X7144750Y-489965D01*
X7153894Y-485394D01*
X7162784Y-476250D01*
X7167356Y-467105D01*
X7242794Y-394462D02*
G01*
X7197328Y-457962D01*
X7265654Y-457962D01*
X7242794Y-394462D02*
G01*
X7242794Y-489965D01*
X6500357Y-478015D02*
G01*
X6491213Y-482587D01*
X6482323Y-491477D01*
X6477751Y-500621D01*
X6477751Y-518909D01*
X6482323Y-527799D01*
X6491213Y-536943D01*
X6500357Y-541515D01*
X6514073Y-546087D01*
X6536679Y-546087D01*
X6550395Y-541515D01*
X6559539Y-536943D01*
X6568683Y-527799D01*
X6573255Y-518909D01*
X6573255Y-500621D01*
X6568683Y-491477D01*
X6559539Y-482587D01*
X6550395Y-478015D01*
X6477751Y-393433D02*
G01*
X6477751Y-438899D01*
X6518645Y-443471D01*
X6514073Y-438899D01*
X6509501Y-425183D01*
X6509501Y-411467D01*
X6514073Y-398005D01*
X6523217Y-388861D01*
X6536679Y-384289D01*
X6545823Y-384289D01*
X6559539Y-388861D01*
X6568683Y-398005D01*
X6573255Y-411467D01*
X6573255Y-425183D01*
X6568683Y-438899D01*
X6564111Y-443471D01*
X6554967Y-448043D01*
X6500357Y-1430512D02*
G01*
X6491213Y-1435084D01*
X6482323Y-1443974D01*
X6477751Y-1453118D01*
X6477751Y-1471406D01*
X6482323Y-1480296D01*
X6491213Y-1489440D01*
X6500357Y-1494012D01*
X6514073Y-1498584D01*
X6536679Y-1498584D01*
X6550395Y-1494012D01*
X6559539Y-1489440D01*
X6568683Y-1480296D01*
X6573255Y-1471406D01*
X6573255Y-1453118D01*
X6568683Y-1443974D01*
X6559539Y-1435084D01*
X6550395Y-1430512D01*
X6491213Y-1345930D02*
G01*
X6482323Y-1350502D01*
X6477751Y-1363964D01*
X6477751Y-1373108D01*
X6482323Y-1386824D01*
X6495785Y-1395968D01*
X6518645Y-1400540D01*
X6541251Y-1400540D01*
X6559539Y-1395968D01*
X6568683Y-1386824D01*
X6573255Y-1373108D01*
X6573255Y-1368536D01*
X6568683Y-1355074D01*
X6559539Y-1345930D01*
X6545823Y-1341358D01*
X6541251Y-1341358D01*
X6527789Y-1345930D01*
X6518645Y-1355074D01*
X6514073Y-1368536D01*
X6514073Y-1373108D01*
X6518645Y-1386824D01*
X6527789Y-1395968D01*
X6541251Y-1400540D01*
X5166837Y-1443136D02*
G01*
X5157693Y-1447708D01*
X5148803Y-1456852D01*
X5144231Y-1465742D01*
X5144231Y-1484030D01*
X5148803Y-1493174D01*
X5157693Y-1502318D01*
X5166837Y-1506636D01*
X5180553Y-1511208D01*
X5203159Y-1511208D01*
X5216875Y-1506636D01*
X5226019Y-1502318D01*
X5235163Y-1493174D01*
X5239735Y-1484030D01*
X5239735Y-1465742D01*
X5235163Y-1456852D01*
X5226019Y-1447708D01*
X5216875Y-1443136D01*
X5162265Y-1413164D02*
G01*
X5157693Y-1404020D01*
X5144231Y-1390304D01*
X5239735Y-1390304D01*
X5144231Y-1333154D02*
G01*
X5148803Y-1346870D01*
X5162265Y-1355760D01*
X5185125Y-1360332D01*
X5198841Y-1360332D01*
X5221447Y-1355760D01*
X5235163Y-1346870D01*
X5239735Y-1333154D01*
X5239735Y-1324010D01*
X5235163Y-1310294D01*
X5221447Y-1301404D01*
X5198841Y-1296832D01*
X5185125Y-1296832D01*
X5162265Y-1301404D01*
X5148803Y-1310294D01*
X5144231Y-1324010D01*
X5144231Y-1333154D01*
D10*
X5204960Y-516117D02*
G01*
X5195816Y-520689D01*
X5186926Y-529579D01*
X5182354Y-538723D01*
X5182354Y-557011D01*
X5186926Y-565901D01*
X5195816Y-575045D01*
X5204960Y-579617D01*
X5218676Y-584189D01*
X5241282Y-584189D01*
X5254998Y-579617D01*
X5264142Y-575045D01*
X5273286Y-565901D01*
X5277858Y-557011D01*
X5277858Y-538723D01*
X5273286Y-529579D01*
X5264142Y-520689D01*
X5254998Y-516117D01*
X5200388Y-485891D02*
G01*
X5195816Y-477001D01*
X5182354Y-463285D01*
X5277858Y-463285D01*
X5200388Y-433313D02*
G01*
X5195816Y-424169D01*
X5182354Y-410453D01*
X5277858Y-410453D01*
D12*
X4538487Y-417068D02*
G01*
X4534169Y-407923D01*
X4525025Y-399034D01*
X4515881Y-394462D01*
X4497593Y-394462D01*
X4488703Y-399034D01*
X4479559Y-407923D01*
X4474987Y-417068D01*
X4470415Y-430784D01*
X4470415Y-453389D01*
X4474987Y-467105D01*
X4479559Y-476250D01*
X4488703Y-485394D01*
X4497593Y-489965D01*
X4515881Y-489965D01*
X4525025Y-485394D01*
X4534169Y-476250D01*
X4538487Y-467105D01*
X4568713Y-412495D02*
G01*
X4577603Y-407923D01*
X4591319Y-394462D01*
X4591319Y-489965D01*
X4630435Y-394462D02*
G01*
X4680473Y-394462D01*
X4653041Y-430784D01*
X4666757Y-430784D01*
X4675901Y-435355D01*
X4680473Y-439928D01*
X4685045Y-453389D01*
X4685045Y-462534D01*
X4680473Y-476250D01*
X4671329Y-485394D01*
X4657613Y-489965D01*
X4644151Y-489965D01*
X4630435Y-485394D01*
X4625863Y-480821D01*
X4621291Y-471678D01*
X4556419Y-1469400D02*
G01*
X4561753Y-1479814D01*
X4572167Y-1490228D01*
X4582327Y-1495308D01*
X4603155Y-1495308D01*
X4613569Y-1490228D01*
X4623983Y-1479814D01*
X4629317Y-1469400D01*
X4634397Y-1453652D01*
X4634397Y-1427744D01*
X4629317Y-1412250D01*
X4623983Y-1401836D01*
X4613569Y-1391422D01*
X4603155Y-1386342D01*
X4582327Y-1386342D01*
X4572167Y-1391422D01*
X4561753Y-1401836D01*
X4556419Y-1412250D01*
X4522129Y-1474480D02*
G01*
X4511715Y-1479814D01*
X4496221Y-1495308D01*
X4496221Y-1386342D01*
X4399447Y-1495308D02*
G01*
X4451517Y-1495308D01*
X4456597Y-1448572D01*
X4451517Y-1453652D01*
X4436023Y-1458986D01*
X4420275Y-1458986D01*
X4404781Y-1453652D01*
X4394367Y-1443492D01*
X4389287Y-1427744D01*
X4389287Y-1417330D01*
X4394367Y-1401836D01*
X4404781Y-1391422D01*
X4420275Y-1386342D01*
X4436023Y-1386342D01*
X4451517Y-1391422D01*
X4456597Y-1396502D01*
X4461931Y-1406916D01*
X3885275Y-520258D02*
G01*
X3876131Y-524830D01*
X3867241Y-533974D01*
X3862669Y-543118D01*
X3862669Y-561152D01*
X3867241Y-570296D01*
X3876131Y-579440D01*
X3885275Y-584012D01*
X3898991Y-588584D01*
X3921597Y-588584D01*
X3935313Y-584012D01*
X3944457Y-579440D01*
X3953601Y-570296D01*
X3957919Y-561152D01*
X3957919Y-543118D01*
X3953601Y-533974D01*
X3944457Y-524830D01*
X3935313Y-520258D01*
X3880703Y-490286D02*
G01*
X3876131Y-481142D01*
X3862669Y-467680D01*
X3957919Y-467680D01*
X3876131Y-383098D02*
G01*
X3867241Y-387670D01*
X3862669Y-401132D01*
X3862669Y-410276D01*
X3867241Y-423992D01*
X3880703Y-433136D01*
X3903563Y-437708D01*
X3926169Y-437708D01*
X3944457Y-433136D01*
X3953601Y-423992D01*
X3957919Y-410276D01*
X3957919Y-405704D01*
X3953601Y-392242D01*
X3944457Y-383098D01*
X3930741Y-378526D01*
X3926169Y-378526D01*
X3912707Y-383098D01*
X3903563Y-392242D01*
X3898991Y-405704D01*
X3898991Y-410276D01*
X3903563Y-423992D01*
X3912707Y-433136D01*
X3926169Y-437708D01*
X3922262Y-1417817D02*
G01*
X3913118Y-1422135D01*
X3904228Y-1431279D01*
X3899656Y-1440423D01*
X3899656Y-1458711D01*
X3904228Y-1467601D01*
X3913118Y-1476745D01*
X3922262Y-1481317D01*
X3935978Y-1485889D01*
X3958584Y-1485889D01*
X3972300Y-1481317D01*
X3981444Y-1476745D01*
X3990588Y-1467601D01*
X3995160Y-1458711D01*
X3995160Y-1440423D01*
X3990588Y-1431279D01*
X3981444Y-1422135D01*
X3972300Y-1417817D01*
X3917690Y-1387591D02*
G01*
X3913118Y-1378701D01*
X3899656Y-1364985D01*
X3995160Y-1364985D01*
X3899656Y-1271259D02*
G01*
X3995160Y-1316725D01*
X3899656Y-1335013D02*
G01*
X3899656Y-1271259D01*
X2906265Y-681220D02*
G01*
X2897121Y-685538D01*
X2888231Y-694682D01*
X2883659Y-703826D01*
X2883659Y-722114D01*
X2888231Y-731004D01*
X2897121Y-740148D01*
X2906265Y-744720D01*
X2919981Y-749292D01*
X2942587Y-749292D01*
X2956303Y-744720D01*
X2965447Y-740148D01*
X2974591Y-731004D01*
X2979163Y-722114D01*
X2979163Y-703826D01*
X2974591Y-694682D01*
X2965447Y-685538D01*
X2956303Y-681220D01*
X2883659Y-587494D02*
G01*
X2979163Y-632960D01*
X2883659Y-650994D02*
G01*
X2883659Y-587494D01*
X1371086Y-798316D02*
G01*
X1360672Y-803650D01*
X1350258Y-814064D01*
X1345178Y-824224D01*
X1345178Y-845052D01*
X1350258Y-855466D01*
X1360672Y-865880D01*
X1371086Y-871214D01*
X1386834Y-876294D01*
X1412742Y-876294D01*
X1428236Y-871214D01*
X1438650Y-865880D01*
X1449064Y-855466D01*
X1454144Y-845052D01*
X1454144Y-824224D01*
X1449064Y-814064D01*
X1438650Y-803650D01*
X1428236Y-798316D01*
X1371086Y-758946D02*
G01*
X1366006Y-758946D01*
X1355592Y-753612D01*
X1350258Y-748532D01*
X1345178Y-738118D01*
X1345178Y-717290D01*
X1350258Y-706876D01*
X1355592Y-701796D01*
X1366006Y-696462D01*
X1376420Y-696462D01*
X1386834Y-701796D01*
X1402328Y-712210D01*
X1454144Y-764026D01*
X1454144Y-691382D01*
X1345178Y-625850D02*
G01*
X1350258Y-641344D01*
X1366006Y-651758D01*
X1391914Y-657092D01*
X1407408Y-657092D01*
X1433570Y-651758D01*
X1449064Y-641344D01*
X1454144Y-625850D01*
X1454144Y-615436D01*
X1449064Y-599942D01*
X1433570Y-589528D01*
X1407408Y-584194D01*
X1391914Y-584194D01*
X1366006Y-589528D01*
X1350258Y-599942D01*
X1345178Y-615436D01*
X1345178Y-625850D01*
X8424689Y-658362D02*
G01*
X8420117Y-649218D01*
X8411227Y-640328D01*
X8402083Y-635756D01*
X8383795Y-635756D01*
X8374905Y-640328D01*
X8365761Y-649218D01*
X8361189Y-658362D01*
X8356617Y-672078D01*
X8356617Y-694684D01*
X8361189Y-708400D01*
X8365761Y-717544D01*
X8374905Y-726688D01*
X8383795Y-731260D01*
X8402083Y-731260D01*
X8411227Y-726688D01*
X8420117Y-717544D01*
X8424689Y-708400D01*
X8459233Y-658362D02*
G01*
X8459233Y-653790D01*
X8463805Y-644900D01*
X8468377Y-640328D01*
X8477521Y-635756D01*
X8495809Y-635756D01*
X8504699Y-640328D01*
X8509271Y-644900D01*
X8513843Y-653790D01*
X8513843Y-662934D01*
X8509271Y-672078D01*
X8500127Y-685794D01*
X8454661Y-731260D01*
X8518415Y-731260D01*
X8548387Y-653790D02*
G01*
X8557531Y-649218D01*
X8571247Y-635756D01*
X8571247Y-731260D01*
X1359489Y-1310624D02*
G01*
X1349075Y-1315958D01*
X1338661Y-1326372D01*
X1333581Y-1336532D01*
X1333581Y-1357360D01*
X1338661Y-1367774D01*
X1349075Y-1378188D01*
X1359489Y-1383522D01*
X1375237Y-1388602D01*
X1401145Y-1388602D01*
X1416639Y-1383522D01*
X1427053Y-1378188D01*
X1437467Y-1367774D01*
X1442547Y-1357360D01*
X1442547Y-1336532D01*
X1437467Y-1326372D01*
X1427053Y-1315958D01*
X1416639Y-1310624D01*
X1359489Y-1271254D02*
G01*
X1354409Y-1271254D01*
X1343995Y-1265920D01*
X1338661Y-1260840D01*
X1333581Y-1250426D01*
X1333581Y-1229598D01*
X1338661Y-1219184D01*
X1343995Y-1214104D01*
X1354409Y-1208770D01*
X1364823Y-1208770D01*
X1375237Y-1214104D01*
X1390731Y-1224518D01*
X1442547Y-1276334D01*
X1442547Y-1203690D01*
X1333581Y-1158986D02*
G01*
X1333581Y-1101836D01*
X1375237Y-1133078D01*
X1375237Y-1117330D01*
X1380317Y-1106916D01*
X1385397Y-1101836D01*
X1401145Y-1096502D01*
X1411559Y-1096502D01*
X1427053Y-1101836D01*
X1437467Y-1112250D01*
X1442547Y-1127744D01*
X1442547Y-1143492D01*
X1437467Y-1158986D01*
X1432387Y-1164066D01*
X1421973Y-1169400D01*
X1992952Y-1053744D02*
G01*
X1983808Y-1058316D01*
X1974918Y-1067460D01*
X1970346Y-1076350D01*
X1970346Y-1094638D01*
X1974918Y-1103782D01*
X1983808Y-1112926D01*
X1992952Y-1117244D01*
X2006668Y-1121816D01*
X2029274Y-1121816D01*
X2042990Y-1117244D01*
X2052134Y-1112926D01*
X2061278Y-1103782D01*
X2065850Y-1094638D01*
X2065850Y-1076350D01*
X2061278Y-1067460D01*
X2052134Y-1058316D01*
X2042990Y-1053744D01*
X1992952Y-1019200D02*
G01*
X1988380Y-1019200D01*
X1979490Y-1014628D01*
X1974918Y-1010056D01*
X1970346Y-1000912D01*
X1970346Y-982878D01*
X1974918Y-973734D01*
X1979490Y-969162D01*
X1988380Y-964590D01*
X1997524Y-964590D01*
X2006668Y-969162D01*
X2020384Y-978306D01*
X2065850Y-1023772D01*
X2065850Y-960018D01*
X1970346Y-884580D02*
G01*
X2033846Y-930046D01*
X2033846Y-861974D01*
X1970346Y-884580D02*
G01*
X2065850Y-884580D01*
X952494Y-229615D02*
G01*
X952494Y-120650D01*
X952494Y-229615D02*
G01*
X916172Y-229615D01*
X900424Y-224536D01*
X890264Y-214121D01*
X884930Y-203707D01*
X879850Y-187960D01*
X879850Y-162052D01*
X884930Y-146557D01*
X890264Y-136144D01*
X900424Y-125729D01*
X916172Y-120650D01*
X952494Y-120650D01*
X840226Y-203707D02*
G01*
X840226Y-208787D01*
X835146Y-219202D01*
X829812Y-224536D01*
X819398Y-229615D01*
X798824Y-229615D01*
X788410Y-224536D01*
X783076Y-219202D01*
X777996Y-208787D01*
X777996Y-198373D01*
X783076Y-187960D01*
X793490Y-172465D01*
X845560Y-120650D01*
X772662Y-120650D01*
X723897Y-1637281D02*
G01*
X723897Y-1746247D01*
X723897Y-1637281D02*
G01*
X760219Y-1637281D01*
X775967Y-1642361D01*
X786127Y-1652775D01*
X791461Y-1663189D01*
X796541Y-1678937D01*
X796541Y-1704845D01*
X791461Y-1720339D01*
X786127Y-1730753D01*
X775967Y-1741167D01*
X760219Y-1746247D01*
X723897Y-1746247D01*
X841245Y-1637281D02*
G01*
X898395Y-1637281D01*
X867407Y-1678937D01*
X882901Y-1678937D01*
X893315Y-1684017D01*
X898395Y-1689097D01*
X903729Y-1704845D01*
X903729Y-1715259D01*
X898395Y-1730753D01*
X887981Y-1741167D01*
X872487Y-1746247D01*
X856993Y-1746247D01*
X841245Y-1741167D01*
X836165Y-1736087D01*
X830831Y-1725673D01*
X2446202Y-646681D02*
G01*
X2446202Y-755647D01*
X2446202Y-755647D02*
G01*
X2508432Y-755647D01*
X2542722Y-667509D02*
G01*
X2553136Y-662175D01*
X2568884Y-646681D01*
X2568884Y-755647D01*
X2362194Y-1218181D02*
G01*
X2362194Y-1327147D01*
X2362194Y-1327147D02*
G01*
X2424424Y-1327147D01*
X2464048Y-1244089D02*
G01*
X2464048Y-1239009D01*
X2469128Y-1228595D01*
X2474462Y-1223261D01*
X2484876Y-1218181D01*
X2505704Y-1218181D01*
X2515864Y-1223261D01*
X2521198Y-1228595D01*
X2526278Y-1239009D01*
X2526278Y-1249423D01*
X2521198Y-1259837D01*
X2510784Y-1275331D01*
X2458714Y-1327147D01*
X2531612Y-1327147D01*
X7608049Y-1447782D02*
G01*
X7703553Y-1447782D01*
X7608049Y-1447782D02*
G01*
X7608049Y-1406888D01*
X7612621Y-1393172D01*
X7617193Y-1388600D01*
X7626083Y-1384282D01*
X7635227Y-1384282D01*
X7644371Y-1388600D01*
X7648943Y-1393172D01*
X7653515Y-1406888D01*
X7653515Y-1447782D01*
X7653515Y-1416032D02*
G01*
X7703553Y-1384282D01*
X7626083Y-1354056D02*
G01*
X7621511Y-1345166D01*
X7608049Y-1331450D01*
X7703553Y-1331450D01*
X7633449Y-584184D02*
G01*
X7728953Y-584184D01*
X7633449Y-584184D02*
G01*
X7633449Y-543290D01*
X7638021Y-529574D01*
X7642593Y-525002D01*
X7651483Y-520684D01*
X7660627Y-520684D01*
X7669771Y-525002D01*
X7674343Y-529574D01*
X7678915Y-543290D01*
X7678915Y-584184D01*
X7678915Y-552434D02*
G01*
X7728953Y-520684D01*
X7656055Y-486140D02*
G01*
X7651483Y-486140D01*
X7642593Y-481568D01*
X7638021Y-476996D01*
X7633449Y-467852D01*
X7633449Y-449564D01*
X7638021Y-440674D01*
X7642593Y-436102D01*
X7651483Y-431530D01*
X7660627Y-431530D01*
X7669771Y-436102D01*
X7683487Y-444992D01*
X7728953Y-490458D01*
X7728953Y-426958D01*
X8127989Y-1245364D02*
G01*
X8127989Y-1340868D01*
X8127989Y-1245364D02*
G01*
X8168883Y-1245364D01*
X8182599Y-1249936D01*
X8187171Y-1254508D01*
X8191489Y-1263398D01*
X8191489Y-1272542D01*
X8187171Y-1281686D01*
X8182599Y-1286258D01*
X8168883Y-1290830D01*
X8127989Y-1290830D01*
X8159739Y-1290830D02*
G01*
X8191489Y-1340868D01*
X8230605Y-1245364D02*
G01*
X8280643Y-1245364D01*
X8253465Y-1281686D01*
X8267181Y-1281686D01*
X8276071Y-1286258D01*
X8280643Y-1290830D01*
X8285215Y-1304292D01*
X8285215Y-1313436D01*
X8280643Y-1327152D01*
X8271499Y-1336296D01*
X8258037Y-1340868D01*
X8244321Y-1340868D01*
X8230605Y-1336296D01*
X8226033Y-1331724D01*
X8221715Y-1322580D01*
X7912849Y-1460482D02*
G01*
X8008353Y-1460482D01*
X7912849Y-1460482D02*
G01*
X7912849Y-1419588D01*
X7917421Y-1405872D01*
X7921993Y-1401300D01*
X7930883Y-1396982D01*
X7940027Y-1396982D01*
X7949171Y-1401300D01*
X7953743Y-1405872D01*
X7958315Y-1419588D01*
X7958315Y-1460482D01*
X7958315Y-1428732D02*
G01*
X8008353Y-1396982D01*
X7912849Y-1321290D02*
G01*
X7976349Y-1366756D01*
X7976349Y-1298684D01*
X7912849Y-1321290D02*
G01*
X8008353Y-1321290D01*
X7976369Y-889050D02*
G01*
X8071619Y-889050D01*
X7976369Y-889050D02*
G01*
X7976369Y-848156D01*
X7980941Y-834440D01*
X7985259Y-829868D01*
X7994403Y-825296D01*
X8003547Y-825296D01*
X8012691Y-829868D01*
X8017263Y-834440D01*
X8021835Y-848156D01*
X8021835Y-889050D01*
X8021835Y-857300D02*
G01*
X8071619Y-825296D01*
X7976369Y-740714D02*
G01*
X7976369Y-786180D01*
X8017263Y-790752D01*
X8012691Y-786180D01*
X8008119Y-772718D01*
X8008119Y-759002D01*
X8012691Y-745286D01*
X8021835Y-736142D01*
X8035297Y-731824D01*
X8044441Y-731824D01*
X8058157Y-736142D01*
X8067301Y-745286D01*
X8071619Y-759002D01*
X8071619Y-772718D01*
X8067301Y-786180D01*
X8062729Y-790752D01*
X8053585Y-795324D01*
X6642851Y-520684D02*
G01*
X6738355Y-520684D01*
X6642851Y-520684D02*
G01*
X6642851Y-479790D01*
X6647423Y-466074D01*
X6651995Y-461502D01*
X6660885Y-457184D01*
X6670029Y-457184D01*
X6679173Y-461502D01*
X6683745Y-466074D01*
X6688317Y-479790D01*
X6688317Y-520684D01*
X6688317Y-488934D02*
G01*
X6738355Y-457184D01*
X6656313Y-372602D02*
G01*
X6647423Y-377174D01*
X6642851Y-390636D01*
X6642851Y-399780D01*
X6647423Y-413496D01*
X6660885Y-422640D01*
X6683745Y-426958D01*
X6706351Y-426958D01*
X6724639Y-422640D01*
X6733783Y-413496D01*
X6738355Y-399780D01*
X6738355Y-395208D01*
X6733783Y-381492D01*
X6724639Y-372602D01*
X6710923Y-368030D01*
X6706351Y-368030D01*
X6692889Y-372602D01*
X6683745Y-381492D01*
X6679173Y-395208D01*
X6679173Y-399780D01*
X6683745Y-413496D01*
X6692889Y-422640D01*
X6706351Y-426958D01*
X6642851Y-1498584D02*
G01*
X6738355Y-1498584D01*
X6642851Y-1498584D02*
G01*
X6642851Y-1457690D01*
X6647423Y-1443974D01*
X6651995Y-1439402D01*
X6660885Y-1435084D01*
X6670029Y-1435084D01*
X6679173Y-1439402D01*
X6683745Y-1443974D01*
X6688317Y-1457690D01*
X6688317Y-1498584D01*
X6688317Y-1466834D02*
G01*
X6738355Y-1435084D01*
X6642851Y-1341358D02*
G01*
X6738355Y-1386824D01*
X6642851Y-1404858D02*
G01*
X6642851Y-1341358D01*
X6160249Y-1041397D02*
G01*
X6255753Y-1041397D01*
X6160249Y-1041397D02*
G01*
X6160249Y-1000503D01*
X6164821Y-986787D01*
X6169393Y-982215D01*
X6178283Y-977897D01*
X6187427Y-977897D01*
X6196571Y-982215D01*
X6201143Y-986787D01*
X6205715Y-1000503D01*
X6205715Y-1041397D01*
X6205715Y-1009647D02*
G01*
X6255753Y-977897D01*
X6160249Y-925065D02*
G01*
X6164821Y-938781D01*
X6173711Y-943353D01*
X6182855Y-943353D01*
X6191999Y-938781D01*
X6196571Y-929637D01*
X6201143Y-911349D01*
X6205715Y-897887D01*
X6214605Y-888743D01*
X6223749Y-884171D01*
X6237465Y-884171D01*
X6246609Y-888743D01*
X6251181Y-893315D01*
X6255753Y-906777D01*
X6255753Y-925065D01*
X6251181Y-938781D01*
X6246609Y-943353D01*
X6237465Y-947671D01*
X6223749Y-947671D01*
X6214605Y-943353D01*
X6205715Y-934209D01*
X6201143Y-920493D01*
X6196571Y-902205D01*
X6191999Y-893315D01*
X6182855Y-888743D01*
X6173711Y-888743D01*
X6164821Y-893315D01*
X6160249Y-906777D01*
X6160249Y-925065D01*
X6325339Y-1041382D02*
G01*
X6420843Y-1041382D01*
X6325339Y-1041382D02*
G01*
X6325339Y-1000488D01*
X6329911Y-986772D01*
X6334483Y-982200D01*
X6343373Y-977882D01*
X6352517Y-977882D01*
X6361661Y-982200D01*
X6366233Y-986772D01*
X6370805Y-1000488D01*
X6370805Y-1041382D01*
X6370805Y-1009632D02*
G01*
X6420843Y-977882D01*
X6357089Y-888728D02*
G01*
X6370805Y-893300D01*
X6379695Y-902190D01*
X6384267Y-915906D01*
X6384267Y-920478D01*
X6379695Y-934194D01*
X6370805Y-943338D01*
X6357089Y-947656D01*
X6352517Y-947656D01*
X6338801Y-943338D01*
X6329911Y-934194D01*
X6325339Y-920478D01*
X6325339Y-915906D01*
X6329911Y-902190D01*
X6338801Y-893300D01*
X6357089Y-888728D01*
X6379695Y-888728D01*
X6402555Y-893300D01*
X6416271Y-902190D01*
X6420843Y-915906D01*
X6420843Y-925050D01*
X6416271Y-938766D01*
X6407127Y-943338D01*
X6248361Y-1421630D02*
G01*
X6248361Y-1326126D01*
X6248361Y-1421630D02*
G01*
X6207467Y-1421630D01*
X6193751Y-1417058D01*
X6189179Y-1412486D01*
X6184861Y-1403596D01*
X6184861Y-1394452D01*
X6189179Y-1385308D01*
X6193751Y-1380736D01*
X6207467Y-1376164D01*
X6248361Y-1376164D01*
X6216611Y-1376164D02*
G01*
X6184861Y-1326126D01*
X6154635Y-1403596D02*
G01*
X6145745Y-1408168D01*
X6132029Y-1421630D01*
X6132029Y-1326126D01*
X6074625Y-1421630D02*
G01*
X6088341Y-1417058D01*
X6097485Y-1403596D01*
X6102057Y-1380736D01*
X6102057Y-1367274D01*
X6097485Y-1344414D01*
X6088341Y-1330698D01*
X6074625Y-1326126D01*
X6065735Y-1326126D01*
X6052019Y-1330698D01*
X6042875Y-1344414D01*
X6038303Y-1367274D01*
X6038303Y-1380736D01*
X6042875Y-1403596D01*
X6052019Y-1417058D01*
X6065735Y-1421630D01*
X6074625Y-1421630D01*
X4979141Y-1485811D02*
G01*
X5074645Y-1485811D01*
X4979141Y-1485811D02*
G01*
X4979141Y-1444917D01*
X4983713Y-1431455D01*
X4988285Y-1426883D01*
X4997175Y-1422311D01*
X5006319Y-1422311D01*
X5015463Y-1426883D01*
X5020035Y-1431455D01*
X5024607Y-1444917D01*
X5024607Y-1485811D01*
X5024607Y-1454061D02*
G01*
X5074645Y-1422311D01*
X4997175Y-1392339D02*
G01*
X4992603Y-1383195D01*
X4979141Y-1369479D01*
X5074645Y-1369479D01*
X4997175Y-1339507D02*
G01*
X4992603Y-1330363D01*
X4979141Y-1316901D01*
X5074645Y-1316901D01*
X5029954Y-571489D02*
G01*
X5125458Y-571489D01*
X5029954Y-571489D02*
G01*
X5029954Y-530595D01*
X5034526Y-516879D01*
X5039098Y-512307D01*
X5047988Y-507989D01*
X5057132Y-507989D01*
X5066276Y-512307D01*
X5070848Y-516879D01*
X5075420Y-530595D01*
X5075420Y-571489D01*
X5075420Y-539739D02*
G01*
X5125458Y-507989D01*
X5047988Y-477763D02*
G01*
X5043416Y-468873D01*
X5029954Y-455157D01*
X5125458Y-455157D01*
X5029954Y-379719D02*
G01*
X5093454Y-425185D01*
X5093454Y-356859D01*
X5029954Y-379719D02*
G01*
X5125458Y-379719D01*
D13*
X5469120Y-1130287D02*
G01*
X5545574Y-1130287D01*
X5469120Y-1130287D02*
G01*
X5469120Y-1097521D01*
X5472676Y-1086599D01*
X5476486Y-1083043D01*
X5483598Y-1079487D01*
X5490964Y-1079487D01*
X5498330Y-1083043D01*
X5501886Y-1086599D01*
X5505442Y-1097521D01*
X5505442Y-1130287D01*
X5505442Y-1104887D02*
G01*
X5545574Y-1079487D01*
X5483598Y-1055357D02*
G01*
X5480042Y-1047991D01*
X5469120Y-1037323D01*
X5545574Y-1037323D01*
X5469120Y-969505D02*
G01*
X5469120Y-1005827D01*
X5501886Y-1009637D01*
X5498330Y-1005827D01*
X5494520Y-994905D01*
X5494520Y-984237D01*
X5498330Y-973315D01*
X5505442Y-965949D01*
X5516364Y-962393D01*
X5523730Y-962393D01*
X5534652Y-965949D01*
X5541764Y-973315D01*
X5545574Y-984237D01*
X5545574Y-994905D01*
X5541764Y-1005827D01*
X5538208Y-1009637D01*
X5531096Y-1013193D01*
D12*
X5296641Y-1511211D02*
G01*
X5392145Y-1511211D01*
X5296641Y-1511211D02*
G01*
X5296641Y-1470317D01*
X5301213Y-1456855D01*
X5305785Y-1452283D01*
X5314675Y-1447711D01*
X5323819Y-1447711D01*
X5332963Y-1452283D01*
X5337535Y-1456855D01*
X5342107Y-1470317D01*
X5342107Y-1511211D01*
X5342107Y-1479461D02*
G01*
X5392145Y-1447711D01*
X5314675Y-1417739D02*
G01*
X5310103Y-1408595D01*
X5296641Y-1394879D01*
X5392145Y-1394879D01*
X5296641Y-1342301D02*
G01*
X5301213Y-1355763D01*
X5310103Y-1360335D01*
X5319247Y-1360335D01*
X5328391Y-1355763D01*
X5332963Y-1346873D01*
X5337535Y-1328585D01*
X5342107Y-1314869D01*
X5351251Y-1305725D01*
X5360141Y-1301407D01*
X5373857Y-1301407D01*
X5383001Y-1305725D01*
X5387573Y-1310297D01*
X5392145Y-1324013D01*
X5392145Y-1342301D01*
X5387573Y-1355763D01*
X5383001Y-1360335D01*
X5373857Y-1364907D01*
X5360141Y-1364907D01*
X5351251Y-1360335D01*
X5342107Y-1351191D01*
X5337535Y-1337729D01*
X5332963Y-1319441D01*
X5328391Y-1310297D01*
X5319247Y-1305725D01*
X5310103Y-1305725D01*
X5301213Y-1310297D01*
X5296641Y-1324013D01*
X5296641Y-1342301D01*
X5372851Y-596879D02*
G01*
X5468355Y-596879D01*
X5372851Y-596879D02*
G01*
X5372851Y-555985D01*
X5377423Y-542269D01*
X5381995Y-537697D01*
X5390885Y-533379D01*
X5400029Y-533379D01*
X5409173Y-537697D01*
X5413745Y-542269D01*
X5418317Y-555985D01*
X5418317Y-596879D01*
X5418317Y-565129D02*
G01*
X5468355Y-533379D01*
X5395457Y-498581D02*
G01*
X5390885Y-498581D01*
X5381995Y-494263D01*
X5377423Y-489691D01*
X5372851Y-480547D01*
X5372851Y-462259D01*
X5377423Y-453369D01*
X5381995Y-448797D01*
X5390885Y-444225D01*
X5400029Y-444225D01*
X5409173Y-448797D01*
X5422889Y-457687D01*
X5468355Y-503153D01*
X5468355Y-439653D01*
X5390885Y-409681D02*
G01*
X5386313Y-400537D01*
X5372851Y-386821D01*
X5468355Y-386821D01*
X4001256Y-596892D02*
G01*
X4096760Y-596892D01*
X4001256Y-596892D02*
G01*
X4001256Y-555998D01*
X4005828Y-542282D01*
X4010400Y-537710D01*
X4019290Y-533138D01*
X4028434Y-533138D01*
X4037578Y-537710D01*
X4042150Y-542282D01*
X4046722Y-555998D01*
X4046722Y-596892D01*
X4046722Y-565142D02*
G01*
X4096760Y-533138D01*
X4023862Y-498594D02*
G01*
X4019290Y-498594D01*
X4010400Y-494276D01*
X4005828Y-489704D01*
X4001256Y-480560D01*
X4001256Y-462272D01*
X4005828Y-453382D01*
X4010400Y-448810D01*
X4019290Y-444238D01*
X4028434Y-444238D01*
X4037578Y-448810D01*
X4051294Y-457700D01*
X4096760Y-503166D01*
X4096760Y-439666D01*
X4023862Y-405122D02*
G01*
X4019290Y-405122D01*
X4010400Y-400550D01*
X4005828Y-395978D01*
X4001256Y-386834D01*
X4001256Y-368800D01*
X4005828Y-359656D01*
X4010400Y-355084D01*
X4019290Y-350512D01*
X4028434Y-350512D01*
X4037578Y-355084D01*
X4051294Y-364228D01*
X4096760Y-409694D01*
X4096760Y-345940D01*
X4039369Y-1524068D02*
G01*
X4134619Y-1524068D01*
X4039369Y-1524068D02*
G01*
X4039369Y-1483174D01*
X4043941Y-1469458D01*
X4048259Y-1464886D01*
X4057403Y-1460314D01*
X4066547Y-1460314D01*
X4075691Y-1464886D01*
X4080263Y-1469458D01*
X4084835Y-1483174D01*
X4084835Y-1524068D01*
X4084835Y-1492064D02*
G01*
X4134619Y-1460314D01*
X4061975Y-1425770D02*
G01*
X4057403Y-1425770D01*
X4048259Y-1421198D01*
X4043941Y-1416626D01*
X4039369Y-1407736D01*
X4039369Y-1389448D01*
X4043941Y-1380304D01*
X4048259Y-1375732D01*
X4057403Y-1371160D01*
X4066547Y-1371160D01*
X4075691Y-1375732D01*
X4089407Y-1384876D01*
X4134619Y-1430342D01*
X4134619Y-1366842D01*
X4039369Y-1291150D02*
G01*
X4102869Y-1336616D01*
X4102869Y-1268544D01*
X4039369Y-1291150D02*
G01*
X4134619Y-1291150D01*
D14*
X3385301Y-850905D02*
G01*
X3318499Y-850905D01*
X3385301Y-850905D02*
G01*
X3385301Y-879607D01*
X3382253Y-889005D01*
X3378951Y-892307D01*
X3372601Y-895355D01*
X3366251Y-895355D01*
X3359901Y-892307D01*
X3356599Y-889005D01*
X3353551Y-879607D01*
X3353551Y-850905D01*
X3353551Y-873257D02*
G01*
X3318499Y-895355D01*
X3369299Y-919739D02*
G01*
X3372601Y-919739D01*
X3378951Y-922787D01*
X3382253Y-926089D01*
X3385301Y-932439D01*
X3385301Y-945139D01*
X3382253Y-951489D01*
X3378951Y-954537D01*
X3372601Y-957839D01*
X3366251Y-957839D01*
X3359901Y-954537D01*
X3350249Y-948187D01*
X3318499Y-916437D01*
X3318499Y-960887D01*
X3385301Y-1020069D02*
G01*
X3385301Y-988319D01*
X3356599Y-985271D01*
X3359901Y-988319D01*
X3362949Y-997971D01*
X3362949Y-1007369D01*
X3359901Y-1017021D01*
X3353551Y-1023371D01*
X3343899Y-1026419D01*
X3337549Y-1026419D01*
X3328151Y-1023371D01*
X3321801Y-1017021D01*
X3318499Y-1007369D01*
X3318499Y-997971D01*
X3321801Y-988319D01*
X3324849Y-985271D01*
X3331199Y-981969D01*
D12*
X3721867Y-609678D02*
G01*
X3817117Y-609678D01*
X3721867Y-609678D02*
G01*
X3721867Y-568784D01*
X3726439Y-555068D01*
X3730757Y-550496D01*
X3739901Y-545924D01*
X3749045Y-545924D01*
X3758189Y-550496D01*
X3762761Y-555068D01*
X3767333Y-568784D01*
X3767333Y-609678D01*
X3767333Y-577674D02*
G01*
X3817117Y-545924D01*
X3744473Y-511380D02*
G01*
X3739901Y-511380D01*
X3730757Y-506808D01*
X3726439Y-502236D01*
X3721867Y-493346D01*
X3721867Y-475058D01*
X3726439Y-465914D01*
X3730757Y-461342D01*
X3739901Y-456770D01*
X3749045Y-456770D01*
X3758189Y-461342D01*
X3771905Y-470486D01*
X3817117Y-515952D01*
X3817117Y-452452D01*
X3735329Y-367870D02*
G01*
X3726439Y-372442D01*
X3721867Y-385904D01*
X3721867Y-395048D01*
X3726439Y-408764D01*
X3739901Y-417908D01*
X3762761Y-422226D01*
X3785367Y-422226D01*
X3803655Y-417908D01*
X3812799Y-408764D01*
X3817117Y-395048D01*
X3817117Y-390476D01*
X3812799Y-376760D01*
X3803655Y-367870D01*
X3789939Y-363298D01*
X3785367Y-363298D01*
X3771905Y-367870D01*
X3762761Y-376760D01*
X3758189Y-390476D01*
X3758189Y-395048D01*
X3762761Y-408764D01*
X3771905Y-417908D01*
X3785367Y-422226D01*
X3734556Y-1511289D02*
G01*
X3830060Y-1511289D01*
X3734556Y-1511289D02*
G01*
X3734556Y-1470395D01*
X3739128Y-1456679D01*
X3743700Y-1452107D01*
X3752590Y-1447535D01*
X3761734Y-1447535D01*
X3770878Y-1452107D01*
X3775450Y-1456679D01*
X3780022Y-1470395D01*
X3780022Y-1511289D01*
X3780022Y-1479539D02*
G01*
X3830060Y-1447535D01*
X3757162Y-1412991D02*
G01*
X3752590Y-1412991D01*
X3743700Y-1408673D01*
X3739128Y-1404101D01*
X3734556Y-1394957D01*
X3734556Y-1376669D01*
X3739128Y-1367779D01*
X3743700Y-1363207D01*
X3752590Y-1358635D01*
X3761734Y-1358635D01*
X3770878Y-1363207D01*
X3784594Y-1372097D01*
X3830060Y-1417563D01*
X3830060Y-1354063D01*
X3734556Y-1260337D02*
G01*
X3830060Y-1305803D01*
X3734556Y-1324091D02*
G01*
X3734556Y-1260337D01*
X6922249Y-622287D02*
G01*
X6990321Y-622287D01*
X7004037Y-617715D01*
X7013181Y-608571D01*
X7017753Y-595109D01*
X7017753Y-585965D01*
X7013181Y-572249D01*
X7004037Y-563105D01*
X6990321Y-558787D01*
X6922249Y-558787D01*
X6944855Y-524243D02*
G01*
X6940283Y-524243D01*
X6931393Y-519671D01*
X6926821Y-515099D01*
X6922249Y-505955D01*
X6922249Y-487667D01*
X6926821Y-478777D01*
X6931393Y-474205D01*
X6940283Y-469633D01*
X6949427Y-469633D01*
X6958571Y-474205D01*
X6972287Y-483095D01*
X7017753Y-528561D01*
X7017753Y-465061D01*
X4671481Y-1430792D02*
G01*
X4749459Y-1430792D01*
X4764953Y-1425712D01*
X4775367Y-1415298D01*
X4780447Y-1399550D01*
X4780447Y-1389136D01*
X4775367Y-1373642D01*
X4764953Y-1363228D01*
X4749459Y-1358148D01*
X4671481Y-1358148D01*
X4671481Y-1261374D02*
G01*
X4671481Y-1313444D01*
X4718217Y-1318524D01*
X4713137Y-1313444D01*
X4707803Y-1297696D01*
X4707803Y-1282202D01*
X4713137Y-1266708D01*
X4723297Y-1256294D01*
X4739045Y-1250960D01*
X4749459Y-1250960D01*
X4764953Y-1256294D01*
X4775367Y-1266708D01*
X4780447Y-1282202D01*
X4780447Y-1297696D01*
X4775367Y-1313444D01*
X4770287Y-1318524D01*
X4759873Y-1323858D01*
D15*
X7760484Y-1113010D02*
G01*
X7760484Y-1173005D01*
X7780487Y-1128021D02*
G01*
X7840487Y-1128021D01*
X7780482Y-1158016D02*
G01*
X7840482Y-1158016D01*
X7860484Y-1112997D02*
G01*
X7860484Y-1172999D01*
X7885884Y-791984D02*
G01*
X7885884Y-731989D01*
X7865882Y-776973D02*
G01*
X7805882Y-776973D01*
X7865887Y-746978D02*
G01*
X7805887Y-746978D01*
X7785884Y-791997D02*
G01*
X7785884Y-731994D01*
X7120097Y-1332697D02*
G01*
X7180092Y-1332697D01*
X7135108Y-1312694D02*
G01*
X7135108Y-1252694D01*
X7165103Y-1312699D02*
G01*
X7165103Y-1252700D01*
X7120084Y-1232697D02*
G01*
X7180087Y-1232697D01*
X7145500Y-634199D02*
G01*
X7205494Y-634199D01*
X7160511Y-614197D02*
G01*
X7160511Y-554197D01*
X7190506Y-614202D02*
G01*
X7190506Y-554202D01*
X7145487Y-534200D02*
G01*
X7205489Y-534200D01*
X6577787Y-753884D02*
G01*
X6577787Y-693889D01*
X6557784Y-738873D02*
G01*
X6497784Y-738873D01*
X6557789Y-708878D02*
G01*
X6497789Y-708878D01*
X6477787Y-753897D02*
G01*
X6477787Y-693894D01*
X6477787Y-1138410D02*
G01*
X6477787Y-1198405D01*
X6497789Y-1153421D02*
G01*
X6557789Y-1153421D01*
X6497784Y-1183416D02*
G01*
X6557784Y-1183416D01*
X6577787Y-1138397D02*
G01*
X6577787Y-1198399D01*
X5130497Y-1096004D02*
G01*
X5130497Y-1155999D01*
X5150500Y-1111016D02*
G01*
X5210500Y-1111016D01*
X5150495Y-1141011D02*
G01*
X5210495Y-1141011D01*
X5230497Y-1095992D02*
G01*
X5230497Y-1155994D01*
X5282389Y-779284D02*
G01*
X5282389Y-719289D01*
X5262387Y-764273D02*
G01*
X5202387Y-764273D01*
X5262392Y-734278D02*
G01*
X5202392Y-734278D01*
X5182389Y-779297D02*
G01*
X5182389Y-719294D01*
X4614677Y-534200D02*
G01*
X4554682Y-534200D01*
X4599665Y-554202D02*
G01*
X4599665Y-614202D01*
X4569670Y-554197D02*
G01*
X4569670Y-614197D01*
X4614689Y-634199D02*
G01*
X4554687Y-634199D01*
X4550084Y-1253792D02*
G01*
X4490090Y-1253792D01*
X4535073Y-1273794D02*
G01*
X4535073Y-1333794D01*
X4505078Y-1273789D02*
G01*
X4505078Y-1333789D01*
X4550097Y-1353792D02*
G01*
X4490095Y-1353792D01*
X3961592Y-779284D02*
G01*
X3961592Y-719289D01*
X3941589Y-764273D02*
G01*
X3881589Y-764273D01*
X3941594Y-734278D02*
G01*
X3881594Y-734278D01*
X3861592Y-779297D02*
G01*
X3861592Y-719294D01*
X3899692Y-1087610D02*
G01*
X3899692Y-1147605D01*
X3919694Y-1102621D02*
G01*
X3979694Y-1102621D01*
X3919689Y-1132616D02*
G01*
X3979689Y-1132616D01*
X3999692Y-1087597D02*
G01*
X3999692Y-1147599D01*
X3111593Y-658040D02*
G01*
X3111873Y-623092D01*
X3111502Y-723041D02*
G01*
X3111774Y-688096D01*
X3201494Y-723097D02*
G01*
X3201494Y-623097D01*
X3171494Y-688096D02*
G01*
X3051495Y-688096D01*
X3171494Y-658096D02*
G01*
X3051492Y-658096D01*
X3021495Y-723097D02*
G01*
X3021495Y-623097D01*
X1219296Y-670740D02*
G01*
X1219575Y-635792D01*
X1219205Y-735741D02*
G01*
X1219476Y-700796D01*
X1309197Y-735797D02*
G01*
X1309197Y-635797D01*
X1279197Y-700796D02*
G01*
X1159197Y-700796D01*
X1279197Y-670796D02*
G01*
X1159195Y-670796D01*
X1129197Y-735797D02*
G01*
X1129197Y-635797D01*
X8409739Y-508099D02*
G01*
X8444687Y-508378D01*
X8344738Y-508007D02*
G01*
X8379683Y-508279D01*
X8344682Y-597999D02*
G01*
X8444682Y-597999D01*
X8379683Y-567999D02*
G01*
X8379683Y-448000D01*
X8409683Y-567999D02*
G01*
X8409683Y-447997D01*
X8344682Y-418000D02*
G01*
X8444682Y-418000D01*
X1206596Y-1229540D02*
G01*
X1206875Y-1194592D01*
X1206505Y-1294541D02*
G01*
X1206776Y-1259596D01*
X1296497Y-1294597D02*
G01*
X1296497Y-1194597D01*
X1266497Y-1259596D02*
G01*
X1146497Y-1259596D01*
X1266497Y-1229596D02*
G01*
X1146495Y-1229596D01*
X1116497Y-1294597D02*
G01*
X1116497Y-1194597D01*
X2197193Y-975540D02*
G01*
X2197473Y-940592D01*
X2197102Y-1040541D02*
G01*
X2197374Y-1005596D01*
X2287094Y-1040597D02*
G01*
X2287094Y-940597D01*
X2257094Y-1005596D02*
G01*
X2137095Y-1005596D01*
X2257094Y-975596D02*
G01*
X2137092Y-975596D01*
X2107095Y-1040597D02*
G01*
X2107095Y-940597D01*
D16*
X1282697Y-177800D02*
G01*
X1181097Y-218439D01*
X1181097Y-218439D02*
G01*
X1181097Y-137160D01*
X1181097Y-137160D02*
G01*
X1282697Y-177800D01*
X1381897Y-277799D02*
G01*
X1081897Y-277799D01*
X1381897Y-77800D02*
G01*
X1081897Y-77800D01*
X1282697Y-228600D02*
G01*
X1282697Y-127000D01*
X1308097Y-177800D02*
G01*
X1155697Y-177800D01*
X1117597Y-1689097D02*
G01*
X1219197Y-1648457D01*
X1219197Y-1648457D02*
G01*
X1219197Y-1729737D01*
X1219197Y-1729737D02*
G01*
X1117597Y-1689097D01*
X1018397Y-1589097D02*
G01*
X1318397Y-1589097D01*
X1018397Y-1789097D02*
G01*
X1318397Y-1789097D01*
X1117597Y-1638297D02*
G01*
X1117597Y-1739897D01*
X1092197Y-1689097D02*
G01*
X1244597Y-1689097D01*
D15*
X2421094Y-865898D02*
G01*
X2481094Y-865898D01*
X2421094Y-830897D02*
G01*
X2481094Y-830897D01*
X2433794Y-1145298D02*
G01*
X2493794Y-1145298D01*
X2433794Y-1110297D02*
G01*
X2493794Y-1110297D01*
X7695382Y-1112997D02*
G01*
X7695382Y-1172997D01*
X7595382Y-1113007D02*
G01*
X7595382Y-1173007D01*
X7633487Y-791997D02*
G01*
X7633487Y-731997D01*
X7733487Y-791987D02*
G01*
X7733487Y-731987D01*
X8234184Y-1205694D02*
G01*
X8174184Y-1205694D01*
X8234174Y-1105695D02*
G01*
X8174174Y-1105695D01*
X7900187Y-1172997D02*
G01*
X7900187Y-1112997D01*
X8000187Y-1172987D02*
G01*
X8000187Y-1112987D01*
X7925587Y-614199D02*
G01*
X7925587Y-554200D01*
X8025587Y-614189D02*
G01*
X8025587Y-554189D01*
X6642889Y-715797D02*
G01*
X6642889Y-655797D01*
X6742889Y-715787D02*
G01*
X6742889Y-655787D01*
X6730184Y-1138397D02*
G01*
X6730184Y-1198397D01*
X6630184Y-1138407D02*
G01*
X6630184Y-1198407D01*
X6247584Y-693897D02*
G01*
X6247584Y-753897D01*
X6147584Y-693907D02*
G01*
X6147584Y-753907D01*
X6425384Y-693897D02*
G01*
X6425384Y-753897D01*
X6325384Y-693907D02*
G01*
X6325384Y-753907D01*
X6189487Y-1294594D02*
G01*
X6129487Y-1294594D01*
X6189477Y-1194595D02*
G01*
X6129477Y-1194595D01*
X5090795Y-1095992D02*
G01*
X5090795Y-1155992D01*
X4990795Y-1096002D02*
G01*
X4990795Y-1156002D01*
X5029992Y-753897D02*
G01*
X5029992Y-693897D01*
X5129992Y-753887D02*
G01*
X5129992Y-693887D01*
X5449092Y-1325397D02*
G01*
X5449092Y-1265397D01*
X5549092Y-1325387D02*
G01*
X5549092Y-1265387D01*
X5295600Y-1155992D02*
G01*
X5295600Y-1095992D01*
X5395600Y-1155981D02*
G01*
X5395600Y-1095982D01*
X5360192Y-779297D02*
G01*
X5360192Y-719297D01*
X5460192Y-779287D02*
G01*
X5460192Y-719287D01*
X3988595Y-779297D02*
G01*
X3988595Y-719297D01*
X4088594Y-779287D02*
G01*
X4088594Y-719287D01*
X4126689Y-1087597D02*
G01*
X4126689Y-1147597D01*
X4026689Y-1087607D02*
G01*
X4026689Y-1147607D01*
X3429795Y-982497D02*
G01*
X3429795Y-922497D01*
X3529794Y-982487D02*
G01*
X3529794Y-922487D01*
X3821889Y-731997D02*
G01*
X3821889Y-791997D01*
X3721889Y-732007D02*
G01*
X3721889Y-792007D01*
X3747295Y-1147597D02*
G01*
X3747295Y-1087597D01*
X3847294Y-1147587D02*
G01*
X3847294Y-1087587D01*
D16*
X7000069Y-685492D02*
G01*
X7348413Y-685492D01*
X7105817Y-1186952D02*
G01*
X7000069Y-1186952D01*
X7334417Y-1186952D02*
G01*
X7242977Y-1186952D01*
X7348413Y-1186952D02*
G01*
X7348413Y-685492D01*
X7000069Y-1186952D02*
G01*
X7000069Y-685492D01*
X4371169Y-685492D02*
G01*
X4719513Y-685492D01*
X4476917Y-1186952D02*
G01*
X4371169Y-1186952D01*
X4705517Y-1186952D02*
G01*
X4614077Y-1186952D01*
X4719513Y-1186952D02*
G01*
X4719513Y-685492D01*
X4371169Y-1186952D02*
G01*
X4371169Y-685492D01*
G75*
G01*
X7105818Y-1186952D02*
G02*
X7242978Y-1186952I68580J0D01*
G75*
G01*
X4476918Y-1186952D02*
G02*
X4614078Y-1186952I68580J0D01*
D17*
G75*
G01
X7305396Y-1098499D02*
G03X7305396Y-1098499I-19990J0D01*
G75*
G01
X4676496Y-1098499D02*
G03X4676496Y-1098499I-19990J0D01*
M02*
