G04 Layer: BottomLayer*
G04 EasyEDA v6.5.51, 2025-08-29 13:17:01*
G04 9dbd3623970045be9e5ad1379a4f5d38,14c8f2514d444a3a831de9b613ea4171,10*
G04 Gerber Generator version 0.2*
G04 Scale: 100 percent, Rotated: No, Reflected: No *
G04 Dimensions in millimeters *
G04 leading zeros omitted , absolute positions ,4 integer and 5 decimal *
%FSLAX45Y45*%
%MOMM*%

%AMMACRO1*21,1,$1,$2,0,0,$3*%
%ADD10C,0.2540*%
%ADD11C,0.3000*%
%ADD12MACRO1,1.5748X1.5748X0.0000*%
%ADD13C,1.5748*%
%ADD14C,1.6000*%
%ADD15C,1.8000*%
%ADD16MACRO1,1.8X1.8X0.0000*%
%ADD17MACRO1,1.524X1.524X90.0000*%
%ADD18C,1.5240*%
%ADD19C,0.0133*%
%ADD20MACRO1,1.5748X1.5748X90.0000*%
%ADD21C,0.6200*%

%LPD*%
G36*
X336092Y-1853692D02*
G01*
X332028Y-1852879D01*
X328676Y-1850491D01*
X326542Y-1846986D01*
X325932Y-1842922D01*
X326999Y-1838960D01*
X329590Y-1835708D01*
X335381Y-1830882D01*
X348030Y-1817928D01*
X359257Y-1803704D01*
X368960Y-1788414D01*
X377088Y-1772259D01*
X383438Y-1755292D01*
X388061Y-1737766D01*
X390855Y-1719884D01*
X391769Y-1701800D01*
X390855Y-1683715D01*
X388061Y-1665833D01*
X383438Y-1648307D01*
X377088Y-1631340D01*
X368960Y-1615186D01*
X359257Y-1599895D01*
X348030Y-1585671D01*
X335381Y-1572717D01*
X321462Y-1561134D01*
X306425Y-1551025D01*
X290474Y-1542491D01*
X273710Y-1535684D01*
X256286Y-1530604D01*
X238506Y-1527352D01*
X220421Y-1525981D01*
X202336Y-1526438D01*
X184353Y-1528775D01*
X166725Y-1532890D01*
X149656Y-1538884D01*
X133248Y-1546555D01*
X117703Y-1555851D01*
X103225Y-1566722D01*
X89916Y-1579016D01*
X77978Y-1592630D01*
X67462Y-1607413D01*
X60147Y-1620367D01*
X57200Y-1623618D01*
X53136Y-1625346D01*
X48717Y-1625193D01*
X44805Y-1623161D01*
X42113Y-1619656D01*
X41148Y-1615338D01*
X41148Y-302361D01*
X42113Y-298043D01*
X44805Y-294538D01*
X48717Y-292506D01*
X53136Y-292354D01*
X57200Y-294081D01*
X60147Y-297332D01*
X67462Y-310286D01*
X77978Y-325069D01*
X89916Y-338683D01*
X103225Y-350977D01*
X117703Y-361848D01*
X133248Y-371144D01*
X149656Y-378815D01*
X166725Y-384810D01*
X184353Y-388924D01*
X202336Y-391261D01*
X220421Y-391718D01*
X238506Y-390347D01*
X256286Y-387096D01*
X273710Y-382016D01*
X290474Y-375208D01*
X306425Y-366674D01*
X321462Y-356565D01*
X335381Y-344982D01*
X348030Y-332028D01*
X359257Y-317804D01*
X368960Y-302514D01*
X377088Y-286359D01*
X383438Y-269392D01*
X388061Y-251866D01*
X390855Y-233984D01*
X391769Y-215900D01*
X390855Y-197815D01*
X388061Y-179933D01*
X383438Y-162407D01*
X377088Y-145440D01*
X368960Y-129285D01*
X359257Y-113995D01*
X348030Y-99771D01*
X335381Y-86817D01*
X321462Y-75234D01*
X306425Y-65125D01*
X290474Y-56591D01*
X273710Y-49784D01*
X260146Y-45821D01*
X256489Y-43891D01*
X253898Y-40690D01*
X252831Y-36728D01*
X253390Y-32613D01*
X255574Y-29108D01*
X258927Y-26720D01*
X262991Y-25908D01*
X9654032Y-25908D01*
X9657943Y-26670D01*
X9661194Y-28905D01*
X9663430Y-32156D01*
X9664192Y-36068D01*
X9664192Y-1843532D01*
X9663430Y-1847443D01*
X9661194Y-1850694D01*
X9657943Y-1852930D01*
X9654032Y-1853692D01*
G37*

%LPC*%
G36*
X8419541Y-1817725D02*
G01*
X8598408Y-1817725D01*
X8604758Y-1817014D01*
X8610193Y-1815084D01*
X8615121Y-1811985D01*
X8619185Y-1807921D01*
X8622284Y-1802993D01*
X8624163Y-1797557D01*
X8624874Y-1791207D01*
X8624874Y-1612392D01*
X8624163Y-1606042D01*
X8622284Y-1600606D01*
X8619185Y-1595678D01*
X8615121Y-1591614D01*
X8610193Y-1588516D01*
X8604758Y-1586585D01*
X8598408Y-1585874D01*
X8419541Y-1585874D01*
X8413242Y-1586585D01*
X8407755Y-1588516D01*
X8402878Y-1591614D01*
X8398764Y-1595678D01*
X8395716Y-1600606D01*
X8393785Y-1606042D01*
X8393074Y-1612392D01*
X8393074Y-1791207D01*
X8393785Y-1797557D01*
X8395716Y-1802993D01*
X8398764Y-1807921D01*
X8402878Y-1811985D01*
X8407755Y-1815084D01*
X8413242Y-1817014D01*
G37*
G36*
X6215684Y-1817471D02*
G01*
X6230264Y-1817471D01*
X6244691Y-1815642D01*
X6258814Y-1812036D01*
X6272326Y-1806651D01*
X6285077Y-1799640D01*
X6296863Y-1791106D01*
X6307480Y-1781149D01*
X6316726Y-1769922D01*
X6324549Y-1757629D01*
X6330746Y-1744472D01*
X6335217Y-1730603D01*
X6337960Y-1716328D01*
X6338874Y-1701800D01*
X6337960Y-1687271D01*
X6335217Y-1672996D01*
X6330746Y-1659128D01*
X6324549Y-1645970D01*
X6316726Y-1633677D01*
X6307480Y-1622450D01*
X6296863Y-1612493D01*
X6285077Y-1603959D01*
X6272326Y-1596948D01*
X6258814Y-1591564D01*
X6244691Y-1587957D01*
X6230264Y-1586128D01*
X6215684Y-1586128D01*
X6201257Y-1587957D01*
X6187186Y-1591564D01*
X6173622Y-1596948D01*
X6160871Y-1603959D01*
X6149136Y-1612493D01*
X6138519Y-1622450D01*
X6129223Y-1633677D01*
X6121450Y-1645970D01*
X6115253Y-1659128D01*
X6110732Y-1672996D01*
X6107988Y-1687271D01*
X6107074Y-1701800D01*
X6107988Y-1716328D01*
X6110732Y-1730603D01*
X6115253Y-1744472D01*
X6121450Y-1757629D01*
X6129223Y-1769922D01*
X6138519Y-1781149D01*
X6149136Y-1791106D01*
X6160871Y-1799640D01*
X6173622Y-1806651D01*
X6187186Y-1812036D01*
X6201257Y-1815642D01*
G37*
G36*
X5961684Y-1817471D02*
G01*
X5976264Y-1817471D01*
X5990691Y-1815642D01*
X6004814Y-1812036D01*
X6018326Y-1806651D01*
X6031077Y-1799640D01*
X6042863Y-1791106D01*
X6053480Y-1781149D01*
X6062726Y-1769922D01*
X6070549Y-1757629D01*
X6076746Y-1744472D01*
X6081217Y-1730603D01*
X6083960Y-1716328D01*
X6084874Y-1701800D01*
X6083960Y-1687271D01*
X6081217Y-1672996D01*
X6076746Y-1659128D01*
X6070549Y-1645970D01*
X6062726Y-1633677D01*
X6053480Y-1622450D01*
X6042863Y-1612493D01*
X6031077Y-1603959D01*
X6018326Y-1596948D01*
X6004814Y-1591564D01*
X5990691Y-1587957D01*
X5976264Y-1586128D01*
X5961684Y-1586128D01*
X5947257Y-1587957D01*
X5933186Y-1591564D01*
X5919622Y-1596948D01*
X5906871Y-1603959D01*
X5895136Y-1612493D01*
X5884519Y-1622450D01*
X5875223Y-1633677D01*
X5867450Y-1645970D01*
X5861253Y-1659128D01*
X5856732Y-1672996D01*
X5853988Y-1687271D01*
X5853074Y-1701800D01*
X5853988Y-1716328D01*
X5856732Y-1730603D01*
X5861253Y-1744472D01*
X5867450Y-1757629D01*
X5875223Y-1769922D01*
X5884519Y-1781149D01*
X5895136Y-1791106D01*
X5906871Y-1799640D01*
X5919622Y-1806651D01*
X5933186Y-1812036D01*
X5947257Y-1815642D01*
G37*
G36*
X6469684Y-1817471D02*
G01*
X6484264Y-1817471D01*
X6498691Y-1815642D01*
X6512814Y-1812036D01*
X6526326Y-1806651D01*
X6539077Y-1799640D01*
X6550863Y-1791106D01*
X6561480Y-1781149D01*
X6570725Y-1769922D01*
X6578549Y-1757629D01*
X6584746Y-1744472D01*
X6589217Y-1730603D01*
X6591960Y-1716328D01*
X6592874Y-1701800D01*
X6591960Y-1687271D01*
X6589217Y-1672996D01*
X6584746Y-1659128D01*
X6578549Y-1645970D01*
X6570725Y-1633677D01*
X6561480Y-1622450D01*
X6550863Y-1612493D01*
X6539077Y-1603959D01*
X6526326Y-1596948D01*
X6512814Y-1591564D01*
X6498691Y-1587957D01*
X6484264Y-1586128D01*
X6469684Y-1586128D01*
X6455257Y-1587957D01*
X6441186Y-1591564D01*
X6427622Y-1596948D01*
X6414871Y-1603959D01*
X6403136Y-1612493D01*
X6392519Y-1622450D01*
X6383223Y-1633677D01*
X6375450Y-1645970D01*
X6369253Y-1659128D01*
X6364732Y-1672996D01*
X6361988Y-1687271D01*
X6361074Y-1701800D01*
X6361988Y-1716328D01*
X6364732Y-1730603D01*
X6369253Y-1744472D01*
X6375450Y-1757629D01*
X6383223Y-1769922D01*
X6392519Y-1781149D01*
X6403136Y-1791106D01*
X6414871Y-1799640D01*
X6427622Y-1806651D01*
X6441186Y-1812036D01*
X6455257Y-1815642D01*
G37*
G36*
X5707684Y-1817471D02*
G01*
X5722264Y-1817471D01*
X5736691Y-1815642D01*
X5750814Y-1812036D01*
X5764326Y-1806651D01*
X5777077Y-1799640D01*
X5788863Y-1791106D01*
X5799480Y-1781149D01*
X5808726Y-1769922D01*
X5816549Y-1757629D01*
X5822746Y-1744472D01*
X5827217Y-1730603D01*
X5829960Y-1716328D01*
X5830874Y-1701800D01*
X5829960Y-1687271D01*
X5827217Y-1672996D01*
X5822746Y-1659128D01*
X5816549Y-1645970D01*
X5808726Y-1633677D01*
X5799480Y-1622450D01*
X5788863Y-1612493D01*
X5777077Y-1603959D01*
X5764326Y-1596948D01*
X5750814Y-1591564D01*
X5736691Y-1587957D01*
X5722264Y-1586128D01*
X5707684Y-1586128D01*
X5693257Y-1587957D01*
X5679186Y-1591564D01*
X5665622Y-1596948D01*
X5652871Y-1603959D01*
X5641136Y-1612493D01*
X5630519Y-1622450D01*
X5621223Y-1633677D01*
X5613450Y-1645970D01*
X5607253Y-1659128D01*
X5602732Y-1672996D01*
X5599988Y-1687271D01*
X5599074Y-1701800D01*
X5599988Y-1716328D01*
X5602732Y-1730603D01*
X5607253Y-1744472D01*
X5613450Y-1757629D01*
X5621223Y-1769922D01*
X5630519Y-1781149D01*
X5641136Y-1791106D01*
X5652871Y-1799640D01*
X5665622Y-1806651D01*
X5679186Y-1812036D01*
X5693257Y-1815642D01*
G37*
G36*
X6723684Y-1817471D02*
G01*
X6738264Y-1817471D01*
X6752691Y-1815642D01*
X6766814Y-1812036D01*
X6780326Y-1806651D01*
X6793077Y-1799640D01*
X6804863Y-1791106D01*
X6815480Y-1781149D01*
X6824725Y-1769922D01*
X6832549Y-1757629D01*
X6838746Y-1744472D01*
X6843217Y-1730603D01*
X6845960Y-1716328D01*
X6846874Y-1701800D01*
X6845960Y-1687271D01*
X6843217Y-1672996D01*
X6838746Y-1659128D01*
X6832549Y-1645970D01*
X6824725Y-1633677D01*
X6815480Y-1622450D01*
X6804863Y-1612493D01*
X6793077Y-1603959D01*
X6780326Y-1596948D01*
X6766814Y-1591564D01*
X6752691Y-1587957D01*
X6738264Y-1586128D01*
X6723684Y-1586128D01*
X6709257Y-1587957D01*
X6695186Y-1591564D01*
X6681622Y-1596948D01*
X6668871Y-1603959D01*
X6657136Y-1612493D01*
X6646519Y-1622450D01*
X6637223Y-1633677D01*
X6629450Y-1645970D01*
X6623253Y-1659128D01*
X6618731Y-1672996D01*
X6615988Y-1687271D01*
X6615074Y-1701800D01*
X6615988Y-1716328D01*
X6618731Y-1730603D01*
X6623253Y-1744472D01*
X6629450Y-1757629D01*
X6637223Y-1769922D01*
X6646519Y-1781149D01*
X6657136Y-1791106D01*
X6668871Y-1799640D01*
X6681622Y-1806651D01*
X6695186Y-1812036D01*
X6709257Y-1815642D01*
G37*
G36*
X5453684Y-1817471D02*
G01*
X5468264Y-1817471D01*
X5482691Y-1815642D01*
X5496814Y-1812036D01*
X5510326Y-1806651D01*
X5523077Y-1799640D01*
X5534863Y-1791106D01*
X5545480Y-1781149D01*
X5554726Y-1769922D01*
X5562549Y-1757629D01*
X5568746Y-1744472D01*
X5573217Y-1730603D01*
X5575960Y-1716328D01*
X5576874Y-1701800D01*
X5575960Y-1687271D01*
X5573217Y-1672996D01*
X5568746Y-1659128D01*
X5562549Y-1645970D01*
X5554726Y-1633677D01*
X5545480Y-1622450D01*
X5534863Y-1612493D01*
X5523077Y-1603959D01*
X5510326Y-1596948D01*
X5496814Y-1591564D01*
X5482691Y-1587957D01*
X5468264Y-1586128D01*
X5453684Y-1586128D01*
X5439257Y-1587957D01*
X5425186Y-1591564D01*
X5411622Y-1596948D01*
X5398871Y-1603959D01*
X5387136Y-1612493D01*
X5376519Y-1622450D01*
X5367223Y-1633677D01*
X5359450Y-1645970D01*
X5353253Y-1659128D01*
X5348732Y-1672996D01*
X5345988Y-1687271D01*
X5345074Y-1701800D01*
X5345988Y-1716328D01*
X5348732Y-1730603D01*
X5353253Y-1744472D01*
X5359450Y-1757629D01*
X5367223Y-1769922D01*
X5376519Y-1781149D01*
X5387136Y-1791106D01*
X5398871Y-1799640D01*
X5411622Y-1806651D01*
X5425186Y-1812036D01*
X5439257Y-1815642D01*
G37*
G36*
X6977684Y-1817471D02*
G01*
X6992264Y-1817471D01*
X7006691Y-1815642D01*
X7020814Y-1812036D01*
X7034326Y-1806651D01*
X7047077Y-1799640D01*
X7058863Y-1791106D01*
X7069480Y-1781149D01*
X7078725Y-1769922D01*
X7086549Y-1757629D01*
X7092746Y-1744472D01*
X7097217Y-1730603D01*
X7099960Y-1716328D01*
X7100874Y-1701800D01*
X7099960Y-1687271D01*
X7097217Y-1672996D01*
X7092746Y-1659128D01*
X7086549Y-1645970D01*
X7078725Y-1633677D01*
X7069480Y-1622450D01*
X7058863Y-1612493D01*
X7047077Y-1603959D01*
X7034326Y-1596948D01*
X7020814Y-1591564D01*
X7006691Y-1587957D01*
X6992264Y-1586128D01*
X6977684Y-1586128D01*
X6963257Y-1587957D01*
X6949186Y-1591564D01*
X6935622Y-1596948D01*
X6922871Y-1603959D01*
X6911136Y-1612493D01*
X6900519Y-1622450D01*
X6891223Y-1633677D01*
X6883450Y-1645970D01*
X6877253Y-1659128D01*
X6872731Y-1672996D01*
X6869988Y-1687271D01*
X6869074Y-1701800D01*
X6869988Y-1716328D01*
X6872731Y-1730603D01*
X6877253Y-1744472D01*
X6883450Y-1757629D01*
X6891223Y-1769922D01*
X6900519Y-1781149D01*
X6911136Y-1791106D01*
X6922871Y-1799640D01*
X6935622Y-1806651D01*
X6949186Y-1812036D01*
X6963257Y-1815642D01*
G37*
G36*
X5199684Y-1817471D02*
G01*
X5214264Y-1817471D01*
X5228691Y-1815642D01*
X5242814Y-1812036D01*
X5256326Y-1806651D01*
X5269077Y-1799640D01*
X5280863Y-1791106D01*
X5291480Y-1781149D01*
X5300726Y-1769922D01*
X5308549Y-1757629D01*
X5314746Y-1744472D01*
X5319217Y-1730603D01*
X5321960Y-1716328D01*
X5322874Y-1701800D01*
X5321960Y-1687271D01*
X5319217Y-1672996D01*
X5314746Y-1659128D01*
X5308549Y-1645970D01*
X5300726Y-1633677D01*
X5291480Y-1622450D01*
X5280863Y-1612493D01*
X5269077Y-1603959D01*
X5256326Y-1596948D01*
X5242814Y-1591564D01*
X5228691Y-1587957D01*
X5214264Y-1586128D01*
X5199684Y-1586128D01*
X5185257Y-1587957D01*
X5171186Y-1591564D01*
X5157622Y-1596948D01*
X5144871Y-1603959D01*
X5133136Y-1612493D01*
X5122519Y-1622450D01*
X5113223Y-1633677D01*
X5105450Y-1645970D01*
X5099253Y-1659128D01*
X5094732Y-1672996D01*
X5091988Y-1687271D01*
X5091074Y-1701800D01*
X5091988Y-1716328D01*
X5094732Y-1730603D01*
X5099253Y-1744472D01*
X5105450Y-1757629D01*
X5113223Y-1769922D01*
X5122519Y-1781149D01*
X5133136Y-1791106D01*
X5144871Y-1799640D01*
X5157622Y-1806651D01*
X5171186Y-1812036D01*
X5185257Y-1815642D01*
G37*
G36*
X7231684Y-1817471D02*
G01*
X7246264Y-1817471D01*
X7260691Y-1815642D01*
X7274814Y-1812036D01*
X7288326Y-1806651D01*
X7301077Y-1799640D01*
X7312863Y-1791106D01*
X7323480Y-1781149D01*
X7332725Y-1769922D01*
X7340549Y-1757629D01*
X7346746Y-1744472D01*
X7351217Y-1730603D01*
X7353960Y-1716328D01*
X7354874Y-1701800D01*
X7353960Y-1687271D01*
X7351217Y-1672996D01*
X7346746Y-1659128D01*
X7340549Y-1645970D01*
X7332725Y-1633677D01*
X7323480Y-1622450D01*
X7312863Y-1612493D01*
X7301077Y-1603959D01*
X7288326Y-1596948D01*
X7274814Y-1591564D01*
X7260691Y-1587957D01*
X7246264Y-1586128D01*
X7231684Y-1586128D01*
X7217257Y-1587957D01*
X7203186Y-1591564D01*
X7189622Y-1596948D01*
X7176871Y-1603959D01*
X7165136Y-1612493D01*
X7154519Y-1622450D01*
X7145223Y-1633677D01*
X7137450Y-1645970D01*
X7131253Y-1659128D01*
X7126731Y-1672996D01*
X7123988Y-1687271D01*
X7123074Y-1701800D01*
X7123988Y-1716328D01*
X7126731Y-1730603D01*
X7131253Y-1744472D01*
X7137450Y-1757629D01*
X7145223Y-1769922D01*
X7154519Y-1781149D01*
X7165136Y-1791106D01*
X7176871Y-1799640D01*
X7189622Y-1806651D01*
X7203186Y-1812036D01*
X7217257Y-1815642D01*
G37*
G36*
X4945684Y-1817471D02*
G01*
X4960264Y-1817471D01*
X4974691Y-1815642D01*
X4988814Y-1812036D01*
X5002326Y-1806651D01*
X5015077Y-1799640D01*
X5026863Y-1791106D01*
X5037480Y-1781149D01*
X5046726Y-1769922D01*
X5054549Y-1757629D01*
X5060746Y-1744472D01*
X5065217Y-1730603D01*
X5067960Y-1716328D01*
X5068874Y-1701800D01*
X5067960Y-1687271D01*
X5065217Y-1672996D01*
X5060746Y-1659128D01*
X5054549Y-1645970D01*
X5046726Y-1633677D01*
X5037480Y-1622450D01*
X5026863Y-1612493D01*
X5015077Y-1603959D01*
X5002326Y-1596948D01*
X4988814Y-1591564D01*
X4974691Y-1587957D01*
X4960264Y-1586128D01*
X4945684Y-1586128D01*
X4931257Y-1587957D01*
X4917186Y-1591564D01*
X4903622Y-1596948D01*
X4890871Y-1603959D01*
X4879136Y-1612493D01*
X4868519Y-1622450D01*
X4859223Y-1633677D01*
X4851450Y-1645970D01*
X4845253Y-1659128D01*
X4840732Y-1672996D01*
X4837988Y-1687271D01*
X4837074Y-1701800D01*
X4837988Y-1716328D01*
X4840732Y-1730603D01*
X4845253Y-1744472D01*
X4851450Y-1757629D01*
X4859223Y-1769922D01*
X4868519Y-1781149D01*
X4879136Y-1791106D01*
X4890871Y-1799640D01*
X4903622Y-1806651D01*
X4917186Y-1812036D01*
X4931257Y-1815642D01*
G37*
G36*
X7485684Y-1817471D02*
G01*
X7500264Y-1817471D01*
X7514691Y-1815642D01*
X7528814Y-1812036D01*
X7542326Y-1806651D01*
X7555077Y-1799640D01*
X7566863Y-1791106D01*
X7577480Y-1781149D01*
X7586725Y-1769922D01*
X7594549Y-1757629D01*
X7600746Y-1744472D01*
X7605217Y-1730603D01*
X7607960Y-1716328D01*
X7608874Y-1701800D01*
X7607960Y-1687271D01*
X7605217Y-1672996D01*
X7600746Y-1659128D01*
X7594549Y-1645970D01*
X7586725Y-1633677D01*
X7577480Y-1622450D01*
X7566863Y-1612493D01*
X7555077Y-1603959D01*
X7542326Y-1596948D01*
X7528814Y-1591564D01*
X7514691Y-1587957D01*
X7500264Y-1586128D01*
X7485684Y-1586128D01*
X7471257Y-1587957D01*
X7457186Y-1591564D01*
X7443622Y-1596948D01*
X7430871Y-1603959D01*
X7419136Y-1612493D01*
X7408519Y-1622450D01*
X7399223Y-1633677D01*
X7391450Y-1645970D01*
X7385253Y-1659128D01*
X7380731Y-1672996D01*
X7377988Y-1687271D01*
X7377074Y-1701800D01*
X7377988Y-1716328D01*
X7380731Y-1730603D01*
X7385253Y-1744472D01*
X7391450Y-1757629D01*
X7399223Y-1769922D01*
X7408519Y-1781149D01*
X7419136Y-1791106D01*
X7430871Y-1799640D01*
X7443622Y-1806651D01*
X7457186Y-1812036D01*
X7471257Y-1815642D01*
G37*
G36*
X4691684Y-1817471D02*
G01*
X4706264Y-1817471D01*
X4720691Y-1815642D01*
X4734814Y-1812036D01*
X4748326Y-1806651D01*
X4761077Y-1799640D01*
X4772863Y-1791106D01*
X4783480Y-1781149D01*
X4792726Y-1769922D01*
X4800549Y-1757629D01*
X4806746Y-1744472D01*
X4811217Y-1730603D01*
X4813960Y-1716328D01*
X4814874Y-1701800D01*
X4813960Y-1687271D01*
X4811217Y-1672996D01*
X4806746Y-1659128D01*
X4800549Y-1645970D01*
X4792726Y-1633677D01*
X4783480Y-1622450D01*
X4772863Y-1612493D01*
X4761077Y-1603959D01*
X4748326Y-1596948D01*
X4734814Y-1591564D01*
X4720691Y-1587957D01*
X4706264Y-1586128D01*
X4691684Y-1586128D01*
X4677257Y-1587957D01*
X4663186Y-1591564D01*
X4649622Y-1596948D01*
X4636871Y-1603959D01*
X4625136Y-1612493D01*
X4614519Y-1622450D01*
X4605223Y-1633677D01*
X4597450Y-1645970D01*
X4591253Y-1659128D01*
X4586732Y-1672996D01*
X4583988Y-1687271D01*
X4583074Y-1701800D01*
X4583988Y-1716328D01*
X4586732Y-1730603D01*
X4591253Y-1744472D01*
X4597450Y-1757629D01*
X4605223Y-1769922D01*
X4614519Y-1781149D01*
X4625136Y-1791106D01*
X4636871Y-1799640D01*
X4649622Y-1806651D01*
X4663186Y-1812036D01*
X4677257Y-1815642D01*
G37*
G36*
X7739684Y-1817471D02*
G01*
X7754264Y-1817471D01*
X7768691Y-1815642D01*
X7782814Y-1812036D01*
X7796326Y-1806651D01*
X7809077Y-1799640D01*
X7820863Y-1791106D01*
X7831480Y-1781149D01*
X7840725Y-1769922D01*
X7848549Y-1757629D01*
X7854746Y-1744472D01*
X7859217Y-1730603D01*
X7861960Y-1716328D01*
X7862874Y-1701800D01*
X7861960Y-1687271D01*
X7859217Y-1672996D01*
X7854746Y-1659128D01*
X7848549Y-1645970D01*
X7840725Y-1633677D01*
X7831480Y-1622450D01*
X7820863Y-1612493D01*
X7809077Y-1603959D01*
X7796326Y-1596948D01*
X7782814Y-1591564D01*
X7768691Y-1587957D01*
X7754264Y-1586128D01*
X7739684Y-1586128D01*
X7725257Y-1587957D01*
X7711186Y-1591564D01*
X7697622Y-1596948D01*
X7684871Y-1603959D01*
X7673136Y-1612493D01*
X7662519Y-1622450D01*
X7653223Y-1633677D01*
X7645450Y-1645970D01*
X7639253Y-1659128D01*
X7634731Y-1672996D01*
X7631988Y-1687271D01*
X7631074Y-1701800D01*
X7631988Y-1716328D01*
X7634731Y-1730603D01*
X7639253Y-1744472D01*
X7645450Y-1757629D01*
X7653223Y-1769922D01*
X7662519Y-1781149D01*
X7673136Y-1791106D01*
X7684871Y-1799640D01*
X7697622Y-1806651D01*
X7711186Y-1812036D01*
X7725257Y-1815642D01*
G37*
G36*
X7993684Y-1817471D02*
G01*
X8008264Y-1817471D01*
X8022691Y-1815642D01*
X8036814Y-1812036D01*
X8050326Y-1806651D01*
X8063077Y-1799640D01*
X8074863Y-1791106D01*
X8085480Y-1781149D01*
X8094725Y-1769922D01*
X8102549Y-1757629D01*
X8108746Y-1744472D01*
X8113217Y-1730603D01*
X8115960Y-1716328D01*
X8116874Y-1701800D01*
X8115960Y-1687271D01*
X8113217Y-1672996D01*
X8108746Y-1659128D01*
X8102549Y-1645970D01*
X8094725Y-1633677D01*
X8085480Y-1622450D01*
X8074863Y-1612493D01*
X8063077Y-1603959D01*
X8050326Y-1596948D01*
X8036814Y-1591564D01*
X8022691Y-1587957D01*
X8008264Y-1586128D01*
X7993684Y-1586128D01*
X7979257Y-1587957D01*
X7965186Y-1591564D01*
X7951622Y-1596948D01*
X7938871Y-1603959D01*
X7927136Y-1612493D01*
X7916519Y-1622450D01*
X7907223Y-1633677D01*
X7899450Y-1645970D01*
X7893253Y-1659128D01*
X7888731Y-1672996D01*
X7885988Y-1687271D01*
X7885074Y-1701800D01*
X7885988Y-1716328D01*
X7888731Y-1730603D01*
X7893253Y-1744472D01*
X7899450Y-1757629D01*
X7907223Y-1769922D01*
X7916519Y-1781149D01*
X7927136Y-1791106D01*
X7938871Y-1799640D01*
X7951622Y-1806651D01*
X7965186Y-1812036D01*
X7979257Y-1815642D01*
G37*
G36*
X4437684Y-1817471D02*
G01*
X4452264Y-1817471D01*
X4466691Y-1815642D01*
X4480814Y-1812036D01*
X4494326Y-1806651D01*
X4507077Y-1799640D01*
X4518863Y-1791106D01*
X4529480Y-1781149D01*
X4538726Y-1769922D01*
X4546549Y-1757629D01*
X4552746Y-1744472D01*
X4557217Y-1730603D01*
X4559960Y-1716328D01*
X4560874Y-1701800D01*
X4559960Y-1687271D01*
X4557217Y-1672996D01*
X4552746Y-1659128D01*
X4546549Y-1645970D01*
X4538726Y-1633677D01*
X4529480Y-1622450D01*
X4518863Y-1612493D01*
X4507077Y-1603959D01*
X4494326Y-1596948D01*
X4480814Y-1591564D01*
X4466691Y-1587957D01*
X4452264Y-1586128D01*
X4437684Y-1586128D01*
X4423257Y-1587957D01*
X4409186Y-1591564D01*
X4395622Y-1596948D01*
X4382871Y-1603959D01*
X4371136Y-1612493D01*
X4360519Y-1622450D01*
X4351223Y-1633677D01*
X4343450Y-1645970D01*
X4337253Y-1659128D01*
X4332732Y-1672996D01*
X4329988Y-1687271D01*
X4329074Y-1701800D01*
X4329988Y-1716328D01*
X4332732Y-1730603D01*
X4337253Y-1744472D01*
X4343450Y-1757629D01*
X4351223Y-1769922D01*
X4360519Y-1781149D01*
X4371136Y-1791106D01*
X4382871Y-1799640D01*
X4395622Y-1806651D01*
X4409186Y-1812036D01*
X4423257Y-1815642D01*
G37*
G36*
X8247684Y-1817471D02*
G01*
X8262264Y-1817471D01*
X8276691Y-1815642D01*
X8290814Y-1812036D01*
X8304326Y-1806651D01*
X8317077Y-1799640D01*
X8328863Y-1791106D01*
X8339480Y-1781149D01*
X8348725Y-1769922D01*
X8356549Y-1757629D01*
X8362746Y-1744472D01*
X8367217Y-1730603D01*
X8369960Y-1716328D01*
X8370874Y-1701800D01*
X8369960Y-1687271D01*
X8367217Y-1672996D01*
X8362746Y-1659128D01*
X8356549Y-1645970D01*
X8348725Y-1633677D01*
X8339480Y-1622450D01*
X8328863Y-1612493D01*
X8317077Y-1603959D01*
X8304326Y-1596948D01*
X8290814Y-1591564D01*
X8276691Y-1587957D01*
X8262264Y-1586128D01*
X8247684Y-1586128D01*
X8233257Y-1587957D01*
X8219186Y-1591564D01*
X8205622Y-1596948D01*
X8192871Y-1603959D01*
X8181136Y-1612493D01*
X8170519Y-1622450D01*
X8161223Y-1633677D01*
X8153450Y-1645970D01*
X8147253Y-1659128D01*
X8142731Y-1672996D01*
X8139988Y-1687271D01*
X8139074Y-1701800D01*
X8139988Y-1716328D01*
X8142731Y-1730603D01*
X8147253Y-1744472D01*
X8153450Y-1757629D01*
X8161223Y-1769922D01*
X8170519Y-1781149D01*
X8181136Y-1791106D01*
X8192871Y-1799640D01*
X8205622Y-1806651D01*
X8219186Y-1812036D01*
X8233257Y-1815642D01*
G37*
G36*
X4183684Y-1817471D02*
G01*
X4198264Y-1817471D01*
X4212691Y-1815642D01*
X4226814Y-1812036D01*
X4240326Y-1806651D01*
X4253077Y-1799640D01*
X4264863Y-1791106D01*
X4275480Y-1781149D01*
X4284726Y-1769922D01*
X4292549Y-1757629D01*
X4298746Y-1744472D01*
X4303217Y-1730603D01*
X4305960Y-1716328D01*
X4306874Y-1701800D01*
X4305960Y-1687271D01*
X4303217Y-1672996D01*
X4298746Y-1659128D01*
X4292549Y-1645970D01*
X4284726Y-1633677D01*
X4275480Y-1622450D01*
X4264863Y-1612493D01*
X4253077Y-1603959D01*
X4240326Y-1596948D01*
X4226814Y-1591564D01*
X4212691Y-1587957D01*
X4198264Y-1586128D01*
X4183684Y-1586128D01*
X4169257Y-1587957D01*
X4155186Y-1591564D01*
X4141622Y-1596948D01*
X4128871Y-1603959D01*
X4117136Y-1612493D01*
X4106519Y-1622450D01*
X4097223Y-1633677D01*
X4089450Y-1645970D01*
X4083253Y-1659128D01*
X4078732Y-1672996D01*
X4075988Y-1687271D01*
X4075074Y-1701800D01*
X4075988Y-1716328D01*
X4078732Y-1730603D01*
X4083253Y-1744472D01*
X4089450Y-1757629D01*
X4097223Y-1769922D01*
X4106519Y-1781149D01*
X4117136Y-1791106D01*
X4128871Y-1799640D01*
X4141622Y-1806651D01*
X4155186Y-1812036D01*
X4169257Y-1815642D01*
G37*
G36*
X3929684Y-1817471D02*
G01*
X3944264Y-1817471D01*
X3958691Y-1815642D01*
X3972814Y-1812036D01*
X3986326Y-1806651D01*
X3999077Y-1799640D01*
X4010863Y-1791106D01*
X4021480Y-1781149D01*
X4030726Y-1769922D01*
X4038549Y-1757629D01*
X4044746Y-1744472D01*
X4049217Y-1730603D01*
X4051960Y-1716328D01*
X4052874Y-1701800D01*
X4051960Y-1687271D01*
X4049217Y-1672996D01*
X4044746Y-1659128D01*
X4038549Y-1645970D01*
X4030726Y-1633677D01*
X4021480Y-1622450D01*
X4010863Y-1612493D01*
X3999077Y-1603959D01*
X3986326Y-1596948D01*
X3972814Y-1591564D01*
X3958691Y-1587957D01*
X3944264Y-1586128D01*
X3929684Y-1586128D01*
X3915257Y-1587957D01*
X3901186Y-1591564D01*
X3887622Y-1596948D01*
X3874871Y-1603959D01*
X3863136Y-1612493D01*
X3852519Y-1622450D01*
X3843223Y-1633677D01*
X3835450Y-1645970D01*
X3829253Y-1659128D01*
X3824732Y-1672996D01*
X3821988Y-1687271D01*
X3821074Y-1701800D01*
X3821988Y-1716328D01*
X3824732Y-1730603D01*
X3829253Y-1744472D01*
X3835450Y-1757629D01*
X3843223Y-1769922D01*
X3852519Y-1781149D01*
X3863136Y-1791106D01*
X3874871Y-1799640D01*
X3887622Y-1806651D01*
X3901186Y-1812036D01*
X3915257Y-1815642D01*
G37*
G36*
X3220720Y-1806448D02*
G01*
X3253181Y-1806448D01*
X3259480Y-1805736D01*
X3264966Y-1803806D01*
X3269843Y-1800758D01*
X3273958Y-1796643D01*
X3277006Y-1791766D01*
X3278936Y-1786280D01*
X3279648Y-1779981D01*
X3279648Y-1747520D01*
X3220720Y-1747520D01*
G37*
G36*
X3096818Y-1806448D02*
G01*
X3129280Y-1806448D01*
X3129280Y-1747520D01*
X3070352Y-1747520D01*
X3070352Y-1779981D01*
X3071063Y-1786280D01*
X3072993Y-1791766D01*
X3076041Y-1796643D01*
X3080156Y-1800758D01*
X3085033Y-1803806D01*
X3090519Y-1805736D01*
G37*
G36*
X9017000Y-1806448D02*
G01*
X9030614Y-1805533D01*
X9044076Y-1802841D01*
X9057030Y-1798472D01*
X9069273Y-1792427D01*
X9080652Y-1784807D01*
X9090964Y-1775764D01*
X9100007Y-1765503D01*
X9107576Y-1754124D01*
X9113621Y-1741830D01*
X9118041Y-1728876D01*
X9120733Y-1715465D01*
X9121597Y-1701800D01*
X9120733Y-1688134D01*
X9118041Y-1674723D01*
X9113621Y-1661769D01*
X9107576Y-1649475D01*
X9100007Y-1638096D01*
X9090964Y-1627835D01*
X9080652Y-1618792D01*
X9069273Y-1611172D01*
X9057030Y-1605127D01*
X9044076Y-1600758D01*
X9030614Y-1598066D01*
X9017000Y-1597152D01*
X9003334Y-1598066D01*
X8989923Y-1600758D01*
X8976918Y-1605127D01*
X8964676Y-1611172D01*
X8953296Y-1618792D01*
X8942984Y-1627835D01*
X8933992Y-1638096D01*
X8926372Y-1649475D01*
X8920327Y-1661769D01*
X8915908Y-1674723D01*
X8913266Y-1688134D01*
X8912352Y-1701800D01*
X8913266Y-1715465D01*
X8915908Y-1728876D01*
X8920327Y-1741830D01*
X8926372Y-1754124D01*
X8933992Y-1765503D01*
X8942984Y-1775764D01*
X8953296Y-1784807D01*
X8964676Y-1792427D01*
X8976918Y-1798472D01*
X8989923Y-1802841D01*
X9003334Y-1805533D01*
G37*
G36*
X9446818Y-1806448D02*
G01*
X9603130Y-1806448D01*
X9609480Y-1805736D01*
X9614916Y-1803806D01*
X9619843Y-1800758D01*
X9623907Y-1796643D01*
X9627006Y-1791766D01*
X9628936Y-1786280D01*
X9629648Y-1779981D01*
X9629648Y-1623618D01*
X9628936Y-1617319D01*
X9627006Y-1611833D01*
X9623907Y-1606956D01*
X9619843Y-1602841D01*
X9614916Y-1599793D01*
X9609480Y-1597863D01*
X9603130Y-1597152D01*
X9446818Y-1597152D01*
X9440468Y-1597863D01*
X9435033Y-1599793D01*
X9430105Y-1602841D01*
X9426041Y-1606956D01*
X9422942Y-1611833D01*
X9421063Y-1617319D01*
X9420352Y-1623618D01*
X9420352Y-1779981D01*
X9421063Y-1786280D01*
X9422942Y-1791766D01*
X9426041Y-1796643D01*
X9430105Y-1800758D01*
X9435033Y-1803806D01*
X9440468Y-1805736D01*
G37*
G36*
X2413000Y-1806448D02*
G01*
X2426665Y-1805533D01*
X2440076Y-1802841D01*
X2453030Y-1798472D01*
X2465324Y-1792427D01*
X2476703Y-1784807D01*
X2486964Y-1775764D01*
X2496007Y-1765503D01*
X2503627Y-1754124D01*
X2506421Y-1748383D01*
X2508707Y-1745386D01*
X2511856Y-1743405D01*
X2515565Y-1742693D01*
X2564434Y-1742693D01*
X2568143Y-1743405D01*
X2571292Y-1745386D01*
X2573578Y-1748383D01*
X2576372Y-1754124D01*
X2583992Y-1765503D01*
X2593035Y-1775764D01*
X2603296Y-1784807D01*
X2614676Y-1792427D01*
X2626969Y-1798472D01*
X2639923Y-1802841D01*
X2653334Y-1805533D01*
X2667000Y-1806448D01*
X2680665Y-1805533D01*
X2694076Y-1802841D01*
X2707030Y-1798472D01*
X2719324Y-1792427D01*
X2730703Y-1784807D01*
X2740964Y-1775764D01*
X2750007Y-1765503D01*
X2757627Y-1754124D01*
X2760421Y-1748383D01*
X2762707Y-1745386D01*
X2765856Y-1743405D01*
X2769565Y-1742693D01*
X2818434Y-1742693D01*
X2822143Y-1743405D01*
X2825292Y-1745386D01*
X2827578Y-1748383D01*
X2830372Y-1754124D01*
X2837992Y-1765503D01*
X2847035Y-1775764D01*
X2857296Y-1784807D01*
X2868676Y-1792427D01*
X2880969Y-1798472D01*
X2893923Y-1802841D01*
X2907334Y-1805533D01*
X2921000Y-1806448D01*
X2934665Y-1805533D01*
X2948076Y-1802841D01*
X2961030Y-1798472D01*
X2973324Y-1792427D01*
X2984703Y-1784807D01*
X2994964Y-1775764D01*
X3004007Y-1765503D01*
X3011627Y-1754124D01*
X3017672Y-1741830D01*
X3022041Y-1728876D01*
X3024733Y-1715465D01*
X3025597Y-1701800D01*
X3024733Y-1688134D01*
X3022041Y-1674723D01*
X3017672Y-1661769D01*
X3011627Y-1649475D01*
X3004007Y-1638096D01*
X2994964Y-1627835D01*
X2984703Y-1618792D01*
X2973324Y-1611172D01*
X2961030Y-1605127D01*
X2948076Y-1600758D01*
X2934665Y-1598066D01*
X2921000Y-1597152D01*
X2907334Y-1598066D01*
X2893923Y-1600758D01*
X2880969Y-1605127D01*
X2868676Y-1611172D01*
X2857296Y-1618792D01*
X2847035Y-1627835D01*
X2837992Y-1638096D01*
X2830372Y-1649475D01*
X2827578Y-1655216D01*
X2825292Y-1658213D01*
X2822143Y-1660194D01*
X2818434Y-1660906D01*
X2769565Y-1660906D01*
X2765856Y-1660194D01*
X2762707Y-1658213D01*
X2760421Y-1655216D01*
X2757627Y-1649475D01*
X2750007Y-1638096D01*
X2740964Y-1627835D01*
X2730703Y-1618792D01*
X2719324Y-1611172D01*
X2707030Y-1605127D01*
X2694076Y-1600758D01*
X2680665Y-1598066D01*
X2667000Y-1597152D01*
X2653334Y-1598066D01*
X2639923Y-1600758D01*
X2626969Y-1605127D01*
X2614676Y-1611172D01*
X2603296Y-1618792D01*
X2593035Y-1627835D01*
X2583992Y-1638096D01*
X2576372Y-1649475D01*
X2573578Y-1655216D01*
X2571292Y-1658213D01*
X2568143Y-1660194D01*
X2564434Y-1660906D01*
X2515565Y-1660906D01*
X2511856Y-1660194D01*
X2508707Y-1658213D01*
X2506421Y-1655216D01*
X2503627Y-1649475D01*
X2496007Y-1638096D01*
X2486964Y-1627835D01*
X2476703Y-1618792D01*
X2465324Y-1611172D01*
X2453030Y-1605127D01*
X2440076Y-1600758D01*
X2426665Y-1598066D01*
X2413000Y-1597152D01*
X2399334Y-1598066D01*
X2385923Y-1600758D01*
X2372969Y-1605127D01*
X2360676Y-1611172D01*
X2349296Y-1618792D01*
X2339035Y-1627835D01*
X2329992Y-1638096D01*
X2322372Y-1649475D01*
X2319578Y-1655216D01*
X2317292Y-1658213D01*
X2314143Y-1660194D01*
X2310434Y-1660906D01*
X1928926Y-1660906D01*
X1925066Y-1660093D01*
X1921764Y-1657908D01*
X1855012Y-1591157D01*
X1852930Y-1588109D01*
X1852066Y-1584452D01*
X1852574Y-1580743D01*
X1854860Y-1573987D01*
X1857552Y-1560423D01*
X1858467Y-1546606D01*
X1857552Y-1532788D01*
X1854860Y-1519224D01*
X1850440Y-1506067D01*
X1844293Y-1493672D01*
X1836623Y-1482140D01*
X1827479Y-1471726D01*
X1817065Y-1462582D01*
X1805533Y-1454912D01*
X1793138Y-1448765D01*
X1779981Y-1444345D01*
X1766417Y-1441602D01*
X1752600Y-1440738D01*
X1738782Y-1441602D01*
X1725168Y-1444345D01*
X1712061Y-1448765D01*
X1699666Y-1454912D01*
X1688134Y-1462582D01*
X1677720Y-1471726D01*
X1668576Y-1482140D01*
X1660906Y-1493672D01*
X1654759Y-1506067D01*
X1650339Y-1519224D01*
X1647596Y-1532788D01*
X1646732Y-1546606D01*
X1647596Y-1560423D01*
X1650339Y-1573987D01*
X1654759Y-1587144D01*
X1660906Y-1599539D01*
X1668576Y-1611071D01*
X1677720Y-1621485D01*
X1688134Y-1630629D01*
X1699666Y-1638300D01*
X1712061Y-1644446D01*
X1725168Y-1648866D01*
X1738782Y-1651609D01*
X1752600Y-1652473D01*
X1766417Y-1651609D01*
X1779981Y-1648866D01*
X1786737Y-1646580D01*
X1790446Y-1646072D01*
X1794103Y-1646936D01*
X1797202Y-1649018D01*
X1878533Y-1730349D01*
X1885086Y-1735785D01*
X1892147Y-1739544D01*
X1899818Y-1741881D01*
X1908302Y-1742693D01*
X2310434Y-1742693D01*
X2314143Y-1743405D01*
X2317292Y-1745386D01*
X2319578Y-1748383D01*
X2322372Y-1754124D01*
X2329992Y-1765503D01*
X2339035Y-1775764D01*
X2349296Y-1784807D01*
X2360676Y-1792427D01*
X2372969Y-1798472D01*
X2385923Y-1802841D01*
X2399334Y-1805533D01*
G37*
G36*
X3734358Y-1805533D02*
G01*
X3745077Y-1799640D01*
X3756863Y-1791106D01*
X3767480Y-1781149D01*
X3776726Y-1769922D01*
X3784549Y-1757629D01*
X3786632Y-1753158D01*
X3734358Y-1753158D01*
G37*
G36*
X3631641Y-1805533D02*
G01*
X3631641Y-1753158D01*
X3579317Y-1753158D01*
X3581450Y-1757629D01*
X3589223Y-1769922D01*
X3598519Y-1781149D01*
X3609136Y-1791106D01*
X3620871Y-1799640D01*
G37*
G36*
X8808720Y-1795678D02*
G01*
X8815273Y-1792427D01*
X8826652Y-1784807D01*
X8836964Y-1775764D01*
X8846007Y-1765503D01*
X8853576Y-1754124D01*
X8856827Y-1747520D01*
X8808720Y-1747520D01*
G37*
G36*
X9225280Y-1795678D02*
G01*
X9225280Y-1747520D01*
X9177121Y-1747520D01*
X9180372Y-1754124D01*
X9187992Y-1765503D01*
X9196984Y-1775764D01*
X9207296Y-1784807D01*
X9218676Y-1792427D01*
G37*
G36*
X8717280Y-1795678D02*
G01*
X8717280Y-1747520D01*
X8669121Y-1747520D01*
X8672372Y-1754124D01*
X8679992Y-1765503D01*
X8688984Y-1775764D01*
X8699296Y-1784807D01*
X8710676Y-1792427D01*
G37*
G36*
X9316720Y-1795678D02*
G01*
X9323273Y-1792427D01*
X9334652Y-1784807D01*
X9344964Y-1775764D01*
X9354007Y-1765503D01*
X9361576Y-1754124D01*
X9364827Y-1747520D01*
X9316720Y-1747520D01*
G37*
G36*
X8808720Y-1656080D02*
G01*
X8856827Y-1656080D01*
X8853576Y-1649475D01*
X8846007Y-1638096D01*
X8836964Y-1627835D01*
X8826652Y-1618792D01*
X8815273Y-1611172D01*
X8808720Y-1607921D01*
G37*
G36*
X9177121Y-1656080D02*
G01*
X9225280Y-1656080D01*
X9225280Y-1607921D01*
X9218676Y-1611172D01*
X9207296Y-1618792D01*
X9196984Y-1627835D01*
X9187992Y-1638096D01*
X9180372Y-1649475D01*
G37*
G36*
X8669121Y-1656080D02*
G01*
X8717280Y-1656080D01*
X8717280Y-1607921D01*
X8710676Y-1611172D01*
X8699296Y-1618792D01*
X8688984Y-1627835D01*
X8679992Y-1638096D01*
X8672372Y-1649475D01*
G37*
G36*
X9316720Y-1656080D02*
G01*
X9364827Y-1656080D01*
X9361576Y-1649475D01*
X9354007Y-1638096D01*
X9344964Y-1627835D01*
X9334652Y-1618792D01*
X9323273Y-1611172D01*
X9316720Y-1607921D01*
G37*
G36*
X3220720Y-1656080D02*
G01*
X3279648Y-1656080D01*
X3279648Y-1623618D01*
X3278936Y-1617319D01*
X3277006Y-1611833D01*
X3273958Y-1606956D01*
X3269843Y-1602841D01*
X3264966Y-1599793D01*
X3259480Y-1597863D01*
X3253181Y-1597152D01*
X3220720Y-1597152D01*
G37*
G36*
X3070352Y-1656080D02*
G01*
X3129280Y-1656080D01*
X3129280Y-1597152D01*
X3096818Y-1597152D01*
X3090519Y-1597863D01*
X3085033Y-1599793D01*
X3080156Y-1602841D01*
X3076041Y-1606956D01*
X3072993Y-1611833D01*
X3071063Y-1617319D01*
X3070352Y-1623618D01*
G37*
G36*
X3579317Y-1650441D02*
G01*
X3631641Y-1650441D01*
X3631641Y-1598066D01*
X3620871Y-1603959D01*
X3609136Y-1612493D01*
X3598519Y-1622450D01*
X3589223Y-1633677D01*
X3581450Y-1645970D01*
G37*
G36*
X3734358Y-1650441D02*
G01*
X3786632Y-1650441D01*
X3784549Y-1645970D01*
X3776726Y-1633677D01*
X3767480Y-1622450D01*
X3756863Y-1612493D01*
X3745077Y-1603959D01*
X3734358Y-1598066D01*
G37*
G36*
X862482Y-1510030D02*
G01*
X876147Y-1509115D01*
X889558Y-1506474D01*
X902512Y-1502054D01*
X914806Y-1496009D01*
X926185Y-1488389D01*
X936498Y-1479397D01*
X945489Y-1469085D01*
X953109Y-1457706D01*
X959154Y-1445412D01*
X963574Y-1432458D01*
X966216Y-1419047D01*
X967130Y-1405382D01*
X966216Y-1391716D01*
X963574Y-1378305D01*
X959154Y-1365351D01*
X953109Y-1353058D01*
X945489Y-1341678D01*
X936498Y-1331417D01*
X926185Y-1322374D01*
X914806Y-1314805D01*
X902512Y-1308709D01*
X889558Y-1304340D01*
X876147Y-1301648D01*
X862482Y-1300784D01*
X848817Y-1301648D01*
X835406Y-1304340D01*
X822452Y-1308709D01*
X810158Y-1314805D01*
X798779Y-1322374D01*
X788517Y-1331417D01*
X779475Y-1341678D01*
X771906Y-1353058D01*
X765810Y-1365351D01*
X761441Y-1378305D01*
X758748Y-1391716D01*
X757885Y-1405382D01*
X758748Y-1419047D01*
X761441Y-1432458D01*
X765810Y-1445412D01*
X771906Y-1457706D01*
X779475Y-1469085D01*
X788517Y-1479397D01*
X798779Y-1488389D01*
X810158Y-1496009D01*
X822452Y-1502054D01*
X835406Y-1506474D01*
X848817Y-1509115D01*
G37*
G36*
X530301Y-1510030D02*
G01*
X686663Y-1510030D01*
X692962Y-1509318D01*
X698449Y-1507439D01*
X703326Y-1504340D01*
X707440Y-1500225D01*
X710539Y-1495348D01*
X712419Y-1489862D01*
X713130Y-1483563D01*
X713130Y-1327200D01*
X712419Y-1320901D01*
X710539Y-1315466D01*
X707440Y-1310538D01*
X703326Y-1306474D01*
X698449Y-1303375D01*
X692962Y-1301445D01*
X686663Y-1300734D01*
X530301Y-1300734D01*
X524001Y-1301445D01*
X518566Y-1303375D01*
X513638Y-1306474D01*
X509574Y-1310538D01*
X506476Y-1315466D01*
X504545Y-1320901D01*
X503834Y-1327200D01*
X503834Y-1483563D01*
X504545Y-1489862D01*
X506476Y-1495348D01*
X509574Y-1500225D01*
X513638Y-1504340D01*
X518566Y-1507439D01*
X524001Y-1509318D01*
G37*
G36*
X4587138Y-1491945D02*
G01*
X4596688Y-1490675D01*
X4605883Y-1487881D01*
X4614519Y-1483512D01*
X4622292Y-1477772D01*
X4628946Y-1470812D01*
X4634331Y-1462836D01*
X4638344Y-1454048D01*
X4640732Y-1444701D01*
X4641596Y-1435100D01*
X4640732Y-1425498D01*
X4638344Y-1416151D01*
X4634331Y-1407363D01*
X4628946Y-1399387D01*
X4622292Y-1392428D01*
X4614519Y-1386687D01*
X4605883Y-1382318D01*
X4596688Y-1379524D01*
X4587138Y-1378254D01*
X4577486Y-1378712D01*
X4568037Y-1380744D01*
X4559096Y-1384300D01*
X4550867Y-1389380D01*
X4548276Y-1391666D01*
X4545177Y-1393545D01*
X4541570Y-1394206D01*
X4389932Y-1394206D01*
X4386072Y-1393444D01*
X4382770Y-1391208D01*
X4044391Y-1052830D01*
X4042156Y-1049528D01*
X4041394Y-1045667D01*
X4041394Y-983132D01*
X4042105Y-979322D01*
X4050131Y-967536D01*
X4054144Y-958748D01*
X4056532Y-949401D01*
X4057396Y-939800D01*
X4056532Y-930198D01*
X4054144Y-920851D01*
X4050131Y-912063D01*
X4044746Y-904087D01*
X4038092Y-897128D01*
X4030319Y-891387D01*
X4021683Y-887018D01*
X4012488Y-884224D01*
X4002938Y-882954D01*
X3993286Y-883412D01*
X3983837Y-885444D01*
X3974896Y-889000D01*
X3966667Y-894080D01*
X3959453Y-900430D01*
X3953510Y-907796D01*
X3949954Y-910590D01*
X3945585Y-911606D01*
X3751732Y-911606D01*
X3748532Y-911098D01*
X3745687Y-909624D01*
X3738219Y-904087D01*
X3729583Y-899718D01*
X3720388Y-896924D01*
X3710838Y-895654D01*
X3701186Y-896112D01*
X3691737Y-898144D01*
X3684778Y-900937D01*
X3680866Y-901649D01*
X3677005Y-900887D01*
X3673754Y-898652D01*
X3671570Y-895350D01*
X3670808Y-891489D01*
X3670808Y-559308D01*
X3669995Y-551281D01*
X3667810Y-544068D01*
X3664254Y-537362D01*
X3659124Y-531164D01*
X3501390Y-373430D01*
X3499358Y-370484D01*
X3498443Y-367080D01*
X3497732Y-358698D01*
X3495344Y-349351D01*
X3491331Y-340563D01*
X3485946Y-332587D01*
X3479292Y-325628D01*
X3471519Y-319887D01*
X3462883Y-315518D01*
X3453688Y-312724D01*
X3444138Y-311454D01*
X3434486Y-311912D01*
X3425037Y-313944D01*
X3416096Y-317500D01*
X3407867Y-322580D01*
X3400653Y-328930D01*
X3394557Y-336448D01*
X3389884Y-344881D01*
X3386683Y-353974D01*
X3385058Y-363474D01*
X3385058Y-373126D01*
X3386683Y-382625D01*
X3389884Y-391718D01*
X3394557Y-400151D01*
X3400653Y-407670D01*
X3407867Y-414020D01*
X3416096Y-419100D01*
X3425037Y-422656D01*
X3434486Y-424688D01*
X3439972Y-424942D01*
X3443630Y-425805D01*
X3446729Y-427888D01*
X3590594Y-571804D01*
X3592829Y-575106D01*
X3593592Y-579018D01*
X3593592Y-982726D01*
X3593033Y-986129D01*
X3591356Y-989126D01*
X3585057Y-996848D01*
X3580384Y-1005281D01*
X3577183Y-1014374D01*
X3575558Y-1023874D01*
X3575558Y-1033526D01*
X3577183Y-1043025D01*
X3580384Y-1052118D01*
X3585057Y-1060551D01*
X3591153Y-1068070D01*
X3598367Y-1074420D01*
X3606596Y-1079500D01*
X3615537Y-1083056D01*
X3624986Y-1085088D01*
X3634638Y-1085545D01*
X3644188Y-1084275D01*
X3653383Y-1081481D01*
X3662019Y-1077112D01*
X3669792Y-1071372D01*
X3676446Y-1064412D01*
X3681831Y-1056436D01*
X3685844Y-1047648D01*
X3688232Y-1038301D01*
X3689096Y-1028700D01*
X3688283Y-1019556D01*
X3688689Y-1015796D01*
X3690416Y-1012444D01*
X3693261Y-1009954D01*
X3696766Y-1008684D01*
X3710838Y-1009345D01*
X3720388Y-1008075D01*
X3729583Y-1005281D01*
X3738219Y-1000912D01*
X3745687Y-995375D01*
X3748532Y-993902D01*
X3751732Y-993394D01*
X3949395Y-993394D01*
X3953306Y-994206D01*
X3956608Y-996391D01*
X3958793Y-999693D01*
X3959555Y-1003553D01*
X3959555Y-1066292D01*
X3960418Y-1074775D01*
X3962755Y-1082446D01*
X3966514Y-1089507D01*
X3971899Y-1096060D01*
X4339488Y-1463649D01*
X4346092Y-1469085D01*
X4353153Y-1472844D01*
X4360824Y-1475181D01*
X4369308Y-1475994D01*
X4541570Y-1475994D01*
X4545177Y-1476654D01*
X4548276Y-1478534D01*
X4550867Y-1480820D01*
X4559096Y-1485900D01*
X4568037Y-1489456D01*
X4577486Y-1491488D01*
G37*
G36*
X2680258Y-1422908D02*
G01*
X2831541Y-1422908D01*
X2837840Y-1422196D01*
X2843326Y-1420266D01*
X2848203Y-1417218D01*
X2852318Y-1413103D01*
X2855366Y-1408226D01*
X2857296Y-1402740D01*
X2858008Y-1396441D01*
X2858008Y-1245158D01*
X2857296Y-1238859D01*
X2855366Y-1233373D01*
X2852318Y-1228496D01*
X2848203Y-1224381D01*
X2843326Y-1221333D01*
X2837840Y-1219403D01*
X2831541Y-1218692D01*
X2680258Y-1218692D01*
X2673959Y-1219403D01*
X2668473Y-1221333D01*
X2663596Y-1224381D01*
X2659481Y-1228496D01*
X2656382Y-1233373D01*
X2654503Y-1238859D01*
X2653792Y-1245158D01*
X2653792Y-1396441D01*
X2654503Y-1402740D01*
X2656382Y-1408226D01*
X2659481Y-1413103D01*
X2663596Y-1417218D01*
X2668473Y-1420266D01*
X2673959Y-1422196D01*
G37*
G36*
X6987387Y-1415745D02*
G01*
X6996938Y-1414475D01*
X7006183Y-1411681D01*
X7014768Y-1407312D01*
X7022541Y-1401572D01*
X7029246Y-1394612D01*
X7034631Y-1386636D01*
X7038594Y-1377848D01*
X7041032Y-1368501D01*
X7041845Y-1358900D01*
X7041032Y-1349298D01*
X7038594Y-1339951D01*
X7034631Y-1331163D01*
X7029246Y-1323187D01*
X7022541Y-1316228D01*
X7014768Y-1310487D01*
X7006183Y-1306118D01*
X6996938Y-1303324D01*
X6987387Y-1302054D01*
X6977735Y-1302512D01*
X6968337Y-1304544D01*
X6959346Y-1308100D01*
X6951167Y-1313180D01*
X6948576Y-1315466D01*
X6945426Y-1317345D01*
X6941870Y-1318006D01*
X5674868Y-1318006D01*
X5670804Y-1317142D01*
X5507990Y-1245920D01*
X5504789Y-1243685D01*
X5502656Y-1240434D01*
X5501894Y-1236573D01*
X5501894Y-1003808D01*
X5501081Y-995324D01*
X5498744Y-987653D01*
X5494985Y-980592D01*
X5489549Y-974039D01*
X5439460Y-923950D01*
X5432907Y-918514D01*
X5425846Y-914755D01*
X5418175Y-912418D01*
X5409692Y-911606D01*
X5186832Y-911606D01*
X5183632Y-911098D01*
X5180787Y-909624D01*
X5173319Y-904087D01*
X5164683Y-899718D01*
X5155488Y-896924D01*
X5145938Y-895654D01*
X5136286Y-896112D01*
X5126837Y-898144D01*
X5117896Y-901700D01*
X5109667Y-906780D01*
X5102453Y-913130D01*
X5096357Y-920648D01*
X5091684Y-929081D01*
X5088483Y-938174D01*
X5086858Y-947674D01*
X5086858Y-957326D01*
X5088483Y-966825D01*
X5091684Y-975918D01*
X5096357Y-984351D01*
X5102453Y-991869D01*
X5109667Y-998219D01*
X5117896Y-1003300D01*
X5126837Y-1006856D01*
X5136286Y-1008887D01*
X5145938Y-1009345D01*
X5155488Y-1008075D01*
X5164683Y-1005281D01*
X5173319Y-1000912D01*
X5180787Y-995375D01*
X5183632Y-993902D01*
X5186832Y-993394D01*
X5389067Y-993394D01*
X5392928Y-994206D01*
X5396230Y-996391D01*
X5417108Y-1017269D01*
X5419293Y-1020571D01*
X5420106Y-1024432D01*
X5420106Y-1269542D01*
X5420766Y-1277112D01*
X5422950Y-1284884D01*
X5426557Y-1292047D01*
X5431536Y-1298295D01*
X5437632Y-1303528D01*
X5445048Y-1307693D01*
X5647334Y-1396187D01*
X5655411Y-1398778D01*
X5664758Y-1399794D01*
X6941870Y-1399794D01*
X6945426Y-1400454D01*
X6948576Y-1402334D01*
X6951167Y-1404620D01*
X6959346Y-1409700D01*
X6968337Y-1413256D01*
X6977735Y-1415288D01*
G37*
G36*
X1798929Y-1291539D02*
G01*
X1805533Y-1288288D01*
X1817065Y-1280617D01*
X1827479Y-1271473D01*
X1836623Y-1261059D01*
X1844293Y-1249527D01*
X1847545Y-1242923D01*
X1798929Y-1242923D01*
G37*
G36*
X1706270Y-1291539D02*
G01*
X1706270Y-1242923D01*
X1657654Y-1242923D01*
X1660906Y-1249527D01*
X1668576Y-1261059D01*
X1677720Y-1271473D01*
X1688134Y-1280617D01*
X1699666Y-1288288D01*
G37*
G36*
X562762Y-1245260D02*
G01*
X562762Y-1197102D01*
X514654Y-1197102D01*
X517906Y-1203706D01*
X525475Y-1215085D01*
X534517Y-1225397D01*
X544779Y-1234389D01*
X556158Y-1242009D01*
G37*
G36*
X816762Y-1245260D02*
G01*
X816762Y-1197102D01*
X768654Y-1197102D01*
X771906Y-1203706D01*
X779475Y-1215085D01*
X788517Y-1225397D01*
X798779Y-1234389D01*
X810158Y-1242009D01*
G37*
G36*
X654202Y-1245260D02*
G01*
X660806Y-1242009D01*
X672185Y-1234389D01*
X682498Y-1225397D01*
X691489Y-1215085D01*
X699109Y-1203706D01*
X702360Y-1197102D01*
X654202Y-1197102D01*
G37*
G36*
X908202Y-1245260D02*
G01*
X914806Y-1242009D01*
X926185Y-1234389D01*
X936498Y-1225397D01*
X945489Y-1215085D01*
X953109Y-1203706D01*
X956360Y-1197102D01*
X908202Y-1197102D01*
G37*
G36*
X5730138Y-1187145D02*
G01*
X5739688Y-1185875D01*
X5748883Y-1183081D01*
X5757519Y-1178712D01*
X5764987Y-1173175D01*
X5767832Y-1171702D01*
X5771032Y-1171194D01*
X6171692Y-1171194D01*
X6180175Y-1170381D01*
X6187846Y-1168044D01*
X6194907Y-1164285D01*
X6201460Y-1158849D01*
X6351270Y-1009091D01*
X6354572Y-1006906D01*
X6358432Y-1006094D01*
X6628892Y-1006094D01*
X6637324Y-1005281D01*
X6644995Y-1002944D01*
X6652056Y-999185D01*
X6658660Y-993749D01*
X6665874Y-986586D01*
X6668566Y-984656D01*
X6671767Y-983691D01*
X6679438Y-982675D01*
X6688683Y-979881D01*
X6697268Y-975512D01*
X6705041Y-969771D01*
X6711746Y-962812D01*
X6717131Y-954836D01*
X6721094Y-946048D01*
X6723532Y-936701D01*
X6724345Y-927100D01*
X6723532Y-917498D01*
X6721094Y-908151D01*
X6717131Y-899363D01*
X6711746Y-891387D01*
X6705041Y-884428D01*
X6697268Y-878687D01*
X6688683Y-874318D01*
X6679438Y-871524D01*
X6669887Y-870254D01*
X6660235Y-870712D01*
X6650837Y-872744D01*
X6641846Y-876300D01*
X6633667Y-881380D01*
X6626402Y-887730D01*
X6620357Y-895248D01*
X6615633Y-903681D01*
X6612432Y-912774D01*
X6611924Y-915873D01*
X6610705Y-919175D01*
X6608470Y-921918D01*
X6605371Y-923696D01*
X6601917Y-924306D01*
X6337808Y-924306D01*
X6329324Y-925118D01*
X6321653Y-927455D01*
X6314592Y-931214D01*
X6308039Y-936650D01*
X6158230Y-1086408D01*
X6154928Y-1088644D01*
X6151067Y-1089406D01*
X5771032Y-1089406D01*
X5767832Y-1088898D01*
X5764987Y-1087424D01*
X5757519Y-1081887D01*
X5748883Y-1077518D01*
X5739688Y-1074724D01*
X5730138Y-1073454D01*
X5720486Y-1073912D01*
X5711037Y-1075944D01*
X5702096Y-1079500D01*
X5693867Y-1084580D01*
X5686653Y-1090930D01*
X5680557Y-1098448D01*
X5675884Y-1106881D01*
X5672683Y-1115974D01*
X5671058Y-1125474D01*
X5671058Y-1135126D01*
X5672683Y-1144625D01*
X5675884Y-1153718D01*
X5680557Y-1162151D01*
X5686653Y-1169670D01*
X5693867Y-1176020D01*
X5702096Y-1181100D01*
X5711037Y-1184656D01*
X5720486Y-1186688D01*
G37*
G36*
X2755900Y-1168908D02*
G01*
X2769514Y-1167993D01*
X2782874Y-1165250D01*
X2795727Y-1160780D01*
X2807919Y-1154633D01*
X2819146Y-1146911D01*
X2829255Y-1137767D01*
X2838094Y-1127353D01*
X2845409Y-1115872D01*
X2851150Y-1103477D01*
X2855214Y-1090472D01*
X2857449Y-1077010D01*
X2857906Y-1063396D01*
X2856534Y-1049832D01*
X2853385Y-1036574D01*
X2848508Y-1023823D01*
X2841955Y-1011885D01*
X2833827Y-1000912D01*
X2824378Y-991108D01*
X2813659Y-982624D01*
X2801924Y-975664D01*
X2789377Y-970381D01*
X2776220Y-966774D01*
X2762707Y-964946D01*
X2749092Y-964946D01*
X2735580Y-966774D01*
X2722422Y-970381D01*
X2709875Y-975664D01*
X2698140Y-982624D01*
X2687421Y-991108D01*
X2677922Y-1000912D01*
X2669844Y-1011885D01*
X2663291Y-1023823D01*
X2658414Y-1036574D01*
X2655214Y-1049832D01*
X2653842Y-1063396D01*
X2654300Y-1077010D01*
X2656586Y-1090472D01*
X2660650Y-1103477D01*
X2666390Y-1115872D01*
X2673705Y-1127353D01*
X2682494Y-1137767D01*
X2692603Y-1146911D01*
X2703880Y-1154633D01*
X2716022Y-1160780D01*
X2728925Y-1165250D01*
X2742285Y-1167993D01*
G37*
G36*
X1657654Y-1150264D02*
G01*
X1706270Y-1150264D01*
X1706270Y-1101648D01*
X1699666Y-1104900D01*
X1688134Y-1112570D01*
X1677720Y-1121714D01*
X1668576Y-1132128D01*
X1660906Y-1143660D01*
G37*
G36*
X1798929Y-1150264D02*
G01*
X1847545Y-1150264D01*
X1844293Y-1143660D01*
X1836623Y-1132128D01*
X1827479Y-1121714D01*
X1817065Y-1112570D01*
X1805533Y-1104900D01*
X1798929Y-1101648D01*
G37*
G36*
X514654Y-1105662D02*
G01*
X562762Y-1105662D01*
X562762Y-1057554D01*
X556158Y-1060805D01*
X544779Y-1068374D01*
X534517Y-1077417D01*
X525475Y-1087678D01*
X517906Y-1099058D01*
G37*
G36*
X654202Y-1105662D02*
G01*
X702360Y-1105662D01*
X699109Y-1099058D01*
X691489Y-1087678D01*
X682498Y-1077417D01*
X672185Y-1068374D01*
X660806Y-1060805D01*
X654202Y-1057554D01*
G37*
G36*
X908202Y-1105662D02*
G01*
X956360Y-1105662D01*
X953109Y-1099058D01*
X945489Y-1087678D01*
X936498Y-1077417D01*
X926185Y-1068374D01*
X914806Y-1060805D01*
X908202Y-1057554D01*
G37*
G36*
X768654Y-1105662D02*
G01*
X816762Y-1105662D01*
X816762Y-1057554D01*
X810158Y-1060805D01*
X798779Y-1068374D01*
X788517Y-1077417D01*
X779475Y-1087678D01*
X771906Y-1099058D01*
G37*
G36*
X816762Y-991260D02*
G01*
X816762Y-943102D01*
X768654Y-943102D01*
X771906Y-949706D01*
X779475Y-961085D01*
X788517Y-971397D01*
X798779Y-980389D01*
X810158Y-988009D01*
G37*
G36*
X562762Y-991260D02*
G01*
X562762Y-943102D01*
X514654Y-943102D01*
X517906Y-949706D01*
X525475Y-961085D01*
X534517Y-971397D01*
X544779Y-980389D01*
X556158Y-988009D01*
G37*
G36*
X654202Y-991260D02*
G01*
X660806Y-988009D01*
X672185Y-980389D01*
X682498Y-971397D01*
X691489Y-961085D01*
X699109Y-949706D01*
X702360Y-943102D01*
X654202Y-943102D01*
G37*
G36*
X908202Y-991260D02*
G01*
X914806Y-988009D01*
X926185Y-980389D01*
X936498Y-971397D01*
X945489Y-961085D01*
X953109Y-949706D01*
X956360Y-943102D01*
X908202Y-943102D01*
G37*
G36*
X2800350Y-904443D02*
G01*
X2807919Y-900633D01*
X2819146Y-892911D01*
X2829255Y-883767D01*
X2838094Y-873353D01*
X2845409Y-861872D01*
X2847543Y-857250D01*
X2800350Y-857250D01*
G37*
G36*
X2711450Y-904443D02*
G01*
X2711450Y-857250D01*
X2664206Y-857250D01*
X2666390Y-861872D01*
X2673705Y-873353D01*
X2682494Y-883767D01*
X2692603Y-892911D01*
X2703880Y-900633D01*
G37*
G36*
X908202Y-851662D02*
G01*
X956360Y-851662D01*
X953109Y-845058D01*
X945489Y-833678D01*
X936498Y-823417D01*
X926185Y-814374D01*
X914806Y-806805D01*
X908202Y-803554D01*
G37*
G36*
X768654Y-851662D02*
G01*
X816762Y-851662D01*
X816762Y-803554D01*
X810158Y-806805D01*
X798779Y-814374D01*
X788517Y-823417D01*
X779475Y-833678D01*
X771906Y-845058D01*
G37*
G36*
X654202Y-851662D02*
G01*
X702360Y-851662D01*
X699109Y-845058D01*
X691489Y-833678D01*
X682498Y-823417D01*
X672185Y-814374D01*
X660806Y-806805D01*
X654202Y-803554D01*
G37*
G36*
X514654Y-851662D02*
G01*
X562762Y-851662D01*
X562762Y-803554D01*
X556158Y-806805D01*
X544779Y-814374D01*
X534517Y-823417D01*
X525475Y-833678D01*
X517906Y-845058D01*
G37*
G36*
X2800350Y-768350D02*
G01*
X2847695Y-768350D01*
X2841955Y-757885D01*
X2833827Y-746912D01*
X2824378Y-737108D01*
X2813659Y-728624D01*
X2801924Y-721664D01*
X2800350Y-721004D01*
G37*
G36*
X2664104Y-768350D02*
G01*
X2711450Y-768350D01*
X2711450Y-721004D01*
X2709875Y-721664D01*
X2698140Y-728624D01*
X2687421Y-737108D01*
X2677922Y-746912D01*
X2669844Y-757885D01*
G37*
G36*
X1862429Y-739851D02*
G01*
X1869033Y-736600D01*
X1880565Y-728929D01*
X1890979Y-719785D01*
X1900123Y-709371D01*
X1907793Y-697839D01*
X1911045Y-691235D01*
X1862429Y-691235D01*
G37*
G36*
X1769770Y-739851D02*
G01*
X1769770Y-691235D01*
X1721154Y-691235D01*
X1724406Y-697839D01*
X1732076Y-709371D01*
X1741220Y-719785D01*
X1751634Y-728929D01*
X1763166Y-736600D01*
G37*
G36*
X562762Y-737260D02*
G01*
X562762Y-689102D01*
X514654Y-689102D01*
X517906Y-695706D01*
X525475Y-707085D01*
X534517Y-717397D01*
X544779Y-726389D01*
X556158Y-734009D01*
G37*
G36*
X816762Y-737260D02*
G01*
X816762Y-689102D01*
X768654Y-689102D01*
X771906Y-695706D01*
X779475Y-707085D01*
X788517Y-717397D01*
X798779Y-726389D01*
X810158Y-734009D01*
G37*
G36*
X654202Y-737260D02*
G01*
X660806Y-734009D01*
X672185Y-726389D01*
X682498Y-717397D01*
X691489Y-707085D01*
X699109Y-695706D01*
X702360Y-689102D01*
X654202Y-689102D01*
G37*
G36*
X908202Y-737260D02*
G01*
X914806Y-734009D01*
X926185Y-726389D01*
X936498Y-717397D01*
X945489Y-707085D01*
X953109Y-695706D01*
X956360Y-689102D01*
X908202Y-689102D01*
G37*
G36*
X2755900Y-660908D02*
G01*
X2769514Y-659993D01*
X2782874Y-657250D01*
X2795727Y-652780D01*
X2807919Y-646633D01*
X2819146Y-638911D01*
X2829255Y-629767D01*
X2838094Y-619353D01*
X2845409Y-607872D01*
X2851150Y-595477D01*
X2855214Y-582472D01*
X2857449Y-569010D01*
X2857906Y-555396D01*
X2856534Y-541832D01*
X2853385Y-528574D01*
X2848508Y-515823D01*
X2841955Y-503885D01*
X2833827Y-492912D01*
X2824378Y-483108D01*
X2813659Y-474624D01*
X2801924Y-467664D01*
X2789377Y-462381D01*
X2776220Y-458774D01*
X2762707Y-456946D01*
X2749092Y-456946D01*
X2735580Y-458774D01*
X2722422Y-462381D01*
X2709875Y-467664D01*
X2698140Y-474624D01*
X2687421Y-483108D01*
X2677922Y-492912D01*
X2669844Y-503885D01*
X2663291Y-515823D01*
X2658414Y-528574D01*
X2655214Y-541832D01*
X2653842Y-555396D01*
X2654300Y-569010D01*
X2656586Y-582472D01*
X2660650Y-595477D01*
X2666390Y-607872D01*
X2673705Y-619353D01*
X2682494Y-629767D01*
X2692603Y-638911D01*
X2703880Y-646633D01*
X2716022Y-652780D01*
X2728925Y-657250D01*
X2742285Y-659993D01*
G37*
G36*
X6860387Y-615645D02*
G01*
X6869938Y-614375D01*
X6879183Y-611581D01*
X6887768Y-607212D01*
X6895541Y-601472D01*
X6902246Y-594512D01*
X6907631Y-586536D01*
X6911594Y-577748D01*
X6914032Y-568401D01*
X6914845Y-558800D01*
X6914032Y-549198D01*
X6911594Y-539851D01*
X6907631Y-531063D01*
X6902246Y-523087D01*
X6895541Y-516128D01*
X6887768Y-510387D01*
X6879183Y-506018D01*
X6869938Y-503224D01*
X6860387Y-501954D01*
X6850735Y-502412D01*
X6841337Y-504443D01*
X6832346Y-508000D01*
X6824167Y-513080D01*
X6816902Y-519430D01*
X6810857Y-526948D01*
X6806133Y-535381D01*
X6802932Y-544474D01*
X6801307Y-553974D01*
X6801307Y-563626D01*
X6802932Y-573125D01*
X6806133Y-582218D01*
X6810857Y-590651D01*
X6816902Y-598170D01*
X6824167Y-604520D01*
X6832346Y-609600D01*
X6841337Y-613156D01*
X6850735Y-615188D01*
G37*
G36*
X1721154Y-598576D02*
G01*
X1769770Y-598576D01*
X1769770Y-549960D01*
X1763166Y-553212D01*
X1751634Y-560882D01*
X1741220Y-570026D01*
X1732076Y-580440D01*
X1724406Y-591972D01*
G37*
G36*
X1862429Y-598576D02*
G01*
X1911045Y-598576D01*
X1907793Y-591972D01*
X1900123Y-580440D01*
X1890979Y-570026D01*
X1880565Y-560882D01*
X1869033Y-553212D01*
X1862429Y-549960D01*
G37*
G36*
X908202Y-597662D02*
G01*
X956360Y-597662D01*
X953109Y-591058D01*
X945489Y-579678D01*
X936498Y-569417D01*
X926185Y-560374D01*
X914806Y-552805D01*
X908202Y-549554D01*
G37*
G36*
X768654Y-597662D02*
G01*
X816762Y-597662D01*
X816762Y-549554D01*
X810158Y-552805D01*
X798779Y-560374D01*
X788517Y-569417D01*
X779475Y-579678D01*
X771906Y-591058D01*
G37*
G36*
X514654Y-597662D02*
G01*
X562762Y-597662D01*
X562762Y-549554D01*
X556158Y-552805D01*
X544779Y-560374D01*
X534517Y-569417D01*
X525475Y-579678D01*
X517906Y-591058D01*
G37*
G36*
X654202Y-597662D02*
G01*
X702360Y-597662D01*
X699109Y-591058D01*
X691489Y-579678D01*
X682498Y-569417D01*
X672185Y-560374D01*
X660806Y-552805D01*
X654202Y-549554D01*
G37*
G36*
X5806287Y-577545D02*
G01*
X5815888Y-576275D01*
X5825083Y-573481D01*
X5833719Y-569112D01*
X5841441Y-563372D01*
X5848146Y-556412D01*
X5853531Y-548436D01*
X5857494Y-539648D01*
X5859932Y-530301D01*
X5860643Y-521919D01*
X5861558Y-518515D01*
X5863590Y-515620D01*
X5867704Y-511505D01*
X5871006Y-509270D01*
X5874918Y-508508D01*
X5930392Y-508508D01*
X5938418Y-507695D01*
X5945632Y-505510D01*
X5952337Y-501954D01*
X5958535Y-496824D01*
X6058204Y-397205D01*
X6061506Y-394970D01*
X6065418Y-394208D01*
X8577529Y-394208D01*
X8581136Y-394868D01*
X8584234Y-396748D01*
X8589467Y-401320D01*
X8597646Y-406400D01*
X8606637Y-409956D01*
X8616035Y-411988D01*
X8625687Y-412445D01*
X8635238Y-411175D01*
X8644483Y-408381D01*
X8653068Y-404012D01*
X8660841Y-398272D01*
X8667546Y-391312D01*
X8672931Y-383336D01*
X8676894Y-374548D01*
X8679332Y-365201D01*
X8680145Y-355600D01*
X8679332Y-345998D01*
X8676894Y-336651D01*
X8672931Y-327863D01*
X8667546Y-319887D01*
X8660841Y-312928D01*
X8653068Y-307187D01*
X8644483Y-302818D01*
X8635238Y-300024D01*
X8626805Y-298907D01*
X8622995Y-297637D01*
X8619947Y-294944D01*
X8618220Y-291287D01*
X8618067Y-287223D01*
X8619490Y-283464D01*
X8622284Y-278993D01*
X8624163Y-273558D01*
X8624874Y-267208D01*
X8624874Y-229158D01*
X8560358Y-229158D01*
X8560358Y-293725D01*
X8580882Y-293725D01*
X8584895Y-294538D01*
X8588248Y-296824D01*
X8590381Y-300278D01*
X8591042Y-304292D01*
X8590076Y-308254D01*
X8587638Y-311505D01*
X8584234Y-314452D01*
X8581136Y-316331D01*
X8577529Y-316992D01*
X6045708Y-316992D01*
X6037681Y-317804D01*
X6030468Y-319989D01*
X6023762Y-323545D01*
X6017564Y-328676D01*
X5917895Y-428294D01*
X5914593Y-430530D01*
X5910681Y-431292D01*
X5855208Y-431292D01*
X5847181Y-432104D01*
X5839968Y-434289D01*
X5833262Y-437845D01*
X5827064Y-442976D01*
X5808929Y-461111D01*
X5805830Y-463194D01*
X5802172Y-464058D01*
X5796686Y-464312D01*
X5787237Y-466343D01*
X5778296Y-469900D01*
X5770067Y-474980D01*
X5762853Y-481330D01*
X5756757Y-488848D01*
X5752084Y-497281D01*
X5748832Y-506374D01*
X5747207Y-515874D01*
X5747207Y-525526D01*
X5748832Y-535025D01*
X5752084Y-544118D01*
X5756757Y-552551D01*
X5762853Y-560070D01*
X5770067Y-566420D01*
X5778296Y-571500D01*
X5787237Y-575056D01*
X5796686Y-577088D01*
G37*
G36*
X862482Y-494030D02*
G01*
X876147Y-493115D01*
X889558Y-490474D01*
X902512Y-486054D01*
X914806Y-480009D01*
X926185Y-472389D01*
X936498Y-463397D01*
X945489Y-453085D01*
X953109Y-441706D01*
X959154Y-429412D01*
X963574Y-416458D01*
X966216Y-403047D01*
X967130Y-389382D01*
X966216Y-375716D01*
X963574Y-362305D01*
X959154Y-349351D01*
X953109Y-337058D01*
X945489Y-325678D01*
X936498Y-315417D01*
X926185Y-306374D01*
X914806Y-298805D01*
X902512Y-292709D01*
X889558Y-288340D01*
X876147Y-285648D01*
X862482Y-284784D01*
X848817Y-285648D01*
X835406Y-288340D01*
X822452Y-292709D01*
X810158Y-298805D01*
X798779Y-306374D01*
X788517Y-315417D01*
X779475Y-325678D01*
X771906Y-337058D01*
X765810Y-349351D01*
X761441Y-362305D01*
X758748Y-375716D01*
X757885Y-389382D01*
X758748Y-403047D01*
X761441Y-416458D01*
X765810Y-429412D01*
X771906Y-441706D01*
X779475Y-453085D01*
X788517Y-463397D01*
X798779Y-472389D01*
X810158Y-480009D01*
X822452Y-486054D01*
X835406Y-490474D01*
X848817Y-493115D01*
G37*
G36*
X608482Y-494030D02*
G01*
X622147Y-493115D01*
X635558Y-490474D01*
X648512Y-486054D01*
X660806Y-480009D01*
X672185Y-472389D01*
X682498Y-463397D01*
X691489Y-453085D01*
X699109Y-441706D01*
X705154Y-429412D01*
X709574Y-416458D01*
X712216Y-403047D01*
X713130Y-389382D01*
X712216Y-375716D01*
X709574Y-362305D01*
X705154Y-349351D01*
X699109Y-337058D01*
X691489Y-325678D01*
X682498Y-315417D01*
X672185Y-306374D01*
X660806Y-298805D01*
X648512Y-292709D01*
X635558Y-288340D01*
X622147Y-285648D01*
X608482Y-284784D01*
X594817Y-285648D01*
X581406Y-288340D01*
X568452Y-292709D01*
X556158Y-298805D01*
X544779Y-306374D01*
X534517Y-315417D01*
X525475Y-325678D01*
X517906Y-337058D01*
X511809Y-349351D01*
X507441Y-362305D01*
X504748Y-375716D01*
X503885Y-389382D01*
X504748Y-403047D01*
X507441Y-416458D01*
X511809Y-429412D01*
X517906Y-441706D01*
X525475Y-453085D01*
X534517Y-463397D01*
X544779Y-472389D01*
X556158Y-480009D01*
X568452Y-486054D01*
X581406Y-490474D01*
X594817Y-493115D01*
G37*
G36*
X1816100Y-400761D02*
G01*
X1829917Y-399897D01*
X1843481Y-397154D01*
X1856638Y-392734D01*
X1869033Y-386588D01*
X1880565Y-378917D01*
X1890979Y-369773D01*
X1900123Y-359359D01*
X1907793Y-347827D01*
X1913940Y-335432D01*
X1918360Y-322326D01*
X1921052Y-308711D01*
X1921967Y-294894D01*
X1921052Y-281076D01*
X1918360Y-267512D01*
X1916074Y-260756D01*
X1915566Y-257048D01*
X1916430Y-253390D01*
X1918512Y-250342D01*
X1947164Y-221691D01*
X1950466Y-219506D01*
X1954326Y-218694D01*
X2310434Y-218694D01*
X2314143Y-219405D01*
X2317292Y-221386D01*
X2319578Y-224383D01*
X2322372Y-230124D01*
X2329992Y-241503D01*
X2339035Y-251764D01*
X2349296Y-260807D01*
X2360676Y-268427D01*
X2372969Y-274472D01*
X2385923Y-278841D01*
X2399334Y-281533D01*
X2413000Y-282448D01*
X2426665Y-281533D01*
X2440076Y-278841D01*
X2453030Y-274472D01*
X2465324Y-268427D01*
X2476703Y-260807D01*
X2486964Y-251764D01*
X2496007Y-241503D01*
X2503627Y-230124D01*
X2506421Y-224383D01*
X2508707Y-221386D01*
X2511856Y-219405D01*
X2515565Y-218694D01*
X2564434Y-218694D01*
X2568143Y-219405D01*
X2571292Y-221386D01*
X2573578Y-224383D01*
X2576372Y-230124D01*
X2583992Y-241503D01*
X2593035Y-251764D01*
X2603296Y-260807D01*
X2614676Y-268427D01*
X2626969Y-274472D01*
X2639923Y-278841D01*
X2653334Y-281533D01*
X2667000Y-282448D01*
X2680665Y-281533D01*
X2694076Y-278841D01*
X2707030Y-274472D01*
X2719324Y-268427D01*
X2730703Y-260807D01*
X2740964Y-251764D01*
X2750007Y-241503D01*
X2757627Y-230124D01*
X2760421Y-224383D01*
X2762707Y-221386D01*
X2765856Y-219405D01*
X2769565Y-218694D01*
X2818434Y-218694D01*
X2822143Y-219405D01*
X2825292Y-221386D01*
X2827578Y-224383D01*
X2830372Y-230124D01*
X2837992Y-241503D01*
X2847035Y-251764D01*
X2857296Y-260807D01*
X2868676Y-268427D01*
X2880969Y-274472D01*
X2893923Y-278841D01*
X2907334Y-281533D01*
X2921000Y-282448D01*
X2934665Y-281533D01*
X2948076Y-278841D01*
X2961030Y-274472D01*
X2973324Y-268427D01*
X2984703Y-260807D01*
X2994964Y-251764D01*
X3004007Y-241503D01*
X3011627Y-230124D01*
X3017672Y-217830D01*
X3022041Y-204876D01*
X3024733Y-191465D01*
X3025597Y-177800D01*
X3024733Y-164134D01*
X3022041Y-150723D01*
X3017672Y-137769D01*
X3011627Y-125476D01*
X3004007Y-114096D01*
X2994964Y-103835D01*
X2984703Y-94792D01*
X2973324Y-87172D01*
X2961030Y-81127D01*
X2948076Y-76758D01*
X2934665Y-74066D01*
X2921000Y-73152D01*
X2907334Y-74066D01*
X2893923Y-76758D01*
X2880969Y-81127D01*
X2868676Y-87172D01*
X2857296Y-94792D01*
X2847035Y-103835D01*
X2837992Y-114096D01*
X2830372Y-125476D01*
X2827578Y-131216D01*
X2825292Y-134213D01*
X2822143Y-136194D01*
X2818434Y-136906D01*
X2769565Y-136906D01*
X2765856Y-136194D01*
X2762707Y-134213D01*
X2760421Y-131216D01*
X2757627Y-125476D01*
X2750007Y-114096D01*
X2740964Y-103835D01*
X2730703Y-94792D01*
X2719324Y-87172D01*
X2707030Y-81127D01*
X2694076Y-76758D01*
X2680665Y-74066D01*
X2667000Y-73152D01*
X2653334Y-74066D01*
X2639923Y-76758D01*
X2626969Y-81127D01*
X2614676Y-87172D01*
X2603296Y-94792D01*
X2593035Y-103835D01*
X2583992Y-114096D01*
X2576372Y-125476D01*
X2573578Y-131216D01*
X2571292Y-134213D01*
X2568143Y-136194D01*
X2564434Y-136906D01*
X2515565Y-136906D01*
X2511856Y-136194D01*
X2508707Y-134213D01*
X2506421Y-131216D01*
X2503627Y-125476D01*
X2496007Y-114096D01*
X2486964Y-103835D01*
X2476703Y-94792D01*
X2465324Y-87172D01*
X2453030Y-81127D01*
X2440076Y-76758D01*
X2426665Y-74066D01*
X2413000Y-73152D01*
X2399334Y-74066D01*
X2385923Y-76758D01*
X2372969Y-81127D01*
X2360676Y-87172D01*
X2349296Y-94792D01*
X2339035Y-103835D01*
X2329992Y-114096D01*
X2322372Y-125476D01*
X2319578Y-131216D01*
X2317292Y-134213D01*
X2314143Y-136194D01*
X2310434Y-136906D01*
X1933702Y-136906D01*
X1925218Y-137718D01*
X1917547Y-140055D01*
X1910486Y-143814D01*
X1903933Y-149250D01*
X1860651Y-192481D01*
X1857603Y-194564D01*
X1853946Y-195427D01*
X1850237Y-194919D01*
X1843481Y-192633D01*
X1829917Y-189941D01*
X1816100Y-189026D01*
X1802282Y-189941D01*
X1788668Y-192633D01*
X1775561Y-197053D01*
X1763166Y-203200D01*
X1751634Y-210870D01*
X1741220Y-220014D01*
X1732076Y-230428D01*
X1724406Y-241960D01*
X1718259Y-254355D01*
X1713839Y-267512D01*
X1711096Y-281076D01*
X1710232Y-294894D01*
X1711096Y-308711D01*
X1713839Y-322326D01*
X1718259Y-335432D01*
X1724406Y-347827D01*
X1732076Y-359359D01*
X1741220Y-369773D01*
X1751634Y-378917D01*
X1763166Y-386588D01*
X1775561Y-392734D01*
X1788668Y-397154D01*
X1802282Y-399897D01*
G37*
G36*
X8419541Y-293725D02*
G01*
X8457641Y-293725D01*
X8457641Y-229158D01*
X8393074Y-229158D01*
X8393074Y-267208D01*
X8393785Y-273558D01*
X8395716Y-278993D01*
X8398764Y-283921D01*
X8402878Y-287985D01*
X8407755Y-291084D01*
X8413242Y-293014D01*
G37*
G36*
X6469684Y-293471D02*
G01*
X6484264Y-293471D01*
X6498691Y-291642D01*
X6512814Y-288036D01*
X6526326Y-282651D01*
X6539077Y-275640D01*
X6550863Y-267106D01*
X6561480Y-257149D01*
X6570725Y-245922D01*
X6578549Y-233629D01*
X6584746Y-220471D01*
X6589217Y-206603D01*
X6591960Y-192328D01*
X6592874Y-177800D01*
X6591960Y-163271D01*
X6589217Y-148996D01*
X6584746Y-135128D01*
X6578549Y-121970D01*
X6570725Y-109677D01*
X6561480Y-98450D01*
X6550863Y-88493D01*
X6539077Y-79959D01*
X6526326Y-72948D01*
X6512814Y-67564D01*
X6498691Y-63957D01*
X6484264Y-62128D01*
X6469684Y-62128D01*
X6455257Y-63957D01*
X6441186Y-67564D01*
X6427622Y-72948D01*
X6414871Y-79959D01*
X6403136Y-88493D01*
X6392519Y-98450D01*
X6383223Y-109677D01*
X6375450Y-121970D01*
X6369253Y-135128D01*
X6364732Y-148996D01*
X6361988Y-163271D01*
X6361074Y-177800D01*
X6361988Y-192328D01*
X6364732Y-206603D01*
X6369253Y-220471D01*
X6375450Y-233629D01*
X6383223Y-245922D01*
X6392519Y-257149D01*
X6403136Y-267106D01*
X6414871Y-275640D01*
X6427622Y-282651D01*
X6441186Y-288036D01*
X6455257Y-291642D01*
G37*
G36*
X5707684Y-293471D02*
G01*
X5722264Y-293471D01*
X5736691Y-291642D01*
X5750814Y-288036D01*
X5764326Y-282651D01*
X5777077Y-275640D01*
X5788863Y-267106D01*
X5799480Y-257149D01*
X5808726Y-245922D01*
X5816549Y-233629D01*
X5822746Y-220471D01*
X5827217Y-206603D01*
X5829960Y-192328D01*
X5830874Y-177800D01*
X5829960Y-163271D01*
X5827217Y-148996D01*
X5822746Y-135128D01*
X5816549Y-121970D01*
X5808726Y-109677D01*
X5799480Y-98450D01*
X5788863Y-88493D01*
X5777077Y-79959D01*
X5764326Y-72948D01*
X5750814Y-67564D01*
X5736691Y-63957D01*
X5722264Y-62128D01*
X5707684Y-62128D01*
X5693257Y-63957D01*
X5679186Y-67564D01*
X5665622Y-72948D01*
X5652871Y-79959D01*
X5641136Y-88493D01*
X5630519Y-98450D01*
X5621223Y-109677D01*
X5613450Y-121970D01*
X5607253Y-135128D01*
X5602732Y-148996D01*
X5599988Y-163271D01*
X5599074Y-177800D01*
X5599988Y-192328D01*
X5602732Y-206603D01*
X5607253Y-220471D01*
X5613450Y-233629D01*
X5621223Y-245922D01*
X5630519Y-257149D01*
X5641136Y-267106D01*
X5652871Y-275640D01*
X5665622Y-282651D01*
X5679186Y-288036D01*
X5693257Y-291642D01*
G37*
G36*
X6723684Y-293471D02*
G01*
X6738264Y-293471D01*
X6752691Y-291642D01*
X6766814Y-288036D01*
X6780326Y-282651D01*
X6793077Y-275640D01*
X6804863Y-267106D01*
X6815480Y-257149D01*
X6824725Y-245922D01*
X6832549Y-233629D01*
X6838746Y-220471D01*
X6843217Y-206603D01*
X6845960Y-192328D01*
X6846874Y-177800D01*
X6845960Y-163271D01*
X6843217Y-148996D01*
X6838746Y-135128D01*
X6832549Y-121970D01*
X6824725Y-109677D01*
X6815480Y-98450D01*
X6804863Y-88493D01*
X6793077Y-79959D01*
X6780326Y-72948D01*
X6766814Y-67564D01*
X6752691Y-63957D01*
X6738264Y-62128D01*
X6723684Y-62128D01*
X6709257Y-63957D01*
X6695186Y-67564D01*
X6681622Y-72948D01*
X6668871Y-79959D01*
X6657136Y-88493D01*
X6646519Y-98450D01*
X6637223Y-109677D01*
X6629450Y-121970D01*
X6623253Y-135128D01*
X6618731Y-148996D01*
X6615988Y-163271D01*
X6615074Y-177800D01*
X6615988Y-192328D01*
X6618731Y-206603D01*
X6623253Y-220471D01*
X6629450Y-233629D01*
X6637223Y-245922D01*
X6646519Y-257149D01*
X6657136Y-267106D01*
X6668871Y-275640D01*
X6681622Y-282651D01*
X6695186Y-288036D01*
X6709257Y-291642D01*
G37*
G36*
X5453684Y-293471D02*
G01*
X5468264Y-293471D01*
X5482691Y-291642D01*
X5496814Y-288036D01*
X5510326Y-282651D01*
X5523077Y-275640D01*
X5534863Y-267106D01*
X5545480Y-257149D01*
X5554726Y-245922D01*
X5562549Y-233629D01*
X5568746Y-220471D01*
X5573217Y-206603D01*
X5575960Y-192328D01*
X5576874Y-177800D01*
X5575960Y-163271D01*
X5573217Y-148996D01*
X5568746Y-135128D01*
X5562549Y-121970D01*
X5554726Y-109677D01*
X5545480Y-98450D01*
X5534863Y-88493D01*
X5523077Y-79959D01*
X5510326Y-72948D01*
X5496814Y-67564D01*
X5482691Y-63957D01*
X5468264Y-62128D01*
X5453684Y-62128D01*
X5439257Y-63957D01*
X5425186Y-67564D01*
X5411622Y-72948D01*
X5398871Y-79959D01*
X5387136Y-88493D01*
X5376519Y-98450D01*
X5367223Y-109677D01*
X5359450Y-121970D01*
X5353253Y-135128D01*
X5348732Y-148996D01*
X5345988Y-163271D01*
X5345074Y-177800D01*
X5345988Y-192328D01*
X5348732Y-206603D01*
X5353253Y-220471D01*
X5359450Y-233629D01*
X5367223Y-245922D01*
X5376519Y-257149D01*
X5387136Y-267106D01*
X5398871Y-275640D01*
X5411622Y-282651D01*
X5425186Y-288036D01*
X5439257Y-291642D01*
G37*
G36*
X6977684Y-293471D02*
G01*
X6992264Y-293471D01*
X7006691Y-291642D01*
X7020814Y-288036D01*
X7034326Y-282651D01*
X7047077Y-275640D01*
X7058863Y-267106D01*
X7069480Y-257149D01*
X7078725Y-245922D01*
X7086549Y-233629D01*
X7092746Y-220471D01*
X7097217Y-206603D01*
X7099960Y-192328D01*
X7100874Y-177800D01*
X7099960Y-163271D01*
X7097217Y-148996D01*
X7092746Y-135128D01*
X7086549Y-121970D01*
X7078725Y-109677D01*
X7069480Y-98450D01*
X7058863Y-88493D01*
X7047077Y-79959D01*
X7034326Y-72948D01*
X7020814Y-67564D01*
X7006691Y-63957D01*
X6992264Y-62128D01*
X6977684Y-62128D01*
X6963257Y-63957D01*
X6949186Y-67564D01*
X6935622Y-72948D01*
X6922871Y-79959D01*
X6911136Y-88493D01*
X6900519Y-98450D01*
X6891223Y-109677D01*
X6883450Y-121970D01*
X6877253Y-135128D01*
X6872731Y-148996D01*
X6869988Y-163271D01*
X6869074Y-177800D01*
X6869988Y-192328D01*
X6872731Y-206603D01*
X6877253Y-220471D01*
X6883450Y-233629D01*
X6891223Y-245922D01*
X6900519Y-257149D01*
X6911136Y-267106D01*
X6922871Y-275640D01*
X6935622Y-282651D01*
X6949186Y-288036D01*
X6963257Y-291642D01*
G37*
G36*
X5199684Y-293471D02*
G01*
X5214264Y-293471D01*
X5228691Y-291642D01*
X5242814Y-288036D01*
X5256326Y-282651D01*
X5269077Y-275640D01*
X5280863Y-267106D01*
X5291480Y-257149D01*
X5300726Y-245922D01*
X5308549Y-233629D01*
X5314746Y-220471D01*
X5319217Y-206603D01*
X5321960Y-192328D01*
X5322874Y-177800D01*
X5321960Y-163271D01*
X5319217Y-148996D01*
X5314746Y-135128D01*
X5308549Y-121970D01*
X5300726Y-109677D01*
X5291480Y-98450D01*
X5280863Y-88493D01*
X5269077Y-79959D01*
X5256326Y-72948D01*
X5242814Y-67564D01*
X5228691Y-63957D01*
X5214264Y-62128D01*
X5199684Y-62128D01*
X5185257Y-63957D01*
X5171186Y-67564D01*
X5157622Y-72948D01*
X5144871Y-79959D01*
X5133136Y-88493D01*
X5122519Y-98450D01*
X5113223Y-109677D01*
X5105450Y-121970D01*
X5099253Y-135128D01*
X5094732Y-148996D01*
X5091988Y-163271D01*
X5091074Y-177800D01*
X5091988Y-192328D01*
X5094732Y-206603D01*
X5099253Y-220471D01*
X5105450Y-233629D01*
X5113223Y-245922D01*
X5122519Y-257149D01*
X5133136Y-267106D01*
X5144871Y-275640D01*
X5157622Y-282651D01*
X5171186Y-288036D01*
X5185257Y-291642D01*
G37*
G36*
X7231684Y-293471D02*
G01*
X7246264Y-293471D01*
X7260691Y-291642D01*
X7274814Y-288036D01*
X7288326Y-282651D01*
X7301077Y-275640D01*
X7312863Y-267106D01*
X7323480Y-257149D01*
X7332725Y-245922D01*
X7340549Y-233629D01*
X7346746Y-220471D01*
X7351217Y-206603D01*
X7353960Y-192328D01*
X7354874Y-177800D01*
X7353960Y-163271D01*
X7351217Y-148996D01*
X7346746Y-135128D01*
X7340549Y-121970D01*
X7332725Y-109677D01*
X7323480Y-98450D01*
X7312863Y-88493D01*
X7301077Y-79959D01*
X7288326Y-72948D01*
X7274814Y-67564D01*
X7260691Y-63957D01*
X7246264Y-62128D01*
X7231684Y-62128D01*
X7217257Y-63957D01*
X7203186Y-67564D01*
X7189622Y-72948D01*
X7176871Y-79959D01*
X7165136Y-88493D01*
X7154519Y-98450D01*
X7145223Y-109677D01*
X7137450Y-121970D01*
X7131253Y-135128D01*
X7126731Y-148996D01*
X7123988Y-163271D01*
X7123074Y-177800D01*
X7123988Y-192328D01*
X7126731Y-206603D01*
X7131253Y-220471D01*
X7137450Y-233629D01*
X7145223Y-245922D01*
X7154519Y-257149D01*
X7165136Y-267106D01*
X7176871Y-275640D01*
X7189622Y-282651D01*
X7203186Y-288036D01*
X7217257Y-291642D01*
G37*
G36*
X4945684Y-293471D02*
G01*
X4960264Y-293471D01*
X4974691Y-291642D01*
X4988814Y-288036D01*
X5002326Y-282651D01*
X5015077Y-275640D01*
X5026863Y-267106D01*
X5037480Y-257149D01*
X5046726Y-245922D01*
X5054549Y-233629D01*
X5060746Y-220471D01*
X5065217Y-206603D01*
X5067960Y-192328D01*
X5068874Y-177800D01*
X5067960Y-163271D01*
X5065217Y-148996D01*
X5060746Y-135128D01*
X5054549Y-121970D01*
X5046726Y-109677D01*
X5037480Y-98450D01*
X5026863Y-88493D01*
X5015077Y-79959D01*
X5002326Y-72948D01*
X4988814Y-67564D01*
X4974691Y-63957D01*
X4960264Y-62128D01*
X4945684Y-62128D01*
X4931257Y-63957D01*
X4917186Y-67564D01*
X4903622Y-72948D01*
X4890871Y-79959D01*
X4879136Y-88493D01*
X4868519Y-98450D01*
X4859223Y-109677D01*
X4851450Y-121970D01*
X4845253Y-135128D01*
X4840732Y-148996D01*
X4837988Y-163271D01*
X4837074Y-177800D01*
X4837988Y-192328D01*
X4840732Y-206603D01*
X4845253Y-220471D01*
X4851450Y-233629D01*
X4859223Y-245922D01*
X4868519Y-257149D01*
X4879136Y-267106D01*
X4890871Y-275640D01*
X4903622Y-282651D01*
X4917186Y-288036D01*
X4931257Y-291642D01*
G37*
G36*
X7485684Y-293471D02*
G01*
X7500264Y-293471D01*
X7514691Y-291642D01*
X7528814Y-288036D01*
X7542326Y-282651D01*
X7555077Y-275640D01*
X7566863Y-267106D01*
X7577480Y-257149D01*
X7586725Y-245922D01*
X7594549Y-233629D01*
X7600746Y-220471D01*
X7605217Y-206603D01*
X7607960Y-192328D01*
X7608874Y-177800D01*
X7607960Y-163271D01*
X7605217Y-148996D01*
X7600746Y-135128D01*
X7594549Y-121970D01*
X7586725Y-109677D01*
X7577480Y-98450D01*
X7566863Y-88493D01*
X7555077Y-79959D01*
X7542326Y-72948D01*
X7528814Y-67564D01*
X7514691Y-63957D01*
X7500264Y-62128D01*
X7485684Y-62128D01*
X7471257Y-63957D01*
X7457186Y-67564D01*
X7443622Y-72948D01*
X7430871Y-79959D01*
X7419136Y-88493D01*
X7408519Y-98450D01*
X7399223Y-109677D01*
X7391450Y-121970D01*
X7385253Y-135128D01*
X7380731Y-148996D01*
X7377988Y-163271D01*
X7377074Y-177800D01*
X7377988Y-192328D01*
X7380731Y-206603D01*
X7385253Y-220471D01*
X7391450Y-233629D01*
X7399223Y-245922D01*
X7408519Y-257149D01*
X7419136Y-267106D01*
X7430871Y-275640D01*
X7443622Y-282651D01*
X7457186Y-288036D01*
X7471257Y-291642D01*
G37*
G36*
X4691684Y-293471D02*
G01*
X4706264Y-293471D01*
X4720691Y-291642D01*
X4734814Y-288036D01*
X4748326Y-282651D01*
X4761077Y-275640D01*
X4772863Y-267106D01*
X4783480Y-257149D01*
X4792726Y-245922D01*
X4800549Y-233629D01*
X4806746Y-220471D01*
X4811217Y-206603D01*
X4813960Y-192328D01*
X4814874Y-177800D01*
X4813960Y-163271D01*
X4811217Y-148996D01*
X4806746Y-135128D01*
X4800549Y-121970D01*
X4792726Y-109677D01*
X4783480Y-98450D01*
X4772863Y-88493D01*
X4761077Y-79959D01*
X4748326Y-72948D01*
X4734814Y-67564D01*
X4720691Y-63957D01*
X4706264Y-62128D01*
X4691684Y-62128D01*
X4677257Y-63957D01*
X4663186Y-67564D01*
X4649622Y-72948D01*
X4636871Y-79959D01*
X4625136Y-88493D01*
X4614519Y-98450D01*
X4605223Y-109677D01*
X4597450Y-121970D01*
X4591253Y-135128D01*
X4586732Y-148996D01*
X4583988Y-163271D01*
X4583074Y-177800D01*
X4583988Y-192328D01*
X4586732Y-206603D01*
X4591253Y-220471D01*
X4597450Y-233629D01*
X4605223Y-245922D01*
X4614519Y-257149D01*
X4625136Y-267106D01*
X4636871Y-275640D01*
X4649622Y-282651D01*
X4663186Y-288036D01*
X4677257Y-291642D01*
G37*
G36*
X7739684Y-293471D02*
G01*
X7754264Y-293471D01*
X7768691Y-291642D01*
X7782814Y-288036D01*
X7796326Y-282651D01*
X7809077Y-275640D01*
X7820863Y-267106D01*
X7831480Y-257149D01*
X7840725Y-245922D01*
X7848549Y-233629D01*
X7854746Y-220471D01*
X7859217Y-206603D01*
X7861960Y-192328D01*
X7862874Y-177800D01*
X7861960Y-163271D01*
X7859217Y-148996D01*
X7854746Y-135128D01*
X7848549Y-121970D01*
X7840725Y-109677D01*
X7831480Y-98450D01*
X7820863Y-88493D01*
X7809077Y-79959D01*
X7796326Y-72948D01*
X7782814Y-67564D01*
X7768691Y-63957D01*
X7754264Y-62128D01*
X7739684Y-62128D01*
X7725257Y-63957D01*
X7711186Y-67564D01*
X7697622Y-72948D01*
X7684871Y-79959D01*
X7673136Y-88493D01*
X7662519Y-98450D01*
X7653223Y-109677D01*
X7645450Y-121970D01*
X7639253Y-135128D01*
X7634731Y-148996D01*
X7631988Y-163271D01*
X7631074Y-177800D01*
X7631988Y-192328D01*
X7634731Y-206603D01*
X7639253Y-220471D01*
X7645450Y-233629D01*
X7653223Y-245922D01*
X7662519Y-257149D01*
X7673136Y-267106D01*
X7684871Y-275640D01*
X7697622Y-282651D01*
X7711186Y-288036D01*
X7725257Y-291642D01*
G37*
G36*
X4437684Y-293471D02*
G01*
X4452264Y-293471D01*
X4466691Y-291642D01*
X4480814Y-288036D01*
X4494326Y-282651D01*
X4507077Y-275640D01*
X4518863Y-267106D01*
X4529480Y-257149D01*
X4538726Y-245922D01*
X4546549Y-233629D01*
X4552746Y-220471D01*
X4557217Y-206603D01*
X4559960Y-192328D01*
X4560874Y-177800D01*
X4559960Y-163271D01*
X4557217Y-148996D01*
X4552746Y-135128D01*
X4546549Y-121970D01*
X4538726Y-109677D01*
X4529480Y-98450D01*
X4518863Y-88493D01*
X4507077Y-79959D01*
X4494326Y-72948D01*
X4480814Y-67564D01*
X4466691Y-63957D01*
X4452264Y-62128D01*
X4437684Y-62128D01*
X4423257Y-63957D01*
X4409186Y-67564D01*
X4395622Y-72948D01*
X4382871Y-79959D01*
X4371136Y-88493D01*
X4360519Y-98450D01*
X4351223Y-109677D01*
X4343450Y-121970D01*
X4337253Y-135128D01*
X4332732Y-148996D01*
X4329988Y-163271D01*
X4329074Y-177800D01*
X4329988Y-192328D01*
X4332732Y-206603D01*
X4337253Y-220471D01*
X4343450Y-233629D01*
X4351223Y-245922D01*
X4360519Y-257149D01*
X4371136Y-267106D01*
X4382871Y-275640D01*
X4395622Y-282651D01*
X4409186Y-288036D01*
X4423257Y-291642D01*
G37*
G36*
X7993684Y-293471D02*
G01*
X8008264Y-293471D01*
X8022691Y-291642D01*
X8036814Y-288036D01*
X8050326Y-282651D01*
X8063077Y-275640D01*
X8074863Y-267106D01*
X8085480Y-257149D01*
X8094725Y-245922D01*
X8102549Y-233629D01*
X8108746Y-220471D01*
X8113217Y-206603D01*
X8115960Y-192328D01*
X8116874Y-177800D01*
X8115960Y-163271D01*
X8113217Y-148996D01*
X8108746Y-135128D01*
X8102549Y-121970D01*
X8094725Y-109677D01*
X8085480Y-98450D01*
X8074863Y-88493D01*
X8063077Y-79959D01*
X8050326Y-72948D01*
X8036814Y-67564D01*
X8022691Y-63957D01*
X8008264Y-62128D01*
X7993684Y-62128D01*
X7979257Y-63957D01*
X7965186Y-67564D01*
X7951622Y-72948D01*
X7938871Y-79959D01*
X7927136Y-88493D01*
X7916519Y-98450D01*
X7907223Y-109677D01*
X7899450Y-121970D01*
X7893253Y-135128D01*
X7888731Y-148996D01*
X7885988Y-163271D01*
X7885074Y-177800D01*
X7885988Y-192328D01*
X7888731Y-206603D01*
X7893253Y-220471D01*
X7899450Y-233629D01*
X7907223Y-245922D01*
X7916519Y-257149D01*
X7927136Y-267106D01*
X7938871Y-275640D01*
X7951622Y-282651D01*
X7965186Y-288036D01*
X7979257Y-291642D01*
G37*
G36*
X4183684Y-293471D02*
G01*
X4198264Y-293471D01*
X4212691Y-291642D01*
X4226814Y-288036D01*
X4240326Y-282651D01*
X4253077Y-275640D01*
X4264863Y-267106D01*
X4275480Y-257149D01*
X4284726Y-245922D01*
X4292549Y-233629D01*
X4298746Y-220471D01*
X4303217Y-206603D01*
X4305960Y-192328D01*
X4306874Y-177800D01*
X4305960Y-163271D01*
X4303217Y-148996D01*
X4298746Y-135128D01*
X4292549Y-121970D01*
X4284726Y-109677D01*
X4275480Y-98450D01*
X4264863Y-88493D01*
X4253077Y-79959D01*
X4240326Y-72948D01*
X4226814Y-67564D01*
X4212691Y-63957D01*
X4198264Y-62128D01*
X4183684Y-62128D01*
X4169257Y-63957D01*
X4155186Y-67564D01*
X4141622Y-72948D01*
X4128871Y-79959D01*
X4117136Y-88493D01*
X4106519Y-98450D01*
X4097223Y-109677D01*
X4089450Y-121970D01*
X4083253Y-135128D01*
X4078732Y-148996D01*
X4075988Y-163271D01*
X4075074Y-177800D01*
X4075988Y-192328D01*
X4078732Y-206603D01*
X4083253Y-220471D01*
X4089450Y-233629D01*
X4097223Y-245922D01*
X4106519Y-257149D01*
X4117136Y-267106D01*
X4128871Y-275640D01*
X4141622Y-282651D01*
X4155186Y-288036D01*
X4169257Y-291642D01*
G37*
G36*
X5961684Y-293471D02*
G01*
X5976264Y-293471D01*
X5990691Y-291642D01*
X6004814Y-288036D01*
X6018326Y-282651D01*
X6031077Y-275640D01*
X6042863Y-267106D01*
X6053480Y-257149D01*
X6062726Y-245922D01*
X6070549Y-233629D01*
X6076746Y-220471D01*
X6081217Y-206603D01*
X6083960Y-192328D01*
X6084874Y-177800D01*
X6083960Y-163271D01*
X6081217Y-148996D01*
X6076746Y-135128D01*
X6070549Y-121970D01*
X6062726Y-109677D01*
X6053480Y-98450D01*
X6042863Y-88493D01*
X6031077Y-79959D01*
X6018326Y-72948D01*
X6004814Y-67564D01*
X5990691Y-63957D01*
X5976264Y-62128D01*
X5961684Y-62128D01*
X5947257Y-63957D01*
X5933186Y-67564D01*
X5919622Y-72948D01*
X5906871Y-79959D01*
X5895136Y-88493D01*
X5884519Y-98450D01*
X5875223Y-109677D01*
X5867450Y-121970D01*
X5861253Y-135128D01*
X5856732Y-148996D01*
X5853988Y-163271D01*
X5853074Y-177800D01*
X5853988Y-192328D01*
X5856732Y-206603D01*
X5861253Y-220471D01*
X5867450Y-233629D01*
X5875223Y-245922D01*
X5884519Y-257149D01*
X5895136Y-267106D01*
X5906871Y-275640D01*
X5919622Y-282651D01*
X5933186Y-288036D01*
X5947257Y-291642D01*
G37*
G36*
X3929684Y-293471D02*
G01*
X3944264Y-293471D01*
X3958691Y-291642D01*
X3972814Y-288036D01*
X3986326Y-282651D01*
X3999077Y-275640D01*
X4010863Y-267106D01*
X4021480Y-257149D01*
X4030726Y-245922D01*
X4038549Y-233629D01*
X4044746Y-220471D01*
X4049217Y-206603D01*
X4051960Y-192328D01*
X4052874Y-177800D01*
X4051960Y-163271D01*
X4049217Y-148996D01*
X4044746Y-135128D01*
X4038549Y-121970D01*
X4030726Y-109677D01*
X4021480Y-98450D01*
X4010863Y-88493D01*
X3999077Y-79959D01*
X3986326Y-72948D01*
X3972814Y-67564D01*
X3958691Y-63957D01*
X3944264Y-62128D01*
X3929684Y-62128D01*
X3915257Y-63957D01*
X3901186Y-67564D01*
X3887622Y-72948D01*
X3874871Y-79959D01*
X3863136Y-88493D01*
X3852519Y-98450D01*
X3843223Y-109677D01*
X3835450Y-121970D01*
X3829253Y-135128D01*
X3824732Y-148996D01*
X3821988Y-163271D01*
X3821074Y-177800D01*
X3821988Y-192328D01*
X3824732Y-206603D01*
X3829253Y-220471D01*
X3835450Y-233629D01*
X3843223Y-245922D01*
X3852519Y-257149D01*
X3863136Y-267106D01*
X3874871Y-275640D01*
X3887622Y-282651D01*
X3901186Y-288036D01*
X3915257Y-291642D01*
G37*
G36*
X3675684Y-293471D02*
G01*
X3690264Y-293471D01*
X3704691Y-291642D01*
X3718814Y-288036D01*
X3732326Y-282651D01*
X3745077Y-275640D01*
X3756863Y-267106D01*
X3767480Y-257149D01*
X3776726Y-245922D01*
X3784549Y-233629D01*
X3790746Y-220471D01*
X3795217Y-206603D01*
X3797960Y-192328D01*
X3798874Y-177800D01*
X3797960Y-163271D01*
X3795217Y-148996D01*
X3790746Y-135128D01*
X3784549Y-121970D01*
X3776726Y-109677D01*
X3767480Y-98450D01*
X3756863Y-88493D01*
X3745077Y-79959D01*
X3732326Y-72948D01*
X3718814Y-67564D01*
X3704691Y-63957D01*
X3690264Y-62128D01*
X3675684Y-62128D01*
X3661257Y-63957D01*
X3647186Y-67564D01*
X3633622Y-72948D01*
X3620871Y-79959D01*
X3609136Y-88493D01*
X3598519Y-98450D01*
X3589223Y-109677D01*
X3581450Y-121970D01*
X3575253Y-135128D01*
X3570732Y-148996D01*
X3567988Y-163271D01*
X3567074Y-177800D01*
X3567988Y-192328D01*
X3570732Y-206603D01*
X3575253Y-220471D01*
X3581450Y-233629D01*
X3589223Y-245922D01*
X3598519Y-257149D01*
X3609136Y-267106D01*
X3620871Y-275640D01*
X3633622Y-282651D01*
X3647186Y-288036D01*
X3661257Y-291642D01*
G37*
G36*
X6215684Y-293471D02*
G01*
X6230264Y-293471D01*
X6244691Y-291642D01*
X6258814Y-288036D01*
X6272326Y-282651D01*
X6285077Y-275640D01*
X6296863Y-267106D01*
X6307480Y-257149D01*
X6316726Y-245922D01*
X6324549Y-233629D01*
X6330746Y-220471D01*
X6335217Y-206603D01*
X6337960Y-192328D01*
X6338874Y-177800D01*
X6337960Y-163271D01*
X6335217Y-148996D01*
X6330746Y-135128D01*
X6324549Y-121970D01*
X6316726Y-109677D01*
X6307480Y-98450D01*
X6296863Y-88493D01*
X6285077Y-79959D01*
X6272326Y-72948D01*
X6258814Y-67564D01*
X6244691Y-63957D01*
X6230264Y-62128D01*
X6215684Y-62128D01*
X6201257Y-63957D01*
X6187186Y-67564D01*
X6173622Y-72948D01*
X6160871Y-79959D01*
X6149136Y-88493D01*
X6138519Y-98450D01*
X6129223Y-109677D01*
X6121450Y-121970D01*
X6115253Y-135128D01*
X6110732Y-148996D01*
X6107988Y-163271D01*
X6107074Y-177800D01*
X6107988Y-192328D01*
X6110732Y-206603D01*
X6115253Y-220471D01*
X6121450Y-233629D01*
X6129223Y-245922D01*
X6138519Y-257149D01*
X6149136Y-267106D01*
X6160871Y-275640D01*
X6173622Y-282651D01*
X6187186Y-288036D01*
X6201257Y-291642D01*
G37*
G36*
X8247684Y-293471D02*
G01*
X8262264Y-293471D01*
X8276691Y-291642D01*
X8290814Y-288036D01*
X8304326Y-282651D01*
X8317077Y-275640D01*
X8328863Y-267106D01*
X8339480Y-257149D01*
X8348725Y-245922D01*
X8356549Y-233629D01*
X8362746Y-220471D01*
X8367217Y-206603D01*
X8369960Y-192328D01*
X8370874Y-177800D01*
X8369960Y-163271D01*
X8367217Y-148996D01*
X8362746Y-135128D01*
X8356549Y-121970D01*
X8348725Y-109677D01*
X8339480Y-98450D01*
X8328863Y-88493D01*
X8317077Y-79959D01*
X8304326Y-72948D01*
X8290814Y-67564D01*
X8276691Y-63957D01*
X8262264Y-62128D01*
X8247684Y-62128D01*
X8233257Y-63957D01*
X8219186Y-67564D01*
X8205622Y-72948D01*
X8192871Y-79959D01*
X8181136Y-88493D01*
X8170519Y-98450D01*
X8161223Y-109677D01*
X8153450Y-121970D01*
X8147253Y-135128D01*
X8142731Y-148996D01*
X8139988Y-163271D01*
X8139074Y-177800D01*
X8139988Y-192328D01*
X8142731Y-206603D01*
X8147253Y-220471D01*
X8153450Y-233629D01*
X8161223Y-245922D01*
X8170519Y-257149D01*
X8181136Y-267106D01*
X8192871Y-275640D01*
X8205622Y-282651D01*
X8219186Y-288036D01*
X8233257Y-291642D01*
G37*
G36*
X3220720Y-282448D02*
G01*
X3253181Y-282448D01*
X3259480Y-281736D01*
X3264966Y-279806D01*
X3269843Y-276758D01*
X3273958Y-272643D01*
X3277006Y-267766D01*
X3278936Y-262280D01*
X3279648Y-255981D01*
X3279648Y-223520D01*
X3220720Y-223520D01*
G37*
G36*
X3096818Y-282448D02*
G01*
X3129280Y-282448D01*
X3129280Y-223520D01*
X3070352Y-223520D01*
X3070352Y-255981D01*
X3071063Y-262280D01*
X3072993Y-267766D01*
X3076041Y-272643D01*
X3080156Y-276758D01*
X3085033Y-279806D01*
X3090519Y-281736D01*
G37*
G36*
X9017000Y-282448D02*
G01*
X9030614Y-281533D01*
X9044076Y-278841D01*
X9057030Y-274472D01*
X9069273Y-268427D01*
X9080652Y-260807D01*
X9090964Y-251764D01*
X9100007Y-241503D01*
X9107576Y-230124D01*
X9113621Y-217830D01*
X9118041Y-204876D01*
X9120733Y-191465D01*
X9121597Y-177800D01*
X9120733Y-164134D01*
X9118041Y-150723D01*
X9113621Y-137769D01*
X9107576Y-125476D01*
X9100007Y-114096D01*
X9090964Y-103835D01*
X9080652Y-94792D01*
X9069273Y-87172D01*
X9057030Y-81127D01*
X9044076Y-76758D01*
X9030614Y-74066D01*
X9017000Y-73152D01*
X9003334Y-74066D01*
X8989923Y-76758D01*
X8976918Y-81127D01*
X8964676Y-87172D01*
X8953296Y-94792D01*
X8942984Y-103835D01*
X8933992Y-114096D01*
X8926372Y-125476D01*
X8920327Y-137769D01*
X8915908Y-150723D01*
X8913266Y-164134D01*
X8912352Y-177800D01*
X8913266Y-191465D01*
X8915908Y-204876D01*
X8920327Y-217830D01*
X8926372Y-230124D01*
X8933992Y-241503D01*
X8942984Y-251764D01*
X8953296Y-260807D01*
X8964676Y-268427D01*
X8976918Y-274472D01*
X8989923Y-278841D01*
X9003334Y-281533D01*
G37*
G36*
X9446818Y-282448D02*
G01*
X9603130Y-282448D01*
X9609480Y-281736D01*
X9614916Y-279806D01*
X9619843Y-276758D01*
X9623907Y-272643D01*
X9627006Y-267766D01*
X9628936Y-262280D01*
X9629648Y-255981D01*
X9629648Y-99618D01*
X9628936Y-93319D01*
X9627006Y-87833D01*
X9623907Y-82956D01*
X9619843Y-78841D01*
X9614916Y-75793D01*
X9609480Y-73863D01*
X9603130Y-73152D01*
X9446818Y-73152D01*
X9440468Y-73863D01*
X9435033Y-75793D01*
X9430105Y-78841D01*
X9426041Y-82956D01*
X9422942Y-87833D01*
X9421063Y-93319D01*
X9420352Y-99618D01*
X9420352Y-255981D01*
X9421063Y-262280D01*
X9422942Y-267766D01*
X9426041Y-272643D01*
X9430105Y-276758D01*
X9435033Y-279806D01*
X9440468Y-281736D01*
G37*
G36*
X8808720Y-271678D02*
G01*
X8815273Y-268427D01*
X8826652Y-260807D01*
X8836964Y-251764D01*
X8846007Y-241503D01*
X8853576Y-230124D01*
X8856827Y-223520D01*
X8808720Y-223520D01*
G37*
G36*
X9225280Y-271678D02*
G01*
X9225280Y-223520D01*
X9177121Y-223520D01*
X9180372Y-230124D01*
X9187992Y-241503D01*
X9196984Y-251764D01*
X9207296Y-260807D01*
X9218676Y-268427D01*
G37*
G36*
X8717280Y-271678D02*
G01*
X8717280Y-223520D01*
X8669121Y-223520D01*
X8672372Y-230124D01*
X8679992Y-241503D01*
X8688984Y-251764D01*
X8699296Y-260807D01*
X8710676Y-268427D01*
G37*
G36*
X9316720Y-271678D02*
G01*
X9323273Y-268427D01*
X9334652Y-260807D01*
X9344964Y-251764D01*
X9354007Y-241503D01*
X9361576Y-230124D01*
X9364827Y-223520D01*
X9316720Y-223520D01*
G37*
G36*
X9177121Y-132080D02*
G01*
X9225280Y-132080D01*
X9225280Y-83921D01*
X9218676Y-87172D01*
X9207296Y-94792D01*
X9196984Y-103835D01*
X9187992Y-114096D01*
X9180372Y-125476D01*
G37*
G36*
X8669121Y-132080D02*
G01*
X8717280Y-132080D01*
X8717280Y-83921D01*
X8710676Y-87172D01*
X8699296Y-94792D01*
X8688984Y-103835D01*
X8679992Y-114096D01*
X8672372Y-125476D01*
G37*
G36*
X8808720Y-132080D02*
G01*
X8856827Y-132080D01*
X8853576Y-125476D01*
X8846007Y-114096D01*
X8836964Y-103835D01*
X8826652Y-94792D01*
X8815273Y-87172D01*
X8808720Y-83921D01*
G37*
G36*
X9316720Y-132080D02*
G01*
X9364827Y-132080D01*
X9361576Y-125476D01*
X9354007Y-114096D01*
X9344964Y-103835D01*
X9334652Y-94792D01*
X9323273Y-87172D01*
X9316720Y-83921D01*
G37*
G36*
X3220720Y-132080D02*
G01*
X3279648Y-132080D01*
X3279648Y-99618D01*
X3278936Y-93319D01*
X3277006Y-87833D01*
X3273958Y-82956D01*
X3269843Y-78841D01*
X3264966Y-75793D01*
X3259480Y-73863D01*
X3253181Y-73152D01*
X3220720Y-73152D01*
G37*
G36*
X3070352Y-132080D02*
G01*
X3129280Y-132080D01*
X3129280Y-73152D01*
X3096818Y-73152D01*
X3090519Y-73863D01*
X3085033Y-75793D01*
X3080156Y-78841D01*
X3076041Y-82956D01*
X3072993Y-87833D01*
X3071063Y-93319D01*
X3070352Y-99618D01*
G37*
G36*
X8393074Y-126441D02*
G01*
X8457641Y-126441D01*
X8457641Y-61874D01*
X8419541Y-61874D01*
X8413242Y-62585D01*
X8407755Y-64516D01*
X8402878Y-67614D01*
X8398764Y-71678D01*
X8395716Y-76606D01*
X8393785Y-82042D01*
X8393074Y-88392D01*
G37*
G36*
X8560358Y-126441D02*
G01*
X8624874Y-126441D01*
X8624874Y-88392D01*
X8624163Y-82042D01*
X8622284Y-76606D01*
X8619185Y-71678D01*
X8615121Y-67614D01*
X8610193Y-64516D01*
X8604758Y-62585D01*
X8598408Y-61874D01*
X8560358Y-61874D01*
G37*

%LPD*%
D10*
X3632200Y-1028700D02*
G01*
X3632192Y-558800D01*
X3441700Y-368300D01*
D11*
X5003800Y-889000D02*
G01*
X5016500Y-876300D01*
X6102095Y-876300D01*
X6210287Y-901697D01*
X6515100Y-901700D01*
X6667474Y-927100D02*
G01*
X6629374Y-965200D01*
X6337300Y-965200D01*
X6172200Y-1130300D01*
X5727700Y-1130300D01*
X5143500Y-952500D02*
G01*
X5410200Y-952500D01*
X5461000Y-1003300D01*
X5460989Y-1269997D01*
X5664200Y-1358900D01*
X6985000Y-1358900D01*
X9270974Y-1701800D02*
G01*
X9270974Y-177800D01*
X8763000Y-1701800D02*
G01*
X8890000Y-1574800D01*
X9194782Y-1574797D01*
X9271000Y-1701800D01*
X3682997Y-1701787D02*
G01*
X3175000Y-1701800D01*
X8762974Y-177800D02*
G01*
X8509000Y-177810D01*
X3175000Y-177800D02*
G01*
X3390892Y-177800D01*
X3581392Y-368300D01*
X4089400Y-368300D01*
X4343400Y-622300D01*
X1752600Y-1196596D02*
G01*
X1816100Y-1133096D01*
X1816100Y-644905D01*
D10*
X608495Y-643389D02*
G01*
X862495Y-643389D01*
D11*
X4584700Y-1435100D02*
G01*
X4368787Y-1435100D01*
X4000487Y-1066800D01*
X4000487Y-939800D01*
D10*
X8623274Y-355600D02*
G01*
X6045200Y-355600D01*
X5930900Y-469900D01*
X5854700Y-469900D01*
X5803900Y-520700D01*
X862495Y-1151389D02*
G01*
X862495Y-897389D01*
X862495Y-643389D02*
G01*
X862495Y-897389D01*
X608495Y-1151389D02*
G01*
X608495Y-897389D01*
X608495Y-643389D02*
G01*
X608495Y-897389D01*
D11*
X1816100Y-644905D02*
G01*
X1943094Y-571500D01*
X2527300Y-571500D01*
X2755900Y-800100D01*
X8762974Y-177800D02*
G01*
X8889974Y-304800D01*
X9131282Y-304800D01*
X9258282Y-177800D01*
X9270974Y-177800D01*
X2920994Y-1701797D02*
G01*
X2666994Y-1701797D01*
X2412994Y-1701797D02*
G01*
X2666994Y-1701797D01*
X2755900Y-812800D02*
G01*
X3174994Y-1231894D01*
X3174994Y-1701797D01*
X1752600Y-1546605D02*
G01*
X1907791Y-1701797D01*
X2412994Y-1701797D01*
X2755900Y-812800D02*
G01*
X3174994Y-393705D01*
X3174994Y-177800D01*
X2920994Y-177800D02*
G01*
X2666994Y-177800D01*
X2412994Y-177800D02*
G01*
X2666994Y-177800D01*
X1816100Y-294894D02*
G01*
X1933193Y-177800D01*
X2412994Y-177800D01*
X7531074Y-1320800D02*
G01*
X8077187Y-1320800D01*
X8242287Y-1485900D01*
X8547074Y-1485900D01*
X8762974Y-1701800D01*
X5003800Y-889000D02*
G01*
X4965700Y-850900D01*
X4965700Y-635000D01*
X4800600Y-469900D01*
X4495800Y-469900D01*
X4343400Y-622300D01*
X4000500Y-939800D02*
G01*
X3987800Y-952500D01*
X3708387Y-952500D01*
D12*
G01*
X3174994Y-1701797D03*
D13*
G01*
X2921000Y-1701800D03*
G01*
X2667000Y-1701800D03*
G01*
X2413000Y-1701800D03*
D12*
G01*
X3174994Y-177800D03*
D13*
G01*
X2921000Y-177800D03*
G01*
X2667000Y-177800D03*
G01*
X2413000Y-177800D03*
D14*
G01*
X1816100Y-644905D03*
G01*
X1816100Y-294894D03*
G01*
X1752600Y-1546605D03*
G01*
X1752600Y-1196594D03*
D15*
G01*
X3683000Y-1701800D03*
G01*
X3937000Y-1701800D03*
G01*
X4191000Y-1701800D03*
G01*
X4445000Y-1701800D03*
G01*
X4699000Y-1701800D03*
G01*
X4953000Y-1701800D03*
G01*
X5207000Y-1701800D03*
G01*
X5461000Y-1701800D03*
G01*
X5715000Y-1701800D03*
G01*
X5969000Y-1701800D03*
G01*
X6223000Y-1701800D03*
G01*
X6477000Y-1701800D03*
G01*
X6731000Y-1701800D03*
G01*
X6985000Y-1701800D03*
G01*
X7239000Y-1701800D03*
G01*
X7493000Y-1701800D03*
G01*
X7747000Y-1701800D03*
G01*
X8001000Y-1701800D03*
G01*
X8255000Y-1701800D03*
D16*
G01*
X8508987Y-1701797D03*
D12*
G01*
X9524982Y-177800D03*
D13*
G01*
X9270974Y-177800D03*
G01*
X9016974Y-177800D03*
G01*
X8762974Y-177800D03*
D12*
G01*
X9524982Y-1701797D03*
D13*
G01*
X9270974Y-1701800D03*
G01*
X9016974Y-1701800D03*
G01*
X8762974Y-1701800D03*
D17*
G01*
X2755894Y-1320797D03*
D18*
G01*
X2755900Y-1066800D03*
G01*
X2755900Y-812800D03*
G01*
X2755900Y-558800D03*
D13*
G01*
X862507Y-389381D03*
G01*
X608507Y-389381D03*
G01*
X862507Y-643381D03*
G01*
X608507Y-643381D03*
G01*
X862507Y-897381D03*
G01*
X608507Y-897381D03*
G01*
X862507Y-1151381D03*
G01*
X608507Y-1151381D03*
G01*
X862507Y-1405381D03*
D20*
G01*
X608497Y-1405392D03*
D15*
G01*
X3683000Y-177800D03*
G01*
X3937000Y-177800D03*
G01*
X4191000Y-177800D03*
G01*
X4445000Y-177800D03*
G01*
X4699000Y-177800D03*
G01*
X4953000Y-177800D03*
G01*
X5207000Y-177800D03*
G01*
X5461000Y-177800D03*
G01*
X5715000Y-177800D03*
G01*
X5969000Y-177800D03*
G01*
X6223000Y-177800D03*
G01*
X6477000Y-177800D03*
G01*
X6731000Y-177800D03*
G01*
X6985000Y-177800D03*
G01*
X7239000Y-177800D03*
G01*
X7493000Y-177800D03*
G01*
X7747000Y-177800D03*
G01*
X8001000Y-177800D03*
G01*
X8255000Y-177800D03*
D16*
G01*
X8508987Y-177800D03*
D21*
G01*
X4343400Y-622300D03*
G01*
X5003800Y-889000D03*
G01*
X4000500Y-939800D03*
G01*
X3708400Y-952500D03*
G01*
X6667474Y-927100D03*
G01*
X5727700Y-1130300D03*
G01*
X5143500Y-952500D03*
G01*
X6984974Y-1358900D03*
G01*
X3632200Y-1028700D03*
G01*
X3441700Y-368300D03*
G01*
X6857974Y-558800D03*
G01*
X5803900Y-520700D03*
G01*
X8623274Y-355600D03*
G01*
X6515074Y-901700D03*
G01*
X4584700Y-1435100D03*
G01*
X7531074Y-1320800D03*
G01*
X7365974Y-571500D03*
M02*
