M48
METRIC,LZ,000.000
;FILE_FORMAT=3:3
;TYPE=PLATED
;Layer: PTH_Through
;EasyEDA v6.5.51, 2025-08-29 13:19:12
;ee4e1d7ef05e477ab0e75e15892c94f3,14c8f2514d444a3a831de9b613ea4171,10
;Gerber Generator version 0.2
;Holesize 1 = 0.310 mm
T01C0.310
;Holesize 2 = 0.889 mm
T02C0.889
;Holesize 3 = 1.101 mm
T03C1.101
%
G05
G90
T01
X006550Y-016650
X004500Y-022150
X018500Y-011450
X009300Y-010950
X007350Y-021150
X018000Y-021150
X022600Y-030300
X015850Y-030350
X019549Y-021417
X019549Y-016760
X020950Y-021350
X021200Y-011550
X031500Y-021250
X031850Y-011750
X019100Y-001100
X016300Y-003150
X007450Y003950
X007550Y-000349
T02
X022540Y003300
X025080Y003300
X027620Y003300
X030160Y003300
X022540Y005850
X025080Y005850
X027620Y005850
X030160Y005850
X007341Y-006851
X009881Y-006851
X012421Y-006851
X014961Y-006851
X017501Y-006851
X020041Y-006851
X022581Y-006851
X025121Y-006851
X030140Y-034798
X027600Y-034798
X025060Y-034798
X004740Y-034800
X007280Y-034800
X009820Y-034800
X012360Y-034800
X014900Y-034800
X017440Y-034800
X019980Y-034800
X022520Y-034800
T03
X001849Y-018171
X001849Y-015631
M30
