G04 Layer: BottomLayer*
G04 Panelize: , Column: 5, Row: 1, Board Size: 33mm x 44.75mm, Panelized Board Size: 173mm x 44.75mm*
G04 EasyEDA v6.5.51, 2025-08-29 13:19:12*
G04 ee4e1d7ef05e477ab0e75e15892c94f3,14c8f2514d444a3a831de9b613ea4171,10*
G04 Gerber Generator version 0.2*
G04 Scale: 100 percent, Rotated: No, Reflected: No *
G04 Dimensions in millimeters *
G04 leading zeros omitted , absolute positions ,4 integer and 5 decimal *
%FSLAX45Y45*%
%MOMM*%

%AMMACRO1*21,1,$1,$2,0,0,$3*%
%ADD10C,0.3000*%
%ADD11C,0.1270*%
%ADD12C,0.2000*%
%ADD13MACRO1,1.5748X1.5748X0.0000*%
%ADD14C,1.5748*%
%ADD15MACRO1,1.7X1.5748X90.0000*%
%ADD16C,0.0193*%
%ADD17C,1.7000*%
%ADD18C,0.6200*%

%LPD*%
G36*
X40182Y-3624072D02*
G01*
X36271Y-3623310D01*
X32969Y-3621074D01*
X30784Y-3617823D01*
X30022Y-3613912D01*
X30022Y-3212693D01*
X30835Y-3208680D01*
X33172Y-3205327D01*
X36626Y-3203194D01*
X40640Y-3202533D01*
X44602Y-3203549D01*
X47853Y-3206038D01*
X49834Y-3209594D01*
X55422Y-3227019D01*
X62636Y-3243630D01*
X71577Y-3259378D01*
X82042Y-3274161D01*
X94030Y-3287776D01*
X107289Y-3300069D01*
X121818Y-3310940D01*
X137312Y-3320237D01*
X153720Y-3327908D01*
X170840Y-3333902D01*
X188468Y-3338017D01*
X206400Y-3340354D01*
X224536Y-3340811D01*
X242570Y-3339439D01*
X260400Y-3336188D01*
X277774Y-3331108D01*
X294538Y-3324301D01*
X310540Y-3315766D01*
X325577Y-3305657D01*
X339445Y-3294075D01*
X352094Y-3281121D01*
X363372Y-3266897D01*
X373075Y-3251606D01*
X381152Y-3235452D01*
X387553Y-3218484D01*
X392176Y-3200958D01*
X394970Y-3183077D01*
X395884Y-3164992D01*
X394970Y-3146907D01*
X392176Y-3129026D01*
X387553Y-3111500D01*
X381152Y-3094532D01*
X373075Y-3078378D01*
X363372Y-3063087D01*
X352094Y-3048863D01*
X339445Y-3035909D01*
X325577Y-3024327D01*
X310540Y-3014218D01*
X294538Y-3005683D01*
X277774Y-2998876D01*
X260400Y-2993796D01*
X242570Y-2990545D01*
X224536Y-2989173D01*
X206400Y-2989630D01*
X188468Y-2991967D01*
X170840Y-2996082D01*
X153720Y-3002076D01*
X137312Y-3009747D01*
X121818Y-3019044D01*
X107289Y-3029915D01*
X94030Y-3042208D01*
X82042Y-3055823D01*
X71577Y-3070606D01*
X62636Y-3086354D01*
X55422Y-3102965D01*
X49834Y-3120390D01*
X47853Y-3123946D01*
X44602Y-3126435D01*
X40640Y-3127451D01*
X36626Y-3126790D01*
X33172Y-3124657D01*
X30835Y-3121304D01*
X30022Y-3117291D01*
X30022Y572262D01*
X30835Y576275D01*
X33172Y579628D01*
X36626Y581812D01*
X40640Y582422D01*
X44602Y581406D01*
X47853Y578916D01*
X49834Y575360D01*
X55422Y557936D01*
X62636Y541324D01*
X71577Y525576D01*
X82042Y510844D01*
X94030Y497230D01*
X107289Y484936D01*
X121818Y474065D01*
X137312Y464718D01*
X153720Y457047D01*
X170840Y451104D01*
X188468Y446938D01*
X206400Y444601D01*
X224536Y444144D01*
X242570Y445566D01*
X260400Y448818D01*
X277774Y453847D01*
X294538Y460705D01*
X310540Y469188D01*
X325577Y479298D01*
X339445Y490880D01*
X352094Y503885D01*
X363372Y518058D01*
X373075Y533349D01*
X381152Y549554D01*
X387553Y566521D01*
X392176Y583996D01*
X394970Y601878D01*
X395884Y619963D01*
X394970Y638098D01*
X392176Y655980D01*
X387553Y673455D01*
X381152Y690422D01*
X373075Y706628D01*
X363372Y721918D01*
X352094Y736092D01*
X339445Y749096D01*
X325577Y760679D01*
X310540Y770788D01*
X299466Y776681D01*
X296062Y779576D01*
X294284Y783640D01*
X294386Y788111D01*
X296367Y792073D01*
X299872Y794816D01*
X304190Y795832D01*
X1360068Y799084D01*
X3259836Y799084D01*
X3263696Y798322D01*
X3266998Y796086D01*
X3269234Y792835D01*
X3269996Y788924D01*
X3269996Y-3610762D01*
X3269234Y-3614674D01*
X3266998Y-3617976D01*
X3263900Y-3621074D01*
X3260598Y-3623310D01*
X3256686Y-3624072D01*
G37*

%LPC*%
G36*
X395833Y-3584651D02*
G01*
X552145Y-3584651D01*
X558495Y-3583940D01*
X563930Y-3582009D01*
X568858Y-3578961D01*
X572922Y-3574846D01*
X576021Y-3569970D01*
X577900Y-3564483D01*
X578662Y-3558184D01*
X578662Y-3401822D01*
X577900Y-3395522D01*
X576021Y-3390036D01*
X572922Y-3385159D01*
X568858Y-3381044D01*
X563930Y-3377946D01*
X558495Y-3376066D01*
X552145Y-3375355D01*
X395833Y-3375355D01*
X389483Y-3376066D01*
X384048Y-3377946D01*
X379120Y-3381044D01*
X375056Y-3385159D01*
X371957Y-3390036D01*
X370078Y-3395522D01*
X369366Y-3401822D01*
X369366Y-3558184D01*
X370078Y-3564483D01*
X371957Y-3569970D01*
X375056Y-3574846D01*
X379120Y-3578961D01*
X384048Y-3582009D01*
X389483Y-3583940D01*
G37*
G36*
X1236014Y-3584600D02*
G01*
X1249629Y-3583736D01*
X1263091Y-3581044D01*
X1276045Y-3576675D01*
X1288288Y-3570579D01*
X1299667Y-3563010D01*
X1309979Y-3553968D01*
X1318971Y-3543706D01*
X1326591Y-3532327D01*
X1332636Y-3520033D01*
X1337056Y-3507079D01*
X1339697Y-3493668D01*
X1340612Y-3480003D01*
X1339697Y-3466337D01*
X1337056Y-3452926D01*
X1332636Y-3439972D01*
X1326591Y-3427679D01*
X1318971Y-3416300D01*
X1309979Y-3406038D01*
X1299667Y-3396996D01*
X1288288Y-3389376D01*
X1276045Y-3383330D01*
X1263091Y-3378911D01*
X1249629Y-3376269D01*
X1236014Y-3375355D01*
X1222349Y-3376269D01*
X1208887Y-3378911D01*
X1195933Y-3383330D01*
X1183690Y-3389376D01*
X1172311Y-3396996D01*
X1161999Y-3406038D01*
X1153007Y-3416300D01*
X1145387Y-3427679D01*
X1139342Y-3439972D01*
X1134922Y-3452926D01*
X1132281Y-3466337D01*
X1131366Y-3480003D01*
X1132281Y-3493668D01*
X1134922Y-3507079D01*
X1139342Y-3520033D01*
X1145387Y-3532327D01*
X1153007Y-3543706D01*
X1161999Y-3553968D01*
X1172311Y-3563010D01*
X1183690Y-3570579D01*
X1195933Y-3576675D01*
X1208887Y-3581044D01*
X1222349Y-3583736D01*
G37*
G36*
X1490014Y-3584600D02*
G01*
X1503629Y-3583736D01*
X1517091Y-3581044D01*
X1530045Y-3576675D01*
X1542288Y-3570579D01*
X1553667Y-3563010D01*
X1563979Y-3553968D01*
X1572971Y-3543706D01*
X1580591Y-3532327D01*
X1586636Y-3520033D01*
X1591056Y-3507079D01*
X1593697Y-3493668D01*
X1594612Y-3480003D01*
X1593697Y-3466337D01*
X1591056Y-3452926D01*
X1586636Y-3439972D01*
X1580591Y-3427679D01*
X1572971Y-3416300D01*
X1563979Y-3406038D01*
X1553667Y-3396996D01*
X1542288Y-3389376D01*
X1530045Y-3383330D01*
X1517091Y-3378911D01*
X1503629Y-3376269D01*
X1490014Y-3375355D01*
X1476349Y-3376269D01*
X1462887Y-3378911D01*
X1449933Y-3383330D01*
X1437690Y-3389376D01*
X1426311Y-3396996D01*
X1415999Y-3406038D01*
X1407007Y-3416300D01*
X1399387Y-3427679D01*
X1393342Y-3439972D01*
X1388922Y-3452926D01*
X1386281Y-3466337D01*
X1385366Y-3480003D01*
X1386281Y-3493668D01*
X1388922Y-3507079D01*
X1393342Y-3520033D01*
X1399387Y-3532327D01*
X1407007Y-3543706D01*
X1415999Y-3553968D01*
X1426311Y-3563010D01*
X1437690Y-3570579D01*
X1449933Y-3576675D01*
X1462887Y-3581044D01*
X1476349Y-3583736D01*
G37*
G36*
X1998014Y-3584600D02*
G01*
X2011629Y-3583736D01*
X2025091Y-3581044D01*
X2038045Y-3576675D01*
X2050288Y-3570579D01*
X2061667Y-3563010D01*
X2071979Y-3553968D01*
X2080971Y-3543706D01*
X2088591Y-3532327D01*
X2094636Y-3520033D01*
X2099056Y-3507079D01*
X2101697Y-3493668D01*
X2102612Y-3480003D01*
X2101697Y-3466337D01*
X2099056Y-3452926D01*
X2094636Y-3439972D01*
X2088591Y-3427679D01*
X2080971Y-3416300D01*
X2071979Y-3406038D01*
X2061667Y-3396996D01*
X2050288Y-3389376D01*
X2038045Y-3383330D01*
X2025091Y-3378911D01*
X2011629Y-3376269D01*
X1998014Y-3375355D01*
X1984349Y-3376269D01*
X1970887Y-3378911D01*
X1957933Y-3383330D01*
X1945690Y-3389376D01*
X1934311Y-3396996D01*
X1923999Y-3406038D01*
X1915007Y-3416300D01*
X1907387Y-3427679D01*
X1901342Y-3439972D01*
X1896922Y-3452926D01*
X1894281Y-3466337D01*
X1893366Y-3480003D01*
X1894281Y-3493668D01*
X1896922Y-3507079D01*
X1901342Y-3520033D01*
X1907387Y-3532327D01*
X1915007Y-3543706D01*
X1923999Y-3553968D01*
X1934311Y-3563010D01*
X1945690Y-3570579D01*
X1957933Y-3576675D01*
X1970887Y-3581044D01*
X1984349Y-3583736D01*
G37*
G36*
X2252014Y-3584600D02*
G01*
X2265629Y-3583736D01*
X2279091Y-3581044D01*
X2292045Y-3576675D01*
X2304288Y-3570579D01*
X2315667Y-3563010D01*
X2325979Y-3553968D01*
X2334971Y-3543706D01*
X2342591Y-3532327D01*
X2348636Y-3520033D01*
X2353056Y-3507079D01*
X2355697Y-3493668D01*
X2356612Y-3480003D01*
X2355697Y-3466337D01*
X2353056Y-3452926D01*
X2348636Y-3439972D01*
X2342591Y-3427679D01*
X2334971Y-3416300D01*
X2325979Y-3406038D01*
X2315667Y-3396996D01*
X2304288Y-3389376D01*
X2292045Y-3383330D01*
X2279091Y-3378911D01*
X2265629Y-3376269D01*
X2252014Y-3375355D01*
X2238349Y-3376269D01*
X2224887Y-3378911D01*
X2211933Y-3383330D01*
X2199690Y-3389376D01*
X2188311Y-3396996D01*
X2177999Y-3406038D01*
X2169007Y-3416300D01*
X2161387Y-3427679D01*
X2155342Y-3439972D01*
X2150922Y-3452926D01*
X2148281Y-3466337D01*
X2147366Y-3480003D01*
X2148281Y-3493668D01*
X2150922Y-3507079D01*
X2155342Y-3520033D01*
X2161387Y-3532327D01*
X2169007Y-3543706D01*
X2177999Y-3553968D01*
X2188311Y-3563010D01*
X2199690Y-3570579D01*
X2211933Y-3576675D01*
X2224887Y-3581044D01*
X2238349Y-3583736D01*
G37*
G36*
X982014Y-3584600D02*
G01*
X995629Y-3583736D01*
X1009091Y-3581044D01*
X1022045Y-3576675D01*
X1034287Y-3570579D01*
X1045667Y-3563010D01*
X1055979Y-3553968D01*
X1064971Y-3543706D01*
X1072591Y-3532327D01*
X1078636Y-3520033D01*
X1083056Y-3507079D01*
X1085697Y-3493668D01*
X1086612Y-3480003D01*
X1085697Y-3466337D01*
X1083056Y-3452926D01*
X1078636Y-3439972D01*
X1072591Y-3427679D01*
X1064971Y-3416300D01*
X1055979Y-3406038D01*
X1045667Y-3396996D01*
X1034287Y-3389376D01*
X1022045Y-3383330D01*
X1009091Y-3378911D01*
X995629Y-3376269D01*
X982014Y-3375355D01*
X968349Y-3376269D01*
X954887Y-3378911D01*
X948944Y-3380943D01*
X945184Y-3381501D01*
X941578Y-3380638D01*
X938479Y-3378504D01*
X906373Y-3346348D01*
X899820Y-3340963D01*
X892759Y-3337153D01*
X885088Y-3334816D01*
X876604Y-3334004D01*
X851204Y-3334004D01*
X847293Y-3333242D01*
X843991Y-3331006D01*
X783793Y-3270961D01*
X781608Y-3267659D01*
X780796Y-3263798D01*
X780796Y-3115564D01*
X779983Y-3107080D01*
X777646Y-3099409D01*
X773887Y-3092348D01*
X768451Y-3085795D01*
X628853Y-2946146D01*
X626668Y-2942844D01*
X625856Y-2938983D01*
X625856Y-2206091D01*
X626668Y-2202180D01*
X628853Y-2198878D01*
X632155Y-2196693D01*
X636066Y-2195931D01*
X639927Y-2196693D01*
X643229Y-2198928D01*
X689711Y-2245563D01*
X691896Y-2248865D01*
X692658Y-2252726D01*
X692658Y-2939542D01*
X693420Y-2946755D01*
X695502Y-2953156D01*
X698906Y-2959100D01*
X702411Y-2963164D01*
X820623Y-3081375D01*
X826262Y-3085947D01*
X832256Y-3088995D01*
X838860Y-3090773D01*
X844194Y-3091180D01*
X1311859Y-3091180D01*
X1315770Y-3091942D01*
X1319072Y-3094177D01*
X1438046Y-3213150D01*
X1648917Y-3409797D01*
X1650593Y-3411829D01*
X1653590Y-3416604D01*
X1654962Y-3420211D01*
X1654911Y-3424072D01*
X1653387Y-3427679D01*
X1647342Y-3439972D01*
X1642922Y-3452926D01*
X1640281Y-3466337D01*
X1639366Y-3480003D01*
X1640281Y-3493668D01*
X1642922Y-3507079D01*
X1647342Y-3520033D01*
X1653387Y-3532327D01*
X1661007Y-3543706D01*
X1669999Y-3553968D01*
X1680311Y-3563010D01*
X1691690Y-3570579D01*
X1703933Y-3576675D01*
X1716887Y-3581044D01*
X1730349Y-3583736D01*
X1744014Y-3584600D01*
X1757629Y-3583736D01*
X1771091Y-3581044D01*
X1784045Y-3576675D01*
X1796288Y-3570579D01*
X1807667Y-3563010D01*
X1817979Y-3553968D01*
X1826971Y-3543706D01*
X1834591Y-3532327D01*
X1840636Y-3520033D01*
X1845056Y-3507079D01*
X1847697Y-3493668D01*
X1848612Y-3480003D01*
X1847697Y-3466337D01*
X1845056Y-3452926D01*
X1840636Y-3439972D01*
X1834591Y-3427679D01*
X1826971Y-3416300D01*
X1817979Y-3406038D01*
X1807667Y-3396996D01*
X1796288Y-3389376D01*
X1784045Y-3383330D01*
X1771091Y-3378911D01*
X1757629Y-3376269D01*
X1744014Y-3375355D01*
X1730349Y-3376269D01*
X1716887Y-3378911D01*
X1715617Y-3379368D01*
X1711198Y-3379825D01*
X1706981Y-3378352D01*
X1703832Y-3375253D01*
X1701596Y-3371799D01*
X1696618Y-3366058D01*
X1482547Y-3166414D01*
X1352600Y-3036468D01*
X1346962Y-3031896D01*
X1340967Y-3028848D01*
X1334363Y-3027070D01*
X1329029Y-3026664D01*
X861364Y-3026664D01*
X857453Y-3025902D01*
X854151Y-3023666D01*
X760171Y-2929686D01*
X757936Y-2926384D01*
X757174Y-2922473D01*
X757174Y-2235708D01*
X756412Y-2228494D01*
X754329Y-2222093D01*
X750874Y-2216150D01*
X747471Y-2212136D01*
X724357Y-2188921D01*
X722122Y-2185568D01*
X721360Y-2181606D01*
X722223Y-2177643D01*
X724560Y-2174341D01*
X727964Y-2172208D01*
X731977Y-2171598D01*
X737412Y-2171852D01*
X746963Y-2170582D01*
X756208Y-2167788D01*
X764794Y-2163419D01*
X772566Y-2157679D01*
X779272Y-2150719D01*
X784656Y-2142744D01*
X788619Y-2133955D01*
X791057Y-2124608D01*
X791870Y-2115007D01*
X791057Y-2105406D01*
X788619Y-2096058D01*
X784656Y-2087270D01*
X779272Y-2079294D01*
X772566Y-2072335D01*
X769112Y-2069134D01*
X767689Y-2066340D01*
X767232Y-2063242D01*
X766368Y-799896D01*
X767181Y-796036D01*
X769366Y-792734D01*
X772668Y-790498D01*
X776528Y-789736D01*
X812241Y-789736D01*
X818540Y-789025D01*
X824026Y-787146D01*
X828903Y-784047D01*
X833018Y-779932D01*
X836066Y-775055D01*
X837996Y-769569D01*
X838708Y-763270D01*
X838708Y-606907D01*
X837996Y-600608D01*
X836066Y-595122D01*
X833018Y-590245D01*
X828903Y-586130D01*
X824026Y-583082D01*
X818540Y-581152D01*
X812241Y-580440D01*
X758037Y-580440D01*
X755142Y-580034D01*
X752500Y-578815D01*
X748639Y-576275D01*
X742340Y-573887D01*
X735685Y-572820D01*
X728980Y-573176D01*
X722477Y-574954D01*
X713232Y-579882D01*
X709828Y-580440D01*
X655878Y-580440D01*
X649579Y-581152D01*
X644093Y-583082D01*
X639216Y-586130D01*
X635101Y-590245D01*
X632053Y-595122D01*
X630123Y-600608D01*
X629412Y-606907D01*
X629412Y-763270D01*
X630123Y-769569D01*
X632053Y-775055D01*
X635101Y-779932D01*
X639216Y-784047D01*
X644093Y-787146D01*
X649579Y-789025D01*
X655878Y-789736D01*
X691692Y-789736D01*
X695604Y-790498D01*
X698906Y-792734D01*
X701090Y-796036D01*
X701852Y-799896D01*
X702411Y-1609445D01*
X701446Y-1613763D01*
X698703Y-1617268D01*
X694740Y-1619300D01*
X690270Y-1619402D01*
X686206Y-1617624D01*
X684784Y-1616557D01*
X676198Y-1612239D01*
X666953Y-1609394D01*
X657402Y-1608175D01*
X647750Y-1608582D01*
X638352Y-1610614D01*
X629361Y-1614220D01*
X621182Y-1619250D01*
X613918Y-1625650D01*
X607872Y-1633169D01*
X603148Y-1641551D01*
X599948Y-1650644D01*
X598322Y-1660194D01*
X598322Y-1669796D01*
X599948Y-1679346D01*
X603148Y-1688439D01*
X607872Y-1696821D01*
X613918Y-1704339D01*
X619353Y-1709115D01*
X621893Y-1712569D01*
X622808Y-1716735D01*
X622808Y-2135530D01*
X622046Y-2139442D01*
X619810Y-2142744D01*
X616508Y-2144928D01*
X612648Y-2145690D01*
X608736Y-2144928D01*
X605434Y-2142693D01*
X411124Y-1948180D01*
X407568Y-1944928D01*
X293319Y-1852320D01*
X290525Y-1848815D01*
X289560Y-1844446D01*
X289560Y-1732686D01*
X288848Y-1726387D01*
X286918Y-1720900D01*
X283870Y-1716024D01*
X279755Y-1711909D01*
X274878Y-1708810D01*
X269392Y-1706930D01*
X263093Y-1706219D01*
X106730Y-1706219D01*
X100431Y-1706930D01*
X94945Y-1708810D01*
X90068Y-1711909D01*
X85953Y-1716024D01*
X82905Y-1720900D01*
X80975Y-1726387D01*
X80264Y-1732686D01*
X80264Y-1901545D01*
X80975Y-1907844D01*
X82905Y-1913331D01*
X85953Y-1918207D01*
X90068Y-1922322D01*
X94945Y-1925421D01*
X100431Y-1927301D01*
X106730Y-1928012D01*
X253187Y-1928012D01*
X256590Y-1928622D01*
X259588Y-1930298D01*
X354990Y-2007666D01*
X541070Y-2194052D01*
X543306Y-2197354D01*
X544068Y-2201214D01*
X544068Y-2959608D01*
X544880Y-2968091D01*
X547217Y-2975762D01*
X550976Y-2982823D01*
X556412Y-2989376D01*
X696010Y-3129026D01*
X698246Y-3132328D01*
X699008Y-3136188D01*
X699008Y-3284474D01*
X699820Y-3292957D01*
X702157Y-3300628D01*
X705916Y-3307689D01*
X711301Y-3314242D01*
X770737Y-3373475D01*
X772922Y-3376777D01*
X773734Y-3380689D01*
X773734Y-3434283D01*
X821842Y-3434283D01*
X819912Y-3430371D01*
X818896Y-3426206D01*
X819658Y-3421989D01*
X822096Y-3418433D01*
X825753Y-3416249D01*
X830580Y-3415792D01*
X855878Y-3415792D01*
X859790Y-3416604D01*
X863041Y-3418789D01*
X880567Y-3436365D01*
X882700Y-3439414D01*
X883513Y-3443071D01*
X883005Y-3446779D01*
X880922Y-3452926D01*
X878281Y-3466337D01*
X877366Y-3480003D01*
X878281Y-3493668D01*
X880922Y-3507079D01*
X885342Y-3520033D01*
X891387Y-3532327D01*
X899007Y-3543706D01*
X907999Y-3553968D01*
X918311Y-3563010D01*
X929690Y-3570579D01*
X941933Y-3576675D01*
X954887Y-3581044D01*
X968349Y-3583736D01*
G37*
G36*
X2427782Y-3584448D02*
G01*
X2584145Y-3584448D01*
X2590444Y-3583736D01*
X2595930Y-3581806D01*
X2600807Y-3578707D01*
X2604922Y-3574643D01*
X2607970Y-3569715D01*
X2609900Y-3564280D01*
X2610612Y-3557930D01*
X2610612Y-3401618D01*
X2609900Y-3395268D01*
X2607970Y-3389833D01*
X2604922Y-3384956D01*
X2600807Y-3380841D01*
X2595930Y-3377742D01*
X2590444Y-3375863D01*
X2584145Y-3375151D01*
X2427782Y-3375151D01*
X2421483Y-3375863D01*
X2415997Y-3377742D01*
X2411120Y-3380841D01*
X2407005Y-3384956D01*
X2403957Y-3389833D01*
X2402027Y-3395268D01*
X2401316Y-3401618D01*
X2401316Y-3557930D01*
X2402027Y-3564280D01*
X2403957Y-3569715D01*
X2407005Y-3574643D01*
X2411120Y-3578707D01*
X2415997Y-3581806D01*
X2421483Y-3583736D01*
G37*
G36*
X3013964Y-3584397D02*
G01*
X3027629Y-3583533D01*
X3041040Y-3580841D01*
X3053994Y-3576421D01*
X3066288Y-3570376D01*
X3077667Y-3562807D01*
X3087928Y-3553764D01*
X3096971Y-3543452D01*
X3104591Y-3532073D01*
X3110636Y-3519830D01*
X3115005Y-3506876D01*
X3117697Y-3493465D01*
X3118612Y-3479800D01*
X3117697Y-3466134D01*
X3115005Y-3452723D01*
X3110636Y-3439769D01*
X3104591Y-3427476D01*
X3096971Y-3416096D01*
X3087928Y-3405784D01*
X3077667Y-3396792D01*
X3066288Y-3389172D01*
X3053994Y-3383127D01*
X3041040Y-3378708D01*
X3027629Y-3376066D01*
X3013964Y-3375151D01*
X3000298Y-3376066D01*
X2986887Y-3378708D01*
X2973933Y-3383127D01*
X2961640Y-3389172D01*
X2950260Y-3396792D01*
X2939999Y-3405784D01*
X2930956Y-3416096D01*
X2923336Y-3427476D01*
X2917291Y-3439769D01*
X2912922Y-3452723D01*
X2910230Y-3466134D01*
X2909316Y-3479800D01*
X2910230Y-3493465D01*
X2912922Y-3506876D01*
X2917291Y-3519830D01*
X2923336Y-3532073D01*
X2930956Y-3543452D01*
X2939999Y-3553764D01*
X2950260Y-3562807D01*
X2961640Y-3570376D01*
X2973933Y-3576421D01*
X2986887Y-3580841D01*
X3000298Y-3583533D01*
G37*
G36*
X2759964Y-3584397D02*
G01*
X2773629Y-3583533D01*
X2787040Y-3580841D01*
X2799994Y-3576421D01*
X2812288Y-3570376D01*
X2823667Y-3562807D01*
X2833928Y-3553764D01*
X2842971Y-3543452D01*
X2850591Y-3532073D01*
X2856636Y-3519830D01*
X2861005Y-3506876D01*
X2863697Y-3493465D01*
X2864612Y-3479800D01*
X2863697Y-3466134D01*
X2861005Y-3452723D01*
X2856636Y-3439769D01*
X2850591Y-3427476D01*
X2842971Y-3416096D01*
X2833928Y-3405784D01*
X2823667Y-3396792D01*
X2812288Y-3389172D01*
X2799994Y-3383127D01*
X2787040Y-3378708D01*
X2773629Y-3376066D01*
X2759964Y-3375151D01*
X2746298Y-3376066D01*
X2732887Y-3378708D01*
X2719933Y-3383127D01*
X2707640Y-3389172D01*
X2696260Y-3396792D01*
X2685999Y-3405784D01*
X2676956Y-3416096D01*
X2669336Y-3427476D01*
X2663291Y-3439769D01*
X2658922Y-3452723D01*
X2656230Y-3466134D01*
X2655316Y-3479800D01*
X2656230Y-3493465D01*
X2658922Y-3506876D01*
X2663291Y-3519830D01*
X2669336Y-3532073D01*
X2676956Y-3543452D01*
X2685999Y-3553764D01*
X2696260Y-3562807D01*
X2707640Y-3570376D01*
X2719933Y-3576421D01*
X2732887Y-3580841D01*
X2746298Y-3583533D01*
G37*
G36*
X682294Y-3573830D02*
G01*
X682294Y-3525723D01*
X634136Y-3525723D01*
X637387Y-3532327D01*
X645007Y-3543706D01*
X653999Y-3553968D01*
X664311Y-3563010D01*
X675690Y-3570579D01*
G37*
G36*
X773734Y-3573830D02*
G01*
X780288Y-3570579D01*
X791667Y-3563010D01*
X801979Y-3553968D01*
X810971Y-3543706D01*
X818591Y-3532327D01*
X821842Y-3525723D01*
X773734Y-3525723D01*
G37*
G36*
X634136Y-3434283D02*
G01*
X682294Y-3434283D01*
X682294Y-3386124D01*
X675690Y-3389376D01*
X664311Y-3396996D01*
X653999Y-3406038D01*
X645007Y-3416300D01*
X637387Y-3427679D01*
G37*
G36*
X1587398Y-3091840D02*
G01*
X1596948Y-3090570D01*
X1606194Y-3087776D01*
X1614779Y-3083407D01*
X1622298Y-3077870D01*
X1625142Y-3076397D01*
X1628343Y-3075889D01*
X2223617Y-3075889D01*
X2226360Y-3076295D01*
X2228900Y-3077413D01*
X2234387Y-3080766D01*
X2243328Y-3084372D01*
X2252776Y-3086404D01*
X2262428Y-3086811D01*
X2271979Y-3085592D01*
X2281174Y-3082747D01*
X2289810Y-3078429D01*
X2297582Y-3072688D01*
X2304237Y-3065729D01*
X2309622Y-3057702D01*
X2313635Y-3048914D01*
X2316022Y-3039618D01*
X2316886Y-3030016D01*
X2316022Y-3020364D01*
X2313635Y-3011068D01*
X2309622Y-3002280D01*
X2304237Y-2994253D01*
X2297582Y-2987294D01*
X2289810Y-2981553D01*
X2281174Y-2977235D01*
X2271979Y-2974390D01*
X2262428Y-2973171D01*
X2252776Y-2973578D01*
X2243328Y-2975610D01*
X2234387Y-2979216D01*
X2226208Y-2984246D01*
X2218029Y-2991510D01*
X2214930Y-2993440D01*
X2211273Y-2994101D01*
X1628343Y-2994101D01*
X1625142Y-2993593D01*
X1622298Y-2992120D01*
X1614779Y-2986582D01*
X1606194Y-2982214D01*
X1596948Y-2979420D01*
X1587398Y-2978150D01*
X1577746Y-2978607D01*
X1568348Y-2980639D01*
X1559356Y-2984195D01*
X1551178Y-2989275D01*
X1543913Y-2995625D01*
X1537868Y-3003143D01*
X1533144Y-3011576D01*
X1529943Y-3020669D01*
X1528318Y-3030169D01*
X1528318Y-3039821D01*
X1529943Y-3049320D01*
X1533144Y-3058414D01*
X1537868Y-3066846D01*
X1543913Y-3074365D01*
X1551178Y-3080715D01*
X1559356Y-3085795D01*
X1568348Y-3089351D01*
X1577746Y-3091383D01*
G37*
G36*
X1957273Y-2198522D02*
G01*
X1966823Y-2197303D01*
X1976069Y-2194458D01*
X1984654Y-2190140D01*
X1992426Y-2184400D01*
X1999132Y-2177440D01*
X2004517Y-2169414D01*
X2008479Y-2160625D01*
X2010918Y-2151329D01*
X2011730Y-2141728D01*
X2010918Y-2132076D01*
X2008479Y-2122779D01*
X2007666Y-2121001D01*
X2006803Y-2117090D01*
X2007463Y-2113127D01*
X2009648Y-2109774D01*
X2012950Y-2107488D01*
X2016861Y-2106676D01*
X2020773Y-2107387D01*
X2024125Y-2109622D01*
X2035556Y-2121052D01*
X2037435Y-2123643D01*
X2038400Y-2126691D01*
X2038350Y-2139797D01*
X2039975Y-2149348D01*
X2043175Y-2158441D01*
X2047849Y-2166823D01*
X2053945Y-2174341D01*
X2061159Y-2180742D01*
X2069388Y-2185771D01*
X2078329Y-2189378D01*
X2087778Y-2191410D01*
X2097430Y-2191816D01*
X2106980Y-2190597D01*
X2116175Y-2187752D01*
X2124811Y-2183434D01*
X2132584Y-2177694D01*
X2139238Y-2170734D01*
X2144623Y-2162708D01*
X2148636Y-2153920D01*
X2151024Y-2144623D01*
X2151888Y-2135022D01*
X2151024Y-2125370D01*
X2148636Y-2116074D01*
X2144623Y-2107285D01*
X2139238Y-2099259D01*
X2132584Y-2092299D01*
X2124811Y-2086559D01*
X2116175Y-2082241D01*
X2106980Y-2079396D01*
X2097430Y-2078177D01*
X2088946Y-2078532D01*
X2084832Y-2077872D01*
X2081326Y-2075586D01*
X2055317Y-2049576D01*
X2053082Y-2046274D01*
X2052320Y-2042363D01*
X2052320Y-1637080D01*
X2053082Y-1633220D01*
X2055317Y-1629918D01*
X2058619Y-1627733D01*
X2062480Y-1626920D01*
X2066391Y-1627733D01*
X2069693Y-1629918D01*
X2201824Y-1762302D01*
X2207463Y-1766874D01*
X2213457Y-1769973D01*
X2220112Y-1771751D01*
X2225446Y-1772157D01*
X3092653Y-1772157D01*
X3096564Y-1772920D01*
X3099866Y-1775155D01*
X3119932Y-1795221D01*
X3122168Y-1798523D01*
X3122930Y-1802434D01*
X3122930Y-2069439D01*
X3122371Y-2072792D01*
X3120694Y-2075789D01*
X3118104Y-2078075D01*
X3116173Y-2079243D01*
X3108909Y-2085644D01*
X3102864Y-2093163D01*
X3098139Y-2101545D01*
X3094939Y-2110638D01*
X3093313Y-2120188D01*
X3093313Y-2129790D01*
X3094939Y-2139340D01*
X3098139Y-2148433D01*
X3102864Y-2156815D01*
X3108909Y-2164334D01*
X3116173Y-2170734D01*
X3124352Y-2175764D01*
X3133344Y-2179370D01*
X3142742Y-2181402D01*
X3152394Y-2181809D01*
X3161944Y-2180590D01*
X3171190Y-2177745D01*
X3179775Y-2173427D01*
X3187547Y-2167686D01*
X3194253Y-2160727D01*
X3199638Y-2152700D01*
X3203600Y-2143912D01*
X3206038Y-2134616D01*
X3206851Y-2125014D01*
X3206038Y-2115362D01*
X3203600Y-2106066D01*
X3199638Y-2097278D01*
X3194253Y-2089251D01*
X3190290Y-2085136D01*
X3188157Y-2081885D01*
X3187446Y-2078126D01*
X3187446Y-1785366D01*
X3186684Y-1778152D01*
X3184601Y-1771751D01*
X3181197Y-1765807D01*
X3177692Y-1761743D01*
X3133394Y-1717446D01*
X3127756Y-1712874D01*
X3121761Y-1709826D01*
X3115157Y-1708048D01*
X3109823Y-1707642D01*
X2242616Y-1707642D01*
X2238756Y-1706880D01*
X2235454Y-1704644D01*
X2110384Y-1579422D01*
X2108200Y-1576120D01*
X2107438Y-1572260D01*
X2107438Y-1280312D01*
X2106980Y-1274876D01*
X2105202Y-1268222D01*
X2102104Y-1262278D01*
X2097532Y-1256639D01*
X2080209Y-1239469D01*
X2077974Y-1236167D01*
X2077212Y-1232255D01*
X2077212Y-1213408D01*
X2078126Y-1209192D01*
X2080666Y-1205738D01*
X2084374Y-1203655D01*
X2088642Y-1203299D01*
X2092706Y-1204722D01*
X2094382Y-1205788D01*
X2103323Y-1209344D01*
X2112772Y-1211376D01*
X2122424Y-1211834D01*
X2131974Y-1210564D01*
X2141169Y-1207770D01*
X2149805Y-1203401D01*
X2157577Y-1197660D01*
X2164232Y-1190701D01*
X2169617Y-1182725D01*
X2173630Y-1173937D01*
X2176018Y-1164590D01*
X2176881Y-1154988D01*
X2176018Y-1145387D01*
X2173630Y-1136040D01*
X2169617Y-1127252D01*
X2164232Y-1119276D01*
X2157577Y-1112316D01*
X2154123Y-1109167D01*
X2152751Y-1106373D01*
X2152243Y-1103223D01*
X2152243Y-840740D01*
X2153005Y-836879D01*
X2155240Y-833577D01*
X2205482Y-783285D01*
X2208987Y-780999D01*
X2213152Y-780288D01*
X2218029Y-781761D01*
X2230983Y-786180D01*
X2244394Y-788822D01*
X2258060Y-789736D01*
X2271725Y-788822D01*
X2285136Y-786180D01*
X2298090Y-781761D01*
X2310384Y-775716D01*
X2321763Y-768096D01*
X2332024Y-759104D01*
X2341067Y-748792D01*
X2348687Y-737412D01*
X2354732Y-725119D01*
X2359101Y-712165D01*
X2361793Y-698754D01*
X2362708Y-685088D01*
X2361793Y-671423D01*
X2359101Y-658012D01*
X2354732Y-645058D01*
X2348687Y-632764D01*
X2341067Y-621385D01*
X2332024Y-611124D01*
X2321763Y-602081D01*
X2310384Y-594512D01*
X2298090Y-588416D01*
X2285136Y-584047D01*
X2271725Y-581355D01*
X2258060Y-580491D01*
X2244394Y-581355D01*
X2230983Y-584047D01*
X2218029Y-588416D01*
X2205736Y-594512D01*
X2194356Y-602081D01*
X2184095Y-611124D01*
X2175052Y-621385D01*
X2167432Y-632764D01*
X2161387Y-645058D01*
X2157018Y-658012D01*
X2154326Y-671423D01*
X2153412Y-685088D01*
X2154326Y-698754D01*
X2157018Y-712165D01*
X2161387Y-725119D01*
X2162860Y-730046D01*
X2162149Y-734161D01*
X2159863Y-737666D01*
X2097532Y-799998D01*
X2095246Y-802792D01*
X2092045Y-805434D01*
X2088083Y-806551D01*
X2083968Y-805992D01*
X2080463Y-803859D01*
X2078075Y-800455D01*
X2077212Y-796391D01*
X2077212Y-763828D01*
X2077872Y-760272D01*
X2079752Y-757174D01*
X2087067Y-748792D01*
X2094687Y-737412D01*
X2100732Y-725119D01*
X2105101Y-712165D01*
X2107793Y-698754D01*
X2108708Y-685088D01*
X2107793Y-671423D01*
X2105101Y-658012D01*
X2100732Y-645058D01*
X2094687Y-632764D01*
X2087067Y-621385D01*
X2078024Y-611124D01*
X2067763Y-602081D01*
X2056384Y-594512D01*
X2044090Y-588416D01*
X2031136Y-584047D01*
X2017725Y-581355D01*
X2004060Y-580491D01*
X1990394Y-581355D01*
X1976983Y-584047D01*
X1970938Y-586079D01*
X1967230Y-586587D01*
X1963623Y-585774D01*
X1960524Y-583641D01*
X1689049Y-312166D01*
X1687017Y-309270D01*
X1683613Y-296062D01*
X1679651Y-287274D01*
X1674266Y-279298D01*
X1667560Y-272338D01*
X1659788Y-266598D01*
X1651203Y-262229D01*
X1641957Y-259435D01*
X1632407Y-258165D01*
X1622755Y-258622D01*
X1613357Y-260654D01*
X1604365Y-264210D01*
X1596186Y-269290D01*
X1588922Y-275640D01*
X1582877Y-283159D01*
X1578152Y-291592D01*
X1574952Y-300685D01*
X1573326Y-310184D01*
X1573326Y-319836D01*
X1574952Y-329336D01*
X1578152Y-338429D01*
X1582877Y-346862D01*
X1588922Y-354380D01*
X1596186Y-360730D01*
X1604365Y-365810D01*
X1613357Y-369366D01*
X1622755Y-371398D01*
X1629054Y-371703D01*
X1632712Y-372516D01*
X1635810Y-374650D01*
X1902612Y-641451D01*
X1904746Y-644550D01*
X1905609Y-648208D01*
X1905050Y-651916D01*
X1903018Y-658012D01*
X1900326Y-671423D01*
X1899412Y-685088D01*
X1900326Y-698754D01*
X1903018Y-712165D01*
X1907387Y-725119D01*
X1913432Y-737412D01*
X1921052Y-748792D01*
X1930095Y-759104D01*
X1940356Y-768096D01*
X1951736Y-775716D01*
X1964029Y-781761D01*
X1976983Y-786180D01*
X1990394Y-788822D01*
X2003196Y-789686D01*
X2006904Y-790600D01*
X2009952Y-792886D01*
X2011984Y-796086D01*
X2012696Y-799795D01*
X2012696Y-877569D01*
X2011934Y-881430D01*
X2009698Y-884732D01*
X2006447Y-886917D01*
X2002536Y-887730D01*
X1998624Y-886917D01*
X1995373Y-884732D01*
X1848256Y-737616D01*
X1845970Y-734110D01*
X1845310Y-729996D01*
X1846732Y-725119D01*
X1851101Y-712165D01*
X1853793Y-698754D01*
X1854707Y-685088D01*
X1853793Y-671423D01*
X1851101Y-658012D01*
X1846732Y-645058D01*
X1840687Y-632764D01*
X1833067Y-621385D01*
X1824024Y-611124D01*
X1813763Y-602081D01*
X1802384Y-594512D01*
X1790090Y-588416D01*
X1777136Y-584047D01*
X1763725Y-581355D01*
X1750060Y-580491D01*
X1736394Y-581355D01*
X1722983Y-584047D01*
X1710029Y-588416D01*
X1697736Y-594512D01*
X1686356Y-602081D01*
X1676095Y-611124D01*
X1667052Y-621385D01*
X1659432Y-632764D01*
X1653387Y-645058D01*
X1649018Y-658012D01*
X1646326Y-671423D01*
X1645412Y-685088D01*
X1646326Y-698754D01*
X1649018Y-712165D01*
X1653387Y-725119D01*
X1659432Y-737412D01*
X1667052Y-748792D01*
X1676095Y-759104D01*
X1686356Y-768096D01*
X1697736Y-775716D01*
X1710029Y-781761D01*
X1722983Y-786180D01*
X1736394Y-788822D01*
X1750060Y-789736D01*
X1763725Y-788822D01*
X1777136Y-786180D01*
X1790090Y-781761D01*
X1795018Y-780288D01*
X1799132Y-780948D01*
X1802638Y-783234D01*
X1959762Y-940358D01*
X1961946Y-943660D01*
X1962759Y-947572D01*
X1962657Y-1364589D01*
X1963115Y-1370076D01*
X1964893Y-1376680D01*
X1967992Y-1382674D01*
X1972614Y-1388313D01*
X1984806Y-1400352D01*
X1987042Y-1403654D01*
X1987804Y-1407566D01*
X1987804Y-1613154D01*
X1987092Y-1616862D01*
X1985111Y-1620012D01*
X1982063Y-1622298D01*
X1978406Y-1623263D01*
X1974646Y-1622856D01*
X1966823Y-1620469D01*
X1957273Y-1619199D01*
X1947621Y-1619656D01*
X1938223Y-1621688D01*
X1929231Y-1625244D01*
X1921052Y-1630324D01*
X1913788Y-1636674D01*
X1907743Y-1644192D01*
X1903018Y-1652625D01*
X1899818Y-1661718D01*
X1898192Y-1671218D01*
X1898192Y-1680870D01*
X1899818Y-1690370D01*
X1903018Y-1699463D01*
X1907743Y-1707896D01*
X1913788Y-1715414D01*
X1919173Y-1720138D01*
X1921713Y-1723542D01*
X1922627Y-1727758D01*
X1922627Y-2090013D01*
X1921713Y-2094179D01*
X1919173Y-2097633D01*
X1913788Y-2102358D01*
X1907743Y-2109876D01*
X1903018Y-2118258D01*
X1899818Y-2127351D01*
X1898192Y-2136902D01*
X1898192Y-2146503D01*
X1899818Y-2156053D01*
X1903018Y-2165146D01*
X1907743Y-2173528D01*
X1913788Y-2181047D01*
X1921052Y-2187448D01*
X1929231Y-2192477D01*
X1938223Y-2196084D01*
X1947621Y-2198116D01*
G37*
G36*
X1802434Y-2171852D02*
G01*
X1811985Y-2170582D01*
X1821180Y-2167788D01*
X1829816Y-2163419D01*
X1837588Y-2157679D01*
X1844243Y-2150719D01*
X1849628Y-2142744D01*
X1853641Y-2133955D01*
X1856028Y-2124608D01*
X1856892Y-2115007D01*
X1856028Y-2105406D01*
X1853641Y-2096058D01*
X1849628Y-2087270D01*
X1844243Y-2079294D01*
X1837588Y-2072335D01*
X1833778Y-2068931D01*
X1832356Y-2066137D01*
X1831848Y-2063089D01*
X1827275Y-1590243D01*
X1826463Y-1583131D01*
X1823618Y-1575155D01*
X1784146Y-1495704D01*
X1780438Y-1489760D01*
X1777746Y-1486763D01*
X1748332Y-1457350D01*
X1742693Y-1452778D01*
X1736699Y-1449730D01*
X1730095Y-1447952D01*
X1724710Y-1447546D01*
X1532585Y-1447749D01*
X1529334Y-1447241D01*
X1526438Y-1445666D01*
X1524152Y-1443278D01*
X1399438Y-1257960D01*
X1398117Y-1255166D01*
X1397711Y-1252118D01*
X1405788Y-767080D01*
X1406601Y-763320D01*
X1408684Y-760120D01*
X1411833Y-757936D01*
X1415592Y-757072D01*
X1419352Y-757631D01*
X1422654Y-759612D01*
X1432356Y-768096D01*
X1443736Y-775716D01*
X1456029Y-781761D01*
X1468983Y-786180D01*
X1482394Y-788822D01*
X1496060Y-789736D01*
X1509725Y-788822D01*
X1523136Y-786180D01*
X1536090Y-781761D01*
X1541018Y-780288D01*
X1545132Y-780948D01*
X1548638Y-783234D01*
X1657807Y-892403D01*
X1663446Y-896975D01*
X1669440Y-900023D01*
X1676044Y-901801D01*
X1681378Y-902208D01*
X1767484Y-902208D01*
X1771396Y-902969D01*
X1774698Y-905205D01*
X1814677Y-945337D01*
X1816862Y-948639D01*
X1817624Y-952500D01*
X1817624Y-1093419D01*
X1816709Y-1097635D01*
X1814169Y-1101039D01*
X1808937Y-1105662D01*
X1802892Y-1113180D01*
X1798167Y-1121562D01*
X1794967Y-1130655D01*
X1793341Y-1140206D01*
X1793341Y-1149807D01*
X1794967Y-1159357D01*
X1798167Y-1168450D01*
X1802892Y-1176832D01*
X1808937Y-1184351D01*
X1816201Y-1190752D01*
X1824380Y-1195781D01*
X1833372Y-1199388D01*
X1842770Y-1201420D01*
X1852422Y-1201826D01*
X1861972Y-1200607D01*
X1871218Y-1197762D01*
X1879803Y-1193444D01*
X1887575Y-1187704D01*
X1894281Y-1180744D01*
X1899666Y-1172718D01*
X1903628Y-1163929D01*
X1906066Y-1154633D01*
X1906879Y-1145032D01*
X1906066Y-1135380D01*
X1903628Y-1126083D01*
X1899666Y-1117295D01*
X1894281Y-1109268D01*
X1887575Y-1102309D01*
X1884070Y-1099108D01*
X1882648Y-1096264D01*
X1882139Y-1093165D01*
X1882139Y-935482D01*
X1881378Y-928268D01*
X1879295Y-921867D01*
X1875840Y-915924D01*
X1872437Y-911910D01*
X1808327Y-847547D01*
X1802688Y-842975D01*
X1796694Y-839927D01*
X1790090Y-838098D01*
X1784705Y-837692D01*
X1698548Y-837692D01*
X1694637Y-836930D01*
X1691335Y-834694D01*
X1594256Y-737616D01*
X1591970Y-734110D01*
X1591310Y-729996D01*
X1592732Y-725119D01*
X1597101Y-712165D01*
X1599793Y-698754D01*
X1600708Y-685088D01*
X1599793Y-671423D01*
X1597101Y-658012D01*
X1592732Y-645058D01*
X1586687Y-632764D01*
X1579067Y-621385D01*
X1570024Y-611124D01*
X1559763Y-602081D01*
X1548384Y-594512D01*
X1536090Y-588416D01*
X1523136Y-584047D01*
X1509725Y-581355D01*
X1496060Y-580491D01*
X1482394Y-581355D01*
X1468983Y-584047D01*
X1456029Y-588416D01*
X1443736Y-594512D01*
X1432356Y-602081D01*
X1422095Y-611124D01*
X1415846Y-618236D01*
X1412341Y-620776D01*
X1408074Y-621690D01*
X1403807Y-620674D01*
X1400403Y-617982D01*
X1396339Y-613105D01*
X1320596Y-537616D01*
X1314907Y-533044D01*
X1308912Y-529996D01*
X1302258Y-528218D01*
X1297025Y-527812D01*
X1138428Y-527812D01*
X1131214Y-528574D01*
X1124813Y-530656D01*
X1118870Y-534060D01*
X1114806Y-537565D01*
X1056741Y-595630D01*
X1053947Y-597611D01*
X1050594Y-598525D01*
X1047089Y-598271D01*
X1043940Y-596849D01*
X1040384Y-594512D01*
X1028090Y-588416D01*
X1015136Y-584047D01*
X1001725Y-581355D01*
X988060Y-580491D01*
X974394Y-581355D01*
X960983Y-584047D01*
X948029Y-588416D01*
X935736Y-594512D01*
X924356Y-602081D01*
X914095Y-611124D01*
X905052Y-621385D01*
X897432Y-632764D01*
X891387Y-645058D01*
X887018Y-658012D01*
X884326Y-671423D01*
X883412Y-685088D01*
X884326Y-698754D01*
X887018Y-712165D01*
X891387Y-725119D01*
X897432Y-737412D01*
X905052Y-748792D01*
X914095Y-759104D01*
X924356Y-768096D01*
X935736Y-775716D01*
X948029Y-781761D01*
X960983Y-786180D01*
X974394Y-788822D01*
X988060Y-789736D01*
X1001725Y-788822D01*
X1015136Y-786180D01*
X1026210Y-782421D01*
X1030274Y-781913D01*
X1034186Y-783031D01*
X1037336Y-785571D01*
X1039215Y-789178D01*
X1039571Y-793242D01*
X1038301Y-797102D01*
X1035608Y-800150D01*
X910793Y-894080D01*
X905611Y-898906D01*
X901750Y-904443D01*
X899160Y-910640D01*
X897890Y-917244D01*
X897737Y-920242D01*
X897737Y-1043279D01*
X896823Y-1047496D01*
X894283Y-1050950D01*
X888949Y-1055624D01*
X882853Y-1063142D01*
X878179Y-1071575D01*
X874979Y-1080668D01*
X873353Y-1090168D01*
X873353Y-1099820D01*
X874979Y-1109319D01*
X878179Y-1118412D01*
X882853Y-1126845D01*
X888949Y-1134364D01*
X896162Y-1140714D01*
X904392Y-1145794D01*
X913333Y-1149350D01*
X922782Y-1151382D01*
X932434Y-1151839D01*
X941984Y-1150569D01*
X951179Y-1147775D01*
X959815Y-1143406D01*
X967587Y-1137666D01*
X974242Y-1130706D01*
X979627Y-1122730D01*
X983640Y-1113942D01*
X986028Y-1104595D01*
X986891Y-1094994D01*
X986028Y-1085392D01*
X983640Y-1076045D01*
X979627Y-1067257D01*
X974242Y-1059281D01*
X969111Y-1053896D01*
X967333Y-1051356D01*
X966114Y-1046683D01*
X962609Y-1037844D01*
X962253Y-1035151D01*
X962253Y-941171D01*
X962710Y-938072D01*
X964133Y-935278D01*
X966317Y-933043D01*
X1176324Y-774954D01*
X1180084Y-773176D01*
X1184249Y-773074D01*
X1188110Y-774598D01*
X1189736Y-775716D01*
X1202029Y-781761D01*
X1208430Y-783945D01*
X1211580Y-785723D01*
X1213967Y-788466D01*
X1215948Y-791921D01*
X1220470Y-796899D01*
X1225905Y-800862D01*
X1232052Y-803605D01*
X1238605Y-805027D01*
X1245362Y-805027D01*
X1251966Y-803605D01*
X1258112Y-800862D01*
X1263548Y-796899D01*
X1268069Y-791921D01*
X1270000Y-788517D01*
X1272336Y-785774D01*
X1275537Y-783996D01*
X1282090Y-781761D01*
X1294384Y-775716D01*
X1305763Y-768096D01*
X1316024Y-759104D01*
X1323644Y-750417D01*
X1326896Y-747928D01*
X1330909Y-746963D01*
X1334922Y-747623D01*
X1338376Y-749858D01*
X1340662Y-753262D01*
X1341424Y-757275D01*
X1332992Y-1263904D01*
X1333500Y-1270406D01*
X1335379Y-1276959D01*
X1338783Y-1283360D01*
X1482953Y-1497634D01*
X1487627Y-1503222D01*
X1492961Y-1507337D01*
X1499006Y-1510284D01*
X1505661Y-1511960D01*
X1510436Y-1512316D01*
X1707591Y-1512062D01*
X1711502Y-1512874D01*
X1714804Y-1515059D01*
X1727403Y-1527657D01*
X1729333Y-1530350D01*
X1761794Y-1595678D01*
X1762861Y-1600098D01*
X1767332Y-2063546D01*
X1766468Y-2067814D01*
X1763877Y-2071268D01*
X1758950Y-2075637D01*
X1752854Y-2083155D01*
X1748180Y-2091588D01*
X1744980Y-2100681D01*
X1743354Y-2110181D01*
X1743354Y-2119833D01*
X1744980Y-2129332D01*
X1748180Y-2138426D01*
X1752854Y-2146858D01*
X1758950Y-2154377D01*
X1766163Y-2160727D01*
X1774393Y-2165807D01*
X1783334Y-2169363D01*
X1792782Y-2171395D01*
G37*
G36*
X184912Y-1674012D02*
G01*
X199085Y-1673098D01*
X213055Y-1670354D01*
X226517Y-1665884D01*
X239318Y-1659737D01*
X251256Y-1651965D01*
X262077Y-1642770D01*
X271627Y-1632254D01*
X279755Y-1620621D01*
X286308Y-1608023D01*
X291236Y-1594662D01*
X294386Y-1580794D01*
X295757Y-1566672D01*
X295300Y-1552448D01*
X293014Y-1538427D01*
X289001Y-1524812D01*
X283210Y-1511808D01*
X275844Y-1499666D01*
X267004Y-1488541D01*
X256794Y-1478686D01*
X245414Y-1470202D01*
X228854Y-1460652D01*
X226618Y-1457350D01*
X225806Y-1453438D01*
X225806Y-1241094D01*
X226618Y-1237234D01*
X228803Y-1233932D01*
X518515Y-944168D01*
X523951Y-937615D01*
X527710Y-930554D01*
X530047Y-922883D01*
X530860Y-914400D01*
X530860Y118821D01*
X531672Y122682D01*
X533857Y125983D01*
X743407Y335534D01*
X746099Y337464D01*
X749300Y338429D01*
X756970Y339394D01*
X766216Y342239D01*
X774801Y346557D01*
X782574Y352298D01*
X789279Y359257D01*
X794664Y367284D01*
X798626Y376072D01*
X801065Y385368D01*
X801878Y394970D01*
X801065Y404622D01*
X798626Y413918D01*
X794664Y422706D01*
X789279Y430733D01*
X782574Y437692D01*
X774801Y443433D01*
X766216Y447751D01*
X756970Y450596D01*
X747420Y451815D01*
X737768Y451408D01*
X728370Y449376D01*
X719378Y445770D01*
X711200Y440740D01*
X703935Y434340D01*
X697890Y426821D01*
X693166Y418439D01*
X689965Y409346D01*
X688187Y398729D01*
X687222Y395732D01*
X685342Y393192D01*
X461416Y169214D01*
X455980Y162661D01*
X452221Y155600D01*
X449884Y147929D01*
X449072Y139446D01*
X449072Y-893775D01*
X448309Y-897636D01*
X446074Y-900937D01*
X156362Y-1190701D01*
X150926Y-1197254D01*
X147167Y-1204315D01*
X144830Y-1211986D01*
X144018Y-1220470D01*
X144018Y-1453438D01*
X143205Y-1457350D01*
X140970Y-1460652D01*
X124409Y-1470202D01*
X113030Y-1478686D01*
X102819Y-1488541D01*
X93980Y-1499666D01*
X86614Y-1511808D01*
X80873Y-1524812D01*
X76809Y-1538427D01*
X74523Y-1552448D01*
X74066Y-1566672D01*
X75438Y-1580794D01*
X78587Y-1594662D01*
X83515Y-1608023D01*
X90068Y-1620621D01*
X98196Y-1632254D01*
X107746Y-1642770D01*
X118567Y-1651965D01*
X130505Y-1659737D01*
X143306Y-1665884D01*
X156768Y-1670354D01*
X170738Y-1673098D01*
G37*
G36*
X3187395Y-1231849D02*
G01*
X3196945Y-1230579D01*
X3206191Y-1227785D01*
X3214776Y-1223416D01*
X3222548Y-1217676D01*
X3229254Y-1210716D01*
X3234639Y-1202740D01*
X3238601Y-1193952D01*
X3241040Y-1184605D01*
X3241852Y-1175004D01*
X3241040Y-1165402D01*
X3238601Y-1156055D01*
X3234639Y-1147267D01*
X3229254Y-1139291D01*
X3222548Y-1132332D01*
X3220313Y-1130655D01*
X3218129Y-1128471D01*
X3216706Y-1125728D01*
X3216198Y-1122680D01*
X3212236Y-914908D01*
X3211474Y-908151D01*
X3209340Y-901700D01*
X3205937Y-895908D01*
X3201009Y-890524D01*
X3156610Y-851052D01*
X3153968Y-848918D01*
X3148126Y-845566D01*
X3141726Y-843483D01*
X3138119Y-842924D01*
X3134715Y-842721D01*
X2936341Y-842771D01*
X2932125Y-841857D01*
X2622245Y-700074D01*
X2618994Y-697687D01*
X2616911Y-694182D01*
X2616352Y-690168D01*
X2616708Y-685088D01*
X2615793Y-671423D01*
X2613101Y-658012D01*
X2608732Y-645058D01*
X2602687Y-632764D01*
X2595067Y-621385D01*
X2586024Y-611124D01*
X2575763Y-602081D01*
X2564384Y-594512D01*
X2552090Y-588416D01*
X2539136Y-584047D01*
X2525725Y-581355D01*
X2512060Y-580491D01*
X2498394Y-581355D01*
X2484983Y-584047D01*
X2472029Y-588416D01*
X2459736Y-594512D01*
X2448356Y-602081D01*
X2438095Y-611124D01*
X2429052Y-621385D01*
X2421432Y-632764D01*
X2415387Y-645058D01*
X2411018Y-658012D01*
X2408326Y-671423D01*
X2407412Y-685088D01*
X2408326Y-698754D01*
X2411018Y-712165D01*
X2415387Y-725119D01*
X2421432Y-737412D01*
X2429052Y-748792D01*
X2438095Y-759104D01*
X2448356Y-768096D01*
X2459736Y-775716D01*
X2472029Y-781761D01*
X2484983Y-786180D01*
X2498394Y-788822D01*
X2512060Y-789736D01*
X2525725Y-788822D01*
X2539136Y-786180D01*
X2552090Y-781761D01*
X2564384Y-775716D01*
X2575763Y-768096D01*
X2584602Y-760374D01*
X2587904Y-758393D01*
X2591765Y-757834D01*
X2595524Y-758748D01*
X2913176Y-904138D01*
X2920034Y-906424D01*
X2927654Y-907287D01*
X3118866Y-907237D01*
X3122472Y-907897D01*
X3125622Y-909828D01*
X3144672Y-926795D01*
X3147161Y-930097D01*
X3148076Y-934161D01*
X3151682Y-1124051D01*
X3150819Y-1128318D01*
X3148228Y-1131874D01*
X3143910Y-1135634D01*
X3137865Y-1143152D01*
X3133140Y-1151585D01*
X3129940Y-1160678D01*
X3128314Y-1170178D01*
X3128314Y-1179830D01*
X3129940Y-1189329D01*
X3133140Y-1198422D01*
X3137865Y-1206855D01*
X3143910Y-1214374D01*
X3151174Y-1220724D01*
X3159353Y-1225804D01*
X3168345Y-1229360D01*
X3177743Y-1231392D01*
G37*
G36*
X2507996Y225348D02*
G01*
X2521661Y226263D01*
X2535072Y228955D01*
X2548026Y233324D01*
X2560320Y239369D01*
X2571699Y246989D01*
X2581960Y256032D01*
X2591003Y266293D01*
X2598623Y277672D01*
X2604668Y289966D01*
X2609037Y302920D01*
X2611729Y316331D01*
X2612644Y329996D01*
X2611729Y343662D01*
X2609037Y357073D01*
X2604668Y370027D01*
X2598623Y382320D01*
X2591003Y393700D01*
X2581960Y403961D01*
X2571699Y413004D01*
X2560320Y420624D01*
X2548026Y426669D01*
X2535072Y431038D01*
X2521661Y433730D01*
X2507996Y434644D01*
X2494330Y433730D01*
X2480919Y431038D01*
X2467965Y426669D01*
X2455672Y420624D01*
X2444292Y413004D01*
X2434031Y403961D01*
X2424988Y393700D01*
X2417368Y382320D01*
X2411323Y370027D01*
X2406954Y357073D01*
X2404262Y343662D01*
X2403348Y329996D01*
X2404262Y316331D01*
X2406954Y302920D01*
X2411323Y289966D01*
X2417368Y277672D01*
X2424988Y266293D01*
X2434031Y256032D01*
X2444292Y246989D01*
X2455672Y239369D01*
X2467965Y233324D01*
X2480919Y228955D01*
X2494330Y226263D01*
G37*
G36*
X2761996Y225348D02*
G01*
X2775661Y226263D01*
X2789072Y228955D01*
X2802026Y233324D01*
X2814320Y239369D01*
X2825699Y246989D01*
X2835960Y256032D01*
X2845003Y266293D01*
X2852623Y277672D01*
X2858668Y289966D01*
X2863037Y302920D01*
X2865729Y316331D01*
X2866644Y329996D01*
X2865729Y343662D01*
X2863037Y357073D01*
X2858668Y370027D01*
X2852623Y382320D01*
X2845003Y393700D01*
X2835960Y403961D01*
X2825699Y413004D01*
X2814320Y420624D01*
X2802026Y426669D01*
X2789072Y431038D01*
X2775661Y433730D01*
X2761996Y434644D01*
X2748330Y433730D01*
X2734919Y431038D01*
X2721965Y426669D01*
X2709672Y420624D01*
X2698292Y413004D01*
X2688031Y403961D01*
X2678988Y393700D01*
X2671368Y382320D01*
X2665323Y370027D01*
X2660954Y357073D01*
X2658262Y343662D01*
X2657348Y329996D01*
X2658262Y316331D01*
X2660954Y302920D01*
X2665323Y289966D01*
X2671368Y277672D01*
X2678988Y266293D01*
X2688031Y256032D01*
X2698292Y246989D01*
X2709672Y239369D01*
X2721965Y233324D01*
X2734919Y228955D01*
X2748330Y226263D01*
G37*
G36*
X3015996Y225348D02*
G01*
X3029661Y226263D01*
X3043072Y228955D01*
X3056026Y233324D01*
X3068320Y239369D01*
X3079699Y246989D01*
X3089960Y256032D01*
X3099003Y266293D01*
X3106623Y277672D01*
X3112668Y289966D01*
X3117037Y302920D01*
X3119729Y316331D01*
X3120644Y329996D01*
X3119729Y343662D01*
X3117037Y357073D01*
X3112668Y370027D01*
X3106623Y382320D01*
X3099003Y393700D01*
X3089960Y403961D01*
X3079699Y413004D01*
X3068320Y420624D01*
X3056026Y426669D01*
X3043072Y431038D01*
X3029661Y433730D01*
X3015996Y434644D01*
X3002330Y433730D01*
X2988919Y431038D01*
X2975965Y426669D01*
X2963672Y420624D01*
X2952292Y413004D01*
X2942031Y403961D01*
X2932988Y393700D01*
X2925368Y382320D01*
X2919323Y370027D01*
X2914954Y357073D01*
X2912262Y343662D01*
X2911348Y329996D01*
X2912262Y316331D01*
X2914954Y302920D01*
X2919323Y289966D01*
X2925368Y277672D01*
X2932988Y266293D01*
X2942031Y256032D01*
X2952292Y246989D01*
X2963672Y239369D01*
X2975965Y233324D01*
X2988919Y228955D01*
X3002330Y226263D01*
G37*
G36*
X2175814Y225348D02*
G01*
X2332177Y225348D01*
X2338476Y226060D01*
X2343962Y227990D01*
X2348839Y231038D01*
X2352954Y235153D01*
X2356002Y240029D01*
X2357932Y245516D01*
X2358644Y251815D01*
X2358644Y408178D01*
X2357932Y414477D01*
X2356002Y419963D01*
X2352954Y424840D01*
X2348839Y428955D01*
X2343962Y432003D01*
X2338476Y433933D01*
X2332177Y434644D01*
X2305050Y434644D01*
X2301189Y435406D01*
X2297887Y437642D01*
X2295702Y440893D01*
X2294890Y444804D01*
X2294890Y470204D01*
X2295702Y474065D01*
X2297887Y477367D01*
X2301189Y479602D01*
X2305050Y480364D01*
X2332177Y480364D01*
X2338476Y481076D01*
X2343962Y482955D01*
X2348839Y486054D01*
X2352954Y490169D01*
X2356002Y495046D01*
X2357932Y500532D01*
X2358644Y506831D01*
X2358644Y663194D01*
X2357932Y669493D01*
X2356002Y674928D01*
X2352954Y679856D01*
X2348839Y683920D01*
X2343962Y687019D01*
X2338476Y688949D01*
X2332177Y689660D01*
X2175814Y689660D01*
X2169515Y688949D01*
X2164029Y687019D01*
X2159152Y683920D01*
X2155037Y679856D01*
X2151989Y674928D01*
X2150059Y669493D01*
X2149348Y663194D01*
X2149348Y506831D01*
X2150059Y500532D01*
X2151989Y495046D01*
X2155037Y490169D01*
X2159152Y486054D01*
X2164029Y482955D01*
X2169515Y481076D01*
X2175814Y480364D01*
X2202942Y480364D01*
X2206802Y479602D01*
X2210104Y477367D01*
X2212340Y474065D01*
X2213102Y470204D01*
X2213102Y444804D01*
X2212340Y440893D01*
X2210104Y437642D01*
X2206802Y435406D01*
X2202942Y434644D01*
X2175814Y434644D01*
X2169515Y433933D01*
X2164029Y432003D01*
X2159152Y428955D01*
X2155037Y424840D01*
X2151989Y419963D01*
X2150059Y414477D01*
X2149348Y408178D01*
X2149348Y251815D01*
X2150059Y245516D01*
X2151989Y240029D01*
X2155037Y235153D01*
X2159152Y231038D01*
X2164029Y227990D01*
X2169515Y226060D01*
G37*
G36*
X2507996Y480364D02*
G01*
X2521661Y481279D01*
X2535072Y483920D01*
X2548026Y488340D01*
X2560320Y494385D01*
X2571699Y502005D01*
X2581960Y510997D01*
X2591003Y521309D01*
X2598623Y532688D01*
X2604668Y544982D01*
X2609037Y557936D01*
X2611729Y571347D01*
X2612644Y585012D01*
X2611729Y598678D01*
X2609037Y612089D01*
X2604668Y625043D01*
X2598623Y637336D01*
X2591003Y648716D01*
X2581960Y658977D01*
X2571699Y668020D01*
X2560320Y675589D01*
X2548026Y681685D01*
X2535072Y686054D01*
X2521661Y688746D01*
X2507996Y689610D01*
X2494330Y688746D01*
X2480919Y686054D01*
X2467965Y681685D01*
X2455672Y675589D01*
X2444292Y668020D01*
X2434031Y658977D01*
X2424988Y648716D01*
X2417368Y637336D01*
X2411323Y625043D01*
X2406954Y612089D01*
X2404262Y598678D01*
X2403348Y585012D01*
X2404262Y571347D01*
X2406954Y557936D01*
X2411323Y544982D01*
X2417368Y532688D01*
X2424988Y521309D01*
X2434031Y510997D01*
X2444292Y502005D01*
X2455672Y494385D01*
X2467965Y488340D01*
X2480919Y483920D01*
X2494330Y481279D01*
G37*
G36*
X2761996Y480364D02*
G01*
X2775661Y481279D01*
X2789072Y483920D01*
X2802026Y488340D01*
X2814320Y494385D01*
X2825699Y502005D01*
X2835960Y510997D01*
X2845003Y521309D01*
X2852623Y532688D01*
X2858668Y544982D01*
X2863037Y557936D01*
X2865729Y571347D01*
X2866644Y585012D01*
X2865729Y598678D01*
X2863037Y612089D01*
X2858668Y625043D01*
X2852623Y637336D01*
X2845003Y648716D01*
X2835960Y658977D01*
X2825699Y668020D01*
X2814320Y675589D01*
X2802026Y681685D01*
X2789072Y686054D01*
X2775661Y688746D01*
X2761996Y689610D01*
X2748330Y688746D01*
X2734919Y686054D01*
X2721965Y681685D01*
X2709672Y675589D01*
X2698292Y668020D01*
X2688031Y658977D01*
X2678988Y648716D01*
X2671368Y637336D01*
X2665323Y625043D01*
X2660954Y612089D01*
X2658262Y598678D01*
X2657348Y585012D01*
X2658262Y571347D01*
X2660954Y557936D01*
X2665323Y544982D01*
X2671368Y532688D01*
X2678988Y521309D01*
X2688031Y510997D01*
X2698292Y502005D01*
X2709672Y494385D01*
X2721965Y488340D01*
X2734919Y483920D01*
X2748330Y481279D01*
G37*
G36*
X3015996Y480364D02*
G01*
X3029661Y481279D01*
X3043072Y483920D01*
X3056026Y488340D01*
X3068320Y494385D01*
X3079699Y502005D01*
X3089960Y510997D01*
X3099003Y521309D01*
X3106623Y532688D01*
X3112668Y544982D01*
X3117037Y557936D01*
X3119729Y571347D01*
X3120644Y585012D01*
X3119729Y598678D01*
X3117037Y612089D01*
X3112668Y625043D01*
X3106623Y637336D01*
X3099003Y648716D01*
X3089960Y658977D01*
X3079699Y668020D01*
X3068320Y675589D01*
X3056026Y681685D01*
X3043072Y686054D01*
X3029661Y688746D01*
X3015996Y689610D01*
X3002330Y688746D01*
X2988919Y686054D01*
X2975965Y681685D01*
X2963672Y675589D01*
X2952292Y668020D01*
X2942031Y658977D01*
X2932988Y648716D01*
X2925368Y637336D01*
X2919323Y625043D01*
X2914954Y612089D01*
X2912262Y598678D01*
X2911348Y585012D01*
X2912262Y571347D01*
X2914954Y557936D01*
X2919323Y544982D01*
X2925368Y532688D01*
X2932988Y521309D01*
X2942031Y510997D01*
X2952292Y502005D01*
X2963672Y494385D01*
X2975965Y488340D01*
X2988919Y483920D01*
X3002330Y481279D01*
G37*

%LPD*%
D10*
X184912Y-1562862D02*
G01*
X184912Y-1219962D01*
X489965Y-914907D01*
X489965Y139954D01*
X744981Y394970D01*
D11*
X1954870Y-2141705D02*
G01*
X1954870Y-1676039D01*
X929995Y-1094994D02*
G01*
X929995Y-1060023D01*
X935007Y-1055011D01*
D10*
X2259992Y-3029999D02*
G01*
X2255006Y-3034995D01*
X1584995Y-3034995D01*
D12*
X727986Y-3479998D02*
G01*
X504997Y-3257003D01*
X504997Y-2270018D01*
X449988Y-2215009D01*
D10*
X981963Y-3480054D02*
G01*
X877062Y-3374897D01*
X830071Y-3374897D01*
X739902Y-3284981D01*
X739902Y-3115055D01*
X584962Y-2960115D01*
X584962Y-2180081D01*
X382015Y-1976881D01*
X184912Y-1817115D01*
D11*
X1743963Y-3500120D02*
G01*
X1674997Y-3389993D01*
X1459992Y-3189478D01*
X1329436Y-3058921D01*
X843787Y-3058921D01*
X724915Y-2940050D01*
X724915Y-2235200D01*
X655065Y-2165095D01*
X655065Y-1664970D01*
X725004Y-613984D02*
G01*
X733996Y-604992D01*
D10*
X1910003Y-109989D02*
G01*
X1915002Y35006D01*
X1870006Y80007D01*
X869068Y80007D01*
X754974Y-34091D01*
X1629994Y-315010D02*
G01*
X1634025Y-315010D01*
X2004006Y-684994D01*
D11*
X1241996Y-709996D02*
G01*
X1241996Y-772993D01*
X734992Y-2114997D02*
G01*
X734060Y-685098D01*
X2119983Y-1154986D02*
G01*
X2119983Y-823175D01*
X2258059Y-685098D01*
X3150108Y-2124963D02*
G01*
X3155188Y-2119884D01*
X3155188Y-1784857D01*
X3110229Y-1739900D01*
X2225040Y-1739900D01*
X2075179Y-1589786D01*
X2075179Y-1279905D01*
X2044954Y-1249934D01*
X2044954Y-725931D01*
X2015743Y-696721D01*
X2094991Y-2134870D02*
G01*
X2020061Y-2059939D01*
X2020061Y-1389887D01*
X1994915Y-1364995D01*
X1994997Y-929998D01*
X1750060Y-685037D01*
X1849881Y-1145031D02*
G01*
X1849881Y-934973D01*
X1785112Y-869950D01*
X1680971Y-869950D01*
X1496060Y-685037D01*
X2512059Y-685098D02*
G01*
X2927095Y-875029D01*
X3134992Y-874999D01*
X3179993Y-914999D01*
X3184906Y-1175004D01*
X1242060Y-685098D02*
G01*
X929998Y-919998D01*
X929995Y-1094996D01*
X1800097Y-2114804D02*
G01*
X1795018Y-1590039D01*
X1755139Y-1509776D01*
X1725168Y-1479804D01*
X1510029Y-1480057D01*
X1365250Y-1264920D01*
X1374902Y-685037D01*
X1373886Y-636270D01*
X1297431Y-560070D01*
X1137920Y-560070D01*
X988060Y-709929D01*
D10*
X727963Y-3480054D02*
G01*
X852931Y-3605021D01*
X3119881Y-3605021D01*
X3255009Y-3469894D01*
X3255009Y-715010D01*
X3089909Y-480060D01*
X2073147Y-480060D01*
X1910079Y-316992D01*
X1910079Y-109981D01*
X2253995Y329996D02*
G01*
X2253995Y584987D01*
D13*
G01*
X2253996Y329996D03*
D14*
G01*
X2507995Y329996D03*
G01*
X2761995Y329996D03*
G01*
X3015995Y329996D03*
D13*
G01*
X2253996Y585000D03*
D14*
G01*
X2507995Y584987D03*
G01*
X2761995Y584987D03*
G01*
X3015995Y584987D03*
D13*
G01*
X734060Y-685098D03*
D14*
G01*
X988060Y-685088D03*
G01*
X1242060Y-685088D03*
G01*
X1496060Y-685088D03*
G01*
X1750060Y-685088D03*
G01*
X2004059Y-685088D03*
G01*
X2258059Y-685088D03*
G01*
X2512059Y-685088D03*
G01*
X3013963Y-3479774D03*
G01*
X2759963Y-3479774D03*
D13*
G01*
X2505964Y-3479784D03*
D15*
G01*
X184911Y-1817114D03*
D17*
G01*
X184912Y-1563115D03*
D13*
G01*
X473997Y-3479995D03*
D14*
G01*
X727989Y-3479977D03*
G01*
X981989Y-3479977D03*
G01*
X1235989Y-3479977D03*
G01*
X1489989Y-3479977D03*
G01*
X1743989Y-3479977D03*
G01*
X1997989Y-3479977D03*
G01*
X2251989Y-3479977D03*
D18*
G01*
X654989Y-1664995D03*
G01*
X449986Y-2215006D03*
G01*
X1850009Y-1145006D03*
G01*
X929995Y-1094994D03*
G01*
X734999Y-2115007D03*
G01*
X1799996Y-2115007D03*
G01*
X2259990Y-3029991D03*
G01*
X1584985Y-3034995D03*
G01*
X1954860Y-2141702D03*
G01*
X1954860Y-1676044D03*
G01*
X2094991Y-2134996D03*
G01*
X2119985Y-1154988D03*
G01*
X3149981Y-2124989D03*
G01*
X3184982Y-1175004D03*
G01*
X1910003Y-110007D03*
G01*
X1629994Y-315010D03*
G01*
X745007Y394995D03*
G01*
X754964Y-34925D03*
M02*
