G04 Layer: BottomSilkscreenLayer*
G04 Panelize: , Column: 5, Row: 1, Board Size: 33mm x 44.75mm, Panelized Board Size: 173mm x 44.75mm*
G04 EasyEDA v6.5.51, 2025-08-29 13:19:12*
G04 ee4e1d7ef05e477ab0e75e15892c94f3,14c8f2514d444a3a831de9b613ea4171,10*
G04 Gerber Generator version 0.2*
G04 Scale: 100 percent, Rotated: No, Reflected: No *
G04 Dimensions in millimeters *
G04 leading zeros omitted , absolute positions ,4 integer and 5 decimal *
%FSLAX45Y45*%
%MOMM*%

%ADD10C,0.1300*%
%ADD11C,0.1524*%
%ADD12C,0.2032*%
%ADD13C,0.2030*%
%ADD14C,0.0130*%

%LPD*%
D10*
X175910Y-1144544D02*
G01*
X103182Y-1144544D01*
X89547Y-1149088D01*
X85001Y-1153634D01*
X80454Y-1162725D01*
X80454Y-1171816D01*
X85001Y-1180906D01*
X89547Y-1185451D01*
X103182Y-1189997D01*
X112273Y-1189997D01*
X175910Y-1114544D02*
G01*
X80454Y-1114544D01*
X80454Y-1114544D02*
G01*
X80454Y-1059997D01*
X153182Y-961816D02*
G01*
X162272Y-966360D01*
X171363Y-975451D01*
X175910Y-984544D01*
X175910Y-1002725D01*
X171363Y-1011816D01*
X162272Y-1020907D01*
X153182Y-1025451D01*
X139547Y-1029997D01*
X116819Y-1029997D01*
X103182Y-1025451D01*
X94091Y-1020907D01*
X85001Y-1011816D01*
X80454Y-1002725D01*
X80454Y-984544D01*
X85001Y-975451D01*
X94091Y-966360D01*
X103182Y-961816D01*
X175910Y-886360D02*
G01*
X103182Y-886360D01*
X89547Y-890907D01*
X85001Y-895451D01*
X80454Y-904544D01*
X80454Y-913635D01*
X85001Y-922726D01*
X89547Y-927270D01*
X103182Y-931816D01*
X112273Y-931816D01*
X175910Y-856361D02*
G01*
X80454Y-856361D01*
X80454Y-856361D02*
G01*
X80454Y-801817D01*
X153182Y-703635D02*
G01*
X162272Y-708179D01*
X171363Y-717270D01*
X175910Y-726361D01*
X175910Y-744545D01*
X171363Y-753635D01*
X162272Y-762726D01*
X153182Y-767270D01*
X139547Y-771817D01*
X116819Y-771817D01*
X103182Y-767270D01*
X94091Y-762726D01*
X85001Y-753635D01*
X80454Y-744545D01*
X80454Y-726361D01*
X85001Y-717270D01*
X94091Y-708179D01*
X103182Y-703635D01*
X175910Y-628180D02*
G01*
X103182Y-628180D01*
X89547Y-632726D01*
X85001Y-637270D01*
X80454Y-646361D01*
X80454Y-655452D01*
X85001Y-664545D01*
X89547Y-669089D01*
X103182Y-673635D01*
X112273Y-673635D01*
X175910Y-598180D02*
G01*
X80454Y-598180D01*
X80454Y-598180D02*
G01*
X80454Y-543636D01*
X153182Y-445452D02*
G01*
X162272Y-449999D01*
X171363Y-459089D01*
X175910Y-468180D01*
X175910Y-486361D01*
X171363Y-495452D01*
X162272Y-504545D01*
X153182Y-509089D01*
X139547Y-513636D01*
X116819Y-513636D01*
X103182Y-509089D01*
X94091Y-504545D01*
X85001Y-495452D01*
X80454Y-486361D01*
X80454Y-468180D01*
X85001Y-459089D01*
X94091Y-449999D01*
X103182Y-445452D01*
X175910Y-369999D02*
G01*
X103182Y-369999D01*
X89547Y-374545D01*
X85001Y-379089D01*
X80454Y-388180D01*
X80454Y-397271D01*
X85001Y-406361D01*
X89547Y-410908D01*
X103182Y-415452D01*
X112273Y-415452D01*
X175910Y-339999D02*
G01*
X80454Y-339999D01*
X80454Y-339999D02*
G01*
X80454Y-285452D01*
X153182Y-187271D02*
G01*
X162272Y-191818D01*
X171363Y-200908D01*
X175910Y-209999D01*
X175910Y-228180D01*
X171363Y-237271D01*
X162272Y-246362D01*
X153182Y-250908D01*
X139547Y-255452D01*
X116819Y-255452D01*
X103182Y-250908D01*
X94091Y-246362D01*
X85001Y-237271D01*
X80454Y-228180D01*
X80454Y-209999D01*
X85001Y-200908D01*
X94091Y-191818D01*
X103182Y-187271D01*
X175910Y-111818D02*
G01*
X103182Y-111818D01*
X89547Y-116362D01*
X85001Y-120909D01*
X80454Y-129999D01*
X80454Y-139090D01*
X85001Y-148181D01*
X89547Y-152727D01*
X103182Y-157271D01*
X112273Y-157271D01*
X175910Y-81818D02*
G01*
X80454Y-81818D01*
X80454Y-81818D02*
G01*
X80454Y-27271D01*
X153182Y70909D02*
G01*
X162272Y66362D01*
X171363Y57271D01*
X175910Y48181D01*
X175910Y29999D01*
X171363Y20909D01*
X162272Y11818D01*
X153182Y7272D01*
X139547Y2727D01*
X116819Y2727D01*
X103182Y7272D01*
X94091Y11818D01*
X85001Y20909D01*
X80454Y29999D01*
X80454Y48181D01*
X85001Y57271D01*
X94091Y66362D01*
X103182Y70909D01*
X175910Y146362D02*
G01*
X103182Y146362D01*
X89547Y141818D01*
X85001Y137271D01*
X80454Y128181D01*
X80454Y119090D01*
X85001Y109999D01*
X89547Y105453D01*
X103182Y100909D01*
X112273Y100909D01*
X175910Y176362D02*
G01*
X80454Y176362D01*
X80454Y176362D02*
G01*
X80454Y230908D01*
X153182Y329090D02*
G01*
X162272Y324545D01*
X171363Y315452D01*
X175910Y306362D01*
X175910Y288180D01*
X171363Y279090D01*
X162272Y269999D01*
X153182Y265452D01*
X139547Y260908D01*
X116819Y260908D01*
X103182Y265452D01*
X94091Y269999D01*
X85001Y279090D01*
X80454Y288180D01*
X80454Y306362D01*
X85001Y315452D01*
X94091Y324545D01*
X103182Y329090D01*
D11*
X2661665Y62280D02*
G01*
X2661665Y145338D01*
X2656331Y161086D01*
X2651252Y166166D01*
X2640838Y171246D01*
X2630424Y171246D01*
X2620009Y166166D01*
X2614675Y161086D01*
X2609595Y145338D01*
X2609595Y134924D01*
X2747772Y62280D02*
G01*
X2695956Y134924D01*
X2773679Y134924D01*
X2747772Y62280D02*
G01*
X2747772Y171246D01*
X2785336Y-713051D02*
G01*
X2702209Y-713051D01*
X2686621Y-718248D01*
X2681427Y-723442D01*
X2676232Y-733833D01*
X2676232Y-744225D01*
X2681427Y-754616D01*
X2686621Y-759813D01*
X2702209Y-765007D01*
X2712600Y-765007D01*
X2785336Y-668373D02*
G01*
X2785336Y-611223D01*
X2743771Y-642393D01*
X2743771Y-626808D01*
X2738577Y-616417D01*
X2733382Y-611223D01*
X2717794Y-606026D01*
X2707403Y-606026D01*
X2691818Y-611223D01*
X2681427Y-621611D01*
X2676232Y-637199D01*
X2676232Y-652785D01*
X2681427Y-668373D01*
X2686621Y-673567D01*
X2697012Y-678761D01*
X208038Y-1294665D02*
G01*
X208038Y-1377792D01*
X213235Y-1393380D01*
X218429Y-1398574D01*
X228820Y-1403769D01*
X239212Y-1403769D01*
X249603Y-1398574D01*
X254800Y-1393380D01*
X259994Y-1377792D01*
X259994Y-1367401D01*
X101013Y-1294665D02*
G01*
X152968Y-1403769D01*
X173748Y-1294665D02*
G01*
X101013Y-1294665D01*
D12*
X3142995Y202996D02*
G01*
X3142995Y456996D01*
X2126995Y456996D01*
X2126995Y202996D01*
X2317495Y202996D01*
D13*
X3142995Y202996D02*
G01*
X2317495Y202996D01*
D12*
X3142995Y458000D02*
G01*
X3142995Y712000D01*
X2126995Y712000D01*
X2126995Y458000D01*
X2317495Y458000D01*
D13*
X3142995Y458000D02*
G01*
X2317495Y458000D01*
X2639059Y-812098D02*
G01*
X797560Y-812098D01*
D12*
X2639059Y-812098D02*
G01*
X2639059Y-558098D01*
X607060Y-558098D01*
X607060Y-812098D01*
X797560Y-812098D01*
X2569463Y-3606784D02*
G01*
X2378963Y-3606784D01*
X2378963Y-3352784D01*
X3140963Y-3352784D01*
X3140963Y-3606784D01*
D13*
X3140963Y-3606784D02*
G01*
X2569463Y-3606784D01*
X311912Y-1436115D02*
G01*
X311912Y-1753615D01*
D12*
X311912Y-1436115D02*
G01*
X57912Y-1436115D01*
X57912Y-1944115D01*
X311912Y-1944115D01*
X311912Y-1753615D01*
D13*
X2378997Y-3606995D02*
G01*
X537497Y-3606995D01*
D12*
X2378997Y-3606995D02*
G01*
X2378997Y-3352995D01*
X346997Y-3352995D01*
X346997Y-3606995D01*
X537497Y-3606995D01*
M02*
