G04 Layer: TopSilkscreenLayer*
G04 Panelize: , Column: 5, Row: 1, Board Size: 33mm x 44.75mm, Panelized Board Size: 173mm x 44.75mm*
G04 EasyEDA v6.5.51, 2025-08-29 13:19:12*
G04 ee4e1d7ef05e477ab0e75e15892c94f3,14c8f2514d444a3a831de9b613ea4171,10*
G04 Gerber Generator version 0.2*
G04 Scale: 100 percent, Rotated: No, Reflected: No *
G04 Dimensions in millimeters *
G04 leading zeros omitted , absolute positions ,4 integer and 5 decimal *
%FSLAX45Y45*%
%MOMM*%

%ADD10C,0.1600*%
%ADD11C,0.1500*%
%ADD12C,0.1700*%
%ADD13C,0.2032*%
%ADD14C,0.1300*%
%ADD15C,0.1524*%
%ADD16C,0.0186*%
%ADD17C,0.1530*%
%ADD18C,0.2540*%
%ADD19C,0.3000*%

%LPD*%
D10*
X484438Y-3309922D02*
G01*
X484438Y-3211878D01*
X440750Y-3175810D02*
G01*
X435162Y-3164888D01*
X418906Y-3148632D01*
X533460Y-3148632D01*
X446084Y-3106976D02*
G01*
X440750Y-3106976D01*
X429828Y-3101642D01*
X424240Y-3096054D01*
X418906Y-3085386D01*
X418906Y-3063542D01*
X424240Y-3052620D01*
X429828Y-3047032D01*
X440750Y-3041698D01*
X451672Y-3041698D01*
X462594Y-3047032D01*
X478850Y-3057954D01*
X533460Y-3112564D01*
X533460Y-3036110D01*
D11*
X691288Y-3253262D02*
G01*
X680366Y-3258596D01*
X669444Y-3269518D01*
X663856Y-3280440D01*
X663856Y-3302284D01*
X669444Y-3313206D01*
X680366Y-3324128D01*
X691288Y-3329462D01*
X707544Y-3335050D01*
X734722Y-3335050D01*
X751232Y-3329462D01*
X762154Y-3324128D01*
X773076Y-3313206D01*
X778410Y-3302284D01*
X778410Y-3280440D01*
X773076Y-3269518D01*
X762154Y-3258596D01*
X751232Y-3253262D01*
X734722Y-3253262D01*
X734722Y-3280440D02*
G01*
X734722Y-3253262D01*
X663856Y-3217194D02*
G01*
X778410Y-3217194D01*
X663856Y-3217194D02*
G01*
X778410Y-3140740D01*
X663856Y-3140740D02*
G01*
X778410Y-3140740D01*
X663856Y-3104926D02*
G01*
X778410Y-3104926D01*
X663856Y-3104926D02*
G01*
X663856Y-3066572D01*
X669444Y-3050316D01*
X680366Y-3039394D01*
X691288Y-3033806D01*
X707544Y-3028472D01*
X734722Y-3028472D01*
X751232Y-3033806D01*
X762154Y-3039394D01*
X773076Y-3050316D01*
X778410Y-3066572D01*
X778410Y-3104926D01*
D12*
X939063Y-3315906D02*
G01*
X939063Y-3265868D01*
X975385Y-3293300D01*
X975385Y-3279584D01*
X979957Y-3270440D01*
X984529Y-3265868D01*
X998245Y-3261296D01*
X1007389Y-3261296D01*
X1020851Y-3265868D01*
X1029995Y-3275012D01*
X1034567Y-3288728D01*
X1034567Y-3302190D01*
X1029995Y-3315906D01*
X1025423Y-3320478D01*
X1016279Y-3325050D01*
X1011707Y-3226752D02*
G01*
X1016279Y-3231324D01*
X1020851Y-3226752D01*
X1016279Y-3222180D01*
X1011707Y-3226752D01*
X939063Y-3183064D02*
G01*
X939063Y-3133280D01*
X975385Y-3160458D01*
X975385Y-3146742D01*
X979957Y-3137598D01*
X984529Y-3133280D01*
X998245Y-3128708D01*
X1007389Y-3128708D01*
X1020851Y-3133280D01*
X1029995Y-3142170D01*
X1034567Y-3155886D01*
X1034567Y-3169602D01*
X1029995Y-3183064D01*
X1025423Y-3187636D01*
X1016279Y-3192208D01*
X939063Y-3098736D02*
G01*
X1034567Y-3062160D01*
X939063Y-3025838D02*
G01*
X1034567Y-3062160D01*
D13*
X1174564Y-3284888D02*
G01*
X1165420Y-3266854D01*
X1138242Y-3239422D01*
X1328996Y-3239422D01*
X1433708Y-3315794D02*
G01*
X1424564Y-3315794D01*
X1406276Y-3306904D01*
X1397386Y-3297760D01*
X1388242Y-3279472D01*
X1388242Y-3243150D01*
X1397386Y-3224862D01*
X1406276Y-3215972D01*
X1424564Y-3206828D01*
X1442598Y-3206828D01*
X1460886Y-3215972D01*
X1488064Y-3234006D01*
X1578996Y-3324938D01*
X1578996Y-3197684D01*
X1638165Y-3306726D02*
G01*
X1638165Y-3206904D01*
X1710809Y-3261260D01*
X1710809Y-3234082D01*
X1719953Y-3215794D01*
X1729097Y-3206904D01*
X1756275Y-3197760D01*
X1774563Y-3197760D01*
X1801741Y-3206904D01*
X1820029Y-3224938D01*
X1829173Y-3252370D01*
X1829173Y-3279548D01*
X1820029Y-3306726D01*
X1810885Y-3315870D01*
X1792597Y-3325014D01*
X1898241Y-3244082D02*
G01*
X2025495Y-3335014D01*
X2025495Y-3198616D01*
X1898241Y-3244082D02*
G01*
X2088995Y-3244082D01*
X675995Y-429874D02*
G01*
X667867Y-413618D01*
X643483Y-388980D01*
X815187Y-388980D01*
X919284Y-451871D02*
G01*
X911156Y-451871D01*
X894646Y-443743D01*
X886518Y-435361D01*
X878390Y-419105D01*
X878390Y-386339D01*
X886518Y-370083D01*
X894646Y-361701D01*
X911156Y-353573D01*
X927412Y-353573D01*
X943922Y-361701D01*
X968306Y-378211D01*
X1050094Y-459999D01*
X1050094Y-345445D01*
X1138298Y-448543D02*
G01*
X1138298Y-358627D01*
X1203830Y-407649D01*
X1203830Y-383265D01*
X1211958Y-366755D01*
X1220086Y-358627D01*
X1244724Y-350499D01*
X1260980Y-350499D01*
X1285618Y-358627D01*
X1301874Y-374883D01*
X1310256Y-399521D01*
X1310256Y-424159D01*
X1301874Y-448543D01*
X1293746Y-456671D01*
X1277490Y-465053D01*
X1368389Y-388256D02*
G01*
X1482943Y-470044D01*
X1482943Y-347362D01*
X1368389Y-388256D02*
G01*
X1540093Y-388256D01*
X1613387Y-356892D02*
G01*
X1613387Y-438680D01*
X1687047Y-446808D01*
X1678919Y-438680D01*
X1670537Y-414042D01*
X1670537Y-389658D01*
X1678919Y-365020D01*
X1695175Y-348510D01*
X1719813Y-340382D01*
X1736069Y-340382D01*
X1760707Y-348510D01*
X1776963Y-365020D01*
X1785091Y-389658D01*
X1785091Y-414042D01*
X1776963Y-438680D01*
X1768835Y-446808D01*
X1752325Y-454936D01*
X1897946Y-356781D02*
G01*
X1881436Y-364909D01*
X1873308Y-389547D01*
X1873308Y-405803D01*
X1881436Y-430441D01*
X1906074Y-446697D01*
X1946968Y-455079D01*
X1987862Y-455079D01*
X2020628Y-446697D01*
X2036884Y-430441D01*
X2045266Y-405803D01*
X2045266Y-397675D01*
X2036884Y-373291D01*
X2020628Y-356781D01*
X1995990Y-348653D01*
X1987862Y-348653D01*
X1963478Y-356781D01*
X1946968Y-373291D01*
X1938840Y-397675D01*
X1938840Y-405803D01*
X1946968Y-430441D01*
X1963478Y-446697D01*
X1987862Y-455079D01*
X2138309Y-360334D02*
G01*
X2310267Y-442376D01*
X2138309Y-474888D02*
G01*
X2138309Y-360334D01*
X2388308Y-418990D02*
G01*
X2396436Y-443628D01*
X2412946Y-451756D01*
X2429202Y-451756D01*
X2445712Y-443628D01*
X2453840Y-427372D01*
X2461968Y-394606D01*
X2470096Y-369968D01*
X2486606Y-353712D01*
X2502862Y-345330D01*
X2527500Y-345330D01*
X2543756Y-353712D01*
X2551884Y-361840D01*
X2560266Y-386478D01*
X2560266Y-418990D01*
X2551884Y-443628D01*
X2543756Y-451756D01*
X2527500Y-459884D01*
X2502862Y-459884D01*
X2486606Y-451756D01*
X2470096Y-435500D01*
X2461968Y-410862D01*
X2453840Y-378096D01*
X2445712Y-361840D01*
X2429202Y-353712D01*
X2412946Y-353712D01*
X2396436Y-361840D01*
X2388308Y-386478D01*
X2388308Y-418990D01*
X2168240Y-3221022D02*
G01*
X2168240Y-3311700D01*
X2250028Y-3320844D01*
X2240884Y-3311700D01*
X2231740Y-3284522D01*
X2231740Y-3257344D01*
X2240884Y-3229912D01*
X2259172Y-3211878D01*
X2286350Y-3202734D01*
X2304638Y-3202734D01*
X2331816Y-3211878D01*
X2350104Y-3229912D01*
X2358994Y-3257344D01*
X2358994Y-3284522D01*
X2350104Y-3311700D01*
X2340960Y-3320844D01*
X2322672Y-3329988D01*
X2445418Y-3215845D02*
G01*
X2427384Y-3224989D01*
X2418240Y-3252167D01*
X2418240Y-3270455D01*
X2427384Y-3297633D01*
X2454562Y-3315921D01*
X2500028Y-3325065D01*
X2545494Y-3325065D01*
X2581816Y-3315921D01*
X2600104Y-3297633D01*
X2608994Y-3270455D01*
X2608994Y-3261311D01*
X2600104Y-3234133D01*
X2581816Y-3215845D01*
X2554638Y-3206701D01*
X2545494Y-3206701D01*
X2518062Y-3215845D01*
X2500028Y-3234133D01*
X2490884Y-3261311D01*
X2490884Y-3270455D01*
X2500028Y-3297633D01*
X2518062Y-3315921D01*
X2545494Y-3325065D01*
X2688239Y-3197811D02*
G01*
X2878993Y-3288743D01*
X2688239Y-3325065D02*
G01*
X2688239Y-3197811D01*
X2933156Y-3284491D02*
G01*
X2942300Y-3311923D01*
X2960334Y-3320813D01*
X2978622Y-3320813D01*
X2996910Y-3311923D01*
X3005800Y-3293635D01*
X3014944Y-3257313D01*
X3024088Y-3229881D01*
X3042376Y-3211847D01*
X3060410Y-3202703D01*
X3087588Y-3202703D01*
X3105876Y-3211847D01*
X3115020Y-3220991D01*
X3124164Y-3248169D01*
X3124164Y-3284491D01*
X3115020Y-3311923D01*
X3105876Y-3320813D01*
X3087588Y-3329957D01*
X3060410Y-3329957D01*
X3042376Y-3320813D01*
X3024088Y-3302779D01*
X3014944Y-3275347D01*
X3005800Y-3239025D01*
X2996910Y-3220991D01*
X2978622Y-3211847D01*
X2960334Y-3211847D01*
X2942300Y-3220991D01*
X2933156Y-3248169D01*
X2933156Y-3284491D01*
X2721830Y-731715D02*
G01*
X2712686Y-736287D01*
X2703542Y-745431D01*
X2698970Y-754575D01*
X2698970Y-772609D01*
X2703542Y-781753D01*
X2712686Y-790897D01*
X2721830Y-795469D01*
X2735546Y-800041D01*
X2758152Y-800041D01*
X2771868Y-795469D01*
X2781012Y-790897D01*
X2789902Y-781753D01*
X2794474Y-772609D01*
X2794474Y-754575D01*
X2789902Y-745431D01*
X2781012Y-736287D01*
X2771868Y-731715D01*
X2698970Y-701743D02*
G01*
X2794474Y-665421D01*
X2698970Y-629099D02*
G01*
X2794474Y-665421D01*
X2698970Y-571695D02*
G01*
X2703542Y-580839D01*
X2712686Y-589983D01*
X2721830Y-594555D01*
X2735546Y-599127D01*
X2758152Y-599127D01*
X2771868Y-594555D01*
X2781012Y-589983D01*
X2789902Y-580839D01*
X2794474Y-571695D01*
X2794474Y-553661D01*
X2789902Y-544517D01*
X2781012Y-535373D01*
X2771868Y-530801D01*
X2758152Y-526229D01*
X2735546Y-526229D01*
X2721830Y-530801D01*
X2712686Y-535373D01*
X2703542Y-544517D01*
X2698970Y-553661D01*
X2698970Y-571695D01*
X2698970Y-496257D02*
G01*
X2767296Y-496257D01*
X2781012Y-491685D01*
X2789902Y-482795D01*
X2794474Y-469079D01*
X2794474Y-459935D01*
X2789902Y-446473D01*
X2781012Y-437329D01*
X2767296Y-432757D01*
X2698970Y-432757D01*
X2698970Y-370781D02*
G01*
X2794474Y-370781D01*
X2698970Y-402785D02*
G01*
X2698970Y-339031D01*
X3153740Y-3334969D02*
G01*
X3287344Y-3334969D01*
X3153740Y-3293059D02*
G01*
X3287344Y-3293059D01*
X3153740Y-3293059D02*
G01*
X3287344Y-3203905D01*
X3153740Y-3203905D02*
G01*
X3287344Y-3203905D01*
X354185Y-1781009D02*
G01*
X354185Y-1730971D01*
X390507Y-1758149D01*
X390507Y-1744433D01*
X395079Y-1735543D01*
X399651Y-1730971D01*
X413113Y-1726399D01*
X422257Y-1726399D01*
X435973Y-1730971D01*
X445117Y-1740115D01*
X449435Y-1753577D01*
X449435Y-1767293D01*
X445117Y-1781009D01*
X440545Y-1785327D01*
X431401Y-1789899D01*
X426829Y-1691855D02*
G01*
X431401Y-1696427D01*
X435973Y-1691855D01*
X431401Y-1687283D01*
X426829Y-1691855D01*
X354185Y-1648167D02*
G01*
X354185Y-1598129D01*
X390507Y-1625561D01*
X390507Y-1611845D01*
X395079Y-1602701D01*
X399651Y-1598129D01*
X413113Y-1593557D01*
X422257Y-1593557D01*
X435973Y-1598129D01*
X445117Y-1607273D01*
X449435Y-1620989D01*
X449435Y-1634451D01*
X445117Y-1648167D01*
X440545Y-1652739D01*
X431401Y-1657311D01*
D14*
X300405Y-1177396D02*
G01*
X293801Y-1180444D01*
X287451Y-1186794D01*
X284403Y-1193144D01*
X284403Y-1205844D01*
X287451Y-1212194D01*
X293801Y-1218544D01*
X300405Y-1221846D01*
X309803Y-1224894D01*
X325805Y-1224894D01*
X335203Y-1221846D01*
X341553Y-1218544D01*
X347903Y-1212194D01*
X351205Y-1205844D01*
X351205Y-1193144D01*
X347903Y-1186794D01*
X341553Y-1180444D01*
X335203Y-1177396D01*
X284403Y-1156314D02*
G01*
X351205Y-1130914D01*
X284403Y-1105260D02*
G01*
X351205Y-1130914D01*
X284403Y-1025758D02*
G01*
X338505Y-1025758D01*
X347903Y-1022710D01*
X351205Y-1016360D01*
X351205Y-1010010D01*
X306755Y-1035410D02*
G01*
X306755Y-1013058D01*
X306755Y-972926D02*
G01*
X309803Y-979276D01*
X316153Y-985626D01*
X325805Y-988928D01*
X332155Y-988928D01*
X341553Y-985626D01*
X347903Y-979276D01*
X351205Y-972926D01*
X351205Y-963528D01*
X347903Y-957178D01*
X341553Y-950828D01*
X332155Y-947526D01*
X325805Y-947526D01*
X316153Y-950828D01*
X309803Y-957178D01*
X306755Y-963528D01*
X306755Y-972926D01*
X455853Y-1205844D02*
G01*
X459155Y-1215496D01*
X468807Y-1221846D01*
X484555Y-1224894D01*
X494207Y-1224894D01*
X509955Y-1221846D01*
X519607Y-1215496D01*
X522909Y-1205844D01*
X522909Y-1199494D01*
X519607Y-1190096D01*
X509955Y-1183746D01*
X494207Y-1180444D01*
X484555Y-1180444D01*
X468807Y-1183746D01*
X459155Y-1190096D01*
X455853Y-1199494D01*
X455853Y-1205844D01*
X494207Y-1159362D02*
G01*
X494207Y-1102212D01*
X455853Y-1074780D02*
G01*
X455853Y-1039728D01*
X481507Y-1059032D01*
X481507Y-1049380D01*
X484555Y-1043030D01*
X487857Y-1039728D01*
X497255Y-1036680D01*
X503605Y-1036680D01*
X513257Y-1039728D01*
X519607Y-1046078D01*
X522909Y-1055730D01*
X522909Y-1065382D01*
X519607Y-1074780D01*
X516305Y-1078082D01*
X509955Y-1081130D01*
X506907Y-1012550D02*
G01*
X509955Y-1015598D01*
X513257Y-1012550D01*
X509955Y-1009248D01*
X506907Y-1012550D01*
X455853Y-981816D02*
G01*
X455853Y-947018D01*
X481507Y-966068D01*
X481507Y-956416D01*
X484555Y-950066D01*
X487857Y-947018D01*
X497255Y-943716D01*
X503605Y-943716D01*
X513257Y-947018D01*
X519607Y-953368D01*
X522909Y-962766D01*
X522909Y-972418D01*
X519607Y-981816D01*
X516305Y-985118D01*
X509955Y-988166D01*
X2859443Y-716023D02*
G01*
X2862491Y-725421D01*
X2872143Y-731771D01*
X2887891Y-735073D01*
X2897543Y-735073D01*
X2913545Y-731771D01*
X2922943Y-725421D01*
X2926245Y-716023D01*
X2926245Y-709419D01*
X2922943Y-700021D01*
X2913545Y-693671D01*
X2897543Y-690369D01*
X2887891Y-690369D01*
X2872143Y-693671D01*
X2862491Y-700021D01*
X2859443Y-709419D01*
X2859443Y-716023D01*
X2897543Y-669541D02*
G01*
X2897543Y-612137D01*
X2859443Y-584705D02*
G01*
X2859443Y-549907D01*
X2884843Y-568957D01*
X2884843Y-559305D01*
X2887891Y-552955D01*
X2891193Y-549907D01*
X2900845Y-546605D01*
X2907195Y-546605D01*
X2916593Y-549907D01*
X2922943Y-556257D01*
X2926245Y-565655D01*
X2926245Y-575307D01*
X2922943Y-584705D01*
X2919895Y-588007D01*
X2913545Y-591055D01*
X2910243Y-522475D02*
G01*
X2913545Y-525523D01*
X2916593Y-522475D01*
X2913545Y-519173D01*
X2910243Y-522475D01*
X2859443Y-491995D02*
G01*
X2859443Y-456943D01*
X2884843Y-475993D01*
X2884843Y-466341D01*
X2887891Y-459991D01*
X2891193Y-456943D01*
X2900845Y-453641D01*
X2907195Y-453641D01*
X2916593Y-456943D01*
X2922943Y-463293D01*
X2926245Y-472945D01*
X2926245Y-482343D01*
X2922943Y-491995D01*
X2919895Y-495043D01*
X2913545Y-498345D01*
X2192738Y93644D02*
G01*
X2183594Y84500D01*
X2179022Y71038D01*
X2179022Y52750D01*
X2183594Y39034D01*
X2192738Y29890D01*
X2201882Y29890D01*
X2210772Y34462D01*
X2215344Y39034D01*
X2219916Y48178D01*
X2229060Y75356D01*
X2233632Y84500D01*
X2238204Y89072D01*
X2247348Y93644D01*
X2260810Y93644D01*
X2269954Y84500D01*
X2274526Y71038D01*
X2274526Y52750D01*
X2269954Y39034D01*
X2260810Y29890D01*
X2179022Y150794D02*
G01*
X2183594Y137332D01*
X2197310Y128188D01*
X2219916Y123616D01*
X2233632Y123616D01*
X2256238Y128188D01*
X2269954Y137332D01*
X2274526Y150794D01*
X2274526Y159938D01*
X2269954Y173654D01*
X2256238Y182798D01*
X2233632Y187370D01*
X2219916Y187370D01*
X2197310Y182798D01*
X2183594Y173654D01*
X2179022Y159938D01*
X2179022Y150794D01*
X2472611Y113591D02*
G01*
X2463721Y104447D01*
X2459149Y90985D01*
X2459149Y72697D01*
X2463721Y58981D01*
X2472611Y50091D01*
X2481755Y50091D01*
X2490899Y54663D01*
X2495471Y58981D01*
X2500043Y68125D01*
X2509187Y95557D01*
X2513759Y104447D01*
X2518077Y109019D01*
X2527221Y113591D01*
X2540937Y113591D01*
X2550081Y104447D01*
X2554653Y90985D01*
X2554653Y72697D01*
X2550081Y58981D01*
X2540937Y50091D01*
X2477183Y143563D02*
G01*
X2472611Y152707D01*
X2459149Y166423D01*
X2554653Y166423D01*
X2732636Y93540D02*
G01*
X2723746Y84650D01*
X2719174Y70934D01*
X2719174Y52646D01*
X2723746Y39184D01*
X2732636Y30040D01*
X2741780Y30040D01*
X2750924Y34612D01*
X2755496Y39184D01*
X2760068Y48074D01*
X2769212Y75506D01*
X2773530Y84650D01*
X2778102Y88968D01*
X2787246Y93540D01*
X2800962Y93540D01*
X2810106Y84650D01*
X2814424Y70934D01*
X2814424Y52646D01*
X2810106Y39184D01*
X2800962Y30040D01*
X2741780Y128084D02*
G01*
X2737208Y128084D01*
X2728064Y132656D01*
X2723746Y137228D01*
X2719174Y146372D01*
X2719174Y164660D01*
X2723746Y173550D01*
X2728064Y178122D01*
X2737208Y182694D01*
X2746352Y182694D01*
X2755496Y178122D01*
X2769212Y168978D01*
X2814424Y123512D01*
X2814424Y187266D01*
X2964185Y-324952D02*
G01*
X3059435Y-324952D01*
X2964185Y-324952D02*
G01*
X3059435Y-288630D01*
X2964185Y-252308D02*
G01*
X3059435Y-288630D01*
X2964185Y-252308D02*
G01*
X3059435Y-252308D01*
X2964185Y-222336D02*
G01*
X3032257Y-222336D01*
X3045973Y-217764D01*
X3055117Y-208620D01*
X3059435Y-194904D01*
X3059435Y-185760D01*
X3055117Y-172298D01*
X3045973Y-163154D01*
X3032257Y-158582D01*
X2964185Y-158582D01*
X2964185Y-128610D02*
G01*
X3059435Y-64856D01*
X2964185Y-64856D02*
G01*
X3059435Y-128610D01*
X2964185Y98719D02*
G01*
X3059435Y34965D01*
X2964185Y34965D02*
G01*
X2964185Y98719D01*
X3059435Y34965D02*
G01*
X3059435Y98719D01*
D13*
X3196927Y-3501852D02*
G01*
X3187783Y-3506424D01*
X3178639Y-3515568D01*
X3174067Y-3524458D01*
X3174067Y-3542746D01*
X3178639Y-3551890D01*
X3187783Y-3560780D01*
X3196927Y-3565352D01*
X3210389Y-3569924D01*
X3233249Y-3569924D01*
X3246711Y-3565352D01*
X3255855Y-3560780D01*
X3264999Y-3551890D01*
X3269571Y-3542746D01*
X3269571Y-3524458D01*
X3264999Y-3515568D01*
X3255855Y-3506424D01*
X3246711Y-3501852D01*
X3174067Y-3471880D02*
G01*
X3269571Y-3435558D01*
X3174067Y-3398982D02*
G01*
X3269571Y-3435558D01*
D11*
X2115098Y-95818D02*
G01*
X2115098Y-159572D01*
X2115098Y-123250D02*
G01*
X2119416Y-109534D01*
X2128560Y-100390D01*
X2137704Y-95818D01*
X2151420Y-95818D01*
X2203998Y-95818D02*
G01*
X2195108Y-100390D01*
X2185964Y-109534D01*
X2181392Y-123250D01*
X2181392Y-132394D01*
X2185964Y-145856D01*
X2195108Y-155000D01*
X2203998Y-159572D01*
X2217714Y-159572D01*
X2226858Y-155000D01*
X2236002Y-145856D01*
X2240320Y-132394D01*
X2240320Y-123250D01*
X2236002Y-109534D01*
X2226858Y-100390D01*
X2217714Y-95818D01*
X2203998Y-95818D01*
X2270546Y-64068D02*
G01*
X2270546Y-159572D01*
X2270546Y-109534D02*
G01*
X2279436Y-100390D01*
X2288580Y-95818D01*
X2302296Y-95818D01*
X2311440Y-100390D01*
X2320330Y-109534D01*
X2324902Y-123250D01*
X2324902Y-132394D01*
X2320330Y-145856D01*
X2311440Y-155000D01*
X2302296Y-159572D01*
X2288580Y-159572D01*
X2279436Y-155000D01*
X2270546Y-145856D01*
X2404912Y-109534D02*
G01*
X2400340Y-100390D01*
X2386878Y-95818D01*
X2373162Y-95818D01*
X2359446Y-100390D01*
X2354874Y-109534D01*
X2359446Y-118678D01*
X2368590Y-123250D01*
X2391450Y-127822D01*
X2400340Y-132394D01*
X2404912Y-141284D01*
X2404912Y-145856D01*
X2400340Y-155000D01*
X2386878Y-159572D01*
X2373162Y-159572D01*
X2359446Y-155000D01*
X2354874Y-145856D01*
X2489494Y-109534D02*
G01*
X2480350Y-100390D01*
X2471460Y-95818D01*
X2457744Y-95818D01*
X2448600Y-100390D01*
X2439456Y-109534D01*
X2434884Y-123250D01*
X2434884Y-132394D01*
X2439456Y-145856D01*
X2448600Y-155000D01*
X2457744Y-159572D01*
X2471460Y-159572D01*
X2480350Y-155000D01*
X2489494Y-145856D01*
X2574076Y-95818D02*
G01*
X2574076Y-159572D01*
X2574076Y-109534D02*
G01*
X2564932Y-100390D01*
X2555788Y-95818D01*
X2542326Y-95818D01*
X2533182Y-100390D01*
X2524038Y-109534D01*
X2519466Y-123250D01*
X2519466Y-132394D01*
X2524038Y-145856D01*
X2533182Y-155000D01*
X2542326Y-159572D01*
X2555788Y-159572D01*
X2564932Y-155000D01*
X2574076Y-145856D01*
X2604048Y-95818D02*
G01*
X2604048Y-191322D01*
X2604048Y-109534D02*
G01*
X2613192Y-100390D01*
X2622336Y-95818D01*
X2635798Y-95818D01*
X2644942Y-100390D01*
X2654086Y-109534D01*
X2658658Y-123250D01*
X2658658Y-132394D01*
X2654086Y-145856D01*
X2644942Y-155000D01*
X2635798Y-159572D01*
X2622336Y-159572D01*
X2613192Y-155000D01*
X2604048Y-145856D01*
X2688630Y-123250D02*
G01*
X2743240Y-123250D01*
X2743240Y-114106D01*
X2738668Y-104962D01*
X2734096Y-100390D01*
X2724952Y-95818D01*
X2711236Y-95818D01*
X2702346Y-100390D01*
X2693202Y-109534D01*
X2688630Y-123250D01*
X2688630Y-132394D01*
X2693202Y-145856D01*
X2702346Y-155000D01*
X2711236Y-159572D01*
X2724952Y-159572D01*
X2734096Y-155000D01*
X2743240Y-145856D01*
D15*
X2092439Y-1665450D02*
G01*
X2085073Y-1669006D01*
X2077961Y-1676372D01*
X2074151Y-1683738D01*
X2074151Y-1698216D01*
X2077961Y-1705328D01*
X2085073Y-1712694D01*
X2092439Y-1716250D01*
X2103361Y-1720060D01*
X2121649Y-1720060D01*
X2132571Y-1716250D01*
X2139683Y-1712694D01*
X2147049Y-1705328D01*
X2150605Y-1698216D01*
X2150605Y-1683738D01*
X2147049Y-1676372D01*
X2139683Y-1669006D01*
X2132571Y-1665450D01*
X2088883Y-1641574D02*
G01*
X2085073Y-1634208D01*
X2074151Y-1623286D01*
X2150605Y-1623286D01*
X1837562Y-1670464D02*
G01*
X1830196Y-1674020D01*
X1822830Y-1681386D01*
X1819275Y-1688752D01*
X1819275Y-1703230D01*
X1822830Y-1710342D01*
X1830196Y-1717708D01*
X1837562Y-1721264D01*
X1848485Y-1725074D01*
X1866519Y-1725074D01*
X1877440Y-1721264D01*
X1884806Y-1717708D01*
X1891919Y-1710342D01*
X1895729Y-1703230D01*
X1895729Y-1688752D01*
X1891919Y-1681386D01*
X1884806Y-1674020D01*
X1877440Y-1670464D01*
X1837562Y-1642778D02*
G01*
X1833753Y-1642778D01*
X1826640Y-1639222D01*
X1822830Y-1635666D01*
X1819275Y-1628300D01*
X1819275Y-1613822D01*
X1822830Y-1606456D01*
X1826640Y-1602900D01*
X1833753Y-1599090D01*
X1841119Y-1599090D01*
X1848485Y-1602900D01*
X1859153Y-1610012D01*
X1895729Y-1646334D01*
X1895729Y-1595534D01*
X2084631Y-1257335D02*
G01*
X2080821Y-1250223D01*
X2073709Y-1242857D01*
X2066343Y-1239301D01*
X2051865Y-1239301D01*
X2044499Y-1242857D01*
X2037387Y-1250223D01*
X2033577Y-1257335D01*
X2030021Y-1268257D01*
X2030021Y-1286545D01*
X2033577Y-1297467D01*
X2037387Y-1304833D01*
X2044499Y-1311945D01*
X2051865Y-1315755D01*
X2066343Y-1315755D01*
X2073709Y-1311945D01*
X2080821Y-1304833D01*
X2084631Y-1297467D01*
X2115873Y-1239301D02*
G01*
X2155751Y-1239301D01*
X2133907Y-1268257D01*
X2144829Y-1268257D01*
X2152195Y-1272067D01*
X2155751Y-1275623D01*
X2159561Y-1286545D01*
X2159561Y-1293911D01*
X2155751Y-1304833D01*
X2148639Y-1311945D01*
X2137717Y-1315755D01*
X2126795Y-1315755D01*
X2115873Y-1311945D01*
X2112063Y-1308389D01*
X2108507Y-1301023D01*
X899660Y-1232377D02*
G01*
X895850Y-1225011D01*
X888738Y-1217899D01*
X881372Y-1214089D01*
X866894Y-1214089D01*
X859528Y-1217899D01*
X852416Y-1225011D01*
X848606Y-1232377D01*
X845050Y-1243299D01*
X845050Y-1261333D01*
X848606Y-1272255D01*
X852416Y-1279621D01*
X859528Y-1286987D01*
X866894Y-1290543D01*
X881372Y-1290543D01*
X888738Y-1286987D01*
X895850Y-1279621D01*
X899660Y-1272255D01*
X959858Y-1214089D02*
G01*
X923536Y-1265143D01*
X978146Y-1265143D01*
X959858Y-1214089D02*
G01*
X959858Y-1290543D01*
X2104506Y-2592336D02*
G01*
X2100950Y-2585224D01*
X2093584Y-2577858D01*
X2086472Y-2574302D01*
X2071740Y-2574302D01*
X2064628Y-2577858D01*
X2057262Y-2585224D01*
X2053706Y-2592336D01*
X2049896Y-2603258D01*
X2049896Y-2621546D01*
X2053706Y-2632468D01*
X2057262Y-2639834D01*
X2064628Y-2646946D01*
X2071740Y-2650756D01*
X2086472Y-2650756D01*
X2093584Y-2646946D01*
X2100950Y-2639834D01*
X2104506Y-2632468D01*
X2172070Y-2574302D02*
G01*
X2135748Y-2574302D01*
X2132192Y-2607068D01*
X2135748Y-2603258D01*
X2146670Y-2599702D01*
X2157592Y-2599702D01*
X2168514Y-2603258D01*
X2175880Y-2610624D01*
X2179436Y-2621546D01*
X2179436Y-2628912D01*
X2175880Y-2639834D01*
X2168514Y-2646946D01*
X2157592Y-2650756D01*
X2146670Y-2650756D01*
X2135748Y-2646946D01*
X2132192Y-2643390D01*
X2128636Y-2636024D01*
X1169456Y-2582435D02*
G01*
X1165900Y-2575069D01*
X1158534Y-2567957D01*
X1151422Y-2564147D01*
X1136690Y-2564147D01*
X1129578Y-2567957D01*
X1122212Y-2575069D01*
X1118656Y-2582435D01*
X1115100Y-2593357D01*
X1115100Y-2611645D01*
X1118656Y-2622567D01*
X1122212Y-2629679D01*
X1129578Y-2637045D01*
X1136690Y-2640601D01*
X1151422Y-2640601D01*
X1158534Y-2637045D01*
X1165900Y-2629679D01*
X1169456Y-2622567D01*
X1237274Y-2575069D02*
G01*
X1233464Y-2567957D01*
X1222542Y-2564147D01*
X1215430Y-2564147D01*
X1204508Y-2567957D01*
X1197142Y-2578879D01*
X1193586Y-2596913D01*
X1193586Y-2615201D01*
X1197142Y-2629679D01*
X1204508Y-2637045D01*
X1215430Y-2640601D01*
X1218986Y-2640601D01*
X1229908Y-2637045D01*
X1237274Y-2629679D01*
X1240830Y-2618757D01*
X1240830Y-2615201D01*
X1237274Y-2604279D01*
X1229908Y-2596913D01*
X1218986Y-2593357D01*
X1215430Y-2593357D01*
X1204508Y-2596913D01*
X1197142Y-2604279D01*
X1193586Y-2615201D01*
X1394538Y-1242456D02*
G01*
X1390982Y-1235090D01*
X1383616Y-1227978D01*
X1376504Y-1224168D01*
X1361772Y-1224168D01*
X1354660Y-1227978D01*
X1347294Y-1235090D01*
X1343738Y-1242456D01*
X1340182Y-1253378D01*
X1340182Y-1271412D01*
X1343738Y-1282334D01*
X1347294Y-1289700D01*
X1354660Y-1297066D01*
X1361772Y-1300622D01*
X1376504Y-1300622D01*
X1383616Y-1297066D01*
X1390982Y-1289700D01*
X1394538Y-1282334D01*
X1436702Y-1224168D02*
G01*
X1425780Y-1227978D01*
X1422224Y-1235090D01*
X1422224Y-1242456D01*
X1425780Y-1249822D01*
X1433146Y-1253378D01*
X1447624Y-1256934D01*
X1458546Y-1260744D01*
X1465912Y-1267856D01*
X1469468Y-1275222D01*
X1469468Y-1286144D01*
X1465912Y-1293256D01*
X1462356Y-1297066D01*
X1451434Y-1300622D01*
X1436702Y-1300622D01*
X1425780Y-1297066D01*
X1422224Y-1293256D01*
X1418668Y-1286144D01*
X1418668Y-1275222D01*
X1422224Y-1267856D01*
X1429590Y-1260744D01*
X1440512Y-1256934D01*
X1454990Y-1253378D01*
X1462356Y-1249822D01*
X1465912Y-1242456D01*
X1465912Y-1235090D01*
X1462356Y-1227978D01*
X1451434Y-1224168D01*
X1436702Y-1224168D01*
X2694480Y-2612509D02*
G01*
X2690924Y-2605143D01*
X2683558Y-2598031D01*
X2676446Y-2594221D01*
X2661714Y-2594221D01*
X2654602Y-2598031D01*
X2647236Y-2605143D01*
X2643680Y-2612509D01*
X2639870Y-2623431D01*
X2639870Y-2641465D01*
X2643680Y-2652387D01*
X2647236Y-2659753D01*
X2654602Y-2667119D01*
X2661714Y-2670675D01*
X2676446Y-2670675D01*
X2683558Y-2667119D01*
X2690924Y-2659753D01*
X2694480Y-2652387D01*
X2765854Y-2619621D02*
G01*
X2762298Y-2630543D01*
X2754932Y-2637909D01*
X2744010Y-2641465D01*
X2740454Y-2641465D01*
X2729532Y-2637909D01*
X2722166Y-2630543D01*
X2718610Y-2619621D01*
X2718610Y-2616065D01*
X2722166Y-2605143D01*
X2729532Y-2598031D01*
X2740454Y-2594221D01*
X2744010Y-2594221D01*
X2754932Y-2598031D01*
X2762298Y-2605143D01*
X2765854Y-2619621D01*
X2765854Y-2637909D01*
X2762298Y-2656197D01*
X2754932Y-2667119D01*
X2744010Y-2670675D01*
X2736644Y-2670675D01*
X2725722Y-2667119D01*
X2722166Y-2659753D01*
X1807850Y-2590233D02*
G01*
X1804548Y-2583883D01*
X1798198Y-2577533D01*
X1791848Y-2574485D01*
X1779148Y-2574485D01*
X1772798Y-2577533D01*
X1766448Y-2583883D01*
X1763146Y-2590233D01*
X1760098Y-2599885D01*
X1760098Y-2615633D01*
X1763146Y-2625285D01*
X1766448Y-2631635D01*
X1772798Y-2637985D01*
X1779148Y-2641287D01*
X1791848Y-2641287D01*
X1798198Y-2637985D01*
X1804548Y-2631635D01*
X1807850Y-2625285D01*
X1828678Y-2587185D02*
G01*
X1835028Y-2583883D01*
X1844680Y-2574485D01*
X1844680Y-2641287D01*
X1884812Y-2574485D02*
G01*
X1875160Y-2577533D01*
X1868810Y-2587185D01*
X1865508Y-2602933D01*
X1865508Y-2612585D01*
X1868810Y-2628333D01*
X1875160Y-2637985D01*
X1884812Y-2641287D01*
X1891162Y-2641287D01*
X1900560Y-2637985D01*
X1906910Y-2628333D01*
X1910212Y-2612585D01*
X1910212Y-2602933D01*
X1906910Y-2587185D01*
X1900560Y-2577533D01*
X1891162Y-2574485D01*
X1884812Y-2574485D01*
X594707Y156441D02*
G01*
X586579Y152377D01*
X578197Y143995D01*
X574133Y135867D01*
X574133Y119611D01*
X578197Y111483D01*
X586579Y103101D01*
X594707Y99037D01*
X606899Y94973D01*
X627473Y94973D01*
X639665Y99037D01*
X647793Y103101D01*
X655921Y111483D01*
X659985Y119611D01*
X659985Y135867D01*
X655921Y143995D01*
X647793Y152377D01*
X639665Y156441D01*
X590643Y183365D02*
G01*
X586579Y191493D01*
X574133Y203939D01*
X659985Y203939D01*
X590643Y230863D02*
G01*
X586579Y238991D01*
X574133Y251183D01*
X659985Y251183D01*
X197451Y-2219655D02*
G01*
X204817Y-2215845D01*
X212183Y-2208733D01*
X215739Y-2201367D01*
X215739Y-2186889D01*
X212183Y-2179523D01*
X204817Y-2172157D01*
X197451Y-2168601D01*
X186529Y-2165045D01*
X168495Y-2165045D01*
X157573Y-2168601D01*
X150207Y-2172157D01*
X143095Y-2179523D01*
X139285Y-2186889D01*
X139285Y-2201367D01*
X143095Y-2208733D01*
X150207Y-2215845D01*
X157573Y-2219655D01*
X201261Y-2243531D02*
G01*
X204817Y-2250897D01*
X215739Y-2261819D01*
X139285Y-2261819D01*
X197451Y-2289251D02*
G01*
X201261Y-2289251D01*
X208373Y-2293061D01*
X212183Y-2296617D01*
X215739Y-2303983D01*
X215739Y-2318461D01*
X212183Y-2325827D01*
X208373Y-2329383D01*
X201261Y-2332939D01*
X193895Y-2332939D01*
X186529Y-2329383D01*
X175607Y-2322017D01*
X139285Y-2285695D01*
X139285Y-2336749D01*
X2050061Y-1384167D02*
G01*
X2050061Y-1460621D01*
X2050061Y-1384167D02*
G01*
X2082827Y-1384167D01*
X2093749Y-1387977D01*
X2097305Y-1391533D01*
X2100861Y-1398899D01*
X2100861Y-1406011D01*
X2097305Y-1413377D01*
X2093749Y-1416933D01*
X2082827Y-1420743D01*
X2050061Y-1420743D01*
X2075461Y-1420743D02*
G01*
X2100861Y-1460621D01*
X2124991Y-1398899D02*
G01*
X2132103Y-1395089D01*
X2143025Y-1384167D01*
X2143025Y-1460621D01*
X840049Y-1369326D02*
G01*
X840049Y-1445526D01*
X840049Y-1369326D02*
G01*
X872815Y-1369326D01*
X883737Y-1372882D01*
X887293Y-1376438D01*
X890849Y-1383804D01*
X890849Y-1391170D01*
X887293Y-1398282D01*
X883737Y-1402092D01*
X872815Y-1405648D01*
X840049Y-1405648D01*
X865449Y-1405648D02*
G01*
X890849Y-1445526D01*
X918535Y-1387360D02*
G01*
X918535Y-1383804D01*
X922091Y-1376438D01*
X925901Y-1372882D01*
X933013Y-1369326D01*
X947745Y-1369326D01*
X954857Y-1372882D01*
X958667Y-1376438D01*
X962223Y-1383804D01*
X962223Y-1391170D01*
X958667Y-1398282D01*
X951301Y-1409204D01*
X914979Y-1445526D01*
X965779Y-1445526D01*
X2060072Y-2409357D02*
G01*
X2060072Y-2476159D01*
X2060072Y-2409357D02*
G01*
X2088520Y-2409357D01*
X2098172Y-2412659D01*
X2101474Y-2415707D01*
X2104522Y-2422057D01*
X2104522Y-2428407D01*
X2101474Y-2434757D01*
X2098172Y-2438059D01*
X2088520Y-2441107D01*
X2060072Y-2441107D01*
X2082170Y-2441107D02*
G01*
X2104522Y-2476159D01*
X2131954Y-2409357D02*
G01*
X2167006Y-2409357D01*
X2147702Y-2434757D01*
X2157354Y-2434757D01*
X2163704Y-2438059D01*
X2167006Y-2441107D01*
X2170054Y-2450759D01*
X2170054Y-2457109D01*
X2167006Y-2466507D01*
X2160656Y-2473111D01*
X2151004Y-2476159D01*
X2141352Y-2476159D01*
X2131954Y-2473111D01*
X2128652Y-2469809D01*
X2125604Y-2463459D01*
X1120023Y-2389146D02*
G01*
X1120023Y-2465600D01*
X1120023Y-2389146D02*
G01*
X1152789Y-2389146D01*
X1163711Y-2392956D01*
X1167267Y-2396512D01*
X1170823Y-2403878D01*
X1170823Y-2410990D01*
X1167267Y-2418356D01*
X1163711Y-2421912D01*
X1152789Y-2425722D01*
X1120023Y-2425722D01*
X1145423Y-2425722D02*
G01*
X1170823Y-2465600D01*
X1231275Y-2389146D02*
G01*
X1194953Y-2440200D01*
X1249563Y-2440200D01*
X1231275Y-2389146D02*
G01*
X1231275Y-2465600D01*
X2079147Y-1069896D02*
G01*
X2155601Y-1069896D01*
X2079147Y-1069896D02*
G01*
X2079147Y-1037384D01*
X2082957Y-1026462D01*
X2086513Y-1022652D01*
X2093879Y-1019096D01*
X2100991Y-1019096D01*
X2108357Y-1022652D01*
X2111913Y-1026462D01*
X2115723Y-1037384D01*
X2115723Y-1069896D01*
X2115723Y-1044496D02*
G01*
X2155601Y-1019096D01*
X2079147Y-951532D02*
G01*
X2079147Y-987854D01*
X2111913Y-991410D01*
X2108357Y-987854D01*
X2104801Y-976932D01*
X2104801Y-966010D01*
X2108357Y-955088D01*
X2115723Y-947722D01*
X2126645Y-944166D01*
X2133757Y-944166D01*
X2144679Y-947722D01*
X2152045Y-955088D01*
X2155601Y-966010D01*
X2155601Y-976932D01*
X2152045Y-987854D01*
X2148235Y-991410D01*
X2141123Y-994966D01*
X2519248Y-1094872D02*
G01*
X2595702Y-1094872D01*
X2519248Y-1094872D02*
G01*
X2519248Y-1062360D01*
X2522804Y-1051438D01*
X2526614Y-1047628D01*
X2533726Y-1044072D01*
X2541092Y-1044072D01*
X2548458Y-1047628D01*
X2552014Y-1051438D01*
X2555570Y-1062360D01*
X2555570Y-1094872D01*
X2555570Y-1069472D02*
G01*
X2595702Y-1044072D01*
X2530170Y-976508D02*
G01*
X2522804Y-980064D01*
X2519248Y-990986D01*
X2519248Y-998352D01*
X2522804Y-1009274D01*
X2533726Y-1016386D01*
X2552014Y-1020196D01*
X2570302Y-1020196D01*
X2584780Y-1016386D01*
X2591892Y-1009274D01*
X2595702Y-998352D01*
X2595702Y-994542D01*
X2591892Y-983620D01*
X2584780Y-976508D01*
X2573858Y-972698D01*
X2570302Y-972698D01*
X2559380Y-976508D01*
X2552014Y-983620D01*
X2548458Y-994542D01*
X2548458Y-998352D01*
X2552014Y-1009274D01*
X2559380Y-1016386D01*
X2570302Y-1020196D01*
X1314460Y-1065039D02*
G01*
X1381262Y-1065039D01*
X1314460Y-1065039D02*
G01*
X1314460Y-1036337D01*
X1317508Y-1026939D01*
X1320810Y-1023637D01*
X1327160Y-1020335D01*
X1333510Y-1020335D01*
X1339860Y-1023637D01*
X1342908Y-1026939D01*
X1346210Y-1036337D01*
X1346210Y-1065039D01*
X1346210Y-1042687D02*
G01*
X1381262Y-1020335D01*
X1314460Y-954803D02*
G01*
X1381262Y-986807D01*
X1314460Y-999507D02*
G01*
X1314460Y-954803D01*
X894252Y-1020099D02*
G01*
X970706Y-1020099D01*
X894252Y-1020099D02*
G01*
X894252Y-987333D01*
X897808Y-976411D01*
X901618Y-972601D01*
X908730Y-969045D01*
X916096Y-969045D01*
X923462Y-972601D01*
X927018Y-976411D01*
X930574Y-987333D01*
X930574Y-1020099D01*
X930574Y-994445D02*
G01*
X970706Y-969045D01*
X894252Y-926881D02*
G01*
X897808Y-937803D01*
X905174Y-941359D01*
X912540Y-941359D01*
X919652Y-937803D01*
X923462Y-930437D01*
X927018Y-915959D01*
X930574Y-905037D01*
X937940Y-897925D01*
X945306Y-894115D01*
X955974Y-894115D01*
X963340Y-897925D01*
X966896Y-901481D01*
X970706Y-912403D01*
X970706Y-926881D01*
X966896Y-937803D01*
X963340Y-941359D01*
X955974Y-945169D01*
X945306Y-945169D01*
X937940Y-941359D01*
X930574Y-934247D01*
X927018Y-923325D01*
X923462Y-908847D01*
X919652Y-901481D01*
X912540Y-897925D01*
X905174Y-897925D01*
X897808Y-901481D01*
X894252Y-912403D01*
X894252Y-926881D01*
X2534323Y-2910075D02*
G01*
X2610523Y-2910075D01*
X2534323Y-2910075D02*
G01*
X2534323Y-2877309D01*
X2537879Y-2866387D01*
X2541435Y-2862831D01*
X2548801Y-2859021D01*
X2556167Y-2859021D01*
X2563279Y-2862831D01*
X2567089Y-2866387D01*
X2570645Y-2877309D01*
X2570645Y-2910075D01*
X2570645Y-2884421D02*
G01*
X2610523Y-2859021D01*
X2559723Y-2787901D02*
G01*
X2570645Y-2791457D01*
X2578011Y-2798823D01*
X2581567Y-2809745D01*
X2581567Y-2813301D01*
X2578011Y-2824223D01*
X2570645Y-2831335D01*
X2559723Y-2835145D01*
X2556167Y-2835145D01*
X2545245Y-2831335D01*
X2537879Y-2824223D01*
X2534323Y-2813301D01*
X2534323Y-2809745D01*
X2537879Y-2798823D01*
X2545245Y-2791457D01*
X2559723Y-2787901D01*
X2578011Y-2787901D01*
X2596045Y-2791457D01*
X2606967Y-2798823D01*
X2610523Y-2809745D01*
X2610523Y-2816857D01*
X2606967Y-2827779D01*
X2599601Y-2831335D01*
X2089241Y-2924909D02*
G01*
X2165695Y-2924909D01*
X2089241Y-2924909D02*
G01*
X2089241Y-2892143D01*
X2092797Y-2881475D01*
X2096607Y-2877665D01*
X2103719Y-2874109D01*
X2111085Y-2874109D01*
X2118451Y-2877665D01*
X2122007Y-2881475D01*
X2125563Y-2892143D01*
X2125563Y-2924909D01*
X2125563Y-2899509D02*
G01*
X2165695Y-2874109D01*
X2103719Y-2849979D02*
G01*
X2100163Y-2842867D01*
X2089241Y-2831945D01*
X2165695Y-2831945D01*
X2089241Y-2785971D02*
G01*
X2092797Y-2796893D01*
X2103719Y-2804259D01*
X2122007Y-2807815D01*
X2132929Y-2807815D01*
X2150963Y-2804259D01*
X2161885Y-2796893D01*
X2165695Y-2785971D01*
X2165695Y-2778859D01*
X2161885Y-2767937D01*
X2150963Y-2760571D01*
X2132929Y-2757015D01*
X2122007Y-2757015D01*
X2103719Y-2760571D01*
X2092797Y-2767937D01*
X2089241Y-2778859D01*
X2089241Y-2785971D01*
X1149327Y-2914919D02*
G01*
X1225527Y-2914919D01*
X1149327Y-2914919D02*
G01*
X1149327Y-2882153D01*
X1152883Y-2871485D01*
X1156439Y-2867675D01*
X1163805Y-2864119D01*
X1171171Y-2864119D01*
X1178283Y-2867675D01*
X1182093Y-2871485D01*
X1185649Y-2882153D01*
X1185649Y-2914919D01*
X1185649Y-2889519D02*
G01*
X1225527Y-2864119D01*
X1163805Y-2839989D02*
G01*
X1160249Y-2832877D01*
X1149327Y-2821955D01*
X1225527Y-2821955D01*
X1163805Y-2797825D02*
G01*
X1160249Y-2790713D01*
X1149327Y-2779791D01*
X1225527Y-2779791D01*
X689251Y-2930095D02*
G01*
X765705Y-2930095D01*
X689251Y-2930095D02*
G01*
X689251Y-2897329D01*
X692807Y-2886407D01*
X696617Y-2882597D01*
X703729Y-2879041D01*
X711095Y-2879041D01*
X718461Y-2882597D01*
X722017Y-2886407D01*
X725573Y-2897329D01*
X725573Y-2930095D01*
X725573Y-2904441D02*
G01*
X765705Y-2879041D01*
X703729Y-2855165D02*
G01*
X700173Y-2847799D01*
X689251Y-2836877D01*
X765705Y-2836877D01*
X707539Y-2809191D02*
G01*
X703729Y-2809191D01*
X696617Y-2805635D01*
X692807Y-2802079D01*
X689251Y-2794713D01*
X689251Y-2780235D01*
X692807Y-2772869D01*
X696617Y-2769313D01*
X703729Y-2765757D01*
X711095Y-2765757D01*
X718461Y-2769313D01*
X729383Y-2776425D01*
X765705Y-2813001D01*
X765705Y-2761947D01*
X2659928Y-1379085D02*
G01*
X2659928Y-1455539D01*
X2659928Y-1379085D02*
G01*
X2692694Y-1379085D01*
X2703616Y-1382895D01*
X2707172Y-1386451D01*
X2710728Y-1393817D01*
X2710728Y-1400929D01*
X2707172Y-1408295D01*
X2703616Y-1411851D01*
X2692694Y-1415661D01*
X2659928Y-1415661D01*
X2685328Y-1415661D02*
G01*
X2710728Y-1455539D01*
X2734858Y-1393817D02*
G01*
X2742224Y-1390007D01*
X2752892Y-1379085D01*
X2752892Y-1455539D01*
X2784388Y-1379085D02*
G01*
X2824266Y-1379085D01*
X2802422Y-1408295D01*
X2813344Y-1408295D01*
X2820710Y-1411851D01*
X2824266Y-1415661D01*
X2827822Y-1426583D01*
X2827822Y-1433695D01*
X2824266Y-1444617D01*
X2816900Y-1451983D01*
X2806232Y-1455539D01*
X2795310Y-1455539D01*
X2784388Y-1451983D01*
X2780578Y-1448173D01*
X2777022Y-1441061D01*
X1320022Y-1379250D02*
G01*
X1320022Y-1455704D01*
X1320022Y-1379250D02*
G01*
X1352788Y-1379250D01*
X1363710Y-1382806D01*
X1367266Y-1386616D01*
X1370822Y-1393728D01*
X1370822Y-1401094D01*
X1367266Y-1408460D01*
X1363710Y-1412016D01*
X1352788Y-1415572D01*
X1320022Y-1415572D01*
X1345422Y-1415572D02*
G01*
X1370822Y-1455704D01*
X1394952Y-1393728D02*
G01*
X1402064Y-1390172D01*
X1412986Y-1379250D01*
X1412986Y-1455704D01*
X1473438Y-1379250D02*
G01*
X1437116Y-1430304D01*
X1491726Y-1430304D01*
X1473438Y-1379250D02*
G01*
X1473438Y-1455704D01*
X2620091Y-2424320D02*
G01*
X2620091Y-2500520D01*
X2620091Y-2424320D02*
G01*
X2652603Y-2424320D01*
X2663525Y-2427876D01*
X2667335Y-2431432D01*
X2670891Y-2438798D01*
X2670891Y-2446164D01*
X2667335Y-2453276D01*
X2663525Y-2457086D01*
X2652603Y-2460642D01*
X2620091Y-2460642D01*
X2645491Y-2460642D02*
G01*
X2670891Y-2500520D01*
X2695021Y-2438798D02*
G01*
X2702133Y-2435242D01*
X2713055Y-2424320D01*
X2713055Y-2500520D01*
X2780619Y-2424320D02*
G01*
X2744297Y-2424320D01*
X2740741Y-2457086D01*
X2744297Y-2453276D01*
X2755219Y-2449720D01*
X2766141Y-2449720D01*
X2777063Y-2453276D01*
X2784429Y-2460642D01*
X2787985Y-2471564D01*
X2787985Y-2478930D01*
X2784429Y-2489598D01*
X2777063Y-2496964D01*
X2766141Y-2500520D01*
X2755219Y-2500520D01*
X2744297Y-2496964D01*
X2740741Y-2493408D01*
X2737185Y-2486042D01*
X1774921Y-2404460D02*
G01*
X1774921Y-2471262D01*
X1774921Y-2404460D02*
G01*
X1803623Y-2404460D01*
X1813275Y-2407508D01*
X1816323Y-2410810D01*
X1819625Y-2417160D01*
X1819625Y-2423510D01*
X1816323Y-2429860D01*
X1813275Y-2432908D01*
X1803623Y-2436210D01*
X1774921Y-2436210D01*
X1797273Y-2436210D02*
G01*
X1819625Y-2471262D01*
X1840453Y-2417160D02*
G01*
X1846803Y-2413858D01*
X1856455Y-2404460D01*
X1856455Y-2471262D01*
X1915637Y-2413858D02*
G01*
X1912335Y-2407508D01*
X1902937Y-2404460D01*
X1896587Y-2404460D01*
X1886935Y-2407508D01*
X1880585Y-2417160D01*
X1877537Y-2432908D01*
X1877537Y-2448910D01*
X1880585Y-2461610D01*
X1886935Y-2467960D01*
X1896587Y-2471262D01*
X1899635Y-2471262D01*
X1909287Y-2467960D01*
X1915637Y-2461610D01*
X1918939Y-2452212D01*
X1918939Y-2448910D01*
X1915637Y-2439258D01*
X1909287Y-2432908D01*
X1899635Y-2429860D01*
X1896587Y-2429860D01*
X1886935Y-2432908D01*
X1880585Y-2439258D01*
X1877537Y-2448910D01*
X3164222Y-1099997D02*
G01*
X3240676Y-1099997D01*
X3164222Y-1099997D02*
G01*
X3164222Y-1067231D01*
X3167778Y-1056309D01*
X3171588Y-1052753D01*
X3178700Y-1049197D01*
X3186066Y-1049197D01*
X3193432Y-1052753D01*
X3196988Y-1056309D01*
X3200544Y-1067231D01*
X3200544Y-1099997D01*
X3200544Y-1074597D02*
G01*
X3240676Y-1049197D01*
X3178700Y-1025067D02*
G01*
X3175144Y-1017701D01*
X3164222Y-1007033D01*
X3240676Y-1007033D01*
X3164222Y-932103D02*
G01*
X3240676Y-968425D01*
X3164222Y-982903D02*
G01*
X3164222Y-932103D01*
X2744249Y-1134897D02*
G01*
X2820703Y-1134897D01*
X2744249Y-1134897D02*
G01*
X2744249Y-1102385D01*
X2747805Y-1091463D01*
X2751615Y-1087653D01*
X2758727Y-1084097D01*
X2766093Y-1084097D01*
X2773459Y-1087653D01*
X2777015Y-1091463D01*
X2780571Y-1102385D01*
X2780571Y-1134897D01*
X2780571Y-1109497D02*
G01*
X2820703Y-1084097D01*
X2758727Y-1059967D02*
G01*
X2755171Y-1052855D01*
X2744249Y-1041933D01*
X2820703Y-1041933D01*
X2744249Y-999769D02*
G01*
X2747805Y-1010691D01*
X2755171Y-1014247D01*
X2762537Y-1014247D01*
X2769649Y-1010691D01*
X2773459Y-1003325D01*
X2777015Y-988847D01*
X2780571Y-977925D01*
X2787937Y-970559D01*
X2795303Y-967003D01*
X2805971Y-967003D01*
X2813337Y-970559D01*
X2816893Y-974369D01*
X2820703Y-985291D01*
X2820703Y-999769D01*
X2816893Y-1010691D01*
X2813337Y-1014247D01*
X2805971Y-1017803D01*
X2795303Y-1017803D01*
X2787937Y-1014247D01*
X2780571Y-1006881D01*
X2777015Y-996213D01*
X2773459Y-981481D01*
X2769649Y-974369D01*
X2762537Y-970559D01*
X2755171Y-970559D01*
X2747805Y-974369D01*
X2744249Y-985291D01*
X2744249Y-999769D01*
X1404459Y-1069947D02*
G01*
X1471261Y-1069947D01*
X1404459Y-1069947D02*
G01*
X1404459Y-1041245D01*
X1407507Y-1031847D01*
X1410809Y-1028545D01*
X1417159Y-1025497D01*
X1423509Y-1025497D01*
X1429859Y-1028545D01*
X1432907Y-1031847D01*
X1436209Y-1041245D01*
X1436209Y-1069947D01*
X1436209Y-1047849D02*
G01*
X1471261Y-1025497D01*
X1417159Y-1004415D02*
G01*
X1413857Y-998065D01*
X1404459Y-988667D01*
X1471261Y-988667D01*
X1426557Y-926183D02*
G01*
X1436209Y-929485D01*
X1442559Y-935835D01*
X1445607Y-945233D01*
X1445607Y-948535D01*
X1442559Y-957933D01*
X1436209Y-964283D01*
X1426557Y-967585D01*
X1423509Y-967585D01*
X1413857Y-964283D01*
X1407507Y-957933D01*
X1404459Y-948535D01*
X1404459Y-945233D01*
X1407507Y-935835D01*
X1413857Y-929485D01*
X1426557Y-926183D01*
X1442559Y-926183D01*
X1458561Y-929485D01*
X1467959Y-935835D01*
X1471261Y-945233D01*
X1471261Y-951583D01*
X1467959Y-961235D01*
X1461609Y-964283D01*
X1819325Y-1064973D02*
G01*
X1895525Y-1064973D01*
X1819325Y-1064973D02*
G01*
X1819325Y-1032207D01*
X1822881Y-1021285D01*
X1826437Y-1017729D01*
X1833803Y-1014173D01*
X1841169Y-1014173D01*
X1848281Y-1017729D01*
X1852091Y-1021285D01*
X1855647Y-1032207D01*
X1855647Y-1064973D01*
X1855647Y-1039573D02*
G01*
X1895525Y-1014173D01*
X1837359Y-986487D02*
G01*
X1833803Y-986487D01*
X1826437Y-982931D01*
X1822881Y-979121D01*
X1819325Y-972009D01*
X1819325Y-957277D01*
X1822881Y-950165D01*
X1826437Y-946355D01*
X1833803Y-942799D01*
X1841169Y-942799D01*
X1848281Y-946355D01*
X1859203Y-953721D01*
X1895525Y-990043D01*
X1895525Y-939243D01*
X1819325Y-893269D02*
G01*
X1822881Y-904191D01*
X1833803Y-911557D01*
X1852091Y-915113D01*
X1863013Y-915113D01*
X1881047Y-911557D01*
X1891969Y-904191D01*
X1895525Y-893269D01*
X1895525Y-886157D01*
X1891969Y-875235D01*
X1881047Y-867869D01*
X1863013Y-864313D01*
X1852091Y-864313D01*
X1833803Y-867869D01*
X1822881Y-875235D01*
X1819325Y-886157D01*
X1819325Y-893269D01*
X2704279Y-2925069D02*
G01*
X2780733Y-2925069D01*
X2704279Y-2925069D02*
G01*
X2704279Y-2892303D01*
X2707835Y-2881381D01*
X2711645Y-2877825D01*
X2718757Y-2874015D01*
X2726123Y-2874015D01*
X2733235Y-2877825D01*
X2737045Y-2881381D01*
X2740601Y-2892303D01*
X2740601Y-2925069D01*
X2740601Y-2899415D02*
G01*
X2780733Y-2874015D01*
X2722567Y-2846329D02*
G01*
X2718757Y-2846329D01*
X2711645Y-2842773D01*
X2707835Y-2839217D01*
X2704279Y-2831851D01*
X2704279Y-2817373D01*
X2707835Y-2810007D01*
X2711645Y-2806451D01*
X2718757Y-2802895D01*
X2726123Y-2802895D01*
X2733235Y-2806451D01*
X2744157Y-2813817D01*
X2780733Y-2850139D01*
X2780733Y-2799085D01*
X2718757Y-2775209D02*
G01*
X2715201Y-2767843D01*
X2704279Y-2756921D01*
X2780733Y-2756921D01*
X3179234Y-2965058D02*
G01*
X3255688Y-2965058D01*
X3179234Y-2965058D02*
G01*
X3179234Y-2932292D01*
X3182790Y-2921370D01*
X3186600Y-2917814D01*
X3193712Y-2914004D01*
X3201078Y-2914004D01*
X3208444Y-2917814D01*
X3212000Y-2921370D01*
X3215556Y-2932292D01*
X3215556Y-2965058D01*
X3215556Y-2939658D02*
G01*
X3255688Y-2914004D01*
X3197522Y-2886572D02*
G01*
X3193712Y-2886572D01*
X3186600Y-2882762D01*
X3182790Y-2879206D01*
X3179234Y-2871840D01*
X3179234Y-2857362D01*
X3182790Y-2849996D01*
X3186600Y-2846440D01*
X3193712Y-2842884D01*
X3201078Y-2842884D01*
X3208444Y-2846440D01*
X3219366Y-2853806D01*
X3255688Y-2890128D01*
X3255688Y-2839074D01*
X3197522Y-2811642D02*
G01*
X3193712Y-2811642D01*
X3186600Y-2807832D01*
X3182790Y-2804276D01*
X3179234Y-2796910D01*
X3179234Y-2782432D01*
X3182790Y-2775066D01*
X3186600Y-2771510D01*
X3193712Y-2767954D01*
X3201078Y-2767954D01*
X3208444Y-2771510D01*
X3219366Y-2778876D01*
X3255688Y-2815198D01*
X3255688Y-2764144D01*
X1814385Y-2935020D02*
G01*
X1881187Y-2935020D01*
X1814385Y-2935020D02*
G01*
X1814385Y-2906318D01*
X1817433Y-2896920D01*
X1820735Y-2893618D01*
X1827085Y-2890570D01*
X1833435Y-2890570D01*
X1839785Y-2893618D01*
X1843087Y-2896920D01*
X1846135Y-2906318D01*
X1846135Y-2935020D01*
X1846135Y-2912668D02*
G01*
X1881187Y-2890570D01*
X1830387Y-2866186D02*
G01*
X1827085Y-2866186D01*
X1820735Y-2863138D01*
X1817433Y-2859836D01*
X1814385Y-2853486D01*
X1814385Y-2840786D01*
X1817433Y-2834436D01*
X1820735Y-2831388D01*
X1827085Y-2828086D01*
X1833435Y-2828086D01*
X1839785Y-2831388D01*
X1849437Y-2837738D01*
X1881187Y-2869488D01*
X1881187Y-2824784D01*
X1814385Y-2797606D02*
G01*
X1814385Y-2762554D01*
X1839785Y-2781604D01*
X1839785Y-2772206D01*
X1843087Y-2765602D01*
X1846135Y-2762554D01*
X1855787Y-2759252D01*
X1862137Y-2759252D01*
X1871535Y-2762554D01*
X1877885Y-2768904D01*
X1881187Y-2778556D01*
X1881187Y-2787954D01*
X1877885Y-2797606D01*
X1874837Y-2800654D01*
X1868487Y-2803956D01*
X1349199Y-2935053D02*
G01*
X1425653Y-2935053D01*
X1349199Y-2935053D02*
G01*
X1349199Y-2902287D01*
X1353009Y-2891365D01*
X1356565Y-2887809D01*
X1363931Y-2883999D01*
X1371043Y-2883999D01*
X1378409Y-2887809D01*
X1381965Y-2891365D01*
X1385521Y-2902287D01*
X1385521Y-2935053D01*
X1385521Y-2909653D02*
G01*
X1425653Y-2883999D01*
X1367487Y-2856567D02*
G01*
X1363931Y-2856567D01*
X1356565Y-2852757D01*
X1353009Y-2849201D01*
X1349199Y-2841835D01*
X1349199Y-2827357D01*
X1353009Y-2819991D01*
X1356565Y-2816435D01*
X1363931Y-2812879D01*
X1371043Y-2812879D01*
X1378409Y-2816435D01*
X1389331Y-2823801D01*
X1425653Y-2860123D01*
X1425653Y-2809069D01*
X1349199Y-2748871D02*
G01*
X1400253Y-2785193D01*
X1400253Y-2730583D01*
X1349199Y-2748871D02*
G01*
X1425653Y-2748871D01*
X144950Y-2869171D02*
G01*
X144950Y-2945625D01*
X144950Y-2869171D02*
G01*
X177716Y-2869171D01*
X188638Y-2872981D01*
X192194Y-2876537D01*
X196004Y-2883903D01*
X196004Y-2891015D01*
X192194Y-2898381D01*
X188638Y-2901937D01*
X177716Y-2905747D01*
X144950Y-2905747D01*
X170350Y-2905747D02*
G01*
X196004Y-2945625D01*
X223436Y-2887459D02*
G01*
X223436Y-2883903D01*
X227246Y-2876537D01*
X230802Y-2872981D01*
X238168Y-2869171D01*
X252646Y-2869171D01*
X260012Y-2872981D01*
X263568Y-2876537D01*
X267124Y-2883903D01*
X267124Y-2891015D01*
X263568Y-2898381D01*
X256202Y-2909303D01*
X219880Y-2945625D01*
X270934Y-2945625D01*
X338498Y-2869171D02*
G01*
X302176Y-2869171D01*
X298366Y-2901937D01*
X302176Y-2898381D01*
X313098Y-2894825D01*
X324020Y-2894825D01*
X334942Y-2898381D01*
X342054Y-2905747D01*
X345610Y-2916415D01*
X345610Y-2923781D01*
X342054Y-2934703D01*
X334942Y-2942069D01*
X324020Y-2945625D01*
X313098Y-2945625D01*
X302176Y-2942069D01*
X298366Y-2938259D01*
X294810Y-2931147D01*
X3149018Y-1960024D02*
G01*
X3217344Y-1960024D01*
X3231060Y-1955452D01*
X3239950Y-1946308D01*
X3244522Y-1932592D01*
X3244522Y-1923702D01*
X3239950Y-1909986D01*
X3231060Y-1900842D01*
X3217344Y-1896270D01*
X3149018Y-1896270D01*
X3167306Y-1866298D02*
G01*
X3162734Y-1857154D01*
X3149018Y-1843692D01*
X3244522Y-1843692D01*
X689785Y-1969996D02*
G01*
X767509Y-1969996D01*
X783257Y-1964916D01*
X793671Y-1954502D01*
X798751Y-1938754D01*
X798751Y-1928340D01*
X793671Y-1912846D01*
X783257Y-1902432D01*
X767509Y-1897352D01*
X689785Y-1897352D01*
X715693Y-1857728D02*
G01*
X710359Y-1857728D01*
X699945Y-1852648D01*
X694865Y-1847314D01*
X689785Y-1836900D01*
X689785Y-1816326D01*
X694865Y-1805912D01*
X699945Y-1800578D01*
X710359Y-1795498D01*
X720773Y-1795498D01*
X731187Y-1800578D01*
X746935Y-1810992D01*
X798751Y-1863062D01*
X798751Y-1790164D01*
X1918990Y104891D02*
G01*
X1987316Y104891D01*
X2000778Y109463D01*
X2009922Y118607D01*
X2014494Y132323D01*
X2014494Y141467D01*
X2009922Y154929D01*
X2000778Y164073D01*
X1987316Y168645D01*
X1918990Y168645D01*
X1918990Y207761D02*
G01*
X1918990Y257799D01*
X1955566Y230367D01*
X1955566Y244083D01*
X1959884Y253227D01*
X1964456Y257799D01*
X1978172Y262371D01*
X1987316Y262371D01*
X2000778Y257799D01*
X2009922Y248655D01*
X2014494Y234939D01*
X2014494Y221477D01*
X2009922Y207761D01*
X2005350Y203189D01*
X1996460Y198617D01*
X565048Y-2820923D02*
G01*
X565048Y-2752852D01*
X560476Y-2739136D01*
X551586Y-2729992D01*
X537870Y-2725420D01*
X528726Y-2725420D01*
X515010Y-2729992D01*
X506120Y-2739136D01*
X501548Y-2752852D01*
X501548Y-2820923D01*
X426110Y-2820923D02*
G01*
X471576Y-2757423D01*
X403250Y-2757423D01*
X426110Y-2820923D02*
G01*
X426110Y-2725420D01*
X2739430Y-1252565D02*
G01*
X2735874Y-1245199D01*
X2728508Y-1237833D01*
X2721396Y-1234277D01*
X2706918Y-1234277D01*
X2699552Y-1237833D01*
X2692186Y-1245199D01*
X2688630Y-1252565D01*
X2685074Y-1263487D01*
X2685074Y-1281521D01*
X2688630Y-1292443D01*
X2692186Y-1299809D01*
X2699552Y-1306921D01*
X2706918Y-1310731D01*
X2721396Y-1310731D01*
X2728508Y-1306921D01*
X2735874Y-1299809D01*
X2739430Y-1292443D01*
X2814360Y-1234277D02*
G01*
X2778038Y-1310731D01*
X2763560Y-1234277D02*
G01*
X2814360Y-1234277D01*
D17*
X2149995Y-1934984D02*
G01*
X2149995Y-1874989D01*
X2129993Y-1919973D02*
G01*
X2069993Y-1919973D01*
X2129998Y-1889978D02*
G01*
X2069998Y-1889978D01*
X2049995Y-1934997D02*
G01*
X2049995Y-1874994D01*
X1935022Y-1925081D02*
G01*
X1935022Y-1865086D01*
X1915020Y-1910069D02*
G01*
X1855020Y-1910069D01*
X1915025Y-1880074D02*
G01*
X1855025Y-1880074D01*
X1835022Y-1925093D02*
G01*
X1835022Y-1865091D01*
X2369982Y-1214998D02*
G01*
X2309987Y-1214998D01*
X2354971Y-1235001D02*
G01*
X2354971Y-1295001D01*
X2324976Y-1234996D02*
G01*
X2324976Y-1294996D01*
X2369995Y-1314998D02*
G01*
X2309992Y-1314998D01*
X1179984Y-1199997D02*
G01*
X1119990Y-1199997D01*
X1164973Y-1220000D02*
G01*
X1164973Y-1279999D01*
X1134978Y-1219995D02*
G01*
X1134978Y-1279994D01*
X1179997Y-1299997D02*
G01*
X1119995Y-1299997D01*
X2384983Y-2554996D02*
G01*
X2324988Y-2554996D01*
X2369972Y-2574998D02*
G01*
X2369972Y-2634998D01*
X2339977Y-2574993D02*
G01*
X2339977Y-2634993D01*
X2384996Y-2654995D02*
G01*
X2324994Y-2654995D01*
X974956Y-2549690D02*
G01*
X914961Y-2549690D01*
X959944Y-2569692D02*
G01*
X959944Y-2629692D01*
X929949Y-2569687D02*
G01*
X929949Y-2629687D01*
X974968Y-2649689D02*
G01*
X914966Y-2649689D01*
X1610009Y-1309997D02*
G01*
X1670004Y-1309997D01*
X1625020Y-1289994D02*
G01*
X1625020Y-1229995D01*
X1655015Y-1289999D02*
G01*
X1655015Y-1230000D01*
X1609996Y-1209997D02*
G01*
X1669999Y-1209997D01*
X2925008Y-2679994D02*
G01*
X2985002Y-2679994D01*
X2940019Y-2659992D02*
G01*
X2940019Y-2599992D01*
X2970014Y-2659997D02*
G01*
X2970014Y-2599997D01*
X2924995Y-2579994D02*
G01*
X2984997Y-2579994D01*
X1570047Y-2659849D02*
G01*
X1630042Y-2659849D01*
X1585059Y-2639847D02*
G01*
X1585059Y-2579847D01*
X1615053Y-2639852D02*
G01*
X1615053Y-2579852D01*
X1570034Y-2559850D02*
G01*
X1630037Y-2559850D01*
X804976Y159943D02*
G01*
X804976Y219938D01*
X784974Y174955D02*
G01*
X724974Y174955D01*
X784979Y204950D02*
G01*
X724979Y204950D01*
X704977Y159931D02*
G01*
X704977Y219933D01*
X125348Y-2484612D02*
G01*
X125348Y-2544607D01*
X145351Y-2499624D02*
G01*
X205351Y-2499624D01*
X145346Y-2529619D02*
G01*
X205346Y-2529619D01*
X225348Y-2484600D02*
G01*
X225348Y-2544602D01*
X2369995Y-1464995D02*
G01*
X2309995Y-1464995D01*
X2369985Y-1364995D02*
G01*
X2309985Y-1364995D01*
X1169997Y-1459994D02*
G01*
X1109997Y-1459994D01*
X1169987Y-1359994D02*
G01*
X1109987Y-1359994D01*
X2374996Y-2489992D02*
G01*
X2314996Y-2489992D01*
X2374986Y-2389992D02*
G01*
X2314986Y-2389992D01*
X974945Y-2474681D02*
G01*
X914946Y-2474681D01*
X974935Y-2374681D02*
G01*
X914935Y-2374681D01*
X2304994Y-1009997D02*
G01*
X2304994Y-1069997D01*
X2204994Y-1010008D02*
G01*
X2204994Y-1070008D01*
X2474993Y-1004999D02*
G01*
X2474993Y-1064999D01*
X2374993Y-1005009D02*
G01*
X2374993Y-1065009D01*
X1284996Y-1004999D02*
G01*
X1284996Y-1064999D01*
X1184996Y-1005009D02*
G01*
X1184996Y-1065009D01*
X1104996Y-999997D02*
G01*
X1104996Y-1059997D01*
X1004996Y-1000008D02*
G01*
X1004996Y-1060008D01*
X2389997Y-2859994D02*
G01*
X2389997Y-2799994D01*
X2489997Y-2859984D02*
G01*
X2489997Y-2799984D01*
X2209998Y-2854995D02*
G01*
X2209998Y-2794995D01*
X2309997Y-2854985D02*
G01*
X2309997Y-2794985D01*
X995024Y-2884705D02*
G01*
X995024Y-2824706D01*
X1095024Y-2884695D02*
G01*
X1095024Y-2824695D01*
X810112Y-2884705D02*
G01*
X810112Y-2824706D01*
X910112Y-2884695D02*
G01*
X910112Y-2824695D01*
X2969994Y-1359999D02*
G01*
X3029993Y-1359999D01*
X2970004Y-1459999D02*
G01*
X3030004Y-1459999D01*
X1609996Y-1359999D02*
G01*
X1669996Y-1359999D01*
X1610006Y-1459999D02*
G01*
X1670006Y-1459999D01*
X2944995Y-2409997D02*
G01*
X3004995Y-2409997D01*
X2945005Y-2509997D02*
G01*
X3005005Y-2509997D01*
X1570012Y-2384846D02*
G01*
X1630011Y-2384846D01*
X1570022Y-2484846D02*
G01*
X1630022Y-2484846D01*
X3139991Y-1009997D02*
G01*
X3139991Y-1069997D01*
X3039991Y-1010008D02*
G01*
X3039991Y-1070008D01*
X2959991Y-1009997D02*
G01*
X2959991Y-1069997D01*
X2859991Y-1010008D02*
G01*
X2859991Y-1070008D01*
X1604995Y-1009997D02*
G01*
X1604995Y-1069997D01*
X1504995Y-1010008D02*
G01*
X1504995Y-1070008D01*
X1769993Y-1004999D02*
G01*
X1769993Y-1064999D01*
X1669994Y-1005009D02*
G01*
X1669994Y-1065009D01*
X2829996Y-2879994D02*
G01*
X2829996Y-2819994D01*
X2929996Y-2879984D02*
G01*
X2929996Y-2819984D01*
X3014997Y-2879994D02*
G01*
X3014997Y-2819994D01*
X3114997Y-2879984D02*
G01*
X3114997Y-2819984D01*
X1655170Y-2879879D02*
G01*
X1655170Y-2819880D01*
X1755170Y-2879869D02*
G01*
X1755170Y-2819869D01*
X1470004Y-2879879D02*
G01*
X1470004Y-2819880D01*
X1570004Y-2879869D02*
G01*
X1570004Y-2819869D01*
X214922Y-2715046D02*
G01*
X274921Y-2715046D01*
X214932Y-2815046D02*
G01*
X274932Y-2815046D01*
D15*
X2224874Y-2047138D02*
G01*
X2224874Y-1742856D01*
X3105116Y-1742856D01*
X3105116Y-2047138D01*
X2224874Y-2047138D01*
X869756Y-2047232D02*
G01*
X869756Y-1742950D01*
X1749999Y-1742950D01*
X1749999Y-2047232D01*
X869756Y-2047232D01*
X877361Y32964D02*
G01*
X877361Y337245D01*
X1882602Y337245D01*
X1882602Y32964D01*
X877361Y32964D01*
D18*
X585048Y-2355110D02*
G01*
X585048Y-2456990D01*
X405046Y-2668221D02*
G01*
X405046Y-2675110D01*
X405046Y-2478229D02*
G01*
X405046Y-2551986D01*
X405046Y-2355110D02*
G01*
X405046Y-2361994D01*
X585048Y-2675110D02*
G01*
X405046Y-2675110D01*
X585048Y-2355110D02*
G01*
X405046Y-2355110D01*
X585048Y-2573225D02*
G01*
X585048Y-2675110D01*
D17*
X2975008Y-1314998D02*
G01*
X3035002Y-1314998D01*
X2990019Y-1294996D02*
G01*
X2990019Y-1234996D01*
X3020014Y-1295001D02*
G01*
X3020014Y-1235001D01*
X2974995Y-1214998D02*
G01*
X3034997Y-1214998D01*
D19*
G75*
G01
X2299005Y-1971904D02*
G03X2299005Y-1971904I-15011J0D01*
G75*
G01
X2225065Y-2171903D02*
G03X2225065Y-2171903I-15011J0D01*
G75*
G01
X943889Y-1972005D02*
G03X943889Y-1972005I-15011J0D01*
G75*
G01
X869950Y-2172005D02*
G03X869950Y-2172005I-15011J0D01*
G75*
G01
X950493Y108204D02*
G03X950493Y108204I-15011J0D01*
G75*
G01
X874293Y-81585D02*
G03X874293Y-81585I-15011J0D01*
G36*
X2869996Y670001D02*
G01*
X2899994Y670001D01*
X2899994Y-29997D01*
X2869996Y-29997D01*
G37*
G36*
X2619984Y670001D02*
G01*
X2649981Y670001D01*
X2649981Y-24993D01*
X2619984Y-24993D01*
G37*
G36*
X2369997Y670001D02*
G01*
X2399995Y670001D01*
X2399995Y-19989D01*
X2369997Y-19989D01*
G37*
G36*
X2110003Y670001D02*
G01*
X2140000Y670001D01*
X2140000Y-24993D01*
X2110003Y-24993D01*
G37*
G36*
X3124987Y670001D02*
G01*
X3154984Y670001D01*
X3154984Y-35001D01*
X3124987Y-35001D01*
G37*
G36*
X2110003Y0D02*
G01*
X2899994Y0D01*
X2899994Y-35001D01*
X2110003Y-35001D01*
G37*
G36*
X2875000Y-5003D02*
G01*
X3152495Y-5003D01*
X3152495Y-35001D01*
X2875000Y-35001D01*
G37*
M02*
