G04 Layer: TopPasteMaskLayer*
G04 Panelize: , Column: 5, Row: 1, Board Size: 33mm x 44.75mm, Panelized Board Size: 173mm x 44.75mm*
G04 EasyEDA v6.5.51, 2025-08-29 13:19:12*
G04 ee4e1d7ef05e477ab0e75e15892c94f3,14c8f2514d444a3a831de9b613ea4171,10*
G04 Gerber Generator version 0.2*
G04 Scale: 100 percent, Rotated: No, Reflected: No *
G04 Dimensions in millimeters *
G04 leading zeros omitted , absolute positions ,4 integer and 5 decimal *
%FSLAX45Y45*%
%MOMM*%

%ADD10R,0.9000X0.7000*%
%ADD11R,0.7000X0.9000*%
%ADD12O,0.573989X2.037994*%
%ADD13O,0.602005X1.970989*%
%ADD14R,1.2500X0.7000*%
%ADD15R,0.0123X0.7000*%

%LPD*%
D10*
G01*
X2099995Y-1989988D03*
G01*
X2099995Y-1819986D03*
G01*
X1885035Y-1980107D03*
G01*
X1885035Y-1810105D03*
D11*
G01*
X2424988Y-1264996D03*
G01*
X2254986Y-1264996D03*
G01*
X1234998Y-1249984D03*
G01*
X1064996Y-1249984D03*
G01*
X2440000Y-2604998D03*
G01*
X2269997Y-2604998D03*
G01*
X1029970Y-2599689D03*
G01*
X859967Y-2599689D03*
G01*
X1554987Y-1259992D03*
G01*
X1724990Y-1259992D03*
G01*
X2869996Y-2629992D03*
G01*
X3039999Y-2629992D03*
G01*
X1515033Y-2609850D03*
G01*
X1685036Y-2609850D03*
D10*
G01*
X754989Y104927D03*
G01*
X754989Y274929D03*
G01*
X175361Y-2429611D03*
G01*
X175361Y-2599588D03*
D11*
G01*
X2254986Y-1415008D03*
G01*
X2424988Y-1415008D03*
G01*
X1054988Y-1410004D03*
G01*
X1224991Y-1410004D03*
G01*
X2259990Y-2440000D03*
G01*
X2429992Y-2440000D03*
G01*
X859942Y-2424684D03*
G01*
X1029944Y-2424684D03*
D10*
G01*
X2254986Y-1124991D03*
G01*
X2254986Y-954989D03*
G01*
X2424988Y-1120012D03*
G01*
X2424988Y-950010D03*
G01*
X1234998Y-1120012D03*
G01*
X1234998Y-950010D03*
G01*
X1054988Y-1115009D03*
G01*
X1054988Y-945006D03*
G01*
X2440000Y-2745003D03*
G01*
X2440000Y-2915005D03*
G01*
X2259990Y-2739999D03*
G01*
X2259990Y-2910001D03*
G01*
X1045032Y-2769717D03*
G01*
X1045032Y-2939719D03*
G01*
X860120Y-2769717D03*
G01*
X860120Y-2939719D03*
D11*
G01*
X3085007Y-1410004D03*
G01*
X2915005Y-1410004D03*
G01*
X1724990Y-1410004D03*
G01*
X1554987Y-1410004D03*
G01*
X3059988Y-2459989D03*
G01*
X2889986Y-2459989D03*
G01*
X1685010Y-2434844D03*
G01*
X1515008Y-2434844D03*
D10*
G01*
X3089986Y-1124991D03*
G01*
X3089986Y-954989D03*
G01*
X2910001Y-1124991D03*
G01*
X2910001Y-954989D03*
G01*
X1554987Y-1124991D03*
G01*
X1554987Y-954989D03*
G01*
X1719986Y-1120012D03*
G01*
X1719986Y-950010D03*
G01*
X2880004Y-2764993D03*
G01*
X2880004Y-2934995D03*
G01*
X3064992Y-2764993D03*
G01*
X3064992Y-2934995D03*
G01*
X1705178Y-2764891D03*
G01*
X1705178Y-2934893D03*
G01*
X1520012Y-2764891D03*
G01*
X1520012Y-2934893D03*
D11*
G01*
X329920Y-2765044D03*
G01*
X159918Y-2765044D03*
D12*
G01*
X2283993Y-2171903D03*
G01*
X2410993Y-2171903D03*
G01*
X2537993Y-2171903D03*
G01*
X2664993Y-2171903D03*
G01*
X2791993Y-2171903D03*
G01*
X2918993Y-2171903D03*
G01*
X3045993Y-2171903D03*
G01*
X2283993Y-1618081D03*
G01*
X2410993Y-1618081D03*
G01*
X2537993Y-1618081D03*
G01*
X2664993Y-1618081D03*
G01*
X2791993Y-1618081D03*
G01*
X2918993Y-1618081D03*
G01*
X3045993Y-1618081D03*
G01*
X928878Y-2172004D03*
G01*
X1055878Y-2172004D03*
G01*
X1182878Y-2172004D03*
G01*
X1309878Y-2172004D03*
G01*
X1436878Y-2172004D03*
G01*
X1563878Y-2172004D03*
G01*
X1690878Y-2172004D03*
G01*
X928878Y-1618183D03*
G01*
X1055878Y-1618183D03*
G01*
X1182878Y-1618183D03*
G01*
X1309878Y-1618183D03*
G01*
X1436878Y-1618183D03*
G01*
X1563878Y-1618183D03*
G01*
X1690878Y-1618183D03*
D13*
G01*
X935481Y-88442D03*
G01*
X1062481Y-88442D03*
G01*
X1189481Y-88442D03*
G01*
X1316481Y-88442D03*
G01*
X1443481Y-88442D03*
G01*
X1570481Y-88442D03*
G01*
X1697481Y-88442D03*
G01*
X1824481Y-88442D03*
G01*
X935481Y458673D03*
G01*
X1062481Y458673D03*
G01*
X1189481Y458673D03*
G01*
X1316481Y458673D03*
G01*
X1443481Y458673D03*
G01*
X1570481Y458673D03*
G01*
X1697481Y458673D03*
G01*
X1824481Y458673D03*
D14*
G01*
X370078Y-2420112D03*
G01*
X370078Y-2610104D03*
G01*
X620013Y-2515107D03*
D11*
G01*
X2919984Y-1264996D03*
G01*
X3089986Y-1264996D03*
M02*
